<svg id="Layer_1" xmlns="http://www.w3.org/2000/svg" viewBox="0 0 1366 768"><style>.st0{fill:#fff}.st1{fill:#a2b3c4}</style><path class="st0" d="M952.975 458h-579l-4-56 1.229-176.118L373.975 165h579l2.759 60 1.241 177z"/><path class="st1" d="M955.734 225l-2.76-60H776.639l-6.806-21.3C767 135 759.62 129 747.975 129h-169c-11.645 0-18.975 6-21.857 14.7l-6.807 21.3H373.975l-2.771 60.882L369.975 402l4 56h579l4-56-1.241-177zm-379.421-75.662c.627-.177 1.525-.338 2.663-.338h169c1.138 0 2.035.161 2.662.338L755.643 165H571.308l5.005-15.662zM950.182 455H376.768l-3.793-53.097 1.228-175.942L376.842 168H950.11l2.625 57.079 1.239 176.824L950.182 455z"/><path class="st1" d="M919.667 405.833c.067 0 .132.005.197.01.088.006.177.012.266.014l.309.007.559.037.245.015c.229.014.457.027.682.053l.224.025.002.008.628.098c.121.019.242.035.363.052.189.026.378.051.562.089l.21.043.003.017.616.154.268.066c.214.052.428.103.637.166l.248.075.001.008.599.209c.281.098.563.196.838.307l.3.121.488.222c.283.129.563.263.839.404l.459.235.301.171c.27.153.533.318.795.484l.537.339.002-.001.185.128c.2.138.392.287.584.435l.161.123.505.386.009-.005.171.142c.161.134.313.277.465.419l.224.208.468.429.014-.006.156.155c.14.139.27.288.401.436l.228.255.428.469.009-.003.144.173c.141.168.272.343.403.519l.166.22.384.504.003-.001.131.188c.152.219.293.444.435.67l.07.112.3.477.149.261c.154.27.298.544.439.822l.19.373.185.405c.129.283.255.566.371.856l.096.24.2.569.067.19c.081.23.163.459.234.694l.064.214-.006.005.155.615c.028.111.058.222.088.332.051.19.103.38.143.575l.043.214-.014.009.099.626.047.284c.035.211.071.422.095.637l.025.225-.007.004.043.633c.021.307.04.614.047.925l.009.433-.009.433a20.16 20.16 0 0 1-.047.925l-.043.633.007.004-.025.225c-.024.215-.06.426-.095.637l-.047.283-.099.626.014.009-.043.214c-.039.195-.091.384-.142.574-.03.111-.06.222-.088.333l-.155.615.005.004-.064.214c-.07.235-.152.465-.234.695l-.067.189-.2.57-.096.24c-.116.29-.242.573-.371.856l-.184.404-.19.373c-.141.277-.286.552-.439.822l-.148.26-.3.477-.07.111c-.142.226-.283.452-.436.672l-.131.188-.003-.001-.384.504-.166.22c-.131.175-.262.351-.403.519l-.144.173-.009-.003-.428.469c-.077.084-.152.169-.228.255-.131.148-.261.296-.401.436l-.156.155-.014-.006-.468.429-.224.208c-.153.143-.305.286-.465.419l-.171.142-.009-.005-.505.386-.161.123c-.192.148-.385.296-.584.435l-.185.128-.002-.001-.537.339c-.262.165-.525.33-.795.483l-.3.17-.46.235a19.6 19.6 0 0 1-.839.404l-.49.222-.299.12c-.276.111-.558.209-.876.32l-.599.209-.001.006-.212.064c-.209.063-.423.114-.637.166l-.268.066-.616.154-.003.017-.21.043c-.185.038-.373.063-.562.089-.121.017-.243.033-.363.052l-.628.098-.002.008-.224.025c-.225.025-.454.039-.682.053l-.245.015-.559.037-.309.007c-.09.002-.178.008-.266.014-.065.005-.131.01-.197.01-.067 0-.132-.005-.197-.01a5.845 5.845 0 0 0-.266-.014l-.309-.007-.559-.037-.245-.015c-.229-.014-.457-.027-.682-.053l-.224-.025-.002-.007-.628-.098a14.565 14.565 0 0 0-.365-.052c-.188-.026-.377-.051-.561-.088l-.21-.043-.003-.017-.616-.154-.269-.066c-.213-.052-.427-.103-.635-.166l-.248-.075-.001-.008-.599-.209c-.281-.098-.563-.196-.838-.307l-.302-.122-.487-.221a20.874 20.874 0 0 1-.839-.404l-.46-.235-.3-.17a18.92 18.92 0 0 1-.795-.484l-.537-.339-.002.001-.185-.128c-.2-.138-.391-.286-.583-.434l-.162-.124-.505-.386-.009.005-.171-.142c-.161-.134-.313-.277-.465-.42l-.224-.208-.468-.429-.014.006-.156-.155c-.139-.139-.269-.287-.4-.434-.076-.086-.152-.172-.229-.256l-.428-.468-.009.003-.145-.173c-.14-.168-.271-.343-.403-.518l-.166-.22-.384-.504-.003.001-.131-.188a16.787 16.787 0 0 1-.436-.672l-.07-.111-.3-.476-.149-.262c-.154-.27-.298-.544-.439-.822l-.19-.373-.184-.404a19.724 19.724 0 0 1-.371-.856l-.097-.242-.199-.567-.068-.192c-.081-.229-.163-.458-.233-.692l-.064-.214.005-.004-.155-.615c-.028-.112-.058-.222-.088-.333-.051-.19-.103-.38-.142-.574l-.043-.214.014-.009-.099-.626-.047-.284c-.035-.211-.071-.422-.095-.637l-.025-.225.007-.004-.043-.633a20.16 20.16 0 0 1-.047-.925l-.009-.433.009-.433c.007-.311.026-.618.047-.925l.043-.633-.007-.004.025-.225c.024-.215.06-.426.095-.637l.047-.284.099-.626-.014-.009.043-.214c.039-.195.091-.385.143-.575.03-.11.059-.221.087-.332l.155-.615-.006-.005.064-.214c.07-.235.152-.465.234-.695l.067-.189.2-.569.096-.24c.116-.29.242-.573.371-.856l.185-.406.189-.371c.141-.277.286-.552.439-.822l.149-.261.3-.477.07-.112c.142-.226.283-.452.435-.67l.131-.188.003.001.384-.504.166-.22c.131-.175.262-.35.403-.518l.145-.173.009.003.428-.468.229-.256c.13-.147.26-.295.4-.434l.156-.155.014.006.468-.429.225-.209c.152-.142.304-.285.465-.419l.171-.142.009.005.505-.386.162-.124c.192-.148.384-.296.583-.434l.185-.128.002.001.537-.339c.262-.165.525-.33.795-.484l.299-.17.46-.236a19.6 19.6 0 0 1 .839-.404l.487-.221.302-.122c.275-.111.557-.209.876-.32l.599-.209.001-.006.212-.064c.209-.063.422-.114.635-.166l.269-.066.616-.154.003-.017.21-.043c.184-.038.373-.063.561-.088.122-.017.244-.033.365-.052l.628-.098.002-.007.224-.025c.225-.025.454-.039.682-.053l.245-.015.559-.037.309-.007c.09-.002.178-.008.266-.014.067-.01.132-.016.199-.016m.987-1.978l-.5 1.002c-.163-.004-.322-.025-.487-.025-.164 0-.323.021-.487.025l-.5-1.002-.41 1.048c-.326.021-.652.036-.974.072l-.582-.943-.315 1.08c-.324.051-.653.084-.972.149l-.656-.877-.216 1.101c-.318.08-.638.15-.95.244l-.737-.82-.116 1.112c-.309.108-.618.215-.92.337l-.813-.755-.016 1.115a20.38 20.38 0 0 0-.881.425l-.882-.683.084 1.109c-.284.161-.56.334-.835.507l-.943-.604.183 1.094c-.268.186-.524.388-.783.585l-.997-.519.279 1.068c-.251.209-.483.438-.724.658l-1.041-.428.372 1.036c-.231.231-.44.482-.661.724l-1.075-.333.466 1.003c-.209.25-.4.515-.597.775l-1.099-.235.556.961c-.186.268-.357.545-.531.821l-1.113-.135.642.91c-.161.283-.313.572-.461.863l-1.116-.034.722.851c-.135.297-.267.595-.389.899l-1.109.065.798.785c-.108.309-.221.614-.315.929l-1.093.164.867.712c-.08.318-.175.63-.24.953l-1.066.259.93.633c-.051.322-.111.64-.148.966l-1.048.357.983.547c-.022.322-.042.645-.049.971l-1.023.454 1.023.454c.007.326.027.648.049.971l-.983.547 1.048.357c.036.326.097.645.148.966l-.93.633 1.066.259c.065.323.16.635.24.953l-.867.712 1.093.164c.094.315.207.621.315.929l-.798.785 1.109.065c.122.304.254.602.389.899l-.722.851 1.116-.034c.148.291.3.58.461.863l-.642.91 1.113-.135c.174.276.345.554.531.821l-.556.961 1.099-.235c.198.26.388.525.597.775l-.466 1.003 1.075-.333c.22.241.43.493.661.724l-.372 1.036 1.041-.428c.241.22.473.449.724.658l-.279 1.068.997-.519c.259.198.514.4.783.585l-.183 1.094.943-.604c.275.174.551.346.835.507l-.084 1.109.882-.683c.29.148.584.289.881.424l.016 1.115.813-.755c.302.122.611.229.92.337l.116 1.112.737-.82c.312.094.632.165.95.244l.216 1.101.656-.877c.319.065.648.098.972.149l.315 1.08.582-.943c.321.036.648.051.974.072l.41 1.048.5-1.002c.163.004.322.025.487.025.164 0 .323-.021.487-.025l.5 1.002.41-1.048c.326-.021.652-.036.974-.072l.582.943.315-1.08c.324-.051.653-.084.972-.149l.656.877.216-1.101c.318-.08.638-.15.95-.244l.737.82.116-1.112c.309-.108.618-.215.92-.337l.813.755.016-1.115c.297-.135.591-.276.881-.424l.882.683-.084-1.109c.284-.161.56-.334.835-.507l.943.604-.183-1.094c.268-.186.524-.388.783-.585l.997.518-.279-1.068c.251-.209.484-.438.724-.658l1.041.428-.372-1.036c.231-.231.441-.482.661-.724l1.075.333-.466-1.003c.209-.25.4-.515.598-.775l1.099.235-.556-.961c.186-.268.357-.545.531-.821l1.113.135-.642-.91c.161-.283.313-.572.461-.863l1.116.034-.722-.851c.135-.297.267-.595.389-.899l1.109-.065-.798-.785c.108-.309.221-.614.315-.929l1.093-.164-.867-.712c.08-.318.175-.63.24-.953l1.066-.259-.93-.633c.051-.322.111-.64.148-.967l1.048-.357-.983-.547c.022-.322.042-.645.049-.971l1.023-.454-1.023-.454a20.825 20.825 0 0 0-.049-.971l.983-.547-1.048-.357c-.036-.326-.097-.645-.148-.966l.93-.633-1.066-.259c-.065-.324-.16-.635-.24-.953l.867-.712-1.093-.164c-.094-.315-.207-.621-.315-.929l.798-.785-1.109-.065a21.745 21.745 0 0 0-.389-.899l.722-.851-1.116.034c-.148-.291-.3-.58-.461-.863l.642-.91-1.113.135c-.174-.276-.345-.554-.531-.821l.556-.961-1.099.235c-.198-.26-.388-.525-.598-.775l.466-1.003-1.075.333c-.22-.241-.43-.493-.661-.724l.372-1.036-1.041.428c-.241-.22-.473-.449-.724-.658l.279-1.068-.997.518c-.259-.198-.514-.4-.783-.585l.183-1.094-.943.604a20.157 20.157 0 0 0-.835-.507l.084-1.109-.882.683c-.29-.148-.584-.289-.881-.424l-.016-1.115-.813.755c-.302-.122-.611-.229-.92-.337l-.116-1.112-.737.82c-.312-.094-.632-.165-.95-.244l-.216-1.101-.656.877c-.319-.065-.648-.098-.972-.149l-.315-1.08-.582.943c-.321-.036-.648-.051-.974-.072l-.41-1.046zM943.975 287.5V388c0 6.6-5.4 12-12 11h-537c-6.6 1-12-4.4-12-11V287.5h416.36l8.869-7.095 11.816 17.188 17.374-39.573 18.996 55.987 15.229-34.521 10.133 23.304 12.961-33.898 14.639 35.132 9.441-16.524h25.182zm-146.042-4l11.131-8.905 10.184 14.812 18.626-42.427 19.004 56.013 14.771-33.479 9.867 22.696 13.039-34.103 15.361 36.868 6.559-11.476h27.501V188c0-6.6-5.4-12-12-12h-537c-6.6 0-12 5.4-12 12v95.5h414.957z"/><circle class="st1" cx="400.5" cy="425.5" r="5.5"/><circle class="st1" cx="421.1" cy="425.5" r="5.5"/><circle class="st1" cx="441.7" cy="425.5" r="5.5"/><circle class="st1" cx="462.3" cy="425.5" r="5.5"/><circle class="st1" cx="482.9" cy="425.5" r="5.5"/><path class="st1" d="M941.475 481h-556l2-19h552z"/><circle class="st1" cx="912" cy="434" r="5"/><circle class="st1" cx="503.5" cy="425.5" r="5.5"/></svg>