<svg id="Layer_1" xmlns="http://www.w3.org/2000/svg" viewBox="0 0 1366 768"><style>.st0{fill:#fff}.st1{fill:none;stroke:#fff;stroke-width:4;stroke-miterlimit:10}</style><path d="M769.693 187H529.306l13.837-43.3c1.226-8.509 10.212-14.7 21.857-14.7h169c11.645 0 20.631 6.191 21.857 14.7l13.836 43.3zm-212.999-20h185.613l-5.645-17.662c-.627-.177-1.524-.338-2.662-.338H565c-1.138 0-2.035.161-2.663.338L556.694 167z"/><path class="st0" d="M957.633 458h-579l-4-56 1.23-176.118 2.77-60.882h579l2.76 60 1.24 177z"/><path d="M954.768 168l2.625 57.079 1.239 176.824L954.84 455H381.427l-3.793-53.097 1.228-175.942L381.5 168h573.268m2.865-3h-579l-2.771 60.882L374.633 402l4 56h579l4-56-1.24-177-2.76-60z"/><path class="st0" d="M920.459 446.301l-.317.008c-.081.002-.161.008-.24.013-.078.006-.155.012-.234.012s-.157-.006-.234-.012c-.08-.005-.16-.011-.241-.013l-.317-.008-.139.279-.116-.296-.553-.035c-.239-.015-.479-.029-.715-.056l-.314-.035-.158.255-.088-.304-.673-.102a8.763 8.763 0 0 1-.591-.093l-.311-.062-.171.229-.061-.309-.561-.139c-.227-.055-.454-.109-.675-.176l-.305-.092-.197.22-.031-.309-.299-.104c-.362-.127-.633-.222-.897-.329l-.295-.119-.221.205-.005-.305-.288-.132c-.291-.133-.578-.27-.861-.415l-.282-.145-.243.188.022-.303-.275-.156a20.581 20.581 0 0 1-.815-.496l-.269-.17-.263.169.05-.296-.262-.181c-.207-.144-.405-.297-.604-.45l-.411-.315-.281.146.074-.286-.243-.203c-.171-.143-.332-.294-.494-.445l-.445-.412-.294.12.099-.273-.225-.225c-.149-.149-.29-.309-.431-.467l-.428-.475-.304.094.126-.271-.205-.243c-.146-.174-.281-.355-.418-.537l-.356-.471-.31.065.151-.262-.181-.261a16.158 16.158 0 0 1-.441-.681l-.245-.39-.311.037.177-.25-.158-.276a18.853 18.853 0 0 1-.45-.842l-.144-.282-.308.01.198-.234-.131-.289c-.132-.29-.261-.581-.38-.878l-.118-.295-.302-.018.222-.218-.168-.477a16.458 16.458 0 0 1-.246-.73l-.091-.304-.292-.044.242-.198-.163-.634c-.054-.2-.108-.399-.149-.604l-.063-.312-.281-.068.261-.177-.096-.596c-.036-.22-.073-.438-.098-.661l-.035-.316-.283-.097.276-.154-.021-.315c-.021-.314-.041-.63-.048-.947l-.007-.317-.285-.126.285-.127.007-.317c.007-.318.026-.634.048-.948l.021-.316-.275-.153.282-.096.035-.316c.024-.225.062-.445.099-.666l.095-.591-.262-.178.282-.069.063-.311c.041-.204.095-.403.148-.603l.164-.636-.243-.199.293-.044.091-.303c.074-.246.16-.487.245-.728l.169-.479-.222-.218.302-.018.118-.295c.119-.297.248-.588.38-.878l.131-.289-.198-.234.308.01.144-.282c.145-.284.292-.566.45-.843l.158-.276-.176-.249.31.037.244-.39c.145-.229.288-.459.442-.681l.181-.261-.151-.262.31.065.345-.455c.14-.187.279-.374.43-.553l.205-.243-.126-.271.303.094.43-.476c.14-.158.279-.316.429-.465l.226-.225-.1-.275.294.12.461-.425c.157-.147.313-.294.479-.433l.243-.203-.074-.286.28.146.429-.327c.193-.148.386-.298.587-.437l.262-.181-.05-.297.263.169.269-.17c.27-.17.539-.338.815-.495l.275-.156-.022-.303.243.188.282-.145c.283-.145.57-.283.86-.415l.289-.131.005-.306.221.205.295-.119c.294-.119.595-.224.896-.328l.3-.104.032-.31.197.22.305-.092c.221-.066.447-.121.674-.176l.562-.139.061-.309.172.229.311-.063c.195-.041.396-.067.596-.095l.667-.101.088-.304.158.255.314-.035c.23-.026.464-.04.697-.054l.57-.036.116-.296.138.276.315-.006c.085-.002.169-.008.252-.014.075-.005.15-.011.227-.011s.151.006.226.011c.084.006.167.012.252.014l.315.006.139-.278.116.297.572.037c.232.014.466.027.695.054l.314.035.158-.255.088.304.669.101c.199.027.398.054.594.095l.311.063.172-.229.061.309.558.138c.228.056.455.11.677.177l.305.092.197-.22.032.31.3.104c.301.104.602.209.897.328l.294.119.221-.205.005.306.288.131c.29.132.577.27.86.415l.282.145.243-.188-.022.303.275.156c.278.158.547.327.815.495l.269.169.263-.168-.05.297.262.181c.204.142.401.293.598.443l.419.32.279-.146-.075.286.244.203c.163.136.317.281.473.426l.47.432.293-.12-.1.275.226.225c.146.145.281.299.418.453l.44.487.303-.094-.125.271.203.243c.146.174.28.354.416.535l.36.474.308-.065-.151.262.181.261c.16.23.31.469.459.707l.229.363.31-.037-.176.249.157.275c.157.276.305.56.45.844l.144.282.308-.01-.199.235.132.289c.133.29.262.58.381.877l.118.295.301.018-.222.218.174.492c.084.236.168.472.239.713l.091.305.295.044-.243.199.164.636c.054.199.107.398.148.603l.063.311.281.069-.262.178.095.591c.037.221.074.441.099.666l.035.316.282.096-.275.153.021.316c.021.314.041.63.048.948l.007.317.285.126-.285.127-.007.317c-.007.317-.026.633-.048.947l-.021.315.276.154-.283.097-.035.316c-.024.223-.062.441-.098.661l-.096.596.261.178-.28.067-.063.312c-.041.205-.096.404-.149.604l-.163.634.242.198-.294.044-.091.305c-.072.242-.156.479-.24.716l-.173.49.222.218-.301.018-.118.295c-.119.297-.248.588-.381.877l-.132.289.199.235-.308-.01-.144.282c-.146.284-.293.566-.45.843l-.157.275.177.25-.311-.037-.229.363a17.44 17.44 0 0 1-.459.707l-.181.261.151.262-.308-.065-.371.488a13.68 13.68 0 0 1-.405.521l-.203.243.125.271-.303-.094-.44.487c-.137.154-.273.309-.419.454l-.225.225.099.273-.293-.12-.456.42c-.158.148-.317.298-.485.438l-.244.203.075.287-.279-.146-.419.319c-.196.151-.394.303-.598.444l-.262.181.05.296-.263-.169-.269.17c-.27.17-.539.339-.815.496l-.275.156.022.303-.243-.188-.282.145c-.284.146-.571.283-.861.415l-.287.132-.005.305-.221-.204-.294.118a18.98 18.98 0 0 1-.807.297l-.299.104-.123.342-.198-.221-.305.092a13.71 13.71 0 0 1-.677.177l-.558.138-.061.309-.171-.229-.311.062c-.192.039-.391.066-.589.093l-.675.102-.088.304-.158-.255-.314.035c-.235.026-.474.041-.713.056l-.555.036-.116.296-.142-.277z"/><path d="M919.667 405.833c.067 0 .132.005.197.01.088.006.177.012.266.014l.309.007.559.037.245.015c.229.014.457.027.682.053l.224.025.002.008.628.098c.121.019.242.035.363.052.189.026.378.051.562.089l.21.043.003.017.616.154.268.066c.214.052.428.103.637.166l.248.075.001.008.599.209c.281.098.563.196.838.307l.3.121.488.222c.283.129.563.263.839.404l.459.235.301.171c.27.153.533.318.795.484l.537.339.002-.001.185.128c.2.138.392.287.584.435l.161.123.505.386.009-.005.171.142c.161.134.313.277.465.419l.224.208.468.429.014-.006.156.155c.14.139.27.288.401.436l.228.255.428.469.009-.003.144.173c.141.168.272.343.403.519l.166.22.384.504.003-.001.131.188c.152.219.293.444.435.67l.07.112.3.477.149.261c.154.27.298.544.439.822l.19.373.185.405c.129.283.255.566.371.856l.096.24.2.569.067.19c.081.23.163.459.234.694l.064.214-.006.005.155.615c.028.111.058.222.088.332.051.19.103.38.143.575l.043.214-.014.009.099.626.047.284c.035.211.071.422.095.637l.025.225-.007.004.043.633c.021.307.04.614.047.925l.009.433-.009.433a20.16 20.16 0 0 1-.047.925l-.043.633.007.004-.025.225c-.024.215-.06.426-.095.637l-.047.283-.099.626.014.009-.043.214c-.039.195-.091.384-.142.574-.03.111-.06.222-.088.333l-.155.615.005.004-.064.214c-.07.235-.152.465-.234.695l-.067.189-.2.57-.096.24c-.116.29-.242.573-.371.856l-.184.404-.19.373c-.141.277-.286.552-.439.822l-.148.26-.3.477-.07.111c-.142.226-.283.452-.436.672l-.131.188-.003-.001-.384.504-.166.22c-.131.175-.262.351-.403.519l-.144.173-.009-.003-.428.469c-.077.084-.152.169-.228.255-.131.148-.261.296-.401.436l-.156.155-.014-.006-.468.429-.224.208c-.153.143-.305.286-.465.419l-.171.142-.009-.005-.505.386-.161.123c-.192.148-.385.296-.584.435l-.185.128-.002-.001-.537.339c-.262.165-.525.33-.795.483l-.3.17-.46.235a19.6 19.6 0 0 1-.839.404l-.49.222-.299.12c-.276.111-.558.209-.876.32l-.599.209-.001.006-.212.064c-.209.063-.423.114-.637.166l-.268.066-.616.154-.003.017-.21.043c-.185.038-.373.063-.562.089-.121.017-.243.033-.363.052l-.628.098-.002.008-.224.025c-.225.025-.454.039-.682.053l-.245.015-.559.037-.309.007c-.09.002-.178.008-.266.014-.065.005-.131.01-.197.01-.067 0-.132-.005-.197-.01a5.845 5.845 0 0 0-.266-.014l-.309-.007-.559-.037-.245-.015c-.229-.014-.457-.027-.682-.053l-.224-.025-.002-.007-.628-.098a14.565 14.565 0 0 0-.365-.052c-.188-.026-.377-.051-.561-.088l-.21-.043-.003-.017-.616-.154-.269-.066c-.213-.052-.427-.103-.635-.166l-.248-.075-.001-.008-.599-.209c-.281-.098-.563-.196-.838-.307l-.302-.122-.487-.221a20.874 20.874 0 0 1-.839-.404l-.46-.235-.3-.17a18.92 18.92 0 0 1-.795-.484l-.537-.339-.002.001-.185-.128c-.2-.138-.391-.286-.583-.434l-.162-.124-.505-.386-.009.005-.171-.142c-.161-.134-.313-.277-.465-.42l-.224-.208-.468-.429-.014.006-.156-.155c-.139-.139-.269-.287-.4-.434-.076-.086-.152-.172-.229-.256l-.428-.468-.009.003-.145-.173c-.14-.168-.271-.343-.403-.518l-.166-.22-.384-.504-.003.001-.131-.188a16.787 16.787 0 0 1-.436-.672l-.07-.111-.3-.476-.149-.262c-.154-.27-.298-.544-.439-.822l-.19-.373-.184-.404a19.724 19.724 0 0 1-.371-.856l-.097-.242-.199-.567-.068-.192c-.081-.229-.163-.458-.233-.692l-.064-.214.005-.004-.155-.615c-.028-.112-.058-.222-.088-.333-.051-.19-.103-.38-.142-.574l-.043-.214.014-.009-.099-.626-.047-.284c-.035-.211-.071-.422-.095-.637l-.025-.225.007-.004-.043-.633a20.16 20.16 0 0 1-.047-.925l-.009-.433.009-.433c.007-.311.026-.618.047-.925l.043-.633-.007-.004.025-.225c.024-.215.06-.426.095-.637l.047-.284.099-.626-.014-.009.043-.214c.039-.195.091-.385.143-.575.03-.11.059-.221.087-.332l.155-.615-.006-.005.064-.214c.07-.235.152-.465.234-.695l.067-.189.2-.569.096-.24c.116-.29.242-.573.371-.856l.185-.406.189-.371c.141-.277.286-.552.439-.822l.149-.261.3-.477.07-.112c.142-.226.283-.452.435-.67l.131-.188.003.001.384-.504.166-.22c.131-.175.262-.35.403-.518l.145-.173.009.003.428-.468.229-.256c.13-.147.26-.295.4-.434l.156-.155.014.006.468-.429.225-.209c.152-.142.304-.285.465-.419l.171-.142.009.005.505-.386.162-.124c.192-.148.384-.296.583-.434l.185-.128.002.001.537-.339c.262-.165.525-.33.795-.484l.299-.17.46-.236a19.6 19.6 0 0 1 .839-.404l.487-.221.302-.122c.275-.111.557-.209.876-.32l.599-.209.001-.006.212-.064c.209-.063.422-.114.635-.166l.269-.066.616-.154.003-.017.21-.043c.184-.038.373-.063.561-.088.122-.017.244-.033.365-.052l.628-.098.002-.007.224-.025c.225-.025.454-.039.682-.053l.245-.015.559-.037.309-.007c.09-.002.178-.008.266-.014.067-.01.132-.016.199-.016m.987-1.978l-.5 1.002c-.163-.004-.322-.025-.487-.025-.164 0-.323.021-.487.025l-.5-1.002-.41 1.048c-.326.021-.652.036-.974.072l-.582-.943-.315 1.08c-.324.051-.653.084-.972.149l-.656-.877-.216 1.101c-.318.08-.638.15-.95.244l-.737-.82-.116 1.112c-.309.108-.618.215-.92.337l-.813-.755-.016 1.115a20.38 20.38 0 0 0-.881.425l-.882-.683.084 1.109c-.284.161-.56.334-.835.507l-.943-.604.183 1.094c-.268.186-.524.388-.783.585l-.997-.519.279 1.068c-.251.209-.483.438-.724.658l-1.041-.428.372 1.036c-.231.231-.44.482-.661.724l-1.075-.333.466 1.003c-.209.25-.4.515-.597.775l-1.099-.235.556.961c-.186.268-.357.545-.531.821l-1.113-.135.642.91c-.161.283-.313.572-.461.863l-1.116-.034.722.851c-.135.297-.267.595-.389.899l-1.109.065.798.785c-.108.309-.221.614-.315.929l-1.093.164.867.712c-.08.318-.175.63-.24.953l-1.066.259.93.633c-.051.322-.111.64-.148.966l-1.048.357.983.547c-.022.322-.042.645-.049.971l-1.023.454 1.023.454c.007.326.027.648.049.971l-.983.547 1.048.357c.036.326.097.645.148.966l-.93.633 1.066.259c.065.323.16.635.24.953l-.867.712 1.093.164c.094.315.207.621.315.929l-.798.785 1.109.065c.122.304.254.602.389.899l-.722.851 1.116-.034c.148.291.3.58.461.863l-.642.91 1.113-.135c.174.276.345.554.531.821l-.556.961 1.099-.235c.198.26.388.525.597.775l-.466 1.003 1.075-.333c.22.241.43.493.661.724l-.372 1.036 1.041-.428c.241.22.473.449.724.658l-.279 1.068.997-.519c.259.198.514.4.783.585l-.183 1.094.943-.604c.275.174.551.346.835.507l-.084 1.109.882-.683c.29.148.584.289.881.424l.016 1.115.813-.755c.302.122.611.229.92.337l.116 1.112.737-.82c.312.094.632.165.95.244l.216 1.101.656-.877c.319.065.648.098.972.149l.315 1.08.582-.943c.321.036.648.051.974.072l.41 1.048.5-1.002c.163.004.322.025.487.025.164 0 .323-.021.487-.025l.5 1.002.41-1.048c.326-.021.652-.036.974-.072l.582.943.315-1.08c.324-.051.653-.084.972-.149l.656.877.216-1.101c.318-.08.638-.15.95-.244l.737.82.116-1.112c.309-.108.618-.215.92-.337l.813.755.016-1.115c.297-.135.591-.276.881-.424l.882.683-.084-1.109c.284-.161.56-.334.835-.507l.943.604-.183-1.094c.268-.186.524-.388.783-.585l.997.518-.279-1.068c.251-.209.484-.438.724-.658l1.041.428-.372-1.036c.231-.231.441-.482.661-.724l1.075.333-.466-1.003c.209-.25.4-.515.598-.775l1.099.235-.556-.961c.186-.268.357-.545.531-.821l1.113.135-.642-.91c.161-.283.313-.572.461-.863l1.116.034-.722-.851c.135-.297.267-.595.389-.899l1.109-.065-.798-.785c.108-.309.221-.614.315-.929l1.093-.164-.867-.712c.08-.318.175-.63.24-.953l1.066-.259-.93-.633c.051-.322.111-.64.148-.967l1.048-.357-.983-.547c.022-.322.042-.645.049-.971l1.023-.454-1.023-.454a20.825 20.825 0 0 0-.049-.971l.983-.547-1.048-.357c-.036-.326-.097-.645-.148-.966l.93-.633-1.066-.259c-.065-.324-.16-.635-.24-.953l.867-.712-1.093-.164c-.094-.315-.207-.621-.315-.929l.798-.785-1.109-.065a21.745 21.745 0 0 0-.389-.899l.722-.851-1.116.034c-.148-.291-.3-.58-.461-.863l.642-.91-1.113.135c-.174-.276-.345-.554-.531-.821l.556-.961-1.099.235c-.198-.26-.388-.525-.598-.775l.466-1.003-1.075.333c-.22-.241-.43-.493-.661-.724l.372-1.036-1.041.428c-.241-.22-.473-.449-.724-.658l.279-1.068-.997.518c-.259-.198-.514-.4-.783-.585l.183-1.094-.943.604a20.157 20.157 0 0 0-.835-.507l.084-1.109-.882.683c-.29-.148-.584-.289-.881-.424l-.016-1.115-.813.755c-.302-.122-.611-.229-.92-.337l-.116-1.112-.737.82c-.312-.094-.632-.165-.95-.244l-.216-1.101-.656.877c-.319-.065-.648-.098-.972-.149l-.315-1.08-.582.943c-.321-.036-.648-.051-.974-.072l-.41-1.046zm17.553-8.235c-.444 0-.898-.035-1.349-.104l-.111-.017H399.521l-.112.017a9.074 9.074 0 0 1-1.349.104c-2.394 0-4.636-.996-6.312-2.805-1.686-1.819-2.614-4.239-2.614-6.815V186c0-5.79 4.71-10.5 10.5-10.5h537c5.79 0 10.5 4.71 10.5 10.5v200c0 5.305-4.005 9.62-8.927 9.62z"/><path class="st0" d="M936.633 177c4.963 0 9 4.037 9 9v200c0 4.477-3.331 8.12-7.426 8.12-.37 0-.748-.029-1.124-.086l-.224-.034H399.407l-.223.034a7.524 7.524 0 0 1-1.124.086c-4.095 0-7.426-3.643-7.426-8.12V186c0-4.963 4.037-9 9-9h536.999m0-3h-537c-6.6 0-12 5.4-12 12v200c0 6.067 4.563 11.12 10.426 11.12.515 0 1.041-.039 1.574-.12h537c.533.081 1.058.12 1.574.12 5.863 0 10.426-5.053 10.426-11.12V186c0-6.6-5.4-12-12-12z"/><path class="st1" d="M390.133 283.5h415.5l6-8 11 16 18-41 19 56 15-34 10 23 13-34 15 36 8-14h26.5"/><circle cx="400.5" cy="425.5" r="5.5"/><circle cx="421.1" cy="425.5" r="5.5"/><circle cx="441.7" cy="425.5" r="5.5"/><circle cx="462.3" cy="425.5" r="5.5"/><circle cx="482.9" cy="425.5" r="5.5"/><circle cx="503.5" cy="425.5" r="5.5"/><path d="M946.133 481h-556l2-19h552z"/><circle cx="912" cy="434" r="5"/></svg>