<svg id="Layer_1" xmlns="http://www.w3.org/2000/svg" viewBox="0 0 738 562"><style>.st0{fill:none;stroke:#728394}.st1,.st2{fill:none;stroke:#a2b3c4}.st2{stroke-width:2}.st3{clip-path:url(#SVGID_3_)}.st4{fill:none;stroke:#ecf0f3}</style><path class="st0" d="M185 115s7.096-7.967 10-11c2.904-3.033 3.355-7.004 8-10s6.802-7.121 12-7c5.031.117 10.731-4.825 14-4 6.697 1.69 5.133 7.623 10 5s7-8 7-8l2 4s.488 4.406 3 4 6.227-1.455 9 0 4 6 4 6 1.129.125 4 0 5.914 1.582 7 4-1 6-1 6 4.396 3.5 6 7 1 6 1 6"/><path class="st0" d="M231 115s9.399-7.17 7-13c-2.138-5.195-8-5-8-5m9 17s5.994-2.579 9-6c2.518-2.866 6.338-8.658 2-12-1.895-1.46-6 0-6 0m9 12s1.158-6.905 6-9c3.971-1.718 8.382-1.051 10 2m-10 16s3.629-.191 5-3-2.277-7.923 0-9c3.485-1.648 5.429-.869 6 0"/><path class="st1" d="M638 466l99 28m-100-42h2s.595-14.855 1-19 .874-9.59 8-10 32.133-.933 38-1 17.616-.856 18 8c.291 6.72 0 19 0 19l18-2"/><path class="st1" d="M644 452s.663-14.904 1-18 1.317-4.714 5-5m52 40v9l31 10m-2-21l-27 3 27 8 7-1m-34-1l26 8m-26-11l26 8m-17-26l-23 6s-2.019.381-4 1c-2.722.85-5 3-5 3s3.186.189 5 0 6-2 6-2l24-6m-45 27l-1 45m65-30l-59-17v47m-3-48l-36-11M45 199l-7-59m17 48l-7-58m18 53l-7-62m19 54L68 93m23 81L77 64m28 107L88 32"/><path class="st2" d="M75 20l9-4 5 9"/><path class="st2" d="M32 134l24-24 26-93"/><path class="st1" d="M367 39c4.971 0 9 3.582 9 8s-4.029 8-9 8-9-3.582-9-8 4.029-8 9-8zm71 0c4.971 0 9 3.582 9 8s-4.029 8-9 8-9-3.582-9-8 4.029-8 9-8zm-20 21c4.971 0 9 3.582 9 8s-4.029 8-9 8-9-3.582-9-8 4.029-8 9-8zm-30 1c4.971 0 9 3.582 9 8s-4.029 8-9 8-9-3.582-9-8 4.029-8 9-8zm14-16c3.314 0 6 2.462 6 5.5s-2.686 5.5-6 5.5-6-2.462-6-5.5 2.686-5.5 6-5.5zm-3-27c4.971 0 9 3.582 9 8s-4.029 8-9 8-9-3.582-9-8 4.029-8 9-8zm-26 22l17-11m18-2l24 14m-8 22l9-10m-36 18l12-2m-37-16l9 10m-5-15l20 2m4-16l1 11m7 4l22-1m-31 8l-6 7m12-9l7 9m135 8l96-39 23 40-80 31m-37-30l13 29"/><path class="st1" d="M548 76l-4 2 19 40 100-42-1-2"/><path class="st1" d="M563.954 100.354s2.421-.317 6.122-1.589c4.223-1.452 5.26-3.652 5.26-3.652s.207 3.728 1.656 5.124c2.289 2.206 5.715 4.398 5.715 4.398s-7.162 1.082-11.043.252c-3.864-.827-7.71-4.533-7.71-4.533zM634 39s.645 2.405 4 3 6-3 6-3m-40 18c9.941 0 18 6.268 18 14s-8.059 14-18 14-18-6.268-18-14 8.059-14 18-14z"/><path class="st1" d="M605 62s-5.81-.777-8 1-1.344 6.361 7 6c5.854-.253 11.807 3.212 8 7-5.172 5.146-14 1-14 1m-1-17l12 20m17 348s7.807 41.082 9 53"/><path class="st4" d="M68 453v106M28 377l4 175m88-44v48"/></svg>