<?xml version="1.0" encoding="utf-8"?>
<!-- Generator: Adobe Illustrator 21.0.2, SVG Export Plug-In . SVG Version: 6.00 Build 0)  -->
<svg version="1.1" id="Layer_1" xmlns="http://www.w3.org/2000/svg" xmlns:xlink="http://www.w3.org/1999/xlink" x="0px" y="0px"
	 viewBox="0 0 100 100" style="enable-background:new 0 0 100 100;" xml:space="preserve">
<style type="text/css">
	.st0{fill:#56C5D0;}
	.st1{fill:#00657D;}
	.st2{fill:#A5DFE1;}
</style>
<g>
	<path id="XMLID_43_" class="st0" d="M9.359,94.284L7.39,89.731l-1.951,4.553H9.359z M6.496,87.34h1.854l5.009,11.464h-2.114
		l-1.155-2.748H4.707l-1.17,2.748H1.488L6.496,87.34z"/>
	<polygon id="XMLID_9_" class="st0" points="16.936,87.422 18.79,87.422 24.888,95.293 24.888,87.422 26.856,87.422 26.856,98.805
		25.181,98.805 18.904,90.707 18.904,98.805 16.936,98.805 	"/>
	<path id="XMLID_8_" class="st0" d="M30.905,93.147v-0.033c0-3.187,2.439-5.886,5.871-5.886c1.984,0,3.204,0.552,4.375,1.544
		l-1.268,1.512c-0.878-0.748-1.741-1.22-3.188-1.22c-2.098,0-3.692,1.838-3.692,4.017v0.032c0,2.342,1.545,4.065,3.87,4.065
		c1.074,0,2.049-0.341,2.748-0.861v-2.13h-2.91v-1.74h4.846v4.781C40.434,98.188,38.824,99,36.808,99
		C33.247,99,30.905,96.463,30.905,93.147"/>
	<polygon id="XMLID_7_" class="st0" points="45.784,87.422 54.224,87.422 54.224,89.211 47.785,89.211 47.785,92.17 53.493,92.17
		53.493,93.959 47.785,93.959 47.785,97.016 54.305,97.016 54.305,98.805 45.784,98.805 	"/>
	<polygon id="XMLID_6_" class="st0" points="58.305,87.422 60.305,87.422 60.305,96.984 66.29,96.984 66.29,98.805 58.305,98.805
		"/>
	<polygon id="XMLID_5_" class="st1" points="70.697,86.261 73.625,86.261 76.868,91.48 80.113,86.261 83.04,86.261 83.04,98.604
		80.342,98.604 80.342,90.546 76.868,95.818 76.798,95.818 73.359,90.599 73.359,98.604 70.697,98.604 	"/>
	<path id="XMLID_22_" class="st1" d="M89.854,88.713v7.44h2.098c2.222,0,3.721-1.498,3.721-3.685v-0.036
		c0-2.187-1.499-3.72-3.721-3.72H89.854z M87.138,86.261h4.814c3.88,0,6.56,2.663,6.56,6.137v0.034c0,3.474-2.681,6.172-6.56,6.172
		h-4.814V86.261z"/>
	<g id="XMLID_31_">
		<path id="XMLID_32_" class="st2" d="M72.754,12.64c-1.281,0.761-4.949,2.35-15.445,5.854c-1.875,0.62-3.865,1.154-5.971,1.719
			l-1.263,0.34c-6.298,1.719-12.304,3.643-16.567,8.244c-3.756,4.05-5.581,9.653-5.581,17.131V47.9c0,2.73,0.491,5.382,1.462,7.903
			c0.172-3.804,2.01-12.956,15.158-17.64v-0.095l0.278-0.013c0.875-0.307,1.782-0.585,2.696-0.828
			c0.817-0.22,1.603-0.44,2.373-0.676c6.465-1.882,10.964-3.843,14.161-6.173c0.9-0.635,1.708-1.318,2.407-2.032
			C70.345,24.446,72.353,19.443,72.754,12.64z"/>
	</g>
	<g id="XMLID_28_">
		<path id="XMLID_29_" class="st0" d="M30.068,57.398c3.66,7.635,11.474,12.565,19.922,12.565c8.456,0,16.264-4.931,19.907-12.568
			c0.045-0.494,0.313-4.525-2.145-8.909c-2.181-3.916-5.835-6.958-10.879-9.061c1.784,1.796,2.807,4.235,2.807,6.833
			c0,5.352-4.347,9.706-9.69,9.706c-5.352,0-9.706-4.354-9.706-9.706c0-2.594,1.026-5.034,2.816-6.836
			C29.061,45.272,29.978,56.553,30.068,57.398z"/>
	</g>
	<g id="XMLID_25_">
		<path id="XMLID_26_" class="st1" d="M27.246,12.618c0.39,6.699,2.313,11.642,6.018,15.484c4.093-4.266,9.626-6.22,15.481-7.861
			c-2.151-0.574-4.183-1.117-6.09-1.748C34.172,15.662,29.011,13.693,27.246,12.618z"/>
	</g>
	<g id="XMLID_21_">
		<path id="XMLID_23_" class="st1" d="M55.405,38.16c6.076,2.16,10.421,5.526,12.917,10.008c1.723,3.073,2.162,5.935,2.247,7.665
			c0.974-2.527,1.467-5.188,1.467-7.933v-1.974c0-1.38-0.061-2.65-0.188-3.883c-0.537-5.458-2.228-9.714-5.165-12.997
			c-0.668,0.653-1.422,1.278-2.246,1.861c-3.083,2.245-7.328,4.148-13.304,5.957c0.389,0.112,0.817,0.23,1.309,0.362
			c0.909,0.242,1.813,0.52,2.686,0.826H55.4L55.405,38.16z"/>
	</g>
	<g id="XMLID_18_">
		<path id="XMLID_19_" class="st0" d="M50,1c-3.284,0-5.955,2.671-5.955,5.955c0,3.283,2.671,5.955,5.955,5.955
			c3.283,0,5.955-2.671,5.955-5.955C55.955,3.671,53.284,1,50,1z"/>
	</g>
</g>
</svg>
