<svg id="Layer_1" xmlns="http://www.w3.org/2000/svg" viewBox="0 0 100 100"><style>.st0{fill:#56c5d0}.st1{fill:#00657d}.st2{fill:#a5dfe1}</style><path id="XMLID_43_" class="st0" d="M9.359 94.284L7.39 89.731l-1.951 4.553h3.92zM6.496 87.34H8.35l5.009 11.464h-2.114l-1.155-2.748H4.707l-1.17 2.748H1.488L6.496 87.34z"/><path id="XMLID_9_" class="st0" d="M16.936 87.422h1.854l6.098 7.871v-7.871h1.968v11.383h-1.675l-6.277-8.098v8.098h-1.968z"/><path id="XMLID_8_" class="st0" d="M30.905 93.147v-.033c0-3.187 2.439-5.886 5.871-5.886 1.984 0 3.204.552 4.375 1.544l-1.268 1.512c-.878-.748-1.741-1.22-3.188-1.22-2.098 0-3.692 1.838-3.692 4.017v.032c0 2.342 1.545 4.065 3.87 4.065 1.074 0 2.049-.341 2.748-.861v-2.13h-2.91v-1.74h4.846v4.781c-1.123.96-2.733 1.772-4.749 1.772-3.561 0-5.903-2.537-5.903-5.853"/><path id="XMLID_7_" class="st0" d="M45.784 87.422h8.44v1.789h-6.439v2.959h5.708v1.789h-5.708v3.057h6.52v1.789h-8.521z"/><path id="XMLID_6_" class="st0" d="M58.305 87.422h2v9.562h5.985v1.821h-7.985z"/><path id="XMLID_5_" class="st1" d="M70.697 86.261h2.928l3.243 5.219 3.245-5.219h2.927v12.343h-2.698v-8.058l-3.474 5.272h-.07l-3.439-5.219v8.005h-2.662z"/><path id="XMLID_22_" class="st1" d="M89.854 88.713v7.44h2.098c2.222 0 3.721-1.498 3.721-3.685v-.036c0-2.187-1.499-3.72-3.721-3.72h-2.098zm-2.716-2.452h4.814c3.88 0 6.56 2.663 6.56 6.137v.034c0 3.474-2.681 6.172-6.56 6.172h-4.814V86.261z"/><g id="XMLID_31_"><path id="XMLID_32_" class="st2" d="M72.754 12.64c-1.281.761-4.949 2.35-15.445 5.854-1.875.62-3.865 1.154-5.971 1.719l-1.263.34c-6.298 1.719-12.304 3.643-16.567 8.244-3.756 4.05-5.581 9.653-5.581 17.131V47.9c0 2.73.491 5.382 1.462 7.903.172-3.804 2.01-12.956 15.158-17.64v-.095l.278-.013a36.518 36.518 0 0 1 2.696-.828c.817-.22 1.603-.44 2.373-.676 6.465-1.882 10.964-3.843 14.161-6.173.9-.635 1.708-1.318 2.407-2.032 3.883-3.9 5.891-8.903 6.292-15.706z"/></g><g id="XMLID_28_"><path id="XMLID_29_" class="st0" d="M30.068 57.398c3.66 7.635 11.474 12.565 19.922 12.565 8.456 0 16.264-4.931 19.907-12.568.045-.494.313-4.525-2.145-8.909-2.181-3.916-5.835-6.958-10.879-9.061a9.67 9.67 0 0 1 2.807 6.833c0 5.352-4.347 9.706-9.69 9.706-5.352 0-9.706-4.354-9.706-9.706a9.678 9.678 0 0 1 2.816-6.836c-14.039 5.85-13.122 17.131-13.032 17.976z"/></g><g id="XMLID_25_"><path id="XMLID_26_" class="st1" d="M27.246 12.618c.39 6.699 2.313 11.642 6.018 15.484 4.093-4.266 9.626-6.22 15.481-7.861-2.151-.574-4.183-1.117-6.09-1.748-8.483-2.831-13.644-4.8-15.409-5.875z"/></g><g id="XMLID_21_"><path id="XMLID_23_" class="st1" d="M55.405 38.16c6.076 2.16 10.421 5.526 12.917 10.008 1.723 3.073 2.162 5.935 2.247 7.665a21.938 21.938 0 0 0 1.467-7.933v-1.974c0-1.38-.061-2.65-.188-3.883-.537-5.458-2.228-9.714-5.165-12.997a18.505 18.505 0 0 1-2.246 1.861c-3.083 2.245-7.328 4.148-13.304 5.957.389.112.817.23 1.309.362.909.242 1.813.52 2.686.826h.272l.005.108z"/></g><g id="XMLID_18_"><path id="XMLID_19_" class="st0" d="M50 1a5.961 5.961 0 0 0-5.955 5.955A5.962 5.962 0 0 0 50 12.91a5.962 5.962 0 0 0 5.955-5.955A5.961 5.961 0 0 0 50 1z"/></g></svg>