<svg id="Layer_1" xmlns="http://www.w3.org/2000/svg" viewBox="0 0 384.167 100"><style>.st0{fill:#a3bbbf}.st1{fill:#5b9399}.st2{fill:#2d6d76}.st3{display:none}.st4{fill:#a3bbbf}.st4,.st5,.st6{display:inline}.st5{fill:#5b9399}.st6{fill:#2d6d76}.st7{fill:#56c5d0}.st8{fill:#00657d}.st9{fill:#a5dfe1}</style><path class="st7" d="M114.108 45.791h-5.55L93.565 80.108H99.7l3.503-8.226h16.112l3.458 8.226h6.328l-14.993-34.317zm-8.714 20.786l5.839-13.63 5.893 13.63h-11.732z"/><path id="XMLID_17_" class="st7" d="M139.807 46.036h5.55l18.254 23.56v-23.56h5.889v34.073h-5.013l-18.789-24.241v24.241h-5.891z"/><path id="XMLID_16_" class="st7" d="M181.621 63.171v-.099c0-9.54 7.301-17.62 17.573-17.62 5.94 0 9.592 1.652 13.095 4.623l-3.796 4.527c-2.629-2.239-5.211-3.652-9.542-3.652-6.279 0-11.05 5.502-11.05 12.025v.097c0 7.01 4.625 12.167 11.585 12.167 3.214 0 6.132-1.02 8.227-2.578v-6.376h-8.712v-5.209h14.505v14.311c-3.358 2.873-8.179 5.304-14.212 5.304-10.663.001-17.673-7.593-17.673-17.52"/><path id="XMLID_15_" class="st7" d="M226.158 46.036h25.264v5.354h-19.274v8.858h17.087v5.354h-17.087v9.152h19.518v5.355h-25.508z"/><path id="XMLID_14_" class="st7" d="M263.64 46.036h5.986v28.623h17.915v5.45H263.64z"/><path id="XMLID_12_" class="st8" d="M300.732 42.561h8.764l9.707 15.622 9.714-15.622h8.762v36.947h-8.076V55.386l-10.4 15.783h-.209l-10.293-15.625v23.964h-7.969z"/><path class="st8" d="M364.356 42.561h-14.41v36.947h14.41c11.613 0 19.637-8.073 19.637-18.473v-.103c0-10.401-8.024-18.371-19.637-18.371zm11.138 18.58c0 6.544-4.487 11.029-11.138 11.029h-6.279V49.9h6.279c6.651 0 11.138 4.588 11.138 11.134v.107z"/><g id="XMLID_78_"><path id="XMLID_79_" class="st9" d="M65.99 16.878c-1.858 1.103-7.176 3.407-22.396 8.488-2.718.9-5.604 1.673-8.658 2.492l-1.832.493c-9.132 2.493-17.842 5.283-24.023 11.954C3.635 46.177.988 54.302.988 65.145v2.862c0 3.959.712 7.804 2.12 11.46.249-5.515 2.914-18.787 21.98-25.579v-.138l.404-.019a52.932 52.932 0 0 1 3.909-1.201c1.184-.319 2.324-.638 3.441-.98 9.375-2.729 15.898-5.573 20.534-8.951a25.342 25.342 0 0 0 3.49-2.947c5.63-5.654 8.541-12.91 9.124-22.774z"/></g><g id="XMLID_52_"><path id="XMLID_53_" class="st7" d="M4.092 81.78C9.4 92.85 20.729 100 32.98 100c12.262 0 23.583-7.151 28.866-18.224.065-.716.454-6.561-3.11-12.918-3.162-5.678-8.462-10.089-15.775-13.139a14.022 14.022 0 0 1 4.07 9.908c0 7.76-6.303 14.074-14.051 14.074-7.76 0-14.074-6.313-14.074-14.074 0-3.761 1.488-7.3 4.083-9.913C2.633 64.196 3.962 80.554 4.092 81.78z"/></g><g id="XMLID_49_"><path id="XMLID_50_" class="st8" d="M0 16.847C.566 26.561 3.354 33.729 8.727 39.3c5.934-6.187 13.958-9.019 22.448-11.399-3.12-.832-6.066-1.619-8.83-2.534C10.044 21.26 2.559 18.406 0 16.847z"/></g><g id="XMLID_46_"><path id="XMLID_47_" class="st8" d="M40.833 53.883c8.81 3.132 15.111 8.013 18.73 14.512 2.499 4.457 3.135 8.605 3.258 11.115a31.797 31.797 0 0 0 2.128-11.503v-2.862c0-2.002-.089-3.843-.272-5.63-.779-7.915-3.231-14.086-7.489-18.847a26.726 26.726 0 0 1-3.257 2.698c-4.47 3.256-10.626 6.015-19.292 8.638.563.162 1.185.334 1.898.525 1.318.351 2.628.754 3.895 1.197h.393l.008.157z"/></g><g id="XMLID_42_"><path id="XMLID_44_" class="st7" d="M32.996 0c-4.761 0-8.635 3.874-8.635 8.635 0 4.761 3.874 8.635 8.635 8.635 4.761 0 8.635-3.874 8.635-8.635C41.63 3.874 37.757 0 32.996 0z"/></g></svg>