<?xml version="1.0" encoding="utf-8"?>
<!-- Generator: Adobe Illustrator 21.0.2, SVG Export Plug-In . SVG Version: 6.00 Build 0)  -->
<svg version="1.1" id="Layer_1" xmlns="http://www.w3.org/2000/svg" xmlns:xlink="http://www.w3.org/1999/xlink" x="0px" y="0px"
	 viewBox="0 0 384.167 100" style="enable-background:new 0 0 384.167 100;" xml:space="preserve">
<style type="text/css">
	.st0{fill:#A3BBBF;}
	.st1{fill:#5B9399;}
	.st2{fill:#2D6D76;}
	.st3{display:none;}
	.st4{display:inline;fill:#A3BBBF;}
	.st5{display:inline;fill:#5B9399;}
	.st6{display:inline;fill:#2D6D76;}
	.st7{fill:#56C5D0;}
	.st8{fill:#00657D;}
	.st9{fill:#A5DFE1;}
</style>
<g>
	<path class="st7" d="M114.108,45.791h-5.55L93.565,80.108h6.135l3.503-8.226h16.112l3.458,8.226h6.328L114.108,45.791z
		 M105.394,66.577l5.839-13.63l5.893,13.63H105.394z"/>
	<polygon id="XMLID_17_" class="st7" points="139.807,46.036 145.357,46.036 163.611,69.596 163.611,46.036 169.5,46.036
		169.5,80.109 164.487,80.109 145.698,55.868 145.698,80.109 139.807,80.109 	"/>
	<path id="XMLID_16_" class="st7" d="M181.621,63.171v-0.099c0-9.54,7.301-17.62,17.573-17.62c5.94,0,9.592,1.652,13.095,4.623
		l-3.796,4.527c-2.629-2.239-5.211-3.652-9.542-3.652c-6.279,0-11.05,5.502-11.05,12.025v0.097c0,7.01,4.625,12.167,11.585,12.167
		c3.214,0,6.132-1.02,8.227-2.578v-6.376h-8.712v-5.209h14.505v14.311c-3.358,2.873-8.179,5.304-14.212,5.304
		C188.631,80.692,181.621,73.098,181.621,63.171"/>
	<polygon id="XMLID_15_" class="st7" points="226.158,46.036 251.422,46.036 251.422,51.39 232.148,51.39 232.148,60.248
		249.235,60.248 249.235,65.602 232.148,65.602 232.148,74.754 251.666,74.754 251.666,80.109 226.158,80.109 	"/>
	<polygon id="XMLID_14_" class="st7" points="263.64,46.036 269.626,46.036 269.626,74.659 287.541,74.659 287.541,80.109
		263.64,80.109 	"/>
	<polygon id="XMLID_12_" class="st8" points="300.732,42.561 309.496,42.561 319.203,58.183 328.917,42.561 337.679,42.561
		337.679,79.508 329.603,79.508 329.603,55.386 319.203,71.169 318.994,71.169 308.701,55.544 308.701,79.508 300.732,79.508 	"/>
	<path class="st8" d="M364.356,42.561h-14.41v36.947h14.41c11.613,0,19.637-8.073,19.637-18.473v-0.103
		C383.993,50.531,375.969,42.561,364.356,42.561z M375.494,61.141c0,6.544-4.487,11.029-11.138,11.029h-6.279V49.9h6.279
		c6.651,0,11.138,4.588,11.138,11.134V61.141z"/>
	<g id="XMLID_78_">
		<path id="XMLID_79_" class="st9" d="M65.99,16.878c-1.858,1.103-7.176,3.407-22.396,8.488c-2.718,0.9-5.604,1.673-8.658,2.492
			l-1.832,0.493c-9.132,2.493-17.842,5.283-24.023,11.954c-5.446,5.872-8.093,13.997-8.093,24.84v2.862
			c0,3.959,0.712,7.804,2.12,11.46c0.249-5.515,2.914-18.787,21.98-25.579V53.75l0.404-0.019c1.269-0.445,2.584-0.849,3.909-1.201
			c1.184-0.319,2.324-0.638,3.441-0.98c9.375-2.729,15.898-5.573,20.534-8.951c1.304-0.921,2.477-1.912,3.49-2.947
			C62.496,33.998,65.407,26.742,65.99,16.878z"/>
	</g>
	<g id="XMLID_52_">
		<path id="XMLID_53_" class="st7" d="M4.092,81.78C9.4,92.85,20.729,100,32.98,100c12.262,0,23.583-7.151,28.866-18.224
			c0.065-0.716,0.454-6.561-3.11-12.918c-3.162-5.678-8.462-10.089-15.775-13.139c2.587,2.605,4.07,6.14,4.07,9.908
			c0,7.76-6.303,14.074-14.051,14.074c-7.76,0-14.074-6.313-14.074-14.074c0-3.761,1.488-7.3,4.083-9.913
			C2.633,64.196,3.962,80.554,4.092,81.78z"/>
	</g>
	<g id="XMLID_49_">
		<path id="XMLID_50_" class="st8" d="M0,16.847C0.566,26.561,3.354,33.729,8.727,39.3c5.934-6.187,13.958-9.019,22.448-11.399
			c-3.12-0.832-6.066-1.619-8.83-2.534C10.044,21.26,2.559,18.406,0,16.847z"/>
	</g>
	<g id="XMLID_46_">
		<path id="XMLID_47_" class="st8" d="M40.833,53.883c8.81,3.132,15.111,8.013,18.73,14.512c2.499,4.457,3.135,8.605,3.258,11.115
			c1.413-3.664,2.128-7.523,2.128-11.503v-2.862c0-2.002-0.089-3.843-0.272-5.63c-0.779-7.915-3.231-14.086-7.489-18.847
			c-0.969,0.947-2.061,1.853-3.257,2.698c-4.47,3.256-10.626,6.015-19.292,8.638c0.563,0.162,1.185,0.334,1.898,0.525
			c1.318,0.351,2.628,0.754,3.895,1.197h0.393L40.833,53.883z"/>
	</g>
	<g id="XMLID_42_">
		<path id="XMLID_44_" class="st7" d="M32.996,0c-4.761,0-8.635,3.874-8.635,8.635c0,4.761,3.874,8.635,8.635,8.635
			c4.761,0,8.635-3.874,8.635-8.635C41.63,3.874,37.757,0,32.996,0z"/>
	</g>
</g>
</svg>
