<?xml version="1.0" encoding="utf-8"?>
<!-- Generator: Adobe Illustrator 21.0.2, SVG Export Plug-In . SVG Version: 6.00 Build 0)  -->
<svg version="1.1" id="Layer_1" xmlns="http://www.w3.org/2000/svg" xmlns:xlink="http://www.w3.org/1999/xlink" x="0px" y="0px"
	 viewBox="0 0 100 86" style="enable-background:new 0 0 100 86;" xml:space="preserve">
<style type="text/css">
	.st0{fill:none;stroke:#000000;stroke-width:4;stroke-linecap:round;stroke-linejoin:round;stroke-miterlimit:10;}
</style>
<path d="M97.767,40.099L59.396,1.728c-1.645-1.645-4.309-1.645-5.954,0c-1.645,1.644-1.645,4.31,0,5.954l31.184,31.184H4.96
	c-2.324,0-4.21,1.885-4.21,4.21c0,2.325,1.886,4.21,4.21,4.21h79.666L53.442,78.47c-1.645,1.644-1.645,4.31,0,5.954
	c0.822,0.822,1.899,1.233,2.977,1.233c1.078,0,2.154-0.411,2.977-1.233l38.371-38.371C99.411,44.408,99.411,41.742,97.767,40.099z"
	/>
</svg>
