<?xml version="1.0" encoding="utf-8"?>
<!-- Generator: Adobe Illustrator 21.0.2, SVG Export Plug-In . SVG Version: 6.00 Build 0)  -->
<svg version="1.1" id="Layer_1" xmlns="http://www.w3.org/2000/svg" xmlns:xlink="http://www.w3.org/1999/xlink" x="0px" y="0px"
	 viewBox="0 0 100 95" style="enable-background:new 0 0 100 95;" xml:space="preserve">
<g id="XMLID_16_">
	<path id="XMLID_17_" d="M99,0c-2.801,1.663-10.818,5.137-33.766,12.796c-4.098,1.357-8.449,2.523-13.053,3.758l-2.761,0.743
		c-13.768,3.758-26.898,7.966-36.218,18.022C4.992,44.173,1,56.421,1,72.768v4.315c0,5.969,1.074,11.765,3.197,17.277
		c0.375-8.315,4.394-28.324,33.138-38.562c0,0,4.504-1.518,6.503-2.049c1.786-0.482,3.504-0.963,5.187-1.477
		c14.133-4.115,23.968-8.401,30.957-13.495c1.966-1.389,3.734-2.883,5.261-4.443C93.733,25.809,98.122,14.871,99,0z"/>
</g>
</svg>
