<svg id="Layer_1" xmlns="http://www.w3.org/2000/svg" viewBox="0 0 100 86"><style>.st0{stroke:#000;stroke-width:4;stroke-linecap:round;stroke-linejoin:round;stroke-miterlimit:10}.st0,.st1{fill:none}</style><path d="M52.876 68.629c-.49 1.513-2.237 2.407-3.75 1.917l-24.33-7.883a2.97 2.97 0 0 1-1.917-3.75c.383-1.214 1.555-2.067 2.833-2.067.298 0 .618.043.916.149l24.33 7.883c.746.234 1.363.767 1.726 1.491s.426 1.514.192 2.26z"/><path d="M90.478.391a8.52 8.52 0 0 0-8.522 8.522v2.706l-66.15 20.836c-.469-3.664-3.558-6.498-7.35-6.498C4.345 25.957 1 29.301 1 33.413v19.174c0 4.112 3.345 7.457 7.457 7.457 3.792 0 6.881-2.833 7.35-6.498l4.538 1.427a7.046 7.046 0 0 0-1.534 2.62c-1.236 3.792.852 7.904 4.666 9.118l24.33 7.883a7.21 7.21 0 0 0 2.216.362 7.26 7.26 0 0 0 6.903-5.006c.362-1.108.405-2.258.234-3.366l24.798 7.797v2.706c0 4.708 3.813 8.522 8.522 8.522S99 81.795 99 77.087V8.913A8.52 8.52 0 0 0 90.478.391zM11.652 33.775v18.812c0 1.768-1.427 3.196-3.196 3.196S5.26 54.356 5.26 52.587V33.413c0-1.768 1.427-3.196 3.196-3.196s3.196 1.427 3.196 3.196v.362zm70.305 36.154L15.913 49.114V36.907l66.043-20.814v53.836zm12.782 7.158c0 2.344-1.917 4.261-4.261 4.261s-4.261-1.917-4.261-4.261V8.913c0-2.343 1.917-4.261 4.261-4.261s4.261 1.917 4.261 4.261v68.174z"/></svg>