<svg id="Layer_1" xmlns="http://www.w3.org/2000/svg" viewBox="0 0 100 100"><style>.st0{stroke:#000;stroke-width:4;stroke-linecap:round;stroke-linejoin:round;stroke-miterlimit:10}.st0,.st1{fill:none}.st2{display:none}.st3{fill:#f4623b}.st4{fill:#fdebe6}.st5{fill:#f8c4b7}</style><path d="M4.753 40.387c4.9.9 9.9 1.4 14.9 1.4 9 .1 18-1.7 26.4-5.1v16.7l5.9 2.8 2 1v-20.5c8.4 3.4 17.4 5.1 26.4 5 5 0 10-.5 14.9-1.4 1.5-.3 2.7-1.5 3-3 .3-1.6-.5-3.1-1.8-3.9-6.6-3.7-12.2-8.9-16.5-15.1-.8-1.2-2-2-3.4-2.2s-2.9.1-4 1c-5.6 4-11.8 7.2-18.4 9.3v-6c5.1-2.2 7.5-8.1 5.3-13.2-2.3-5.2-8.2-7.5-13.3-5.4s-7.5 8.1-5.3 13.2c1 2.4 2.9 4.3 5.3 5.3v6c-6.6-2.1-12.8-5.2-18.5-9.3-1.1-.9-2.6-1.2-4-1-1.4.2-2.6 1-3.4 2.2-4.3 6.3-10 11.4-16.7 15.2-1.4.8-2.1 2.4-1.8 3.9.3 1.6 1.5 2.8 3 3.1zm49.3 54.6v-16l-8-3.7v19.7c0 2.2 1.8 4 4 4s4-1.8 4-4zm3-36.5l9.2 4.3c4.8-2.8 6.4-8.9 3.6-13.7-1-1.7-2.5-3.1-4.3-4-1.8-1.2-4.3-.7-5.5 1.1s-.7 4.3 1.1 5.5c.3.2.6.4 1 .5 1 .5 1.5 1.8 1 2.8-.2.4-.6.8-1 1l-5.1 2.5zm-22.5 28.7c2.1.7 4.4-.4 5.1-2.5.6-1.8-.1-3.7-1.7-4.7-1-.5-1.5-1.8-1-2.8.2-.4.6-.8 1-1l5.1-2.4-9.2-4.3c-4.8 2.8-6.4 8.9-3.6 13.7.9 1.7 2.5 3.1 4.3 4zm3.4-34.9c2.1-.7 3.3-2.9 2.6-5s-2.9-3.3-5-2.6c-.3.1-.7.3-1 .5-5 2.4-7.1 8.3-4.8 13.3 1 2.1 2.7 3.8 4.8 4.8l11.5 5.4 16 7.6c1 .5 1.5 1.8 1 2.8-.2.4-.6.8-1 1-2.1.7-3.3 2.9-2.6 5s2.9 3.3 5 2.6c.3-.1.7-.3 1-.5 5-2.4 7.1-8.3 4.8-13.3-1-2.1-2.7-3.8-4.8-4.8l-16-7.5-11.5-5.4c-1-.5-1.5-1.8-1-2.8.2-.5.5-.9 1-1.1z"/></svg>