<?xml version="1.0" encoding="utf-8"?>
<!-- Generator: Adobe Illustrator 21.0.2, SVG Export Plug-In . SVG Version: 6.00 Build 0)  -->
<svg version="1.1" id="Layer_1" xmlns="http://www.w3.org/2000/svg" xmlns:xlink="http://www.w3.org/1999/xlink" x="0px" y="0px"
	 viewBox="0 0 100 97" style="enable-background:new 0 0 100 97;" xml:space="preserve">
<path d="M27.95,20.351c2.977,0,5.39-2.413,5.39-5.39V6.14c0-2.977-2.413-5.39-5.39-5.39s-5.39,2.413-5.39,5.39v8.821
	C22.56,17.937,24.973,20.351,27.95,20.351z M72.049,20.351c2.977,0,5.39-2.413,5.39-5.39V6.14c0-2.977-2.413-5.39-5.39-5.39
	s-5.39,2.413-5.39,5.39v8.821C66.659,17.937,69.072,20.351,72.049,20.351z M94.098,9.571h-13.72v6.37c0,4.6-3.73,8.33-8.33,8.33
	c-4.598,0-8.33-3.73-8.33-8.33v-6.37H36.28v6.37c0,4.6-3.73,8.33-8.33,8.33s-8.33-3.73-8.33-8.33v-6.37H5.9
	c-2.707,0-4.9,2.193-4.9,4.9v76.44c0,2.706,2.193,4.899,4.9,4.899H94.1c2.707,0,4.9-2.193,4.9-4.899v-76.44
	C98.999,11.764,96.805,9.571,94.098,9.571z M43.874,82.091L23.54,61.511l6.125-6.37l14.211,13.23l26.459-28.42l7.105,5.881
	L43.874,82.091z"/>
</svg>
