<svg id="Layer_1" xmlns="http://www.w3.org/2000/svg" viewBox="0 0 100 100"><style>.st0,.st1,.st2{display:none}.st1,.st2{fill:none;stroke:#000;stroke-width:5;stroke-miterlimit:10}.st2{stroke-linejoin:round}</style><path d="M28.729 953.362a3.196 3.196 0 0 0-3.196 3.196v12.283c-3.706 1.33-6.391 4.883-6.391 9.021 0 5.257 4.33 9.587 9.587 9.587s9.587-4.33 9.587-9.587c0-4.133-2.692-7.688-6.391-9.021v-12.283a3.196 3.196 0 0 0-3.196-3.196zm42.609 0a3.196 3.196 0 0 0-3.196 3.196v12.283c-3.706 1.33-6.391 4.883-6.391 9.021 0 5.257 4.33 9.587 9.587 9.587s9.587-4.33 9.587-9.587c0-4.133-2.692-7.688-6.391-9.021v-12.283a3.197 3.197 0 0 0-3.196-3.196zm-57.522 6.391c-6.454 0-11.751 5.297-11.751 11.751v68.107c0 6.454 5.297 11.751 11.751 11.751h72.368c6.454 0 11.751-5.297 11.751-11.751v-68.107c0-6.454-5.297-11.751-11.751-11.751h-6.358c-1.688-.023-3.262 1.507-3.262 3.196 0 1.688 1.574 3.219 3.262 3.196h6.358c3.017 0 5.359 2.342 5.359 5.359v18.076H8.457v-18.076c0-3.018 2.342-5.359 5.359-5.359h6.358c1.688.023 3.229-1.507 3.229-3.196 0-1.688-1.541-3.22-3.229-3.196h-6.358zm23.401 0a3.196 3.196 0 0 0 0 6.392h25.565a3.196 3.196 0 0 0 0-6.392H37.217zm-8.488 14.914c1.803 0 3.196 1.393 3.196 3.196s-1.393 3.196-3.196 3.196c-1.803 0-3.196-1.393-3.196-3.196s1.393-3.196 3.196-3.196zm42.609 0c1.803 0 3.196 1.393 3.196 3.196s-1.393 3.196-3.196 3.196c-1.803 0-3.196-1.393-3.196-3.196s1.393-3.196 3.196-3.196zM8.457 995.971h83.087v43.641c0 3.018-2.342 5.359-5.359 5.359H13.816c-3.018 0-5.359-2.342-5.359-5.359v-43.641z" transform="translate(0 -952.362)"/></svg>