<svg xmlns="http://www.w3.org/2000/svg" viewBox="0 0 100 97"><path d="M27.95 20.351a5.39 5.39 0 0 0 5.39-5.39V6.14a5.39 5.39 0 1 0-10.78 0v8.821a5.39 5.39 0 0 0 5.39 5.39zm44.099 0a5.39 5.39 0 0 0 5.39-5.39V6.14a5.39 5.39 0 1 0-10.78 0v8.821a5.39 5.39 0 0 0 5.39 5.39zm22.049-10.78h-13.72v6.37a8.33 8.33 0 0 1-16.66 0v-6.37H36.28v6.37a8.33 8.33 0 0 1-16.66 0v-6.37H5.9a4.899 4.899 0 0 0-4.9 4.9v76.44a4.899 4.899 0 0 0 4.9 4.899h88.2c2.707 0 4.9-2.193 4.9-4.899v-76.44a4.901 4.901 0 0 0-4.902-4.9zm-50.224 72.52L23.54 61.511l6.125-6.37 14.211 13.23 26.459-28.42 7.105 5.881-33.566 36.259z"/></svg>