<?xml version="1.0" encoding="utf-8"?>
<!-- Generator: Adobe Illustrator 21.0.2, SVG Export Plug-In . SVG Version: 6.00 Build 0)  -->
<svg version="1.1" id="Layer_1" xmlns="http://www.w3.org/2000/svg" xmlns:xlink="http://www.w3.org/1999/xlink" x="0px" y="0px"
	 viewBox="0 0 100 100" style="enable-background:new 0 0 100 100;" xml:space="preserve">
<style type="text/css">
	.st0{display:none;}
	.st1{display:none;fill:none;stroke:#000000;stroke-width:5;stroke-miterlimit:10;}
	.st2{display:none;fill:none;stroke:#000000;stroke-width:5;stroke-linejoin:round;stroke-miterlimit:10;}
</style>
<g transform="translate(0,-952.36218)">
	<path d="M28.729,953.362c-1.765,0-3.196,1.431-3.196,3.196v12.283c-3.706,1.33-6.391,4.883-6.391,9.021
		c0,5.257,4.33,9.587,9.587,9.587c5.257,0,9.587-4.33,9.587-9.587c0-4.133-2.692-7.688-6.391-9.021v-12.283
		C31.925,954.793,30.494,953.362,28.729,953.362z M71.338,953.362c-1.765,0-3.196,1.431-3.196,3.196v12.283
		c-3.706,1.33-6.391,4.883-6.391,9.021c0,5.257,4.33,9.587,9.587,9.587c5.257,0,9.587-4.33,9.587-9.587
		c0-4.133-2.692-7.688-6.391-9.021v-12.283C74.533,954.793,73.102,953.362,71.338,953.362z M13.816,959.753
		c-6.454,0-11.751,5.297-11.751,11.751v68.107c0,6.454,5.297,11.751,11.751,11.751h72.368c6.454,0,11.751-5.297,11.751-11.751
		v-68.107c0-6.454-5.297-11.751-11.751-11.751h-6.358c-1.688-0.023-3.262,1.507-3.262,3.196c0,1.688,1.574,3.219,3.262,3.196h6.358
		c3.017,0,5.359,2.342,5.359,5.359v18.076H8.457v-18.076c0-3.018,2.342-5.359,5.359-5.359h6.358
		c1.688,0.023,3.229-1.507,3.229-3.196c0-1.688-1.541-3.22-3.229-3.196L13.816,959.753L13.816,959.753z M37.217,959.753
		c-1.765,0-3.196,1.431-3.196,3.196c0,1.765,1.431,3.196,3.196,3.196h25.565c1.765,0,3.196-1.431,3.196-3.196
		c0-1.765-1.431-3.196-3.196-3.196C62.783,959.753,37.217,959.753,37.217,959.753z M28.729,974.667c1.803,0,3.196,1.393,3.196,3.196
		s-1.393,3.196-3.196,3.196c-1.803,0-3.196-1.393-3.196-3.196S26.926,974.667,28.729,974.667z M71.338,974.667
		c1.803,0,3.196,1.393,3.196,3.196s-1.393,3.196-3.196,3.196c-1.803,0-3.196-1.393-3.196-3.196S69.535,974.667,71.338,974.667z
		 M8.457,995.971h83.087v43.641c0,3.018-2.342,5.359-5.359,5.359H13.816c-3.018,0-5.359-2.342-5.359-5.359V995.971z"/>
</g>
</svg>
