<?xml version="1.0" encoding="utf-8"?>
<!-- Generator: Adobe Illustrator 21.1.0, SVG Export Plug-In . SVG Version: 6.00 Build 0)  -->
<svg version="1.1" id="Layer_1" xmlns="http://www.w3.org/2000/svg" xmlns:xlink="http://www.w3.org/1999/xlink" x="0px" y="0px"
	 viewBox="0 0 100 100" style="enable-background:new 0 0 100 100;" xml:space="preserve">
<style type="text/css">
	.st0{fill:none;stroke:#000000;stroke-width:4;stroke-linecap:round;stroke-linejoin:round;stroke-miterlimit:10;}
	.st1{fill:none;}
</style>
<path d="M-3183.199,146h-11.891c-1.423,0-2.576-1.153-2.576-2.576s1.153-2.576,2.576-2.576h11.891c1.423,0,2.576,1.153,2.576,2.576
	S-3181.777,146-3183.199,146z M-3178.047,137.105h-22.196c-1.423,0-2.576-1.153-2.576-2.576s1.153-2.576,2.576-2.576h22.196
	c1.423,0,2.576,1.153,2.576,2.576S-3176.625,137.105-3178.047,137.105z M-3178.074,128.208h-22.198
	c-1.423,0-2.576-1.153-2.576-2.576v-6.678c0.004-1.184-0.043-2.87-0.487-3.946c-0.321-0.775-1.018-1.692-1.961-2.582
	c-0.034-0.032-0.067-0.065-0.099-0.099c-4.166-4.386-9.132-11.323-9.132-19.465c0-13.525,10.573-24.66,24.07-25.351
	c0.396-0.022,1.289-0.033,1.289-0.033c0.454-0.03,0.96,0.014,1.416,0.04c0.004,0,0.006,0,0.01,0.001
	c13.415,0.767,23.924,11.9,23.924,25.344c0,8.14-4.965,15.077-9.131,19.464c-0.033,0.035-0.067,0.069-0.101,0.101
	c-0.942,0.887-1.638,1.804-1.958,2.582c-0.338,0.819-0.499,2.107-0.49,3.934v6.689
	C-3175.498,127.054-3176.651,128.208-3178.074,128.208z M-3197.696,123.056h17.046v-4.101c-0.012-2.582,0.259-4.409,0.881-5.914
	c0.604-1.462,1.658-2.912,3.132-4.312c2.885-3.051,7.668-9.124,7.668-15.868c0-10.715-8.373-19.587-19.062-20.2
	c-0.365-0.02-0.735-0.032-1.108-0.032c-0.004,0-0.713,0.008-1.042,0.026c-10.768,0.551-19.193,9.427-19.193,20.206
	c0,6.745,4.783,12.818,7.67,15.869c1.026,0.977,2.384,2.504,3.129,4.308c0.616,1.49,0.888,3.317,0.879,5.924V123.056z
	 M-3212.657,72.754c-0.659,0-1.318-0.252-1.821-0.754l-7.625-7.621c-1.006-1.006-1.006-2.637-0.001-3.643
	c1.006-1.006,2.638-1.006,3.644-0.001l7.625,7.621c1.006,1.006,1.006,2.637,0.001,3.643
	C-3211.338,72.502-3211.998,72.754-3212.657,72.754z M-3166.692,72.119c-0.659,0-1.318-0.252-1.821-0.754
	c-1.006-1.006-1.006-2.637-0.001-3.643l7.62-7.624c1.006-1.006,2.638-1.006,3.644-0.001c1.006,1.006,1.006,2.637,0.001,3.643
	l-7.62,7.624C-3165.372,71.868-3166.033,72.119-3166.692,72.119z M-3197.759,63.919c-1.138,0-2.179-0.759-2.487-1.91l-2.789-10.411
	c-0.368-1.374,0.448-2.787,1.821-3.155c1.381-0.37,2.786,0.448,3.155,1.822l2.789,10.411c0.369,1.374-0.448,2.787-1.821,3.155
	C-3197.315,63.89-3197.539,63.919-3197.759,63.919z M-3180.801,63.567c-0.22,0-0.445-0.028-0.668-0.089
	c-1.375-0.369-2.19-1.781-1.821-3.155l2.792-10.413c0.368-1.373,1.783-2.191,3.155-1.821c1.375,0.369,2.19,1.781,1.821,3.155
	l-2.792,10.413C-3178.622,62.808-3179.664,63.567-3180.801,63.567z"/>
<path d="M-3790.699,106.098l22.606,17.047l47.454-62.126c2.614-3.733,7.76-4.64,11.493-2.026l0.627,0.462
	c3.732,2.614,4.64,7.758,2.025,11.492l-51.783,79.77c-1.955,2.791-3.896,3.762-7.301,3.988c-3.405,0.225-5.464-1.039-7.508-3.084
	l-29.467-33.691c-3.263-3.262-3.263-8.553,0-11.814l0.041-0.019C-3799.25,102.834-3793.961,102.834-3790.699,106.098z"/>
<g>
	<path d="M-3586.872,59.372c-2.497-2.497-6.38-2.497-8.877,0L-3635,98.623l-39.251-39.251c-2.497-2.497-6.38-2.497-8.877,0
		c-2.496,2.497-2.496,6.38,0,8.877l39.251,39.251l-39.251,39.251c-2.496,2.497-2.496,6.38,0,8.877
		c1.248,1.248,2.774,1.803,4.438,1.803c1.664,0,3.19-0.555,4.438-1.803l39.251-39.251l39.251,39.251
		c1.248,1.248,2.774,1.803,4.438,1.803c1.665,0,3.19-0.555,4.438-1.803c2.496-2.497,2.496-6.38,0-8.877l-39.251-39.251
		l39.251-39.251C-3584.515,65.752-3584.515,61.869-3586.872,59.372z"/>
</g>
<g>
	<g transform="translate(-69.000000, -228.000000)">
		<g transform="translate(69.000000, 230.000000)">
			<path d="M-3565,61.056c0-3.068,2.472-5.556,5.519-5.556h88.962c3.048,0,5.519,2.466,5.519,5.556c0,3.068-2.472,5.556-5.519,5.556
				h-88.962C-3562.529,66.611-3565,64.145-3565,61.056z M-3565,94.389c0-3.068,2.472-5.556,5.519-5.556h88.962
				c3.048,0,5.519,2.466,5.519,5.556c0,3.068-2.472,5.556-5.519,5.556h-88.962C-3562.529,99.944-3565,97.479-3565,94.389z
				 M-3565,127.722c0-3.068,2.472-5.556,5.519-5.556h88.962c3.048,0,5.519,2.466,5.519,5.556c0,3.068-2.472,5.556-5.519,5.556
				h-88.962C-3562.529,133.278-3565,130.812-3565,127.722z"/>
		</g>
	</g>
</g>
<g>
	<rect x="-3795.351" y="236.465" width="80.702" height="5.263"/>
	<rect x="-3784.824" y="245.237" width="59.649" height="5.263"/>
</g>
<g>
	<path d="M-3709.386,177.5h-91.228c-2.456,0-4.386,1.93-4.386,4.386v47.368c0,2.456,1.93,4.386,4.386,4.386h91.228
		c2.456,0,4.386-1.93,4.386-4.386v-47.368C-3705,179.43-3706.93,177.5-3709.386,177.5z M-3799.737,182.763h5.263
		c0,2.456-1.93,4.386-4.386,4.386h-0.877V182.763z M-3799.737,228.377v-4.386h0.877c2.456,0,4.386,1.93,4.386,4.386H-3799.737z
		 M-3710.263,228.377h-5.263c0-2.456,1.93-4.386,4.386-4.386h0.877V228.377z M-3710.263,218.728h-0.877
		c-5.263,0-9.649,4.386-9.649,9.649h-68.421c0-5.263-4.386-9.649-9.649-9.649h-0.877v-26.316h0.877c5.263,0,9.649-4.386,9.649-9.649
		h69.298c0,5.263,4.386,9.649,9.649,9.649V218.728z M-3710.263,187.149c-2.456,0-4.386-1.93-4.386-4.386h4.386V187.149z"/>
	<path d="M-3753.246,208.553v4.912c1.754-0.526,1.93-1.93,1.93-2.632C-3751.316,209.956-3751.842,209.254-3753.246,208.553z"/>
	<path d="M-3757.982,202.061c0,0.877,0.526,1.404,1.754,1.93v-4.211C-3757.281,200.132-3757.982,201.009-3757.982,202.061z"/>
	<path d="M-3768.684,192.237c-7.544,7.544-7.544,19.825,0,27.368c7.544,7.544,19.825,7.544,27.369,0
		c7.544-7.544,7.544-19.825,0-27.368C-3748.86,184.693-3761.14,184.693-3768.684,192.237z M-3753.246,216.798v2.456h-2.807v-2.456
		c-2.105-0.351-4.035-1.404-5.263-3.158l-0.351-0.526l1.93-2.456l0.702,0.877c0.526,0.702,1.579,1.754,2.982,2.105v-5.965
		c-2.281-0.702-4.912-1.93-4.912-5.439c0-2.807,1.93-5.088,4.912-5.614v-2.456h2.807v2.632c1.754,0.351,3.333,1.228,4.561,2.807
		l0.351,0.526l-1.93,2.281l-0.702-0.877c-0.526-0.877-1.404-1.404-2.281-1.754v5.088c2.105,0.702,5.088,1.93,5.088,5.965
		C-3748.158,213.289-3749.562,216.096-3753.246,216.798z"/>
	<circle cx="-3786.579" cy="193.64" r="3.509"/>
	<circle cx="-3723.421" cy="218.202" r="3.509"/>
</g>
<path d="M-3587.189,244.194l-35.341-59.382c-2.548-4.653-7.312-7.312-12.519-7.312s-9.971,2.659-12.63,7.201l-35.23,59.493
	c-2.77,4.542-2.77,10.192-0.111,14.735s7.423,7.423,12.851,7.423h70.35c5.429,0,10.192-2.77,12.851-7.423
	C-3584.308,254.386-3584.308,248.736-3587.189,244.194z M-3630.285,246.299c0,2.77-2.105,4.875-4.875,4.875
	c-2.77,0-4.875-2.105-4.875-4.875v-1.662c0-2.77,2.105-4.875,4.875-4.875c2.77,0,4.986,2.105,4.875,4.875V246.299z
	 M-3630.285,232.118c0,2.77-2.105,4.875-4.875,4.875c-2.77,0-4.875-2.105-4.875-4.875v-26.256c0-2.77,2.105-4.875,4.875-4.875
	c2.77,0,4.986,2.327,4.875,4.985V232.118z"/>
<g>
	<g id="XMLID_78_">
		<path id="XMLID_7_" d="M-3362.665,69.541c-1.821,1.081-7.032,3.339-21.949,8.318c-2.664,0.882-5.492,1.64-8.485,2.443
			l-1.795,0.483c-8.95,2.443-17.485,5.178-23.543,11.715c-5.337,5.755-7.932,13.717-7.932,24.343v2.805
			c0,3.88,0.698,7.648,2.078,11.231c0.244-5.405,2.856-18.412,21.541-25.067v-0.136l0.396-0.019
			c1.244-0.436,2.532-0.832,3.831-1.177c1.161-0.313,2.278-0.626,3.372-0.96c9.187-2.675,15.58-5.461,20.123-8.772
			c1.278-0.903,2.427-1.874,3.42-2.888C-3366.089,86.318-3363.236,79.208-3362.665,69.541z"/>
	</g>
	<g id="XMLID_40_">
		<path id="XMLID_6_" d="M-3423.325,133.144c5.202,10.849,16.305,17.856,28.31,17.856c12.017,0,23.112-7.008,28.289-17.86
			c0.063-0.701,0.445-6.43-3.048-12.66c-3.099-5.564-8.292-9.887-15.46-12.876c2.535,2.553,3.988,6.018,3.988,9.709
			c0,7.605-6.177,13.792-13.77,13.792c-7.605,0-13.793-6.187-13.793-13.792c0-3.686,1.458-7.154,4.001-9.714
			C-3424.755,115.912-3423.453,131.943-3423.325,133.144z"/>
	</g>
	<g id="XMLID_37_">
		<path id="XMLID_5_" d="M-3427.335,69.51c0.554,9.52,3.287,16.544,8.552,22.004c5.816-6.063,13.679-8.839,21.999-11.171
			c-3.057-0.816-5.945-1.587-8.654-2.484C-3417.492,73.835-3424.827,71.038-3427.335,69.51z"/>
	</g>
	<g id="XMLID_13_">
		<path id="XMLID_4_" d="M-3387.319,105.805c8.634,3.07,14.809,7.853,18.355,14.222c2.449,4.367,3.073,8.433,3.193,10.892
			c1.384-3.59,2.085-7.373,2.085-11.273v-2.805c0-1.962-0.087-3.766-0.267-5.518c-0.763-7.757-3.166-13.804-7.339-18.47
			c-0.949,0.928-2.02,1.816-3.191,2.644c-4.381,3.191-10.414,5.895-18.906,8.465c0.552,0.159,1.161,0.327,1.86,0.515
			c1.292,0.344,2.576,0.739,3.817,1.173h0.385L-3387.319,105.805z"/>
	</g>
	<g id="XMLID_10_">
		<circle id="XMLID_8_" cx="-3394.999" cy="61.462" r="8.462"/>
	</g>
</g>
<path d="M-3341.822,146.111V78.257h-5.005c-6.285,0-11.173,4.772-11.173,11.173v45.508c0,6.169,5.005,11.173,11.173,11.173
	 M-3271.173,146.111c6.168,0,11.173-5.005,11.173-11.174V89.43c0-6.401-5.121-11.173-11.173-11.173h-5.238v67.855 M-3320.639,68.131
	c0-2.561,2.095-4.656,4.656-4.656h13.967c2.561,0,4.656,2.095,4.656,4.656v4.423h5.587v-4.423c0-5.587-4.656-10.242-10.242-10.242
	h-13.968c-5.587,0-10.242,4.656-10.242,10.242v4.423h5.587L-3320.639,68.131L-3320.639,68.131z M-3335.886,78.257v67.855h54.121
	V78.257H-3335.886z M-3297.71,114.221h-8.729v8.38c0,1.513-1.28,2.793-2.793,2.793c-1.513,0-2.793-1.28-2.793-2.793v-8.38h-8.38
	c-1.513,0-2.793-1.28-2.793-2.793s1.28-2.793,2.793-2.793h8.38v-9.311c0-1.513,1.28-2.793,2.793-2.793
	c1.513,0,2.793,1.28,2.793,2.793v9.311h8.729c1.513,0,2.793,1.28,2.793,2.793S-3296.197,114.221-3297.71,114.221z"/>
<g transform="translate(0,-952.36218)">
	<path d="M-3085,1000.362c-27.023,0-49,21.977-49,49c0,27.023,21.977,49,49,49s49-21.977,49-49
		C-3036,1022.339-3057.977,1000.362-3085,1000.362L-3085,1000.362z M-3085,1006.896c23.492,0,42.467,18.974,42.467,42.467
		c0,23.492-18.974,42.467-42.467,42.467s-42.467-18.974-42.467-42.467C-3127.467,1025.87-3108.492,1006.896-3085,1006.896
		L-3085,1006.896z M-3077.378,1015.607c-3.007,0-5.445,2.438-5.445,5.444s2.438,5.444,5.445,5.444c3.007,0,5.444-2.438,5.444-5.444
		S-3074.371,1015.607-3077.378,1015.607z M-3084.013,1027.584c-3.926,0.176-8.1,2.11-11.604,4.798l-0.374,4.083
		c3.31-1.296,6.707-1.283,7.724,1.803c2.477,7.508-5.985,20.646-8.303,27.528c-6.287,18.674,8.8,20.831,19.566,13.135l0.408-4.424
		c-5.857,1.834-10.055-0.419-6.669-10.174c1.631-4.706,15.283-28.417,5.853-34.947
		C-3079.386,1028.02-3081.658,1027.479-3084.013,1027.584z"/>
</g>
<path d="M-2965,48L-2965,48c-27.023,0-49,21.977-49,49s21.977,49,49,49s49-21.977,49-49S-2937.977,48-2965,48z M-2965,139.467
	c-23.492,0-42.467-18.974-42.467-42.467c0-23.492,18.974-42.467,42.467-42.467v0c23.492,0,42.467,18.974,42.467,42.467
	S-2941.508,139.467-2965,139.467z"/>
<path d="M-2961.093,106.367h-7.8v-4.22c-0.087-1.417,0.135-2.837,0.65-4.16c0.771-1.325,1.739-2.525,2.87-3.56l5-5
	c1.065-1.166,1.635-2.701,1.59-4.28c0.047-1.583-0.552-3.118-1.66-4.25c-1.128-1.136-2.68-1.748-4.28-1.69
	c-1.618-0.051-3.193,0.53-4.39,1.62c-1.185,1.138-1.899,2.68-2,4.32h-8.36c0.268-3.72,1.993-7.184,4.8-9.64
	c2.878-2.388,6.532-3.641,10.27-3.52c3.632-0.153,7.193,1.04,10,3.35c2.58,2.233,3.87,5.353,3.87,9.36
	c0.088,2.501-0.721,4.952-2.28,6.91c-0.625,0.817-1.293,1.602-2,2.35c-0.46,0.46-1.07,1.047-1.83,1.76s-1.406,1.337-1.94,1.87
	c-0.533,0.533-0.96,0.983-1.28,1.35c-0.899,1.242-1.338,2.759-1.24,4.29L-2961.093,106.367z M-2959.563,116.587
	c0.006,2.999-2.421,5.434-5.42,5.44c-2.999,0.006-5.435-2.421-5.44-5.42c-0.005-2.999,2.421-5.434,5.42-5.44c0.003,0,0.007,0,0.01,0
	C-2961.998,111.167-2959.569,113.592-2959.563,116.587z"/>
<path d="M-2867.05,67.601c2.977,0,5.39-2.413,5.39-5.39V53.39c0-2.977-2.413-5.39-5.39-5.39s-5.39,2.413-5.39,5.39v8.821
	C-2872.44,65.187-2870.027,67.601-2867.05,67.601z M-2822.951,67.601c2.977,0,5.39-2.413,5.39-5.39V53.39
	c0-2.977-2.413-5.39-5.39-5.39c-2.977,0-5.39,2.413-5.39,5.39v8.821C-2828.341,65.187-2825.928,67.601-2822.951,67.601z
	 M-2800.902,56.821h-13.72v6.37c0,4.6-3.73,8.33-8.33,8.33c-4.598,0-8.33-3.73-8.33-8.33v-6.37h-27.439v6.37
	c0,4.6-3.73,8.33-8.33,8.33c-4.6,0-8.33-3.73-8.33-8.33v-6.37h-13.72c-2.707,0-4.9,2.193-4.9,4.9v76.44
	c0,2.706,2.193,4.899,4.9,4.899h88.199c2.707,0,4.9-2.193,4.9-4.899v-76.44C-2796.001,59.014-2798.195,56.821-2800.902,56.821z
	 M-2851.126,129.341l-20.334-20.58l6.125-6.37l14.21,13.23l26.459-28.42l7.105,5.881L-2851.126,129.341z"/>
<g>
	<path d="M-2714.454,97.687h-19.158c-1.227,0-2.22-0.993-2.22-2.217l0,0c0-1.227,0.993-2.218,2.22-2.218h19.158
		c1.224,0,2.219,0.991,2.219,2.218l0,0C-2712.234,96.693-2713.23,97.687-2714.454,97.687z"/>
	<path d="M-2714.454,84.335h-19.158c-1.227,0-2.22-0.995-2.22-2.22l0,0c0-1.224,0.993-2.22,2.22-2.22h19.158
		c1.224,0,2.219,0.995,2.219,2.22l0,0C-2712.234,83.339-2713.23,84.335-2714.454,84.335z"/>
	<path d="M-2738.511,89.157c-0.674-0.508-1.632-0.372-2.139,0.302l-4.838,6.416l-2.046-2.715c-0.508-0.674-1.466-0.807-2.143-0.299
		c-0.674,0.51-0.806,1.465-0.299,2.139l3.266,4.334h0.005c0.28,0.368,0.719,0.608,1.217,0.608c0.499,0,0.938-0.24,1.217-0.611
		l0.003,0.002l6.059-8.036C-2737.701,90.626-2737.837,89.666-2738.511,89.157z"/>
	<path d="M-2738.511,75.804c-0.674-0.508-1.632-0.374-2.139,0.302l-4.838,6.419l-2.046-2.716c-0.508-0.674-1.466-0.809-2.143-0.302
		c-0.674,0.508-0.806,1.469-0.299,2.142l3.266,4.334l0.005-0.005c0.28,0.372,0.719,0.614,1.217,0.614
		c0.499,0,0.938-0.241,1.217-0.614l0.003,0.005l6.059-8.04C-2737.701,77.27-2737.837,76.314-2738.511,75.804z"/>
	<path d="M-2708.124,56.746h-6.612v-0.875c0-1.226-0.995-2.223-2.22-2.223h-6.356c-0.968-3.399-4.095-5.898-7.801-5.898
		s-6.834,2.5-7.802,5.898h-6.358c-1.225,0-2.22,0.996-2.22,2.223v0.875h-6.612c-4.406,0-7.988,3.583-7.988,7.99v61.026
		c0,4.405,3.583,7.991,7.988,7.991h25.641c-1.956-1.466-3.627-3.269-4.936-5.325h-20.705c-1.468,0-2.663-1.197-2.663-2.666V64.736
		c0-1.468,1.195-2.665,2.663-2.665h6.612v2.793c0,1.224,0.995,2.221,2.22,2.221h28.318c1.225,0,2.22-0.996,2.22-2.221v-2.793h6.612
		c1.469,0,2.663,1.197,2.663,2.665v32.672h1.96c1.149-0.001,2.268,0.116,3.365,0.3V64.736
		C-2700.136,60.329-2703.719,56.746-2708.124,56.746z M-2719.177,62.644h-23.878v-4.556h6.042c1.224,0,2.218-0.995,2.218-2.217
		c0-2.031,1.652-3.681,3.681-3.681c2.028,0,3.681,1.65,3.681,3.681c0,1.222,0.988,2.213,2.21,2.217h6.047V62.644z"/>
	<path d="M-2687.905,118.432L-2687.905,118.432c0,9.22-7.474,16.693-16.693,16.693h-2.809c-2.105,3.999-6.031,6.583-8.811,7.984
		c-0.664,0.33-1.47,0.059-1.8-0.606c-0.149-0.301-0.18-0.647-0.087-0.969c0.612-2.134,0.743-4.377,0.385-6.569
		c-8.188-1.216-14.247-8.249-14.24-16.527l0,0c0-9.22,7.474-16.693,16.693-16.693h10.655c9.22-0.008,16.7,7.459,16.708,16.679
		c0,0.005,0,0.01,0,0.015V118.432z"/>
</g>
<g id="XMLID_16_">
	<path id="XMLID_17_" d="M-2556,33.5c-2.801,1.663-10.818,5.137-33.766,12.796c-4.098,1.357-8.448,2.523-13.053,3.758l-2.761,0.743
		c-13.768,3.758-26.898,7.966-36.218,18.022c-8.21,8.853-12.202,21.102-12.202,37.448v4.315c0,5.969,1.074,11.765,3.197,17.277
		c0.375-8.315,4.394-28.324,33.138-38.562c0,0,4.504-1.518,6.503-2.049c1.786-0.482,3.504-0.963,5.187-1.477
		c14.133-4.115,23.968-8.401,30.957-13.495c1.966-1.389,3.734-2.883,5.261-4.443C-2561.267,59.309-2556.878,48.371-2556,33.5z"/>
</g>
<g transform="translate(-231.86559,-335.4644)">
	<path d="M-2253.135,367.464c-16.833,0-30.529,13.696-30.529,30.529v18.471c-2.225,4.522-3.505,9.592-3.505,14.966
		c0,18.798,15.236,34.034,34.034,34.034c18.798,0,34.034-15.235,34.034-34.034c0-5.375-1.289-10.444-3.505-14.966v-18.471
		C-2222.606,381.16-2236.302,367.464-2253.135,367.464L-2253.135,367.464z M-2253.135,379.066c10.436,0,18.927,8.492,18.927,18.927
		v5.152c-5.42-3.625-11.919-5.748-18.927-5.748c-6.999,0-13.516,2.114-18.927,5.748v-5.152
		C-2272.062,387.558-2263.57,379.066-2253.135,379.066z M-2253.135,418.725c3.607,0,6.502,2.886,6.502,6.484
		c0,2.091-0.955,3.924-2.471,5.117l1.647,13.81h-11.339l1.665-13.81c-1.507-1.202-2.506-3.027-2.506-5.117
		C-2259.636,421.611-2256.741,418.725-2253.135,418.725L-2253.135,418.725z"/>
</g>
<g>
	<path d="M-2357.143,45.079h-75.556c-6.296,0-11.301,5.005-11.301,11.301v49.24c0,6.296,5.005,11.301,11.301,11.301h75.394
		c6.296,0,11.301-5.005,11.301-11.301V56.38C-2345.842,50.084-2351.009,45.079-2357.143,45.079z M-2432.699,51.537h75.394
		c0.484,0,0.969,0,1.453,0.161l-39.069,30.029l-39.069-30.029C-2433.506,51.537-2433.022,51.537-2432.699,51.537z M-2352.3,105.459
		c0,2.745-2.099,4.843-4.843,4.843h-75.556c-2.745,0-4.843-2.099-4.843-4.843V57.026l42.621,32.773l42.621-32.612V105.459z"/>
</g>
<path d="M-2228.377,109.487l-33.319-33.319c5.065-6.1,8.115-13.929,8.115-22.459c0-19.415-15.795-35.21-35.21-35.21
	S-2324,34.295-2324,53.71s15.795,35.21,35.209,35.21c7.931,0,15.255-2.638,21.148-7.079l33.457,33.457
	c0.802,0.802,1.853,1.203,2.904,1.203s2.102-0.401,2.904-1.203C-2226.772,113.693-2226.772,111.092-2228.377,109.487z
	 M-2315.784,53.71c0-14.884,12.109-26.994,26.994-26.994c14.885,0,26.994,12.11,26.994,26.994s-12.109,26.994-26.994,26.994
	C-2303.675,80.704-2315.784,68.594-2315.784,53.71z"/>
<g>
	<path d="M-2196.73,20.823c-0.852,1.461-0.73,3.165,0.122,4.626l0.122,0.122l29.458,41.265v46.621c0,1.217,0.73,2.313,1.704,2.8
		c0.365,0.243,0.852,0.243,1.339,0.243c0.73,0,1.339-0.243,1.948-0.73l14.972-12.538c0.73-0.609,1.095-1.461,1.095-2.313V66.836
		l29.458-41.265l0.122-0.122c0.852-1.461,0.974-3.165,0.122-4.626c-0.852-1.461-2.313-2.313-4.017-2.313h-72.549
		C-2194.418,18.389-2196,19.362-2196.73,20.823z M-2123.33,24.475l-28.24,39.683c-0.365,0.487-0.609,1.096-0.609,1.826V99.58
		l-8.886,7.425V65.862c0-0.609-0.243-1.217-0.609-1.826l-28.119-39.561H-2123.33z"/>
</g>
<g transform="translate(0,-952.3622)">
	<path d="M-2059.918,970.862c-1.364-0.005-2.653,1.148-2.997,2.248l-2.737,9.578c-1.923,0.632-3.767,1.376-5.539,2.281l-8.699-4.822
		c-1.181-0.662-2.791-0.438-3.747,0.521l-9.025,9.057c-0.945,0.951-1.168,2.54-0.521,3.714l4.822,8.731
		c-0.896,1.756-1.653,3.602-2.281,5.506l-9.579,2.737c-1.307,0.368-2.289,1.672-2.281,3.03v12.836
		c0.006,1.347,0.984,2.632,2.281,2.997l9.546,2.704c0.63,1.919,1.412,3.77,2.313,5.539l-4.822,8.731
		c-0.647,1.174-0.424,2.763,0.521,3.714l9.025,9.057c0.955,0.96,2.565,1.184,3.747,0.521l8.699-4.822
		c1.773,0.905,3.615,1.681,5.539,2.313l2.737,9.546c0.365,1.297,1.65,2.275,2.997,2.281h12.836c1.347-0.01,2.632-0.984,2.997-2.281
		l2.737-9.546c1.924-0.632,3.766-1.408,5.539-2.313l8.699,4.822c1.181,0.662,2.791,0.438,3.747-0.521l9.025-9.057
		c0.945-0.951,1.168-2.54,0.521-3.714l-4.822-8.731c0.901-1.768,1.684-3.62,2.313-5.539l9.546-2.704
		c1.297-0.365,2.275-1.65,2.281-2.997v-12.836c0.008-1.358-0.973-2.662-2.281-3.03l-9.578-2.737
		c-0.628-1.904-1.385-3.75-2.281-5.506l4.822-8.731c0.647-1.174,0.424-2.763-0.521-3.714l-9.025-9.057
		c-0.955-0.96-2.566-1.184-3.747-0.521l-8.699,4.822c-1.772-0.905-3.616-1.649-5.539-2.281l-2.737-9.578
		c-0.377-1.285-1.658-2.246-2.997-2.248H-2059.918z M-2057.573,977.117h8.145l2.509,8.829c0.286,1.037,1.146,1.896,2.183,2.183
		c2.635,0.726,5.118,1.762,7.461,3.095c0.925,0.532,2.127,0.545,3.062,0.033l8.08-4.496l5.734,5.734l-4.496,8.047
		c-0.522,0.93-0.522,2.132,0,3.062c1.333,2.343,2.402,4.859,3.128,7.493c0.281,1.03,1.125,1.887,2.15,2.183l8.862,2.509v8.112
		l-8.862,2.541c-1.018,0.29-1.86,1.132-2.15,2.15c-0.726,2.635-1.795,5.151-3.128,7.493c-0.522,0.93-0.522,2.132,0,3.062l4.496,8.08
		l-5.734,5.701l-8.08-4.496c-0.936-0.512-2.138-0.5-3.062,0.032c-2.343,1.333-4.826,2.402-7.461,3.128
		c-1.03,0.281-1.887,1.125-2.183,2.15l-2.509,8.862h-8.145l-2.509-8.862c-0.296-1.026-1.153-1.87-2.183-2.15
		c-2.635-0.726-5.118-1.795-7.461-3.128c-0.925-0.532-2.127-0.545-3.062-0.032l-8.08,4.496l-5.734-5.701l4.496-8.08
		c0.522-0.93,0.522-2.132,0-3.062c-1.333-2.343-2.402-4.859-3.128-7.493c-0.29-1.018-1.132-1.86-2.15-2.15l-8.862-2.541v-8.112
		l8.862-2.509c1.026-0.296,1.87-1.153,2.15-2.183c0.726-2.635,1.795-5.151,3.128-7.493c0.522-0.93,0.522-2.132,0-3.062l-4.496-8.047
		l5.734-5.734l8.08,4.496c0.936,0.512,2.138,0.5,3.062-0.033c2.343-1.333,4.826-2.369,7.461-3.095
		c1.037-0.286,1.896-1.146,2.183-2.183L-2057.573,977.117L-2057.573,977.117z M-2053.5,996.926
		c-12.63,0-22.936,10.306-22.936,22.936c0,12.63,10.306,22.936,22.936,22.936c12.63,0,22.936-10.306,22.936-22.936
		C-2030.564,1007.232-2040.87,996.926-2053.5,996.926z M-2053.5,1003.181c9.25,0,16.681,7.431,16.681,16.681
		c0,9.25-7.431,16.681-16.681,16.681c-9.25,0-16.681-7.431-16.681-16.681C-2070.181,1010.613-2062.75,1003.181-2053.5,1003.181z"/>
</g>
<g transform="translate(-91.214475,-152.15558)">
	<path d="M-1812.991,170.656c-0.352,0.005-0.687,0.147-0.936,0.396l-29.415,29.415l1.911,1.911l5.371-5.371l6.345,6.345
		c0.521,0.535,1.377,0.547,1.912,0.027c0.009-0.009,0.019-0.018,0.028-0.028c0.52-0.536,0.507-1.391-0.028-1.911l-6.345-6.345
		l5.784-5.784l6.345,6.345c0.521,0.535,1.376,0.548,1.912,0.027c0.01-0.009,0.019-0.019,0.028-0.028
		c0.52-0.536,0.507-1.391-0.028-1.911l-6.345-6.345l5.784-5.784l6.345,6.345c0.521,0.535,1.377,0.547,1.912,0.027
		c0.009-0.009,0.019-0.018,0.028-0.028c0.52-0.536,0.507-1.391-0.028-1.911l-6.345-6.345l5.784-5.784l16.422,16.422v0.001
		l-28.459,28.459l1.912,1.912l29.415-29.415c0.528-0.528,0.528-1.384,0-1.912l-18.334-18.334
		C-1812.274,170.793-1812.626,170.65-1812.991,170.656L-1812.991,170.656z M-1874.611,177.547c-2.533-0.048-5.057,0.863-6.968,2.757
		c-0.01,0.009-0.021,0.018-0.031,0.028c-3.819,3.819-3.683,10.118,0.216,14.017c0.002,0.002,0.003,0.003,0.005,0.005
		c0.213,0.21,0.436,0.41,0.666,0.601c0.06,0.101,0.131,0.196,0.218,0.283l61.407,61.407c0.069,0.069,0.144,0.13,0.222,0.182
		c0.193,0.268,0.473,0.461,0.792,0.547l16.107,4.344c0.765,0.206,1.55-0.246,1.754-1.01c0.065-0.243,0.064-0.499-0.001-0.742
		l-4.343-16.108c-0.087-0.319-0.281-0.599-0.549-0.793c-0.052-0.078-0.112-0.152-0.181-0.221l-61.407-61.407
		c-0.084-0.084-0.177-0.154-0.275-0.213c-0.194-0.233-0.397-0.459-0.612-0.674c0,0-0.001-0.001-0.002-0.002
		C-1869.538,178.603-1872.078,177.595-1874.611,177.547L-1874.611,177.547z M-1874.741,180.359c1.781,0.014,3.588,0.701,5.017,2.067
		l-9.791,9.791c-2.731-2.859-2.75-7.226-0.093-9.883C-1878.278,181.005-1876.522,180.345-1874.741,180.359L-1874.741,180.359z
		 M-1867.583,184.618l59.241,59.241l-3.855,3.855l-59.241-59.241L-1867.583,184.618L-1867.583,184.618z M-1873.468,190.503
		l59.241,59.241l-3.855,3.855l-59.241-59.241L-1873.468,190.503L-1873.468,190.503z M-1861.474,218.598l-29.416,29.416
		c-0.528,0.528-0.528,1.384,0,1.912l18.334,18.334c0.528,0.528,1.384,0.528,1.912,0l29.416-29.416l-1.912-1.912l-28.459,28.459
		l-16.422-16.422l5.784-5.784l6.345,6.345c0.521,0.535,1.377,0.547,1.912,0.027c0.009-0.009,0.019-0.018,0.028-0.028
		c0.52-0.536,0.507-1.391-0.028-1.911l-6.345-6.345l5.784-5.784l6.345,6.345c0.521,0.535,1.377,0.547,1.912,0.027
		c0.009-0.009,0.019-0.018,0.028-0.028c0.52-0.536,0.507-1.391-0.028-1.911l-6.345-6.345l5.784-5.784l6.345,6.345
		c0.521,0.535,1.376,0.548,1.912,0.027c0.009-0.009,0.019-0.018,0.028-0.028c0.52-0.536,0.508-1.391-0.028-1.911l-6.345-6.345
		l5.371-5.371L-1861.474,218.598L-1861.474,218.598z M-1806.687,246.993l3.049,11.309l-11.309-3.049L-1806.687,246.993z"/>
</g>
<path d="M-1781.086,49.408h-20.965c-1.874,0-3.392,1.519-3.392,3.392c0,1.874,1.519,3.392,3.392,3.392h17.573v53.523h-58.044V56.192
	h17.573c1.874,0,3.392-1.519,3.392-3.392c0-1.874-1.519-3.392-3.392-3.392h-20.965c-1.874,0-3.392,1.519-3.392,3.392v60.308
	c0,1.874,1.519,3.392,3.392,3.392h64.828c1.874,0,3.392-1.519,3.392-3.392V52.8C-1777.694,50.927-1779.212,49.408-1781.086,49.408z
	 M-1826.253,39.444l9.36-9.361v54.849c0,1.874,1.519,3.392,3.392,3.392s3.392-1.519,3.392-3.392V30.082l9.36,9.36
	c0.663,0.663,1.531,0.994,2.398,0.994c0.867,0,1.736-0.331,2.398-0.994c1.325-1.324,1.325-3.471,0-4.797l-15.146-15.148
	c-0.614-0.616-1.464-0.998-2.403-0.998s-1.789,0.382-2.403,0.998l-15.148,15.148c-1.325,1.325-1.325,3.473,0,4.797
	C-1829.725,40.768-1827.578,40.768-1826.253,39.444z"/>
<g sketch:type="MSPage">
	<g sketch:type="MSArtboardGroup">
		<path sketch:type="MSShapeGroup" d="M-1680.409,107.591c0,4.92-4.001,8.909-8.909,8.909h-71.273c-4.92,0-8.909-4.001-8.909-8.909
			V36.318c0-4.92,4.001-8.909,8.909-8.909h55.714l-8.909,8.909h-46.806v71.273h71.273V58.558l8.909-8.909V107.591L-1680.409,107.591
			z M-1681.082,37.457l-52.276,52.468l-13.87,4.302l4.28-13.926l52.276-52.468L-1681.082,37.457L-1681.082,37.457L-1681.082,37.457
			L-1681.082,37.457L-1681.082,37.457L-1681.082,37.457L-1681.082,37.457L-1681.082,37.457z M-1672.826,23.039
			c1.764,1.77,1.774,4.628-0.003,6.412l-3.197,3.208l-9.59-9.624l3.197-3.208c1.765-1.772,4.632-1.767,6.39-0.003L-1672.826,23.039
			L-1672.826,23.039z"/>
	</g>
</g>
<g>
	<path d="M-1564.601,18.5h-71.798c-7.221,0-13.101,5.88-13.101,13.101v71.798c0,7.221,5.88,13.101,13.101,13.101h71.798
		c7.221,0,13.101-5.88,13.101-13.101V31.601C-1551.5,24.38-1557.38,18.5-1564.601,18.5z M-1636.399,25.824h71.798
		c3.198,0,5.777,2.579,5.777,5.777v38.272l-16.608-20.941c-1.96-2.579-5.88-2.579-7.84,0l-24.242,30.638l-10.109-11.038
		c-2.063-2.269-5.674-2.269-7.737,0l-16.815,18.259V31.601C-1642.176,28.403-1639.597,25.824-1636.399,25.824z"/>
	<circle cx="-1624.226" cy="43.774" r="8.253"/>
</g>
<path d="M-1439.094,33.145c-10.125-10.087-26.577-10.087-36.702,0l-4.67,4.67l-4.743-4.743c-5.063-5.043-11.71-7.552-18.351-7.552
	c-6.641,0-13.289,2.509-18.351,7.552c-10.125,10.087-10.112,26.499,0,36.593l38.928,38.855c1.295,1.28,3.631,1.28,4.925,0
	c12.987-12.937,25.978-25.844,38.964-38.782C-1428.969,59.651-1428.969,43.232-1439.094,33.145z M-1444.056,64.74
	c-12.164,12.118-24.283,24.256-36.447,36.374l-36.447-36.41c-7.457-7.443-7.498-19.236-0.036-26.669
	c7.94-7.179,19.481-7.484,26.815,0v0l7.224,7.187c1.295,1.28,3.63,1.28,4.925,0l7.187-7.114c7.462-7.434,19.317-7.433,26.779,0
	C-1436.594,45.54-1436.594,57.306-1444.056,64.74z"/>
<g>
	<path d="M-1344.9,31.425v14.05h-48.4v-14.05H-1344.9 M-1343.35,27.425h-51.5c-1.283,0-2.45,1.167-2.45,2.45v17.15
		c0,1.283,1.167,2.45,2.45,2.45h51.5c1.283,0,2.45-1.167,2.45-2.45v-17.15C-1340.93,28.771-1342.053,27.425-1343.35,27.425
		L-1343.35,27.425z"/>
</g>
<path d="M-1313.95,39.675h-14.7v-22.05c-0.03-1.104-1.159-2.408-2.45-2.45h-75.95c-1.283,0-2.45,1.167-2.45,2.45V94.8
	c0,6.065,4.959,11.025,11.025,11.025h75.95c6.065,0,11.025-4.96,11.025-11.025V42.125
	C-1311.53,41.021-1312.625,39.706-1313.95,39.675z M-1398.475,100.925c-3.436,0-6.125-2.689-6.125-6.125V20.075h71.05V94.8
	c0,2.324,0.905,4.343,2.144,6.125H-1398.475z M-1316.4,94.8c0,3.436-2.689,6.125-6.125,6.125c-3.436,0-6.125-2.689-6.125-6.125
	V44.575h12.25V94.8z"/>
<path d="M-1343.35,61.175c1.353,0,2.45,1.097,2.45,2.45c0,1.353-1.097,2.45-2.45,2.45h-51.45c-1.353,0-2.45-1.097-2.45-2.45
	c0-1.353,1.097-2.45,2.45-2.45H-1343.35z"/>
<path d="M-1343.35,77.775c1.353,0,2.45,1.097,2.45,2.45c0,1.353-1.097,2.45-2.45,2.45h-51.45c-1.353,0-2.45-1.097-2.45-2.45
	c0-1.353,1.097-2.45,2.45-2.45H-1343.35z"/>
<path d="M-1247.773,85.045h28.636c1.129,0,2.045-0.916,2.045-2.045V50.273c0-1.129-0.916-2.045-2.045-2.045h-28.636
	c-1.129,0-2.046,0.916-2.046,2.045V83C-1249.818,84.129-1248.902,85.045-1247.773,85.045z"/>
<path d="M-1215.045,15.5h-77.727c-5.641,0-10.227,4.59-10.227,10.227v69.545c0,5.637,4.586,10.227,10.227,10.227h77.727
	c5.641,0,10.227-4.59,10.227-10.227V25.727C-1204.818,20.09-1209.404,15.5-1215.045,15.5z M-1254.319,21.851
	c2.485,0,4.5,2.016,4.5,4.5c0,2.484-2.015,4.5-4.5,4.5c-2.484,0-4.499-2.016-4.499-4.5
	C-1258.818,23.867-1256.802,21.851-1254.319,21.851z M-1272.318,21.851c2.484,0,4.5,2.016,4.5,4.5c0,2.484-2.016,4.5-4.5,4.5
	c-2.484,0-4.5-2.016-4.5-4.5C-1276.819,23.867-1274.802,21.851-1272.318,21.851z M-1290.318,21.851c2.484,0,4.499,2.016,4.499,4.5
	c0,2.484-2.016,4.5-4.499,4.5c-2.485,0-4.5-2.016-4.5-4.5C-1294.818,23.867-1292.803,21.851-1290.318,21.851z M-1208.909,95.273
	c0,3.383-2.753,6.136-6.136,6.136h-75.682h-2.045c-3.384,0-6.136-2.753-6.136-6.136V35.955h90V95.273z"/>
<path class="st0" d="M-1227.5,106.256"/>
<path d="M-1086.234,54.599l-38.371-38.371c-1.645-1.645-4.309-1.645-5.953,0c-1.645,1.644-1.645,4.31,0,5.954l31.184,31.184h-79.666
	c-2.324,0-4.21,1.885-4.21,4.21c0,2.325,1.886,4.21,4.21,4.21h79.666l-31.184,31.184c-1.645,1.644-1.645,4.31,0,5.954
	c0.822,0.822,1.899,1.233,2.977,1.233s2.154-0.411,2.977-1.233l38.371-38.371C-1084.589,58.908-1084.589,56.242-1086.234,54.599z"/>
<g>
	<path d="M-1057.75,59.062c0-10.341,8.409-18.75,18.75-18.75c0.794,0,1.65,0.069,2.694,0.219c0.906,0.141,1.8-0.263,2.484-0.856
		c0.684-0.594,1.072-1.581,1.072-2.487c0-10.341,8.409-18.75,18.75-18.75c10.341,0,18.75,8.409,18.753,18.644
		c-0.006,0.075-0.016,0.278-0.016,0.356c0,0.906,0.394,1.766,1.078,2.359c0.684,0.591,1.584,0.856,2.491,0.731
		c1.044-0.147,1.9-0.216,2.694-0.216c10.341,0,18.75,8.409,18.75,18.75h6.25c0-13.85-11.384-25.2-25.194-25
		c-1.544-12.316-12.078-21.875-24.806-21.875c-12.659,0-23.153,9.459-24.772,21.875c-0.075,0-0.153,0-0.228,0
		c-13.784,0-25,11.216-25,25s11.216,25,25,25h17l-6-6.25h-11C-1049.341,77.812-1057.75,69.403-1057.75,59.062z"/>
</g>
<path class="st1" d="M-858.802,55.499c0-2.357,1.433-4.726,2.819-7.017c1.347-2.229,2.74-4.532,2.242-6.062
	c-0.533-1.638-3.09-2.703-5.562-3.733c-2.41-1.004-4.903-2.042-6.228-3.861c-1.342-1.843-1.568-4.555-1.786-7.179
	c-0.22-2.647-0.448-5.384-1.812-6.378c-1.341-0.977-3.994-0.357-6.562,0.242c-2.578,0.601-5.242,1.224-7.437,0.509
	c-2.1-0.684-3.835-2.709-5.514-4.667c-1.76-2.055-3.581-4.18-5.358-4.18s-3.598,2.125-5.359,4.179
	c-1.679,1.958-3.414,3.984-5.514,4.667c-2.194,0.715-4.86,0.093-7.437-0.509c-2.567-0.6-5.222-1.219-6.562-0.242
	c-1.364,0.994-1.592,3.731-1.811,6.377c-0.218,2.624-0.444,5.337-1.787,7.18c-1.324,1.819-3.817,2.857-6.227,3.861
	c-2.472,1.029-5.029,2.095-5.561,3.732c-0.499,1.53,0.895,3.834,2.242,6.063c1.386,2.291,2.819,4.661,2.819,7.017
	s-1.432,4.726-2.819,7.017c-1.347,2.229-2.74,4.533-2.242,6.063c0.533,1.638,3.09,2.703,5.561,3.732
	c2.41,1.004,4.904,2.042,6.229,3.862c1.342,1.843,1.568,4.556,1.786,7.179c0.22,2.647,0.447,5.384,1.812,6.379
	c1.338,0.976,3.996,0.357,6.562-0.243c1.755-0.409,3.551-0.828,5.211-0.828c0.778,0,1.525,0.092,2.225,0.319
	c2.1,0.684,3.835,2.71,5.514,4.668c1.761,2.055,3.583,4.18,5.36,4.18c1.777,0,3.598-2.125,5.359-4.18
	c1.679-1.958,3.414-3.984,5.514-4.667c2.195-0.714,4.86-0.092,7.437,0.508c2.567,0.6,5.221,1.219,6.562,0.242
	c1.364-0.993,1.592-3.731,1.812-6.378c0.218-2.623,0.444-5.336,1.787-7.178c1.324-1.82,3.817-2.858,6.228-3.862
	c2.471-1.03,5.028-2.095,5.561-3.733c0.499-1.53-0.895-3.834-2.242-6.063C-857.37,60.225-858.802,57.856-858.802,55.499z"/>
<path d="M-850.113,61.634c-1.302-2.153-2.649-4.381-2.649-6.135s1.347-3.982,2.649-6.136c1.806-2.987,3.674-6.076,2.719-9.008
	c-0.995-3.054-4.406-4.475-7.705-5.849c-2.255-0.939-4.586-1.91-5.548-3.232c-0.982-1.347-1.193-3.887-1.398-6.344
	c-0.294-3.535-0.598-7.19-3.159-9.056c-2.537-1.847-6.087-1.02-9.52-0.219c-2.419,0.564-4.923,1.148-6.535,0.621
	c-1.51-0.491-3.129-2.381-4.695-4.209C-888.301,9.33-890.726,6.5-894,6.5s-5.699,2.83-8.046,5.568
	c-1.566,1.827-3.185,3.717-4.695,4.209c-1.614,0.526-4.116-0.057-6.534-0.621c-3.435-0.801-6.984-1.631-9.52,0.218
	c-2.562,1.866-2.866,5.521-3.16,9.055c-0.204,2.457-0.415,4.998-1.398,6.345c-0.961,1.322-3.293,2.292-5.548,3.231
	c-3.298,1.374-6.71,2.795-7.704,5.85c-0.956,2.933,0.911,6.023,2.719,9.011c1.302,2.153,2.648,4.381,2.648,6.135
	s-1.347,3.982-2.648,6.135c-1.806,2.988-3.675,6.077-2.719,9.011c0.995,3.054,4.406,4.475,7.705,5.85
	c2.254,0.939,4.586,1.91,5.548,3.231c0.982,1.348,1.193,3.888,1.398,6.346c0.294,3.535,0.597,7.189,3.159,9.056
	c2.536,1.847,6.087,1.018,9.521,0.218c2.416-0.564,4.92-1.15,6.533-0.621c1.51,0.491,3.13,2.381,4.697,4.209
	c2.344,2.737,4.77,5.568,8.045,5.568s5.699-2.83,8.046-5.568c1.566-1.827,3.185-3.717,4.695-4.209
	c1.615-0.529,4.116,0.056,6.534,0.621c3.435,0.801,6.983,1.628,9.52-0.218c2.562-1.866,2.866-5.523,3.16-9.056
	c0.205-2.457,0.416-4.997,1.398-6.345c0.961-1.321,3.294-2.292,5.548-3.232c3.298-1.374,6.71-2.795,7.704-5.85
	C-846.438,67.711-848.306,64.622-850.113,61.634z M-870.717,38.619l-24.856,38.29c-0.938,1.34-1.87,1.806-3.504,1.914
	c-1.635,0.108-2.623-0.499-3.604-1.48l-14.144-16.172c-1.566-1.566-1.566-4.105,0-5.671l0.02-0.009c1.566-1.566,4.104-1.566,5.67,0
	l10.851,8.183l22.778-29.82c1.255-1.792,3.725-2.227,5.517-0.973l0.301,0.222C-869.897,34.358-869.462,36.827-870.717,38.619z"/>
<path d="M-977.835,58.701c-2.709-2.699-6.291-4.186-10.085-4.186c-3.789,0-7.366,1.482-10.061,4.161
	c-2.651-2.683-6.178-4.159-9.936-4.159c-3.66,0-7.229,1.404-10.048,3.953l-0.107,0.097l-0.103,0.102
	c-2.708,2.698-4.2,6.268-4.203,10.053c-0.002,3.798,1.495,7.385,4.213,10.097l20.162,20.143l4.24-4.225
	c2.638-2.627,5.27-5.256,7.901-7.886c2.674-2.671,5.348-5.341,8.025-8.01c2.716-2.705,4.211-6.281,4.211-10.07
	S-975.119,61.406-977.835,58.701z M-982.069,74.59c-5.316,5.296-10.612,10.6-15.927,15.895l-15.927-15.911
	c-3.259-3.253-3.277-8.406-0.016-11.655c3.47-3.137,8.513-3.271,11.718,0v0l3.157,3.141c0.566,0.559,1.587,0.559,2.153,0
	l3.141-3.109c3.261-3.249,8.442-3.248,11.703,0C-978.808,66.2-978.808,71.341-982.069,74.59z"/>
<path d="M-775.124,81.129c-0.49,1.513-2.237,2.407-3.75,1.917l-24.33-7.883c-1.576-0.511-2.429-2.194-1.917-3.75
	c0.383-1.214,1.555-2.067,2.833-2.067c0.298,0,0.618,0.043,0.916,0.149l24.33,7.883c0.746,0.234,1.364,0.767,1.726,1.491
	C-774.953,79.595-774.89,80.383-775.124,81.129z"/>
<path d="M-737.522,12.891c-4.708,0-8.522,3.813-8.522,8.522v2.706l-66.15,20.836c-0.469-3.664-3.558-6.498-7.35-6.498
	c-4.112,0-7.457,3.345-7.457,7.456v19.174c0,4.112,3.345,7.457,7.457,7.457c3.792,0,6.881-2.833,7.35-6.498l4.538,1.427
	c-0.682,0.746-1.214,1.619-1.534,2.62c-1.236,3.792,0.852,7.904,4.666,9.118l24.33,7.883c0.724,0.234,1.47,0.362,2.216,0.362
	c3.153,0,5.923-2.024,6.903-5.006c0.362-1.108,0.405-2.258,0.234-3.366l24.798,7.797v2.706c0,4.708,3.813,8.522,8.522,8.522
	S-729,94.295-729,89.587V21.413C-729,16.705-732.813,12.891-737.522,12.891z M-816.348,46.275v18.471v0.341
	c0,1.768-1.427,3.196-3.196,3.196s-3.196-1.427-3.196-3.196V45.913c0-1.768,1.427-3.196,3.196-3.196s3.196,1.427,3.196,3.196V46.275
	z M-746.043,82.429l-66.043-20.814V49.407l66.043-20.814V82.429z M-733.261,89.587c0,2.344-1.917,4.261-4.261,4.261
	s-4.261-1.917-4.261-4.261v-1.363V22.777v-1.364c0-2.343,1.917-4.261,4.261-4.261s4.261,1.917,4.261,4.261V89.587z"/>
<path d="M-631,49.5c-4.935,0-9,4.065-9,9c0,3.883,2.523,7.219,6,8.469V74.5c0,8.349-6.636,15-15,15s-15-6.651-15-15V57.312
	c11.273-1.475,20-11.141,20-22.812v-19c0-3.272-2.728-6-6-6h-0.688c-1.138-2.346-3.557-4-6.312-4c-3.831,0-7,3.169-7,7s3.169,7,7,7
	c2.765,0,5.18-1.64,6.312-4H-650v19c0,9.47-7.53,17-17,17s-17-7.53-17-17v-19h0.688c1.133,2.36,3.547,4,6.312,4c3.831,0,7-3.169,7-7
	s-3.169-7-7-7c-2.755,0-5.175,1.654-6.312,4H-684c-3.272,0-6,2.728-6,6v19c0,11.672,8.727,21.337,20,22.812V74.5
	c0,11.573,9.42,21,21,21s21-9.427,21-21v-7.531c3.477-1.25,6-4.586,6-8.469C-622,53.565-626.065,49.5-631,49.5z M-631,61.5
	c-1.692,0-3-1.308-3-3s1.308-3,3-3c1.692,0,3,1.308,3,3S-629.308,61.5-631,61.5z"/>
<path d="M-538,1.5c-27.062,0-49,21.938-49,49s21.938,49,49,49s49-21.938,49-49S-510.938,1.5-538,1.5z M-508,53.5h-60
	c-1.657,0-3-1.343-3-3s1.343-3,3-3h60c1.657,0,3,1.343,3,3S-506.343,53.5-508,53.5z"/>
<path d="M-381.5,43.4h-12.6V26c0-13.1-10.6-23.7-23.7-23.7c-13.1,0-23.7,10.6-23.7,23.7v17.4h-12.6c-3.7,0-6.7,2.6-6.7,5.9l0.4,43.3
	c0,3.7,2.6,6.7,5.9,6.7h73.3c3.3,0,5.9-3,5.9-6.7l0.4-43.3C-374.8,46-377.8,43.4-381.5,43.4z M-407.2,43.4h-21.2V26
	c0-5.8,4.8-10.6,10.6-10.6s10.6,4.8,10.6,10.6V43.4z"/>
<path d="M-261.5,43.4h-46.6V26c0-13.1-10.6-23.7-23.7-23.7c-13.1,0-23.7,10.6-23.7,23.7v6.5h13.1V26c0-5.8,4.8-10.6,10.6-10.6
	s10.6,4.8,10.6,10.6v17.4h-12.9c-3.7,0-6.7,2.6-6.7,5.9l0.4,43.3c0,3.7,2.6,6.7,5.9,6.7h73.3c3.3,0,5.9-3,5.9-6.7l0.4-43.3
	C-254.8,46-257.8,43.4-261.5,43.4z"/>
<g>
	<path d="M-97.5,10v13h-13V10H-97.5 M-95.5,4h-17c-2.2,0-4,1.8-4,4v17c0,2.2,1.8,4,4,4h17c2.2,0,4-1.8,4-4V8
		C-91.5,5.8-93.3,4-95.5,4L-95.5,4z"/>
</g>
<g>
	<path d="M-64.5,10v13h-13V10H-64.5 M-62.5,4h-17c-2.2,0-4,1.8-4,4v17c0,2.2,1.8,4,4,4h17c2.2,0,4-1.8,4-4V8
		C-58.5,5.8-60.3,4-62.5,4L-62.5,4z"/>
</g>
<g>
	<path d="M-31.5,10v13h-13V10H-31.5 M-29.5,4h-17c-2.2,0-4,1.8-4,4v17c0,2.2,1.8,4,4,4h17c2.2,0,4-1.8,4-4V8
		C-25.5,5.8-27.3,4-29.5,4L-29.5,4z"/>
</g>
<g>
	<path d="M-97.5,43v13h-13V43H-97.5 M-95.5,37h-17c-2.2,0-4,1.8-4,4v17c0,2.2,1.8,4,4,4h17c2.2,0,4-1.8,4-4V41
		C-91.5,38.8-93.3,37-95.5,37L-95.5,37z"/>
</g>
<g>
	<path d="M-64.5,43v13h-13V43H-64.5 M-62.5,37h-17c-2.2,0-4,1.8-4,4v17c0,2.2,1.8,4,4,4h17c2.2,0,4-1.8,4-4V41
		C-58.5,38.8-60.3,37-62.5,37L-62.5,37z"/>
</g>
<g>
	<path d="M-31.5,43v13h-13V43H-31.5 M-29.5,37h-17c-2.2,0-4,1.8-4,4v17c0,2.2,1.8,4,4,4h17c2.2,0,4-1.8,4-4V41
		C-25.5,38.8-27.3,37-29.5,37L-29.5,37z"/>
</g>
<g>
	<path d="M-97.5,76v13h-13V76H-97.5 M-95.5,70h-17c-2.2,0-4,1.8-4,4v17c0,2.2,1.8,4,4,4h17c2.2,0,4-1.8,4-4V74
		C-91.5,71.8-93.3,70-95.5,70L-95.5,70z"/>
</g>
<g>
	<path d="M-64.5,76v13h-13V76H-64.5 M-62.5,70h-17c-2.2,0-4,1.8-4,4v17c0,2.2,1.8,4,4,4h17c2.2,0,4-1.8,4-4V74
		C-58.5,71.8-60.3,70-62.5,70L-62.5,70z"/>
</g>
<g>
	<path d="M-31.5,76v13h-13V76H-31.5 M-29.5,70h-17c-2.2,0-4,1.8-4,4v17c0,2.2,1.8,4,4,4h17c2.2,0,4-1.8,4-4V74
		C-25.5,71.8-27.3,70-29.5,70L-29.5,70z"/>
</g>
<g>
	<path d="M-215.5,29h-17c-2.2,0-4-1.8-4-4V8c0-2.2,1.8-4,4-4h17c2.2,0,4,1.8,4,4v17C-211.5,27.2-213.3,29-215.5,29z"/>
</g>
<g>
	<path d="M-182.5,29h-17c-2.2,0-4-1.8-4-4V8c0-2.2,1.8-4,4-4h17c2.2,0,4,1.8,4,4v17C-178.5,27.2-180.3,29-182.5,29z"/>
</g>
<g>
	<path d="M-149.5,29h-17c-2.2,0-4-1.8-4-4V8c0-2.2,1.8-4,4-4h17c2.2,0,4,1.8,4,4v17C-145.5,27.2-147.3,29-149.5,29z"/>
</g>
<g>
	<path d="M-215.5,62h-17c-2.2,0-4-1.8-4-4V41c0-2.2,1.8-4,4-4h17c2.2,0,4,1.8,4,4v17C-211.5,60.2-213.3,62-215.5,62z"/>
</g>
<g>
	<path d="M-182.5,62h-17c-2.2,0-4-1.8-4-4V41c0-2.2,1.8-4,4-4h17c2.2,0,4,1.8,4,4v17C-178.5,60.2-180.3,62-182.5,62z"/>
</g>
<g>
	<path d="M-149.5,62h-17c-2.2,0-4-1.8-4-4V41c0-2.2,1.8-4,4-4h17c2.2,0,4,1.8,4,4v17C-145.5,60.2-147.3,62-149.5,62z"/>
</g>
<g>
	<path d="M-215.5,95h-17c-2.2,0-4-1.8-4-4V74c0-2.2,1.8-4,4-4h17c2.2,0,4,1.8,4,4v17C-211.5,93.2-213.3,95-215.5,95z"/>
</g>
<g>
	<path d="M-182.5,95h-17c-2.2,0-4-1.8-4-4V74c0-2.2,1.8-4,4-4h17c2.2,0,4,1.8,4,4v17C-178.5,93.2-180.3,95-182.5,95z"/>
</g>
<g>
	<path d="M-149.5,95h-17c-2.2,0-4-1.8-4-4V74c0-2.2,1.8-4,4-4h17c2.2,0,4,1.8,4,4v17C-145.5,93.2-147.3,95-149.5,95z"/>
</g>
<path d="M98.481,27.543c-0.529-0.744-1.385-1.187-2.298-1.187H22.078L17.1,7.349c-0.325-1.241-1.445-2.104-2.726-2.104H3.818
	C2.261,5.245,1,6.506,1,8.063s1.261,2.818,2.818,2.818h8.381l15.989,61.056c0.323,1.241,1.444,2.104,2.725,2.104h51.195
	c1.557,0,2.818-1.261,2.818-2.818c0-1.557-1.261-2.818-2.818-2.818H33.087l-2.027-7.736h55.094c1.198,0,2.264-0.757,2.66-1.888
	l10.027-28.675C99.144,29.243,99.008,28.288,98.481,27.543z M84.156,55.033H29.586l-6.033-23.04h68.659L84.156,55.033z
	 M39.741,76.387c-5.064,0-9.184,4.12-9.184,9.184s4.12,9.185,9.184,9.185s9.184-4.121,9.184-9.185S44.807,76.387,39.741,76.387z
	 M39.741,89.121c-1.957,0-3.548-1.593-3.548-3.549c0-1.957,1.591-3.548,3.548-3.548s3.548,1.591,3.548,3.548
	C43.29,87.528,41.699,89.121,39.741,89.121z M69.26,76.387c-5.064,0-9.184,4.12-9.184,9.184s4.12,9.185,9.184,9.185
	c5.065,0,9.186-4.121,9.186-9.185S74.325,76.387,69.26,76.387z M69.26,89.121c-1.957,0-3.548-1.593-3.548-3.549
	c0-1.957,1.591-3.548,3.548-3.548c1.958,0,3.55,1.591,3.55,3.548C72.81,87.528,71.218,89.121,69.26,89.121z"/>
</svg>
