<svg id="Layer_1" xmlns="http://www.w3.org/2000/svg" viewBox="0 0 100 100"><style>.st0{stroke:#000;stroke-width:4;stroke-linecap:round;stroke-linejoin:round;stroke-miterlimit:10}.st0,.st1{fill:none}.st2{display:none}.st3{fill:#f4623b}.st4{fill:#fdebe6}.st5{fill:#f8c4b7}</style><path d="M59.038 66.878H8.731V7.969h82.538v38.655c3.267 2.613 5.662 6.098 6.86 10.236v-49A6.832 6.832 0 0 0 91.269 1H8.731a6.832 6.832 0 0 0-6.86 6.86v58.909a6.832 6.832 0 0 0 6.86 6.86h53.247c-1.307-1.96-2.396-4.247-2.94-6.751z"/><path d="M20.927 22.342h58.147v6.098H20.927zm0 11.978h58.147v6.098H20.927zm0 11.978h28.42v6.098h-28.42zm57.82 36.26c-3.702 0-7.078-.98-10.018-2.722V99l10.018-10.562L88.764 99V79.944c-2.94 1.634-6.315 2.614-10.017 2.614zm-.218-34.3c-7.84.109-14.047 6.533-13.938 14.373.109 7.84 6.533 14.047 14.374 13.938 7.84-.109 14.046-6.533 13.938-14.373-.11-7.84-6.534-14.047-14.374-13.938zm6.098 22.213l-5.771-2.94-5.663 3.158.98-6.424-4.682-4.465 6.425-.98 2.722-5.88 2.94 5.771 6.424.871-4.573 4.573 1.198 6.316z"/></svg>