<svg xmlns="http://www.w3.org/2000/svg" viewBox="0 0 100 97"><path d="M60.546 50.687H41.388a2.217 2.217 0 1 1 0-4.435h19.159c1.224 0 2.219.991 2.219 2.218a2.22 2.22 0 0 1-2.22 2.217zm0-13.352H41.388a2.22 2.22 0 0 1 0-4.44h19.159a2.221 2.221 0 0 1-.001 4.44zm-24.057 4.822a1.527 1.527 0 0 0-2.139.302l-4.838 6.416-2.046-2.715A1.528 1.528 0 1 0 25.024 48l3.266 4.334h.005a1.517 1.517 0 0 0 2.434-.003l.003.002 6.059-8.036a1.529 1.529 0 0 0-.302-2.14zm0-13.353a1.525 1.525 0 0 0-2.139.302l-4.838 6.419-2.046-2.716a1.532 1.532 0 0 0-2.143-.302 1.531 1.531 0 0 0-.299 2.142l3.266 4.334.005-.005a1.514 1.514 0 0 0 2.434 0l.003.005 6.059-8.04a1.527 1.527 0 0 0-.302-2.139z"/><path d="M66.876 9.746h-6.612v-.875a2.224 2.224 0 0 0-2.221-2.223h-6.356C50.719 3.25 47.592.75 43.886.75c-3.706 0-6.834 2.5-7.802 5.898h-6.358a2.224 2.224 0 0 0-2.221 2.223v.875h-6.612c-4.405 0-7.988 3.583-7.988 7.99v61.026c0 4.405 3.583 7.991 7.988 7.991h25.641a20.234 20.234 0 0 1-4.936-5.325H20.893a2.668 2.668 0 0 1-2.663-2.666V17.736a2.668 2.668 0 0 1 2.663-2.665h6.612v2.793c0 1.224.995 2.221 2.221 2.221h28.318a2.223 2.223 0 0 0 2.221-2.221v-2.793h6.612a2.668 2.668 0 0 1 2.663 2.665v32.672h1.96a20.175 20.175 0 0 1 3.365.3V17.736c-.001-4.407-3.584-7.99-7.989-7.99zm-11.053 5.898H31.945v-4.556h6.042a2.219 2.219 0 0 0 2.217-2.217 3.685 3.685 0 0 1 3.681-3.681 3.685 3.685 0 0 1 3.681 3.681c0 1.222.988 2.213 2.21 2.217h6.047v4.556z"/><path d="M87.095 71.432c0 9.22-7.474 16.693-16.693 16.693h-2.809c-2.105 3.999-6.031 6.583-8.811 7.984a1.342 1.342 0 0 1-1.887-1.575c.612-2.134.743-4.377.385-6.569-8.188-1.216-14.247-8.249-14.24-16.527 0-9.22 7.474-16.693 16.693-16.693h10.655c9.22-.008 16.7 7.459 16.708 16.679v.015-.007z"/></svg>