<?xml version="1.0" encoding="utf-8"?>
<!-- Generator: Adobe Illustrator 21.0.2, SVG Export Plug-In . SVG Version: 6.00 Build 0)  -->
<svg version="1.1" id="Layer_1" xmlns="http://www.w3.org/2000/svg" xmlns:xlink="http://www.w3.org/1999/xlink" x="0px" y="0px"
	 viewBox="0 0 100 97" style="enable-background:new 0 0 100 97;" xml:space="preserve">
<g>
	<path d="M60.546,50.687H41.388c-1.227,0-2.22-0.993-2.22-2.217l0,0c0-1.227,0.993-2.218,2.22-2.218h19.159
		c1.224,0,2.219,0.991,2.219,2.218l0,0C62.766,49.693,61.77,50.687,60.546,50.687z"/>
	<path d="M60.546,37.335H41.388c-1.227,0-2.22-0.995-2.22-2.22l0,0c0-1.224,0.993-2.22,2.22-2.22h19.159
		c1.224,0,2.219,0.995,2.219,2.22l0,0C62.766,36.339,61.77,37.335,60.546,37.335z"/>
	<path d="M36.489,42.157c-0.674-0.508-1.632-0.372-2.139,0.302l-4.838,6.416l-2.046-2.715c-0.508-0.674-1.466-0.807-2.143-0.299
		c-0.674,0.51-0.806,1.465-0.299,2.139l3.266,4.334h0.005c0.28,0.368,0.719,0.608,1.217,0.608c0.499,0,0.938-0.24,1.217-0.611
		l0.003,0.002l6.059-8.036C37.299,43.626,37.163,42.666,36.489,42.157z"/>
	<path d="M36.489,28.804c-0.674-0.508-1.632-0.374-2.139,0.302l-4.838,6.419l-2.046-2.716C26.958,32.135,26,32,25.323,32.507
		c-0.674,0.508-0.806,1.469-0.299,2.142l3.266,4.334l0.005-0.005c0.28,0.372,0.719,0.614,1.217,0.614
		c0.499,0,0.938-0.241,1.217-0.614l0.003,0.005l6.059-8.04C37.299,30.27,37.163,29.314,36.489,28.804z"/>
	<path d="M66.876,9.746h-6.612V8.871c0-1.226-0.995-2.223-2.221-2.223h-6.356C50.719,3.25,47.592,0.75,43.886,0.75
		c-3.706,0-6.834,2.5-7.802,5.898h-6.358c-1.225,0-2.221,0.996-2.221,2.223v0.875h-6.612c-4.405,0-7.988,3.583-7.988,7.99v61.026
		c0,4.405,3.583,7.991,7.988,7.991h25.641c-1.956-1.466-3.627-3.269-4.936-5.325H20.893c-1.468,0-2.663-1.197-2.663-2.666V17.736
		c0-1.468,1.195-2.665,2.663-2.665h6.612v2.793c0,1.224,0.995,2.221,2.221,2.221h28.318c1.225,0,2.221-0.996,2.221-2.221v-2.793
		h6.612c1.469,0,2.663,1.197,2.663,2.665v32.672h1.96c1.149-0.001,2.268,0.116,3.365,0.3V17.736
		C74.864,13.329,71.281,9.746,66.876,9.746z M55.823,15.644H31.945v-4.556h6.042c1.224,0,2.217-0.995,2.217-2.217
		c0-2.031,1.652-3.681,3.681-3.681c2.028,0,3.681,1.65,3.681,3.681c0,1.222,0.988,2.213,2.21,2.217h6.047V15.644z"/>
	<path d="M87.095,71.432L87.095,71.432c0,9.22-7.474,16.693-16.693,16.693h-2.809c-2.105,3.999-6.031,6.583-8.811,7.984
		c-0.664,0.33-1.47,0.059-1.8-0.606c-0.149-0.301-0.18-0.647-0.087-0.969c0.612-2.134,0.743-4.377,0.385-6.569
		c-8.188-1.216-14.247-8.249-14.24-16.527l0,0c0-9.22,7.474-16.693,16.693-16.693h10.655c9.22-0.008,16.7,7.459,16.708,16.679
		c0,0.005,0,0.01,0,0.015V71.432z"/>
</g>
</svg>
