<?xml version="1.0" encoding="utf-8"?>
<!-- Generator: Adobe Illustrator 22.0.1, SVG Export Plug-In . SVG Version: 6.00 Build 0)  -->
<svg version="1.1" id="Layer_1" xmlns="http://www.w3.org/2000/svg" xmlns:xlink="http://www.w3.org/1999/xlink" x="0px" y="0px"
	 viewBox="0 0 100 100" style="enable-background:new 0 0 100 100;" xml:space="preserve">
<style type="text/css">
	.st0{fill:none;stroke:#000000;stroke-width:4;stroke-linecap:round;stroke-linejoin:round;stroke-miterlimit:10;}
	.st1{fill:none;}
	.st2{display:none;}
	.st3{fill:#F4623B;}
	.st4{fill:#FDEBE6;}
	.st5{fill:#F8C4B7;}
</style>
<g>
	<path d="M51,1C23.963,1,2,22.963,2,50c0,27.037,21.963,49,49,49c27.037,0,49-21.963,49-49C100,22.963,78.037,1,51,1z M51,90.833
		c-22.532,0-40.834-18.302-40.834-40.833C10.167,27.469,28.469,9.167,51,9.167c22.531,0,40.833,18.302,40.833,40.834
		C91.833,72.531,73.531,90.833,51,90.833z"/>
	<path d="M47.019,46.179V18.34c0-0.89,0.35-1.735,0.977-2.362C48.623,15.35,49.483,15,50.358,15c0.408,0,0.817,0,1.21,0
		c0.904,0,1.779,0.365,2.421,0.992c0.627,0.642,0.992,1.517,0.992,2.406c0,7.35,0,24.587,0,31.967c0,0.919-0.365,1.794-1.006,2.45
		c-0.656,0.642-1.531,1.006-2.45,1.006h-0.554c-6.081,0-18.462,0-24.5,0c-1.925,0-3.471-1.56-3.471-3.471c0-0.233,0-0.467,0-0.7
		c0-1.91,1.546-3.471,3.471-3.471C26.471,46.179,47.019,46.179,47.019,46.179z"/>
</g>
</svg>
