<?xml version="1.0" encoding="utf-8"?>
<!-- Generator: Adobe Illustrator 21.0.2, SVG Export Plug-In . SVG Version: 6.00 Build 0)  -->
<svg version="1.1" id="Layer_1" xmlns="http://www.w3.org/2000/svg" xmlns:xlink="http://www.w3.org/1999/xlink" x="0px" y="0px"
	 viewBox="0 0 100 100" style="enable-background:new 0 0 100 100;" xml:space="preserve">
<g>
	<path d="M98.128,1.872c-2.497-2.497-6.38-2.497-8.877,0L50,41.123L10.749,1.872c-2.497-2.497-6.38-2.497-8.877,0
		s-2.497,6.38,0,8.877L41.123,50L1.872,89.251c-2.497,2.497-2.497,6.38,0,8.877c1.248,1.248,2.774,1.803,4.438,1.803
		s3.19-0.555,4.438-1.803L50,58.877l39.251,39.251c1.248,1.248,2.774,1.803,4.438,1.803s3.19-0.555,4.438-1.803
		c2.497-2.497,2.497-6.38,0-8.877L58.877,50l39.251-39.251C100.485,8.252,100.485,4.369,98.128,1.872z"/>
</g>
</svg>
