<svg id="Layer_1" xmlns="http://www.w3.org/2000/svg" viewBox="0 0 100 92.655"><style>.st0{stroke:#000;stroke-width:4;stroke-linecap:round;stroke-linejoin:round;stroke-miterlimit:10}.st0,.st1{fill:none}</style><path d="M94.872 79.11c-2.599-1.682-4.587-3.975-5.81-7.033C95.484 64.586 99 55.412 99 45.934 99.152 22.236 77.137 2.82 50.076 2.82S1 22.236 1 46.087c0 23.85 22.015 43.267 49.076 43.267 9.021 0 17.735-2.14 25.226-6.268 3.975 2.14 8.562 3.211 13.454 3.211 1.529 0 3.058-.153 4.74-.306 1.529-.153 2.752-1.376 3.058-2.905.305-1.53-.306-3.059-1.682-3.976zm-18.347-.917c-.459-.306-.764-.306-1.224-.306-.458 0-.764.153-1.223.306-7.186 4.128-15.442 6.268-24.156 6.268-24.309 0-44.185-17.276-44.185-38.374S25.614 7.712 49.923 7.712 94.26 24.988 94.26 46.086c0 8.867-3.364 17.123-9.632 24.003-.764.611-.917 1.682-.611 2.446 1.376 3.516 3.211 6.574 5.809 8.867-4.892.154-9.478-.916-13.301-3.209z"/></svg>