<svg id="Layer_1" xmlns="http://www.w3.org/2000/svg" viewBox="0 0 100 74.819"><style>.st0{stroke:#000;stroke-width:4;stroke-linecap:round;stroke-linejoin:round;stroke-miterlimit:10}.st0,.st1{fill:none}.st2{display:none}.st3{fill:#f4623b}.st4{fill:#fdebe6}.st5{fill:#f8c4b7}</style><path d="M87 .575H13c-6.6 0-12 5.4-12 12v49.37c0 6.6 5.4 12 12 12h74c6.6 0 12-5.4 12-12v-49.37c0-6.6-5.4-12-12-12zm-74 4.5h74c4.136 0 7.5 3.365 7.5 7.5v7h-89v-7c0-4.135 3.364-7.5 7.5-7.5zm74 64.37H13c-4.136 0-7.5-3.365-7.5-7.5v-28.37h89v28.37c0 4.135-3.364 7.5-7.5 7.5z"/></svg>