<svg id="Layer_1" xmlns="http://www.w3.org/2000/svg" viewBox="0 0 100 100"><style>.st0{stroke:#000;stroke-width:4;stroke-linecap:round;stroke-linejoin:round;stroke-miterlimit:10}.st0,.st1{fill:none}</style><path d="M24.5 29h-17c-2.2 0-4-1.8-4-4V8c0-2.2 1.8-4 4-4h17c2.2 0 4 1.8 4 4v17c0 2.2-1.8 4-4 4zm33 0h-17c-2.2 0-4-1.8-4-4V8c0-2.2 1.8-4 4-4h17c2.2 0 4 1.8 4 4v17c0 2.2-1.8 4-4 4zm33 0h-17c-2.2 0-4-1.8-4-4V8c0-2.2 1.8-4 4-4h17c2.2 0 4 1.8 4 4v17c0 2.2-1.8 4-4 4zm-66 33h-17c-2.2 0-4-1.8-4-4V41c0-2.2 1.8-4 4-4h17c2.2 0 4 1.8 4 4v17c0 2.2-1.8 4-4 4zm33 0h-17c-2.2 0-4-1.8-4-4V41c0-2.2 1.8-4 4-4h17c2.2 0 4 1.8 4 4v17c0 2.2-1.8 4-4 4zm33 0h-17c-2.2 0-4-1.8-4-4V41c0-2.2 1.8-4 4-4h17c2.2 0 4 1.8 4 4v17c0 2.2-1.8 4-4 4zm-66 33h-17c-2.2 0-4-1.8-4-4V74c0-2.2 1.8-4 4-4h17c2.2 0 4 1.8 4 4v17c0 2.2-1.8 4-4 4zm33 0h-17c-2.2 0-4-1.8-4-4V74c0-2.2 1.8-4 4-4h17c2.2 0 4 1.8 4 4v17c0 2.2-1.8 4-4 4zm33 0h-17c-2.2 0-4-1.8-4-4V74c0-2.2 1.8-4 4-4h17c2.2 0 4 1.8 4 4v17c0 2.2-1.8 4-4 4z"/></svg>