<svg id="Layer_1" xmlns="http://www.w3.org/2000/svg" viewBox="0 0 100 100"><style>.st0{stroke:#000;stroke-width:4;stroke-linecap:round;stroke-linejoin:round;stroke-miterlimit:10}.st0,.st1{fill:none}</style><path d="M30 32.5H4c-1.1 0-2-.9-2-2v-26c0-1.1.9-2 2-2h26c1.1 0 2 .9 2 2v26c0 1.1-.9 2-2 2zm33 0H37c-1.1 0-2-.9-2-2v-26c0-1.1.9-2 2-2h26c1.1 0 2 .9 2 2v26c0 1.1-.9 2-2 2zm33 0H70c-1.1 0-2-.9-2-2v-26c0-1.1.9-2 2-2h26c1.1 0 2 .9 2 2v26c0 1.1-.9 2-2 2zm-66 33H4c-1.1 0-2-.9-2-2v-26c0-1.1.9-2 2-2h26c1.1 0 2 .9 2 2v26c0 1.1-.9 2-2 2zm33 0H37c-1.1 0-2-.9-2-2v-26c0-1.1.9-2 2-2h26c1.1 0 2 .9 2 2v26c0 1.1-.9 2-2 2zm33 0H70c-1.1 0-2-.9-2-2v-26c0-1.1.9-2 2-2h26c1.1 0 2 .9 2 2v26c0 1.1-.9 2-2 2zm-66 33H4c-1.1 0-2-.9-2-2v-26c0-1.1.9-2 2-2h26c1.1 0 2 .9 2 2v26c0 1.1-.9 2-2 2zm33 0H37c-1.1 0-2-.9-2-2v-26c0-1.1.9-2 2-2h26c1.1 0 2 .9 2 2v26c0 1.1-.9 2-2 2zm33 0H70c-1.1 0-2-.9-2-2v-26c0-1.1.9-2 2-2h26c1.1 0 2 .9 2 2v26c0 1.1-.9 2-2 2z"/></svg>