<svg xmlns="http://www.w3.org/2000/svg" viewBox="0 0 100 100"><path d="M29.6 72c.8-.6 1.9-.7 2.8-.1.9.6 2.2 1.1 4 1.2 3.8.1 10.5-2 20.4-13.1.9-1 2.4-1.1 3.5-.2.9.8 1.1 2.2.4 3.2-2 3.3-3.9 6.9-4.9 9.3l.1-.1c.1 0 .1-.1.2-.1 4-2.3 10.1-6.4 11.4-8.1.6-.8 1.7-1.2 2.7-.9 1.6.5 2.2 2.3 1.4 3.6-1.9 3.2-3.4 7.2-3.3 8.6.2 0 .5 0 1-.2 2.7-.7 4-1.6 5.2-2.4 1.2-.9 2.6-1.8 4.9-1.5 1.7.2 3.7 1.2 7.1 3.5.1 0 .1 0 .1.1.4.3 3.7 2.5 7.6-.2 1.2-.8 2.8-.5 3.5.7.7 1.1.3 2.6-.8 3.4-2.3 1.6-4.6 2.1-6.7 2.1-2.9 0-5.3-1.1-6.6-2-1-.7-3.8-2.5-5-2.7-.2 0-.3 0-1.4.7-1.2 1-3.2 2.4-6.8 3.2-3.5.9-5.3-.3-6.1-1.5-.9-1.3-1.2-3-.7-5.3-2.1 1.4-4.1 2.6-4.9 3-1.7 1.2-5.2 3.6-7.5 1.4-1.2-1.1-1.4-2.6-.7-5.1-5.2 3.8-10 5.6-14.4 5.4-2.8-.1-4.9-1.1-6.3-2-1.5-.8-1.5-2.9-.2-3.9z"/><path d="M29.6 72c.8-.6 1.9-.7 2.8-.1.9.6 2.2 1.1 4 1.2 3.8.1 10.5-2 20.4-13.1.9-1 2.4-1.1 3.5-.2.9.8 1.1 2.2.4 3.2-2 3.3-3.9 6.9-4.9 9.3l.1-.1c.1 0 .1-.1.2-.1 4-2.3 10.1-6.4 11.4-8.1.6-.8 1.7-1.2 2.7-.9 1.6.5 2.2 2.3 1.4 3.6-1.9 3.2-3.4 7.2-3.3 8.6.2 0 .5 0 1-.2 2.7-.7 4-1.6 5.2-2.4 1.2-.9 2.6-1.8 4.9-1.5 1.7.2 3.7 1.2 7.1 3.5.1 0 .1 0 .1.1.4.3 3.7 2.5 7.6-.2 1.2-.8 2.8-.5 3.5.7.7 1.1.3 2.6-.8 3.4-2.3 1.6-4.6 2.1-6.7 2.1-2.9 0-5.3-1.1-6.6-2-1-.7-3.8-2.5-5-2.7-.2 0-.3 0-1.4.7-1.2 1-3.2 2.4-6.8 3.2-3.5.9-5.3-.3-6.1-1.5-.9-1.3-1.2-3-.7-5.3-2.1 1.4-4.1 2.6-4.9 3-1.7 1.2-5.2 3.6-7.5 1.4-1.2-1.1-1.4-2.6-.7-5.1-5.2 3.8-10 5.6-14.4 5.4-2.8-.1-4.9-1.1-6.3-2-1.5-.8-1.5-2.9-.2-3.9z"/><path d="M29.6 72c.8-.6 1.9-.7 2.8-.1.9.6 2.2 1.1 4 1.2 3.8.1 10.5-2 20.4-13.1.9-1 2.4-1.1 3.5-.2.9.8 1.1 2.2.4 3.2-2 3.3-3.9 6.9-4.9 9.3l.1-.1c.1 0 .1-.1.2-.1 4-2.3 10.1-6.4 11.4-8.1.6-.8 1.7-1.2 2.7-.9 1.6.5 2.2 2.3 1.4 3.6-1.9 3.2-3.4 7.2-3.3 8.6.2 0 .5 0 1-.2 2.7-.7 4-1.6 5.2-2.4 1.2-.9 2.6-1.8 4.9-1.5 1.7.2 3.7 1.2 7.1 3.5.1 0 .1 0 .1.1.4.3 3.7 2.5 7.6-.2 1.2-.8 2.8-.5 3.5.7.7 1.1.3 2.6-.8 3.4-2.3 1.6-4.6 2.1-6.7 2.1-2.9 0-5.3-1.1-6.6-2-1-.7-3.8-2.5-5-2.7-.2 0-.3 0-1.4.7-1.2 1-3.2 2.4-6.8 3.2-3.5.9-5.3-.3-6.1-1.5-.9-1.3-1.2-3-.7-5.3-2.1 1.4-4.1 2.6-4.9 3-1.7 1.2-5.2 3.6-7.5 1.4-1.2-1.1-1.4-2.6-.7-5.1-5.2 3.8-10 5.6-14.4 5.4-2.8-.1-4.9-1.1-6.3-2-1.5-.8-1.5-2.9-.2-3.9z"/><path d="M81.323 82.089a30.691 30.691 0 0 0-1.836-1.179v9.252a.984.984 0 0 1-.979.979H21.495a.985.985 0 0 1-.986-.979V9.911c0-.54.438-.982.986-.982H58.52v21.452h20.966v36.824c.145.013.286.01.431.029 2.319.272 4.633 1.431 7.425 3.23V30.38h.003l-.003-.003v-3.46L58.522 1v.074H21.495c-4.885 0-8.842 3.955-8.842 8.837v80.25A8.837 8.837 0 0 0 21.495 99h57.012a8.835 8.835 0 0 0 8.836-8.839v-5.632c-2.978-.549-5.111-1.812-6.02-2.44z"/></svg>