<?xml version="1.0" encoding="utf-8"?>
<!-- Generator: Adobe Illustrator 21.0.2, SVG Export Plug-In . SVG Version: 6.00 Build 0)  -->
<svg version="1.1" id="Layer_1" xmlns="http://www.w3.org/2000/svg" xmlns:xlink="http://www.w3.org/1999/xlink" x="0px" y="0px"
	 viewBox="0 0 100 100" style="enable-background:new 0 0 100 100;" xml:space="preserve">
<path d="M29.6,72c0.8-0.6,1.9-0.7,2.8-0.1c0.9,0.6,2.2,1.1,4,1.2c3.8,0.1,10.5-2,20.4-13.1c0.9-1,2.4-1.1,3.5-0.2
	c0.9,0.8,1.1,2.2,0.4,3.2c-2,3.3-3.9,6.9-4.9,9.3l0.1-0.1c0.1,0,0.1-0.1,0.2-0.1c4-2.3,10.1-6.4,11.4-8.1c0.6-0.8,1.7-1.2,2.7-0.9
	c1.6,0.5,2.2,2.3,1.4,3.6c-1.9,3.2-3.4,7.2-3.3,8.6c0.2,0,0.5,0,1-0.2c2.7-0.7,4-1.6,5.2-2.4c1.2-0.9,2.6-1.8,4.9-1.5
	c1.7,0.2,3.7,1.2,7.1,3.5c0.1,0,0.1,0,0.1,0.1c0.4,0.3,3.7,2.5,7.6-0.2c1.2-0.8,2.8-0.5,3.5,0.7c0.7,1.1,0.3,2.6-0.8,3.4
	c-2.3,1.6-4.6,2.1-6.7,2.1c-2.9,0-5.3-1.1-6.6-2c-1-0.7-3.8-2.5-5-2.7c-0.2,0-0.3,0-1.4,0.7c-1.2,1-3.2,2.4-6.8,3.2
	c-3.5,0.9-5.3-0.3-6.1-1.5c-0.9-1.3-1.2-3-0.7-5.3c-2.1,1.4-4.1,2.6-4.9,3c-1.7,1.2-5.2,3.6-7.5,1.4c-1.2-1.1-1.4-2.6-0.7-5.1
	c-5.2,3.8-10,5.6-14.4,5.4c-2.8-0.1-4.9-1.1-6.3-2C28.3,75.1,28.3,73,29.6,72L29.6,72z"/>
<path d="M29.6,72c0.8-0.6,1.9-0.7,2.8-0.1c0.9,0.6,2.2,1.1,4,1.2c3.8,0.1,10.5-2,20.4-13.1c0.9-1,2.4-1.1,3.5-0.2
	c0.9,0.8,1.1,2.2,0.4,3.2c-2,3.3-3.9,6.9-4.9,9.3l0.1-0.1c0.1,0,0.1-0.1,0.2-0.1c4-2.3,10.1-6.4,11.4-8.1c0.6-0.8,1.7-1.2,2.7-0.9
	c1.6,0.5,2.2,2.3,1.4,3.6c-1.9,3.2-3.4,7.2-3.3,8.6c0.2,0,0.5,0,1-0.2c2.7-0.7,4-1.6,5.2-2.4c1.2-0.9,2.6-1.8,4.9-1.5
	c1.7,0.2,3.7,1.2,7.1,3.5c0.1,0,0.1,0,0.1,0.1c0.4,0.3,3.7,2.5,7.6-0.2c1.2-0.8,2.8-0.5,3.5,0.7c0.7,1.1,0.3,2.6-0.8,3.4
	c-2.3,1.6-4.6,2.1-6.7,2.1c-2.9,0-5.3-1.1-6.6-2c-1-0.7-3.8-2.5-5-2.7c-0.2,0-0.3,0-1.4,0.7c-1.2,1-3.2,2.4-6.8,3.2
	c-3.5,0.9-5.3-0.3-6.1-1.5c-0.9-1.3-1.2-3-0.7-5.3c-2.1,1.4-4.1,2.6-4.9,3c-1.7,1.2-5.2,3.6-7.5,1.4c-1.2-1.1-1.4-2.6-0.7-5.1
	c-5.2,3.8-10,5.6-14.4,5.4c-2.8-0.1-4.9-1.1-6.3-2C28.3,75.1,28.3,73,29.6,72L29.6,72z"/>
<path d="M29.6,72c0.8-0.6,1.9-0.7,2.8-0.1c0.9,0.6,2.2,1.1,4,1.2c3.8,0.1,10.5-2,20.4-13.1c0.9-1,2.4-1.1,3.5-0.2
	c0.9,0.8,1.1,2.2,0.4,3.2c-2,3.3-3.9,6.9-4.9,9.3l0.1-0.1c0.1,0,0.1-0.1,0.2-0.1c4-2.3,10.1-6.4,11.4-8.1c0.6-0.8,1.7-1.2,2.7-0.9
	c1.6,0.5,2.2,2.3,1.4,3.6c-1.9,3.2-3.4,7.2-3.3,8.6c0.2,0,0.5,0,1-0.2c2.7-0.7,4-1.6,5.2-2.4c1.2-0.9,2.6-1.8,4.9-1.5
	c1.7,0.2,3.7,1.2,7.1,3.5c0.1,0,0.1,0,0.1,0.1c0.4,0.3,3.7,2.5,7.6-0.2c1.2-0.8,2.8-0.5,3.5,0.7c0.7,1.1,0.3,2.6-0.8,3.4
	c-2.3,1.6-4.6,2.1-6.7,2.1c-2.9,0-5.3-1.1-6.6-2c-1-0.7-3.8-2.5-5-2.7c-0.2,0-0.3,0-1.4,0.7c-1.2,1-3.2,2.4-6.8,3.2
	c-3.5,0.9-5.3-0.3-6.1-1.5c-0.9-1.3-1.2-3-0.7-5.3c-2.1,1.4-4.1,2.6-4.9,3c-1.7,1.2-5.2,3.6-7.5,1.4c-1.2-1.1-1.4-2.6-0.7-5.1
	c-5.2,3.8-10,5.6-14.4,5.4c-2.8-0.1-4.9-1.1-6.3-2C28.3,75.1,28.3,73,29.6,72L29.6,72z"/>
<path d="M81.323,82.089c-0.562-0.393-1.225-0.816-1.836-1.179v9.252c0,0.533-0.439,0.979-0.979,0.979H21.495
	c-0.548,0-0.986-0.446-0.986-0.979V9.911c0-0.54,0.438-0.982,0.986-0.982h37.025v21.452h20.966v36.824
	c0.145,0.013,0.286,0.01,0.431,0.029c2.319,0.272,4.633,1.431,7.425,3.23V30.38h0.003l-0.003-0.003v-3.46L58.522,1v0.074H21.495
	c-4.885,0-8.842,3.955-8.842,8.837v80.25c0,4.885,3.956,8.839,8.842,8.839h57.012c4.88,0,8.836-3.953,8.836-8.839v-5.632
	C84.365,83.98,82.232,82.717,81.323,82.089z"/>
</svg>
