<svg id="Layer_1" xmlns="http://www.w3.org/2000/svg" viewBox="0 0 100 100"><style>.st0{stroke:#000;stroke-width:4;stroke-linecap:round;stroke-linejoin:round;stroke-miterlimit:10}.st0,.st1{fill:none}</style><path d="M63.659 72.08a2.37 2.37 0 0 1-.133-3.448 2.37 2.37 0 0 1 3.448-.133l15.648 13.924a2.37 2.37 0 0 1 .133 3.448c-.53.53-1.193.796-1.857.796-.53 0-1.193-.265-1.591-.663L63.659 72.08zm-30.501-3.581L17.51 82.424a2.37 2.37 0 0 0-.133 3.448c.53.53 1.193.796 1.857.796.53 0 1.193-.265 1.591-.663L36.474 72.08a2.37 2.37 0 0 0 .133-3.448 2.37 2.37 0 0 0-3.449-.133zm-1.603-47.664c.096.165.182.327.265.485.093.182.195.365.357.66l.589 1.081c.096.165.183.317.282.506l.421.774c.169.305.483.631.793.826.262.172.578.263.911.263.589 0 1.205-.278 1.613-.732.195-.219.387-.445.578-.672l.391-.46c.568-.682 1.144-1.363 1.722-2.042l2.009-2.378c.506-.603 1.01-1.207 1.535-1.814l.61-.743c.562-.598.386-1.297.128-1.62-.453-.571-1.16-.711-1.696-.319-.412.308-.778.654-1.138.995-.591.548-1.19 1.085-1.793 1.626l-.65.598c-.441.406-.884.812-1.333 1.218l-1.826 1.664-2.158-2.27c-.346-.28-.657-.336-.986-.331-.266.04-.525.149-.748.324-.277.238-.44.591-.44.97.009.213.05.4.105.519l.459.872zm17.56 1.589h19.516a1.988 1.988 0 0 0 1.986-1.986 1.988 1.988 0 0 0-1.986-1.986H49.115c-1.096 0-1.986.891-1.986 1.986s.892 1.986 1.986 1.986zm19.516 7.874H49.115a1.988 1.988 0 0 0-1.986 1.986c0 1.096.891 1.986 1.986 1.986h19.516c1.096 0 1.986-.891 1.986-1.986s-.891-1.986-1.986-1.986zm0 11.845H49.115a1.988 1.988 0 0 0-1.986 1.986c0 1.096.891 1.986 1.986 1.986h19.516a1.988 1.988 0 0 0 1.986-1.986 1.989 1.989 0 0 0-1.986-1.986zm26.855-4.012c-.398-.663-.795-1.326-1.326-1.724l-9.837-7.249V6.304C84.322 3.387 81.936 1 79.018 1H20.669c-2.918 0-5.304 2.387-5.304 5.304v23.124l-.109.083-.374.278-8.909 6.618c-.663.398-1.193.928-1.458 1.591-.398.663-.531 1.326-.531 2.122v45.618C3.983 93.032 9.951 99 17.245 99h65.511c7.294 0 13.261-5.968 13.261-13.261V40.253c0-.796-.266-1.459-.531-2.122zm-10.741-2.519l4.641 3.448-4.641 3.448v-6.896zM20.138 6.304c0-.283.248-.53.53-.53h58.349c.282 0 .53.248.53.53l.289 39.783L50 67.969 20.162 46.088l-.024-39.784zm-4.75 29.44v6.763l-4.641-3.448 4.641-3.315zm75.854 50.127a8.321 8.321 0 0 1-8.355 8.355h-65.51a8.32 8.32 0 0 1-8.354-8.355V43.966l39.518 29.042c.133.133.265.265.398.265.132 0 .265.133.398.133h1.326c.133 0 .265 0 .398-.133s.265-.133.398-.265l39.518-29.042h.265v41.905z"/></svg>