<svg id="Layer_1" xmlns="http://www.w3.org/2000/svg" viewBox="0 0 767.992 576.888"><style>.st0,.st1{fill:none;stroke:#728394}.st1{stroke:#a2b3c4}.st2,.st3{fill:none;stroke:#ecf0f3}.st3{stroke:#a2b3c4;stroke-width:3}.st4{fill:url(#SVGID_1_);stroke:#ecf0f3}.st5{fill:#ecf0f3}</style><path class="st0" d="M324.522 28.43s-3.561-4.607-10-2-5.526 7.899-11 9c-4.505.906-9.443-2.016-14-1s-3.551 4.428-8 5-6.184-3.119-13-3-4.737 2.035-9 6c-4.533 4.216-9.139-1.754-15 1s-3.674 10.465-8 10-6.052-5.953-12-2c-5.019 3.336 2.016 11.516-5 12s-8.539-3.431-13 1c-4.481 4.45-4.227 11.188-10 12s-8.318 2.424-9 7 3.022 6.896-6 10c-7.316 2.518-12.521 6.15-13 11s2.066 7.775-3 12c-3.068 2.558 2.518 7.436 1 10-1.518 2.564-6.861-.432-9 5-2.139 5.432-.182 8.008-1 11s-4.027.543-6 5 2.463 5.762 1 9-6.541 2.46-10 7c-2.665 3.497 4.776 10.482-1 12-5.575 1.465-5.084 7.203-5 10"/><path class="st1" d="M134.522 397.43s-10.991.649-39 2c-28.125 1.357-59.77 5.457-69 10-7.166 3.527-13.647 8.984-18 15-3.709 5.126-8.381 13.902-8 25s.656 20.989 1 24c.563 4.927 2.499 15.362 2 23-.281 4.302-.424 32.442 0 43 .309 7.695 5 34 5 34"/><path class="st0" d="M166.522 459.43s.424 20.934 1 27 1.588 18.133 3 25c1.412 6.867 3.903 14.565 6 24 3.268 14.699 10.227 31.189 11 33m404-505s15.035-13.246 41-19c14.83-3.286 29.271-3.378 42-2 17.993 1.947 37.846 10.17 45 18s15.975 18.811 18 27c2.371 9.588 3.833 21.13 7 28 5.67 12.301 21.562 30.053 23 34"/><path class="st1" d="M57.61 219.292s6.881-1.968 12.501-1.928c6.716.047 11.556 5.089 13.444 10.404 1.597 4.498 6.346 17.746 8.114 29.786 1.807 12.305 2.581 25.584 2.514 32.889-.124 13.378-.027 21.653 2.367 27.792 1.739 4.458 5.874 9.208 7.676 14.494 1.93 5.661-3.474 9.646-10.237 12.458-7.772 3.231-18.635 5.421-26.492 6.646-5.825.909-18.452 1.946-23.345.082-4.894-1.864-6.569-10.977-6.354-16.298.205-5.085 1.197-12.983 1.197-12.983l-.629-8.223"/><path class="st0" d="M426.522 514.43s3.074 5.744 5 8 32.4 17.301 44 21 32.904 17.027 48 18c15.096.973 41.777-2.268 49-2"/><path class="st2" d="M470.522 514.43s18.785 20.627 27 25 18.646 10.506 14-4c-4.646-14.506-10-24-10-24"/><path class="st1" d="M561.522 576.388l53.848-10.421s1.723-2.491 3.106-3.126c1.384-.636 28.995-7.295 28.995-7.295s2.581.602 3.107 4.168 0 7.295 0 7.295l-30.031 2.084m66.274-87.537v10.421s4.922 3.142 18.64 3.127c12.617-.014 18.64-2.085 18.64-2.085v-12.505s-7.546-2.153-18.64-2.084c-10.946.068-18.64 3.126-18.64 3.126z"/><path class="st1" d="M689.533 485.149s7.946 1.14 13.981 1.246c6.035.105 18.032-1.684 18.032-1.684m-30.618 10.393v7.294c0 1.326-1.111 3.851-2.071 5.211-.959 1.36-4.219 7.253-4.142 14.589.077 7.337-1.129 40.765-1.036 43.769.093 3.003 1.911 6.6 5.178 7.295 3.267.694 7.357 3.126 14.497 3.126 7.141 0 14.782-.828 17.605-2.084 2.822-1.257 5.266-3.184 5.177-7.295-.089-4.111 0-41.614 0-46.895 0-5.28-2.17-11.312-4.142-13.547-1.971-2.236-3.078-4.658-3.107-6.253-.028-1.595 0-4.168 0-4.168m-63.242 55.33c2.192-.402 4.635 2.944 5.455 7.473.821 4.53-.291 8.528-2.484 8.93-2.193.402-4.635-2.944-5.456-7.473-.82-4.53.292-8.528 2.485-8.93z"/><path class="st2" d="M738.463 537.474c2.322-.439 4.908 3.218 5.777 8.169.869 4.95-.309 9.32-2.631 9.76-2.321.439-4.907-3.218-5.776-8.168-.869-4.951.309-9.321 2.63-9.761z"/><path class="st1" d="M760.239 533.739c2.41-.432 5.095 3.165 5.997 8.035.901 4.87-.321 9.168-2.731 9.601-2.41.432-5.095-3.165-5.997-8.035-.902-4.87.321-9.168 2.731-9.601zm-17.325-7.372c3.481-1.018 7.359 7.447 8.662 18.905 1.302 11.458-.464 21.572-3.945 22.59-3.481 1.017-7.359-7.447-8.662-18.906-1.303-11.458.463-21.572 3.945-22.589zm-83.052 25.01l5.178-1.042m-3.107 15.632l19.675-2.084m59.026-9.379l-13.462 3.126m32.101-21.884l-9.32 1.042m12.427 14.589l-10.858 2.053m-13-15l-12 1m-61.482 8.821l17.604-3.126M20.522 410.43s-11.112-158.719-11-174 8.108-17.371 14-20 19.667-7.013 23-8 3.229 1.336 4 4 2 7 2 7"/><path class="st2" d="M27.522 406.43s-11.851-150.077-12-158c-.255-13.594 1.576-20.34 10-24 5.438-2.363 14.146-5.322 16-5"/><path class="st1" d="M57.274 221.264s-24.514 5.642-27.814 8.45c-3.299 2.808-4.628 5.153-2.854 16.758 1.774 11.606 3.442 36.118 5.428 45.558 2.242 10.66 7.822 19.592 7.822 19.592"/><path class="st2" d="M207.133 86.713s.469-8.448-7.004-.971c-3.456 3.458-.234 11.073 2.434 8.19 6.212-6.712-3.203-5.676-6.401-.173-3.169 5.451-.906 12.201 3.231 7.587 5.244-5.849-3.918-5.725-7.413-3.17-3.519 2.573-4.028 15.815 2.649 11.789 6.735-4.061-6.133-8.18-9.827-6.359-4.696 2.315-4.475 6.311.236 8.599m79.484-63.775s2.887 4.648-2 8c-1.679 1.151-8.083 6.875-11 2-4.346-7.262 4.779-9.179 7-5 2.927 5.507-3.871 8.795-7 10-6.338 2.44-15.342-4.242-8-8 5.695-2.915 4.128 15.309-4 16-4.264.363-7.818-4.33-5-7 4.068-3.855 11.814 2.456 2 10-3.392 2.608-12.192 4.639-13 0-.884-5.073 2.864-6.425 7-4 2.279 1.336 1.333 8.599-4 10m432-20s9.528-1.159 18 0 7.655 3.706 8 6-1.374 6.543 1 9 14.162 2.307 19 5 4.466 4.907 3 8-2.499 6.978 3 9 14.208.73 16 5-4.196 8.041-2 11 8.568-.781 10 6"/><path class="st2" d="M656.522 73.43s9.862-2.471 15-2 6.13 5.281 8 8 9.993 4.639 14 5 6.93 1.639 7 7-.191 10.728 5 12 9.759 2.539 11 7-.762 8.966 3 10m-23-51c1.87 2.719 9.993 4.639 14 5s6.93 1.639 7 7-.191 10.728 5 12 9.759 2.539 11 7-.762 8.966 3 10m-617-27l28-13m9 16l-27 14"/><path class="st3" d="M92.291 72.719l5.788 3.474s1.201-5.344 2.17-9.034c.969-3.69 2.894-9.729 2.894-9.729m494.678-42.269l1.29 7.588s5.547-2.912 9.482-4.801c3.935-1.889 10.626-4.688 10.626-4.688"/><path class="st1" d="M43.522 143.43c5.523 0 10 4.701 10 10.5s-4.477 10.5-10 10.5-10-4.701-10-10.5 4.477-10.5 10-10.5zm31-8c5.523 0 10 4.701 10 10.5s-4.477 10.5-10 10.5-10-4.701-10-10.5 4.477-10.5 10-10.5zm-58 24c5.523 0 10 4.701 10 10.5s-4.477 10.5-10 10.5-10-4.701-10-10.5 4.477-10.5 10-10.5zm85-16s-28.687-67.599-33-77c-4.312-9.401-5.628-18.342 2-23s42.441-23.133 53-27 15.993-8.125 24 6 13.04 29.383 18 40 14 29 14 29"/><linearGradient id="SVGID_1_" gradientUnits="userSpaceOnUse" x1="-482.827" y1="575.697" x2="-482.827" y2="576.697" gradientTransform="matrix(33 0 0 -15 16060.3 8701.877)"><stop offset="0"/><stop offset="1"/></linearGradient><path class="st4" d="M110.522 66.43l33-15"/><path class="st5" d="M46.347 159.901c2.32-1.232 3.033-3.585 2.061-5.757l-.015-.033c-.957-2.139-2.708-2.227-4.238-1.74l1.388-4.178-.854-1.908-7.033 3.734.972 2.172 4.089-2.171-1.246 4.082 1.078 1.423.951-.506c1.279-.679 2.273-.555 2.693.383l.014.033c.383.855.016 1.722-.846 2.18-1.055.561-2.02.462-3.131-.048l-.832 2.499c1.415.694 3.076.83 4.949-.165z"/><path class="st2" d="M8.522 171.43s2.382-4.678 4-6 5-2 5-2-.734 2.529-3 6-3 6-3 6 .96-.331 4-4 6-5 6-5 .969-.259-2 4-5 7-5 7 1.165.564 4-3 5-4 5-4m44-23s2.382-4.678 4-6 5-2 5-2-.734 2.529-3 6-3 6-3 6 .96-.331 4-4 6-5 6-5 .969-.259-2 4-5 7-5 7 1.165.564 4-3 5-4 5-4"/><path class="st1" d="M639.747 25.782c1.854-9.584-12.109-20.345-31.185-24.035-19.077-3.69-36.045 1.088-37.899 10.673-1.587 8.201 8.413 17.259 23.284 22.016-1.833 2.828-4.599 6.046-8.192 7.225 6.248 1.216 13.238-1.872 18.194-4.836 18.206 2.957 34.012-1.813 35.798-11.043z"/><path class="st2" d="M36.522 292.43l9-15m3 15l9-15m2 15l9-15m-19 61l9-15m12 15l9-15m2 5l9-15m-8 25l9-15m-53-23l14-23m-8 36l19-36m-17 55l28-55m-10 30l14-30m-15 41l20-41m-20 53l24-53m-23 62l27-62m598 260l-4 4m8-4l-4 4m15-4l-4 4m15-4l-26 32m22-32l-25 28m22-28l-4 4m-2 2l-17 19m19-25l-18 20m13-20l-13 16m9-16l-10 14m33-14l-24 35m27-35l-22 36m26-36l-20 36m19-28l-14 28m7-4l-4 4m8-4l-4 4m6-17l-4 4m4 2l-4 4"/></svg>