<svg id="Layer_1" xmlns="http://www.w3.org/2000/svg" viewBox="0 0 100 100"><style>.st0{stroke:#000;stroke-width:4;stroke-linecap:round;stroke-linejoin:round;stroke-miterlimit:10}.st0,.st1{fill:none}.st2{display:none}.st3{fill:#f4623b}.st4{fill:#fdebe6}.st5{fill:#f8c4b7}</style><path d="M99 41.091v53.455a2.227 2.227 0 0 1-2.227 2.227H3.227A2.228 2.228 0 0 1 1 94.545V58.909c0-1.229.998-2.227 2.227-2.227h13.364c1.229 0 2.227.998 2.227 2.227v33.409h8.909V41.091c0-1.229.998-2.227 2.227-2.227h13.364c1.229 0 2.227.998 2.227 2.227v51.227h8.909V58.909c0-1.229.996-2.227 2.227-2.227h13.364c1.232 0 2.227.998 2.227 2.227v33.409h8.909V41.091c0-1.229.996-2.227 2.227-2.227h13.364c1.232 0 2.228.997 2.228 2.227zM9.909 47.773c4.913 0 8.909-3.996 8.909-8.909 0-1.648-.479-3.172-1.263-4.497l14.584-14.584c1.325.784 2.849 1.263 4.497 1.263s3.172-.479 4.497-1.263l14.584 14.584c-.784 1.325-1.263 2.849-1.263 4.497 0 4.913 3.996 8.909 8.909 8.909s8.909-3.996 8.909-8.909c0-1.648-.479-3.172-1.263-4.497l14.584-14.582c1.325.782 2.849 1.261 4.497 1.261 4.913 0 8.909-3.996 8.909-8.909s-3.996-8.909-8.909-8.909-8.909 3.996-8.909 8.909c0 1.648.479 3.172 1.263 4.497L67.861 31.215c-1.325-.782-2.849-1.261-4.497-1.261-1.648 0-3.172.479-4.497 1.263L44.283 16.633c.784-1.325 1.263-2.849 1.263-4.497 0-4.913-3.996-8.909-8.909-8.909s-8.909 3.996-8.909 8.909c0 1.648.479 3.172 1.263 4.497L14.406 31.217c-1.325-.784-2.849-1.263-4.497-1.263C4.996 29.955 1 33.95 1 38.864s3.996 8.909 8.909 8.909z"/></svg>