<svg id="Layer_1" xmlns="http://www.w3.org/2000/svg" viewBox="0 0 100 100"><style>.st0{stroke:#000;stroke-width:4;stroke-linecap:round;stroke-linejoin:round;stroke-miterlimit:10}.st0,.st1{fill:none}.st2{display:none}.st3{fill:#f4623b}.st4{fill:#fdebe6}.st5{fill:#f8c4b7}</style><path d="M89.2 85.4c2.095 0 3.8 1.705 3.8 3.8S91.295 93 89.2 93s-3.8-1.705-3.8-3.8 1.705-3.8 3.8-3.8m0-6c-5.412 0-9.8 4.388-9.8 9.8s4.388 9.8 9.8 9.8 9.8-4.388 9.8-9.8-4.388-9.8-9.8-9.8zM93 7.193v7.618C51.232 17.758 17.758 51.232 14.811 93H7.193C10.166 47.04 47.041 10.166 93 7.193M99 1C44.876 1 1 44.876 1 99h19.6c0-43.299 35.101-78.4 78.4-78.4V1z"/><path d="M93 46.539v7.658C72.866 56.879 56.879 72.866 54.197 93h-7.658C49.302 68.668 68.668 49.302 93 46.539m6-6.339c-32.475 0-58.8 26.325-58.8 58.8h19.6c0-21.649 17.551-39.2 39.2-39.2V40.2z"/></svg>