<svg xmlns="http://www.w3.org/2000/svg" viewBox="0 0 83 100"><path d="M1.269 3.323c-.852 1.461-.73 3.165.122 4.626l.122.121 29.458 41.265v46.621c0 1.217.73 2.313 1.704 2.8.365.244.852.244 1.339.244.73 0 1.339-.243 1.948-.73l14.972-12.538a3 3 0 0 0 1.096-2.313V49.336L81.487 8.07l.122-.122c.852-1.461.974-3.165.122-4.626-.852-1.461-2.313-2.313-4.017-2.313H5.165C3.582.889 2 1.862 1.269 3.323zM74.67 6.975L46.43 46.658a2.993 2.993 0 0 0-.609 1.826V82.08l-8.886 7.425V48.362c0-.609-.243-1.217-.609-1.826L8.208 6.975H74.67z"/></svg>