<?xml version="1.0" encoding="utf-8"?>
<!-- Generator: Adobe Illustrator 21.0.2, SVG Export Plug-In . SVG Version: 6.00 Build 0)  -->
<svg version="1.1" id="Layer_1" xmlns="http://www.w3.org/2000/svg" xmlns:xlink="http://www.w3.org/1999/xlink" x="0px" y="0px"
	 viewBox="0 0 83 100" style="enable-background:new 0 0 83 100;" xml:space="preserve">
<g>
	<path d="M1.269,3.323c-0.852,1.461-0.73,3.165,0.122,4.626L1.513,8.07l29.458,41.265v46.621c0,1.217,0.73,2.313,1.704,2.8
		C33.04,99,33.527,99,34.014,99c0.73,0,1.339-0.243,1.948-0.73l14.972-12.538c0.73-0.609,1.096-1.461,1.096-2.313V49.336
		L81.487,8.07l0.122-0.122c0.852-1.461,0.974-3.165,0.122-4.626c-0.852-1.461-2.313-2.313-4.017-2.313H5.165
		C3.582,0.889,2,1.862,1.269,3.323z M74.67,6.975L46.43,46.658c-0.365,0.487-0.609,1.096-0.609,1.826V82.08l-8.886,7.425V48.362
		c0-0.609-0.243-1.217-0.609-1.826L8.208,6.975H74.67z"/>
</g>
</svg>
