<svg xmlns="http://www.w3.org/2000/svg" viewBox="0 0 100 86"><path d="M26.94 1.02c-6.641 0-13.289 2.509-18.351 7.552-10.125 10.087-10.112 26.499 0 36.593L47.517 84.02c1.295 1.28 3.631 1.28 4.925 0 12.987-12.938 25.977-25.844 38.964-38.782 10.125-10.087 10.125-26.506 0-36.593s-26.577-10.087-36.702 0l-4.67 4.67-4.743-4.743C40.229 3.529 33.581 1.02 26.94 1.02zm13.39 12.514l7.224 7.187c1.295 1.28 3.631 1.28 4.925 0l7.187-7.114c7.462-7.434 19.317-7.433 26.779 0s7.462 19.199 0 26.633C74.281 52.358 62.162 64.496 49.998 76.614l-36.447-36.41c-7.457-7.444-7.498-19.236-.036-26.67 7.939-7.18 19.48-7.484 26.815 0z"/></svg>