<svg xmlns="http://www.w3.org/2000/svg" viewBox="0 0 100 100"><path d="M43.582 1c-1.364-.005-2.653 1.148-2.997 2.248l-2.737 9.578a38.65 38.65 0 0 0-5.539 2.28l-8.699-4.821c-1.181-.662-2.791-.438-3.747.52l-9.025 9.058c-.945.95-1.168 2.54-.521 3.714l4.822 8.73a38.972 38.972 0 0 0-2.281 5.507L3.28 40.55c-1.307.368-2.289 1.672-2.281 3.03v12.836c.006 1.347.984 2.632 2.281 2.997l9.546 2.704a39.067 39.067 0 0 0 2.313 5.539l-4.822 8.73c-.647 1.175-.424 2.764.521 3.715l9.025 9.057c.955.96 2.566 1.184 3.747.52l8.699-4.821a38.739 38.739 0 0 0 5.539 2.313l2.737 9.546c.365 1.297 1.65 2.275 2.997 2.28h12.836c1.347-.01 2.632-.983 2.997-2.28l2.737-9.546a38.787 38.787 0 0 0 5.539-2.313l8.699 4.822c1.181.662 2.791.438 3.747-.521l9.025-9.057c.945-.951 1.168-2.54.521-3.714l-4.822-8.731a38.902 38.902 0 0 0 2.313-5.54l9.546-2.703c1.297-.365 2.275-1.65 2.281-2.997V43.58c.008-1.358-.973-2.662-2.281-3.03l-9.578-2.737a38.972 38.972 0 0 0-2.281-5.506l4.822-8.731c.647-1.174.424-2.763-.521-3.714l-9.025-9.057c-.955-.96-2.566-1.184-3.747-.521l-8.699 4.822a38.65 38.65 0 0 0-5.539-2.281l-2.737-9.578C59.038 1.963 57.757 1.002 56.418 1H43.582zm2.346 6.255h8.145l2.509 8.829a3.192 3.192 0 0 0 2.183 2.183 32.463 32.463 0 0 1 7.461 3.095 3.19 3.19 0 0 0 3.062.033l8.08-4.496 5.734 5.734-4.496 8.047a3.19 3.19 0 0 0 0 3.062 32.816 32.816 0 0 1 3.128 7.493 3.19 3.19 0 0 0 2.15 2.183l8.862 2.509v8.112l-8.862 2.54a3.186 3.186 0 0 0-2.15 2.15 32.798 32.798 0 0 1-3.128 7.494 3.19 3.19 0 0 0 0 3.062l4.496 8.08-5.734 5.7-8.08-4.495a3.19 3.19 0 0 0-3.062.032c-2.343 1.333-4.826 2.402-7.461 3.128a3.19 3.19 0 0 0-2.183 2.15l-2.509 8.862h-8.145l-2.509-8.862a3.186 3.186 0 0 0-2.183-2.15c-2.635-.726-5.118-1.795-7.461-3.128a3.189 3.189 0 0 0-3.063-.032l-8.08 4.496-5.734-5.701 4.496-8.08a3.19 3.19 0 0 0 0-3.062 32.816 32.816 0 0 1-3.128-7.493 3.186 3.186 0 0 0-2.15-2.15l-8.862-2.541v-8.112l8.862-2.51a3.188 3.188 0 0 0 2.15-2.182 32.78 32.78 0 0 1 3.128-7.493 3.19 3.19 0 0 0 0-3.062l-4.496-8.047 5.734-5.734 8.08 4.496c.936.512 2.138.5 3.063-.033a32.463 32.463 0 0 1 7.461-3.095 3.192 3.192 0 0 0 2.183-2.183l2.509-8.83zM50 27.064C37.37 27.064 27.064 37.37 27.064 50S37.37 72.936 50 72.936 72.936 62.63 72.936 50 62.63 27.064 50 27.064zm0 6.255c9.25 0 16.681 7.43 16.681 16.68S59.25 66.682 50 66.682 33.319 59.25 33.319 50A16.634 16.634 0 0 1 50 33.319z"/></svg>