<?xml version="1.0" encoding="utf-8"?>
<!-- Generator: Adobe Illustrator 21.0.2, SVG Export Plug-In . SVG Version: 6.00 Build 0)  -->
<svg version="1.1" id="Layer_1" xmlns="http://www.w3.org/2000/svg" xmlns:xlink="http://www.w3.org/1999/xlink" x="0px" y="0px"
	 viewBox="0 0 100 100" style="enable-background:new 0 0 100 100;" xml:space="preserve">
<g transform="translate(0,-952.3622)">
	<path d="M43.582,953.362c-1.364-0.005-2.653,1.148-2.997,2.248l-2.737,9.578c-1.923,0.632-3.767,1.376-5.539,2.281l-8.699-4.822
		c-1.181-0.662-2.791-0.438-3.747,0.521l-9.025,9.057c-0.945,0.951-1.168,2.54-0.521,3.714l4.822,8.731
		c-0.896,1.756-1.653,3.602-2.281,5.506l-9.578,2.737c-1.307,0.368-2.289,1.672-2.281,3.03v12.836
		c0.006,1.347,0.984,2.632,2.281,2.997l9.546,2.704c0.63,1.919,1.412,3.77,2.313,5.539l-4.822,8.731
		c-0.647,1.174-0.424,2.763,0.521,3.714l9.025,9.057c0.955,0.96,2.566,1.184,3.747,0.521l8.699-4.822
		c1.773,0.905,3.614,1.681,5.539,2.313l2.737,9.546c0.365,1.297,1.65,2.275,2.997,2.281h12.836c1.347-0.01,2.632-0.984,2.997-2.281
		l2.737-9.546c1.924-0.632,3.766-1.408,5.539-2.313l8.699,4.822c1.181,0.662,2.791,0.438,3.747-0.521l9.025-9.057
		c0.945-0.951,1.168-2.54,0.521-3.714l-4.822-8.731c0.901-1.768,1.684-3.62,2.313-5.539l9.546-2.704
		c1.297-0.365,2.275-1.65,2.281-2.997v-12.836c0.008-1.358-0.973-2.662-2.281-3.03l-9.578-2.737
		c-0.628-1.904-1.385-3.75-2.281-5.506l4.822-8.731c0.647-1.174,0.424-2.763-0.521-3.714l-9.025-9.057
		c-0.955-0.96-2.566-1.184-3.747-0.521l-8.699,4.822c-1.772-0.905-3.616-1.649-5.539-2.281l-2.737-9.578
		c-0.377-1.285-1.658-2.246-2.997-2.248H43.582z M45.928,959.617h8.145l2.509,8.829c0.286,1.037,1.146,1.896,2.183,2.183
		c2.635,0.726,5.118,1.762,7.461,3.095c0.925,0.532,2.127,0.545,3.062,0.033l8.08-4.496l5.734,5.734l-4.496,8.047
		c-0.522,0.93-0.522,2.132,0,3.062c1.333,2.343,2.402,4.859,3.128,7.493c0.281,1.03,1.125,1.887,2.15,2.183l8.862,2.509v8.112
		l-8.862,2.541c-1.018,0.29-1.86,1.132-2.15,2.15c-0.726,2.634-1.795,5.151-3.128,7.493c-0.522,0.93-0.522,2.132,0,3.062l4.496,8.08
		l-5.734,5.701l-8.08-4.496c-0.936-0.512-2.138-0.5-3.062,0.032c-2.343,1.333-4.826,2.402-7.461,3.128
		c-1.03,0.281-1.887,1.125-2.183,2.15l-2.509,8.862h-8.145l-2.509-8.862c-0.296-1.026-1.153-1.87-2.183-2.15
		c-2.635-0.726-5.118-1.795-7.461-3.128c-0.925-0.532-2.127-0.545-3.063-0.032l-8.08,4.496l-5.734-5.701l4.496-8.08
		c0.522-0.93,0.522-2.132,0-3.062c-1.333-2.343-2.402-4.859-3.128-7.493c-0.29-1.018-1.132-1.86-2.15-2.15l-8.862-2.541v-8.112
		l8.862-2.509c1.025-0.296,1.87-1.153,2.15-2.183c0.726-2.635,1.795-5.151,3.128-7.493c0.522-0.93,0.522-2.132,0-3.062l-4.496-8.047
		l5.734-5.734l8.08,4.496c0.936,0.512,2.138,0.5,3.063-0.033c2.343-1.333,4.826-2.369,7.461-3.095
		c1.037-0.286,1.896-1.146,2.183-2.183L45.928,959.617L45.928,959.617z M50,979.426c-12.63,0-22.936,10.306-22.936,22.936
		S37.37,1025.298,50,1025.298s22.936-10.306,22.936-22.936S62.63,979.426,50,979.426z M50,985.681
		c9.25,0,16.681,7.431,16.681,16.681c0,9.25-7.431,16.681-16.681,16.681s-16.681-7.431-16.681-16.681
		C33.319,993.113,40.75,985.681,50,985.681z"/>
</g>
</svg>
