<?xml version="1.0" encoding="utf-8"?>
<!-- Generator: Adobe Illustrator 22.0.1, SVG Export Plug-In . SVG Version: 6.00 Build 0)  -->
<svg version="1.1" id="Layer_1" xmlns="http://www.w3.org/2000/svg" xmlns:xlink="http://www.w3.org/1999/xlink" x="0px" y="0px"
	 viewBox="0 0 100 100" style="enable-background:new 0 0 100 100;" xml:space="preserve">
<style type="text/css">
	.st0{fill:none;stroke:#000000;stroke-width:4;stroke-linecap:round;stroke-linejoin:round;stroke-miterlimit:10;}
	.st1{fill:none;}
	.st2{display:none;}
	.st3{fill:#F4623B;}
	.st4{fill:#FDEBE6;}
	.st5{fill:#F8C4B7;}
</style>
<g>
	<path d="M84.677,15.197c19.097,19.097,19.097,50.256,0,69.354c-19.097,19.432-50.256,19.432-69.354,0
		c-19.097-19.097-19.097-50.256,0-69.354S65.579-3.9,84.677,15.197z M85.012,21.898c-4.021,2.68-8.376,4.691-13.067,6.366
		c1.675,5.696,2.345,12.397,2.68,19.432h20.103C94.058,37.98,90.708,29.269,85.012,21.898z M67.925,29.269
		c-5.026,1.34-10.386,2.345-15.747,2.345v16.082h17.757C69.935,40.996,68.93,34.965,67.925,29.269z M47.822,31.615
		c-5.361,0-10.721-1.005-15.412-2.345c-1.34,5.696-2.345,11.726-2.345,18.427h17.757V31.615z M28.055,28.264
		c-4.691-1.675-9.046-3.685-12.732-6.366C9.627,29.269,5.942,37.98,5.272,47.697h20.438C25.709,40.661,26.715,33.96,28.055,28.264z
		 M18.338,18.548c3.35,2.01,7.036,4.021,11.056,5.361c1.675-6.031,4.356-12.397,8.711-17.087
		c-7.706,2.01-14.407,6.031-19.768,11.391V18.548z M33.415,25.249c4.691,1.005,9.381,1.675,14.407,2.01V5.481
		C40.451,7.491,35.761,18.213,33.415,25.249z M52.178,27.259c5.026-0.335,10.051-1.005,14.407-2.01
		c-2.01-7.036-6.701-17.757-14.407-19.768V27.259z M70.94,23.909c4.021-1.34,7.706-3.35,11.056-5.361l-0.335-0.335
		C76.301,12.852,69.6,8.832,61.894,6.821C66.25,11.512,68.93,17.878,70.94,23.909z M15.323,77.85
		c3.685-2.345,8.041-4.356,12.732-6.031c-1.34-6.031-2.345-12.732-2.345-19.768H5.272C5.942,61.768,9.627,70.815,15.323,77.85z
		 M32.41,70.479c4.691-1.34,10.051-2.01,15.412-2.345V52.052H30.065C30.065,58.753,31.07,64.784,32.41,70.479z M52.178,68.134
		c5.361,0.335,10.721,1.005,15.747,2.345c1.005-5.696,2.01-11.726,2.01-18.427H52.178V68.134z M71.945,71.82
		c4.691,1.675,9.046,3.685,13.067,6.031c5.696-7.036,9.046-16.082,9.716-25.798H74.626C74.291,59.088,73.621,65.789,71.945,71.82z
		 M81.997,81.201c-3.35-2.01-7.036-3.685-11.056-5.026c-2.01,5.696-4.691,12.062-9.046,16.752
		C69.6,90.917,76.301,86.897,81.997,81.201z M66.585,74.835c-4.356-1.34-9.381-2.01-14.407-2.01v21.443
		C59.884,92.257,64.574,81.536,66.585,74.835z M47.822,72.825c-5.026,0-9.716,0.67-14.407,2.01
		c2.345,6.701,7.036,17.422,14.407,19.432V72.825z M29.395,76.175c-4.021,1.34-7.706,3.015-11.056,5.026
		c5.361,5.696,12.062,9.716,19.768,11.727C33.75,88.237,31.07,81.871,29.395,76.175z"/>
</g>
</svg>
