<svg id="Layer_1" xmlns="http://www.w3.org/2000/svg" viewBox="0 0 100 55.671"><style>.st0{stroke:#000;stroke-width:4;stroke-linecap:round;stroke-linejoin:round;stroke-miterlimit:10}.st0,.st1{fill:none}</style><path d="M50.001 1c-7.714 0-13.99 6.275-13.99 13.989s6.276 13.99 13.99 13.99 13.989-6.275 13.989-13.99S57.714 1 50.001 1zm0 25.08c-6.116 0-11.093-4.976-11.093-11.093S43.886 3.899 50.001 3.899s11.091 4.974 11.091 11.09S56.117 26.08 50.001 26.08zm7.492 4.181a1.45 1.45 0 0 0-.728 2.805c10.641 2.756 15.8 8.17 16.722 17.553.047.482-.16.821-.342 1.023a1.614 1.614 0 0 1-1.201.516H28.053c-.464 0-.902-.187-1.2-.516a1.298 1.298 0 0 1-.342-1.023c.924-9.383 6.081-14.797 16.722-17.553a1.45 1.45 0 1 0-.729-2.805c-11.672 3.023-17.847 9.589-18.88 20.076a4.182 4.182 0 0 0 1.081 3.253 4.521 4.521 0 0 0 3.346 1.468h43.891a4.527 4.527 0 0 0 3.349-1.468 4.182 4.182 0 0 0 1.08-3.253c-1.032-10.487-7.206-17.053-18.878-20.076zm32.204-14.9c0-5.984-4.868-10.852-10.854-10.852-5.987 0-10.855 4.868-10.855 10.852 0 5.985 4.868 10.855 10.855 10.855 5.986 0 10.854-4.87 10.854-10.855zm-18.809 0c0-4.385 3.568-7.955 7.956-7.955 4.387 0 7.956 3.57 7.956 7.955 0 4.388-3.57 7.958-7.956 7.958-4.389-.002-7.956-3.57-7.956-7.958zm13.665 12.356a1.449 1.449 0 0 0-.728 2.806c7.81 2.022 11.596 5.985 12.272 12.848a.613.613 0 0 1-.165.489.85.85 0 0 1-.632.267H79.059a1.45 1.45 0 1 0 0 2.9h16.242a3.756 3.756 0 0 0 2.78-1.22 3.494 3.494 0 0 0 .901-2.718c-.791-8.035-5.509-13.065-14.429-15.372zM21.158 4.509c-5.985 0-10.854 4.868-10.854 10.852 0 5.985 4.868 10.855 10.854 10.855s10.855-4.87 10.855-10.855c0-5.984-4.87-10.852-10.855-10.852zm0 18.808c-4.387 0-7.956-3.57-7.956-7.958 0-4.385 3.57-7.955 7.956-7.955 4.388 0 7.956 3.57 7.956 7.955-.001 4.39-3.568 7.958-7.956 7.958zm1.231 22.259a1.45 1.45 0 0 0-1.447-1.45H4.699a.844.844 0 0 1-.63-.267.604.604 0 0 1-.166-.489c.677-6.862 4.462-10.826 12.272-12.848a1.45 1.45 0 0 0-.727-2.806c-8.92 2.309-13.638 7.336-14.43 15.373a3.5 3.5 0 0 0 .902 2.718 3.76 3.76 0 0 0 2.779 1.219h16.243a1.45 1.45 0 0 0 1.447-1.45z"/></svg>