<?xml version="1.0" encoding="utf-8"?>
<!-- Generator: Adobe Illustrator 21.0.2, SVG Export Plug-In . SVG Version: 6.00 Build 0)  -->
<svg version="1.1" id="Layer_1" xmlns="http://www.w3.org/2000/svg" xmlns:xlink="http://www.w3.org/1999/xlink" x="0px" y="0px"
	 viewBox="0 0 100 86" style="enable-background:new 0 0 100 86;" xml:space="preserve">
<style type="text/css">
	.st0{display:none;}
	.st1{display:none;fill:none;stroke:#000000;stroke-width:5;stroke-miterlimit:10;}
	.st2{display:none;fill:none;stroke:#000000;stroke-width:5;stroke-linejoin:round;stroke-miterlimit:10;}
</style>
<g transform="translate(0,-952.36218)">
	<path d="M26.94,953.362c-6.641,0-13.289,2.509-18.351,7.552c-10.125,10.087-10.112,26.499,0,36.593l38.928,38.855
		c1.295,1.28,3.631,1.28,4.925,0c12.987-12.938,25.977-25.844,38.964-38.782c10.125-10.087,10.125-26.506,0-36.593
		s-26.577-10.087-36.702,0l-4.67,4.67l-4.743-4.743C40.229,955.871,33.581,953.362,26.94,953.362z M40.33,965.876l7.224,7.187
		c1.295,1.28,3.631,1.28,4.925,0l7.187-7.114c7.462-7.434,19.317-7.433,26.779,0c7.462,7.433,7.462,19.199,0,26.633
		c-12.164,12.118-24.283,24.256-36.447,36.374l-36.447-36.41c-7.457-7.444-7.498-19.236-0.036-26.669
		C21.454,958.697,32.995,958.391,40.33,965.876L40.33,965.876z"/>
</g>
</svg>
