<svg id="Layer_1" xmlns="http://www.w3.org/2000/svg" viewBox="0 0 100 86"><style>.st0,.st1,.st2{display:none}.st1,.st2{fill:none;stroke:#000;stroke-width:5;stroke-miterlimit:10}.st2{stroke-linejoin:round}</style><path d="M26.94 953.362c-6.641 0-13.289 2.509-18.351 7.552-10.125 10.087-10.112 26.499 0 36.593l38.928 38.855c1.295 1.28 3.631 1.28 4.925 0 12.987-12.938 25.977-25.844 38.964-38.782 10.125-10.087 10.125-26.506 0-36.593s-26.577-10.087-36.702 0l-4.67 4.67-4.743-4.743c-5.062-5.043-11.71-7.552-18.351-7.552zm13.39 12.514l7.224 7.187c1.295 1.28 3.631 1.28 4.925 0l7.187-7.114c7.462-7.434 19.317-7.433 26.779 0s7.462 19.199 0 26.633c-12.164 12.118-24.283 24.256-36.447 36.374l-36.447-36.41c-7.457-7.444-7.498-19.236-.036-26.669 7.939-7.18 19.48-7.486 26.815-.001z" transform="translate(0 -952.362)"/></svg>