<svg id="Layer_1" xmlns="http://www.w3.org/2000/svg" viewBox="0 0 100 100"><style>.st0{stroke:#000;stroke-width:4;stroke-linecap:round;stroke-linejoin:round;stroke-miterlimit:10}.st0,.st1{fill:none}</style><path d="M37.543 98.886c2.171 0 4-1.829 4-4v-25.6c0-.343.229-.571.571-.571h15.771c.343 0 .571.229.571.571V95c0 2.171 1.829 4 4 4h18.4C88.057 99 94 93.057 94 85.857V42.086c0-2.971-1.257-5.829-3.314-8l-.114-.114L56.4 3.571c-3.543-3.429-9.371-3.429-12.914 0L9.429 34.086l-.115.114C7.143 36.257 6 39.229 6 42.2v43.657C6 93.057 11.943 99 19.143 99h18.4v-.114z"/></svg>