<svg id="Layer_1" xmlns="http://www.w3.org/2000/svg" viewBox="0 0 100 100"><style>.st0{stroke:#000;stroke-width:4;stroke-linecap:round;stroke-linejoin:round;stroke-miterlimit:10}.st0,.st1{fill:none}</style><path d="M37.543 98.886c2.171 0 4-1.829 4-4v-25.6c0-.343.229-.571.571-.571h15.771c.343 0 .571.229.571.571V95c0 2.171 1.829 4 4 4h18.4C88.057 99 94 93.057 94 85.857V42.086c0-2.971-1.257-5.829-3.314-8l-.114-.114L56.4 3.571c-3.543-3.429-9.371-3.429-12.914 0L9.429 34.086l-.115.114C7.143 36.257 6 39.229 6 42.2v43.657C6 93.057 11.943 99 19.143 99h18.4v-.114zM14 85.743V42.086c0-.8.343-1.6.914-2.171l34.057-30.4.115-.115c.571-.457 1.371-.457 1.829 0l.114.114 34.057 30.4c.571.572.914 1.372.914 2.172v43.657a5.122 5.122 0 0 1-5.143 5.143h-14.4V69.171c0-4.686-3.886-8.571-8.571-8.571H42.114c-4.686 0-8.571 3.886-8.571 8.571v21.714h-14.4A5.12 5.12 0 0 1 14 85.743z"/></svg>