<svg id="Layer_1" xmlns="http://www.w3.org/2000/svg" viewBox="0 0 100 100"><style>.st0{stroke:#000;stroke-width:4;stroke-linecap:round;stroke-linejoin:round;stroke-miterlimit:10}.st0,.st1{fill:none}.st2,.st3{fill:#fff}.st3{stroke:#000;stroke-width:6;stroke-linecap:round;stroke-miterlimit:10}</style><path d="M8.25 91.75l83.5-83.5M10.371 93.871l83.5-83.5a2.998 2.998 0 0 0 0-4.242 2.998 2.998 0 0 0-4.242 0l-83.5 83.5A2.998 2.998 0 0 0 8.25 94.75c.767 0 1.535-.293 2.121-.879zm8.451-20.47A38.792 38.792 0 0 1 11 50c0-21.505 17.495-39 39-39a38.795 38.795 0 0 1 23.4 7.822l4.284-4.284C70.049 8.568 60.444 5 50 5 25.147 5 5 25.147 5 50c0 10.444 3.568 20.049 9.538 27.685l4.284-4.284zm62.356-46.802A38.798 38.798 0 0 1 89 50c0 21.505-17.495 39-39 39a38.795 38.795 0 0 1-23.4-7.822l-4.284 4.284C29.951 91.432 39.556 95 50 95c24.853 0 45-20.147 45-45 0-10.444-3.568-20.049-9.538-27.685l-4.284 4.284z"/></svg>