<svg id="Layer_1" xmlns="http://www.w3.org/2000/svg" viewBox="0 0 100 100"><style>.st0{stroke:#000;stroke-width:4;stroke-linecap:round;stroke-linejoin:round;stroke-miterlimit:10}.st0,.st1{fill:none}.st2{display:none}.st3{fill:#f4623b}.st4{fill:#fdebe6}.st5{fill:#f8c4b7}</style><path d="M98.935 45.861c-.014-.074-.035-.144-.053-.216a3.334 3.334 0 0 0-.407-.968c-.04-.065-.078-.131-.122-.194-.019-.027-.033-.057-.053-.084l-21-28a3.498 3.498 0 0 0-2.8-1.4h-49a3.498 3.498 0 0 0-2.8 1.4l-21 28c-.02.027-.034.057-.053.084-.044.062-.082.128-.122.194a3.543 3.543 0 0 0-.286.577 3.334 3.334 0 0 0-.121.391c-.018.072-.04.142-.053.216-.04.21-.065.423-.065.639v35C1 83.432 2.568 85 4.5 85h91c1.932 0 3.5-1.568 3.5-3.5v-35c0-.216-.025-.429-.065-.639zM27.25 22h45.5l15.749 21H67.5a3.501 3.501 0 0 0-3.5 3.5V57H36V46.5c0-1.932-1.568-3.5-3.5-3.5H11.502L27.25 22zM8 78V50h21v10.5c0 1.932 1.568 3.5 3.5 3.5h35c1.932 0 3.5-1.568 3.5-3.5V50h21v28H8z"/></svg>