<?xml version="1.0" encoding="utf-8"?>
<!-- Generator: Adobe Illustrator 22.0.1, SVG Export Plug-In . SVG Version: 6.00 Build 0)  -->
<svg version="1.1" id="Layer_1" xmlns="http://www.w3.org/2000/svg" xmlns:xlink="http://www.w3.org/1999/xlink" x="0px" y="0px"
	 viewBox="0 0 100 100" style="enable-background:new 0 0 100 100;" xml:space="preserve">
<style type="text/css">
	.st0{fill:none;stroke:#000000;stroke-width:4;stroke-linecap:round;stroke-linejoin:round;stroke-miterlimit:10;}
	.st1{fill:none;}
	.st2{display:none;}
	.st3{fill:#F4623B;}
	.st4{fill:#FDEBE6;}
	.st5{fill:#F8C4B7;}
</style>
<path d="M-6109.424,99h-11.892c-1.422,0-2.576-1.153-2.576-2.576c0-1.423,1.153-2.576,2.576-2.576h11.892
	c1.422,0,2.576,1.153,2.576,2.576C-6106.849,97.847-6108.002,99-6109.424,99z M-6104.272,90.105h-22.195
	c-1.423,0-2.576-1.153-2.576-2.576c0-1.423,1.153-2.576,2.576-2.576h22.195c1.423,0,2.576,1.153,2.576,2.576
	C-6101.696,88.952-6102.85,90.105-6104.272,90.105z M-6104.299,81.208h-22.198c-1.423,0-2.576-1.153-2.576-2.576v-6.678
	c0.004-1.184-0.043-2.87-0.487-3.946c-0.321-0.775-1.018-1.692-1.961-2.582c-0.034-0.032-0.066-0.065-0.099-0.099
	c-4.166-4.386-9.132-11.323-9.132-19.465c0-13.525,10.573-24.66,24.069-25.351c0.396-0.022,1.29-0.033,1.29-0.033
	c0.454-0.03,0.959,0.014,1.416,0.04c0.004,0,0.006,0,0.01,0.001c13.415,0.767,23.923,11.9,23.923,25.344
	c0,8.14-4.964,15.077-9.13,19.464c-0.033,0.035-0.066,0.069-0.101,0.101c-0.942,0.887-1.638,1.804-1.958,2.582
	c-0.338,0.819-0.499,2.107-0.49,3.934v6.689C-6101.723,80.054-6102.876,81.208-6104.299,81.208z M-6123.921,76.056h17.046v-4.101
	c-0.012-2.582,0.259-4.409,0.881-5.914c0.604-1.462,1.658-2.912,3.132-4.312c2.885-3.051,7.667-9.124,7.667-15.868
	c0-10.715-8.373-19.587-19.062-20.2c-0.365-0.019-0.735-0.032-1.108-0.032c-0.003,0-0.713,0.008-1.042,0.026
	c-10.768,0.551-19.193,9.427-19.193,20.206c0,6.745,4.784,12.818,7.67,15.869c1.026,0.977,2.383,2.504,3.129,4.308
	c0.616,1.49,0.888,3.317,0.879,5.924V76.056z M-6138.882,25.754c-0.659,0-1.318-0.252-1.821-0.754l-7.625-7.621
	c-1.006-1.006-1.006-2.637-0.001-3.643c1.006-1.006,2.638-1.006,3.644-0.001l7.625,7.621c1.006,1.006,1.006,2.637,0.001,3.643
	C-6137.563,25.502-6138.223,25.754-6138.882,25.754z M-6092.917,25.119c-0.659,0-1.318-0.252-1.821-0.754
	c-1.006-1.006-1.006-2.637-0.001-3.643l7.62-7.624c1.006-1.006,2.638-1.006,3.644-0.001c1.006,1.006,1.006,2.637,0.001,3.643
	l-7.62,7.624C-6091.597,24.868-6092.258,25.119-6092.917,25.119z M-6123.983,16.919c-1.139,0-2.179-0.759-2.487-1.91l-2.789-10.411
	c-0.369-1.374,0.448-2.787,1.821-3.155c1.381-0.37,2.786,0.448,3.154,1.822l2.789,10.411c0.369,1.374-0.448,2.787-1.821,3.155
	C-6123.54,16.89-6123.764,16.919-6123.983,16.919z M-6107.026,16.567c-0.22,0-0.445-0.028-0.668-0.089
	c-1.375-0.369-2.189-1.781-1.821-3.155l2.792-10.413c0.369-1.373,1.784-2.191,3.155-1.821c1.375,0.369,2.19,1.781,1.821,3.155
	l-2.792,10.413C-6104.847,15.808-6105.889,16.567-6107.026,16.567z"/>
<path d="M-6957.601,48.598l22.606,17.047l47.454-62.126c2.614-3.733,7.76-4.64,11.493-2.026l0.627,0.462
	c3.732,2.614,4.64,7.758,2.025,11.492l-51.783,79.77c-1.955,2.791-3.896,3.762-7.301,3.988c-3.405,0.225-5.464-1.039-7.508-3.084
	l-29.467-33.691c-3.263-3.262-3.263-8.553,0-11.814l0.041-0.019C-6966.152,45.334-6960.863,45.334-6957.601,48.598z"/>
<g>
	<path d="M-6753.774,1.872c-2.497-2.497-6.38-2.497-8.877,0l-39.251,39.251l-39.251-39.251c-2.497-2.497-6.38-2.497-8.876,0
		s-2.497,6.38,0,8.877L-6810.779,50l-39.251,39.251c-2.497,2.497-2.497,6.38,0,8.877c1.249,1.248,2.774,1.803,4.438,1.803
		c1.664,0,3.19-0.555,4.438-1.803l39.251-39.251l39.251,39.251c1.248,1.248,2.774,1.803,4.438,1.803c1.665,0,3.19-0.555,4.438-1.803
		c2.497-2.497,2.497-6.38,0-8.877L-6793.025,50l39.251-39.251C-6751.417,8.252-6751.417,4.369-6753.774,1.872z"/>
</g>
<g>
	<g transform="translate(-69.000000, -228.000000)">
		<g transform="translate(69.000000, 230.000000)">
			<path d="M-6731.902,3.556c0-3.068,2.472-5.556,5.519-5.556h88.962c3.048,0,5.519,2.466,5.519,5.556
				c0,3.068-2.472,5.556-5.519,5.556h-88.962C-6729.431,9.111-6731.902,6.645-6731.902,3.556z M-6731.902,36.889
				c0-3.068,2.472-5.556,5.519-5.556h88.962c3.048,0,5.519,2.466,5.519,5.556c0,3.068-2.472,5.556-5.519,5.556h-88.962
				C-6729.431,42.444-6731.902,39.979-6731.902,36.889z M-6731.902,70.222c0-3.068,2.472-5.556,5.519-5.556h88.962
				c3.048,0,5.519,2.466,5.519,5.556c0,3.068-2.472,5.556-5.519,5.556h-88.962C-6729.431,75.778-6731.902,73.312-6731.902,70.222z"
				/>
		</g>
	</g>
</g>
<g>
	<rect x="-6602.253" y="58.965" width="80.702" height="5.263"/>
	<rect x="-6591.727" y="67.737" width="59.649" height="5.263"/>
</g>
<g>
	<path d="M-6516.288,0h-91.228c-2.456,0-4.386,1.93-4.386,4.386v47.368c0,2.456,1.93,4.386,4.386,4.386h91.228
		c2.456,0,4.386-1.93,4.386-4.386V4.386C-6511.902,1.93-6513.832,0-6516.288,0z M-6606.639,5.263h5.263
		c0,2.456-1.93,4.386-4.386,4.386h-0.877V5.263z M-6606.639,50.877v-4.386h0.877c2.456,0,4.386,1.93,4.386,4.386H-6606.639z
		 M-6517.166,50.877h-5.263c0-2.456,1.93-4.386,4.386-4.386h0.877V50.877z M-6517.166,41.228h-0.877
		c-5.263,0-9.649,4.386-9.649,9.649h-68.421c0-5.263-4.386-9.649-9.649-9.649h-0.877V14.912h0.877c5.263,0,9.649-4.386,9.649-9.649
		h69.298c0,5.263,4.386,9.649,9.649,9.649V41.228z M-6517.166,9.649c-2.456,0-4.386-1.93-4.386-4.386h4.386V9.649z"/>
	<path d="M-6560.148,31.053v4.912c1.754-0.526,1.93-1.93,1.93-2.632C-6558.218,32.456-6558.744,31.754-6560.148,31.053z"/>
	<path d="M-6564.885,24.561c0,0.877,0.526,1.404,1.754,1.93v-4.211C-6564.183,22.632-6564.885,23.509-6564.885,24.561z"/>
	<path d="M-6575.586,14.737c-7.544,7.544-7.544,19.825,0,27.368c7.544,7.544,19.825,7.544,27.369,0
		c7.543-7.544,7.543-19.825,0-27.368C-6555.762,7.193-6568.042,7.193-6575.586,14.737z M-6560.148,39.298v2.456h-2.807v-2.456
		c-2.105-0.351-4.035-1.404-5.263-3.158l-0.351-0.526l1.93-2.456l0.702,0.877c0.526,0.702,1.579,1.754,2.982,2.105v-5.965
		c-2.281-0.702-4.913-1.93-4.913-5.439c0-2.807,1.93-5.088,4.913-5.614v-2.456h2.807v2.632c1.754,0.351,3.333,1.228,4.562,2.807
		l0.351,0.526l-1.93,2.281l-0.702-0.877c-0.526-0.877-1.403-1.404-2.281-1.754v5.088c2.105,0.702,5.088,1.93,5.088,5.965
		C-6555.06,35.789-6556.463,38.596-6560.148,39.298z"/>
	<circle cx="-6593.481" cy="16.14" r="3.509"/>
	<circle cx="-6530.323" cy="40.702" r="3.509"/>
</g>
<path d="M-6394.091,66.694l-35.341-59.382C-6431.98,2.659-6436.744,0-6441.951,0c-5.207,0-9.971,2.659-12.629,7.201l-35.23,59.493
	c-2.77,4.542-2.77,10.192-0.111,14.735c2.659,4.542,7.423,7.423,12.852,7.423h70.35c5.429,0,10.192-2.77,12.851-7.423
	C-6391.21,76.886-6391.21,71.236-6394.091,66.694z M-6437.187,68.799c0,2.77-2.105,4.875-4.875,4.875
	c-2.77,0-4.875-2.105-4.875-4.875v-1.662c0-2.77,2.105-4.875,4.875-4.875c2.77,0,4.985,2.105,4.875,4.875V68.799z M-6437.187,54.618
	c0,2.77-2.105,4.875-4.875,4.875c-2.77,0-4.875-2.105-4.875-4.875V28.361c0-2.77,2.105-4.875,4.875-4.875
	c2.77,0,4.985,2.327,4.875,4.985V54.618z"/>
<g>
	<g id="XMLID_78_">
		<path id="XMLID_7_" d="M-6306.567,17.541c-1.821,1.081-7.032,3.339-21.949,8.318c-2.664,0.882-5.492,1.64-8.485,2.443
			l-1.795,0.483c-8.95,2.443-17.485,5.178-23.543,11.715c-5.337,5.755-7.932,13.717-7.932,24.343v2.805
			c0,3.88,0.698,7.648,2.078,11.231c0.244-5.405,2.856-18.412,21.541-25.067v-0.136l0.396-0.019
			c1.244-0.436,2.532-0.832,3.831-1.177c1.161-0.313,2.278-0.626,3.372-0.96c9.187-2.675,15.58-5.461,20.123-8.772
			c1.278-0.903,2.427-1.874,3.42-2.888C-6309.991,34.318-6307.138,27.208-6306.567,17.541z"/>
	</g>
	<g id="XMLID_40_">
		<path id="XMLID_6_" d="M-6367.227,81.144c5.202,10.849,16.305,17.856,28.31,17.856c12.017,0,23.112-7.008,28.289-17.86
			c0.063-0.701,0.445-6.43-3.048-12.66c-3.099-5.564-8.292-9.887-15.46-12.876c2.535,2.553,3.988,6.018,3.988,9.709
			c0,7.605-6.177,13.792-13.77,13.792c-7.605,0-13.793-6.187-13.793-13.792c0-3.686,1.458-7.154,4.001-9.714
			C-6368.657,63.912-6367.355,79.943-6367.227,81.144z"/>
	</g>
	<g id="XMLID_37_">
		<path id="XMLID_5_" d="M-6371.237,17.51c0.554,9.52,3.287,16.544,8.552,22.004c5.816-6.063,13.679-8.839,21.999-11.171
			c-3.057-0.816-5.945-1.587-8.654-2.484C-6361.394,21.835-6368.729,19.038-6371.237,17.51z"/>
	</g>
	<g id="XMLID_13_">
		<path id="XMLID_4_" d="M-6331.221,53.805c8.634,3.07,14.809,7.853,18.355,14.222c2.449,4.367,3.073,8.433,3.193,10.892
			c1.384-3.59,2.085-7.373,2.085-11.273v-2.805c0-1.962-0.087-3.766-0.267-5.518c-0.763-7.757-3.166-13.804-7.339-18.47
			c-0.949,0.928-2.02,1.816-3.191,2.644c-4.381,3.191-10.414,5.895-18.906,8.465c0.552,0.159,1.161,0.327,1.86,0.515
			c1.292,0.344,2.576,0.739,3.817,1.173h0.385L-6331.221,53.805z"/>
	</g>
	<g id="XMLID_10_">
		<circle id="XMLID_8_" cx="-6338.901" cy="9.462" r="8.462"/>
	</g>
</g>
<path d="M-6268.724,89.112V21.257h-5.005c-6.285,0-11.173,4.772-11.173,11.173v45.508c0,6.169,5.005,11.173,11.173,11.173
	 M-6198.075,89.112c6.168,0,11.173-5.005,11.173-11.174V32.43c0-6.401-5.121-11.173-11.173-11.173h-5.238v67.855 M-6247.541,11.131
	c0-2.561,2.095-4.656,4.656-4.656h13.967c2.561,0,4.656,2.095,4.656,4.656v4.423h5.587V11.13c0-5.587-4.656-10.242-10.242-10.242
	h-13.968c-5.587,0-10.242,4.656-10.242,10.242v4.423h5.587L-6247.541,11.131L-6247.541,11.131z M-6262.788,21.257v67.855h54.121
	V21.257H-6262.788z M-6224.612,57.221h-8.729v8.38c0,1.513-1.28,2.793-2.793,2.793c-1.513,0-2.793-1.28-2.793-2.793v-8.38h-8.38
	c-1.513,0-2.793-1.28-2.793-2.793s1.28-2.793,2.793-2.793h8.38v-9.311c0-1.513,1.28-2.793,2.793-2.793
	c1.513,0,2.793,1.28,2.793,2.793v9.311h8.729c1.513,0,2.793,1.28,2.793,2.793S-6223.099,57.221-6224.612,57.221z"/>
<g transform="translate(0,-952.36218)">
	<path d="M-5995.902,953.362c-27.023,0-49,21.977-49,49c0,27.023,21.977,49,49,49c27.023,0,49-21.977,49-49
		C-5946.902,975.339-5968.879,953.362-5995.902,953.362L-5995.902,953.362z M-5995.902,959.896
		c23.493,0,42.467,18.974,42.467,42.467c0,23.492-18.974,42.467-42.467,42.467c-23.492,0-42.466-18.974-42.466-42.467
		S-6019.395,959.896-5995.902,959.896L-5995.902,959.896z M-5988.28,968.607c-3.007,0-5.445,2.438-5.445,5.444
		c0,3.007,2.438,5.444,5.445,5.444c3.007,0,5.444-2.438,5.444-5.444C-5982.835,971.044-5985.273,968.607-5988.28,968.607z
		 M-5994.916,980.584c-3.925,0.176-8.1,2.11-11.604,4.798l-0.374,4.083c3.311-1.296,6.707-1.283,7.724,1.804
		c2.477,7.508-5.985,20.645-8.303,27.528c-6.287,18.674,8.8,20.831,19.566,13.135l0.409-4.424
		c-5.857,1.834-10.056-0.419-6.669-10.174c1.631-4.706,15.282-28.417,5.853-34.947
		C-5990.289,981.02-5992.56,980.479-5994.916,980.584z"/>
</g>
<path d="M-5875.902,1L-5875.902,1c-27.023,0-49,21.977-49,49s21.977,49,49,49c27.023,0,49-21.977,49-49S-5848.879,1-5875.902,1z
	 M-5875.902,92.467c-23.492,0-42.466-18.974-42.466-42.467c0-23.492,18.974-42.467,42.466-42.467v0
	c23.493,0,42.467,18.974,42.467,42.467S-5852.41,92.467-5875.902,92.467z"/>
<path d="M-5871.996,59.367h-7.8v-4.22c-0.087-1.417,0.135-2.837,0.65-4.16c0.771-1.325,1.739-2.525,2.87-3.56l5-5
	c1.065-1.166,1.635-2.701,1.59-4.28c0.047-1.583-0.552-3.118-1.66-4.25c-1.129-1.136-2.68-1.748-4.28-1.69
	c-1.618-0.051-3.193,0.53-4.39,1.62c-1.185,1.138-1.898,2.68-2,4.32h-8.36c0.268-3.72,1.993-7.184,4.8-9.64
	c2.878-2.388,6.531-3.641,10.27-3.52c3.632-0.153,7.193,1.04,10,3.35c2.58,2.233,3.87,5.353,3.87,9.36
	c0.088,2.501-0.721,4.952-2.28,6.91c-0.625,0.817-1.293,1.602-2,2.35c-0.46,0.46-1.07,1.047-1.83,1.76
	c-0.76,0.713-1.407,1.337-1.94,1.87s-0.96,0.983-1.28,1.35c-0.899,1.242-1.337,2.759-1.24,4.29L-5871.996,59.367z M-5870.465,69.587
	c0.005,2.999-2.421,5.434-5.42,5.44c-2.999,0.006-5.435-2.421-5.44-5.42c-0.006-2.999,2.421-5.434,5.42-5.44c0.003,0,0.006,0,0.01,0
	C-5872.9,64.167-5870.471,66.592-5870.465,69.587z"/>
<path d="M-5777.952,20.351c2.977,0,5.39-2.413,5.39-5.39V6.14c0-2.977-2.413-5.39-5.39-5.39s-5.39,2.413-5.39,5.39v8.821
	C-5783.342,17.937-5780.929,20.351-5777.952,20.351z M-5733.854,20.351c2.977,0,5.39-2.413,5.39-5.39V6.14
	c0-2.977-2.414-5.39-5.39-5.39s-5.39,2.413-5.39,5.39v8.821C-5739.244,17.937-5736.83,20.351-5733.854,20.351z M-5711.804,9.571
	h-13.72v6.37c0,4.6-3.73,8.33-8.33,8.33c-4.598,0-8.33-3.73-8.33-8.33v-6.37h-27.439v6.37c0,4.6-3.73,8.33-8.33,8.33
	s-8.33-3.73-8.33-8.33v-6.37h-13.72c-2.707,0-4.901,2.193-4.901,4.9v76.44c0,2.706,2.194,4.899,4.901,4.899h88.199
	c2.707,0,4.9-2.193,4.9-4.899v-76.44C-5706.904,11.764-5709.097,9.571-5711.804,9.571z M-5762.028,82.091l-20.334-20.58l6.125-6.37
	l14.21,13.23l26.459-28.42l7.105,5.881L-5762.028,82.091z"/>
<g>
	<path d="M-5625.356,50.687h-19.159c-1.227,0-2.22-0.993-2.22-2.217l0,0c0-1.227,0.993-2.218,2.22-2.218h19.159
		c1.224,0,2.219,0.991,2.219,2.218l0,0C-5623.137,49.693-5624.132,50.687-5625.356,50.687z"/>
	<path d="M-5625.356,37.335h-19.159c-1.227,0-2.22-0.995-2.22-2.22l0,0c0-1.224,0.993-2.22,2.22-2.22h19.159
		c1.224,0,2.219,0.995,2.219,2.22l0,0C-5623.137,36.339-5624.132,37.335-5625.356,37.335z"/>
	<path d="M-5649.414,42.157c-0.674-0.508-1.632-0.372-2.139,0.302l-4.838,6.416l-2.046-2.715c-0.508-0.674-1.466-0.807-2.143-0.299
		c-0.674,0.51-0.806,1.465-0.299,2.139l3.266,4.334h0.005c0.28,0.368,0.719,0.608,1.217,0.608c0.499,0,0.938-0.24,1.217-0.611
		l0.003,0.002l6.059-8.036C-5648.603,43.626-5648.739,42.666-5649.414,42.157z"/>
	<path d="M-5649.414,28.804c-0.674-0.508-1.632-0.374-2.139,0.302l-4.838,6.419l-2.046-2.716c-0.508-0.674-1.466-0.809-2.143-0.302
		c-0.674,0.508-0.806,1.469-0.299,2.142l3.266,4.334l0.005-0.005c0.28,0.372,0.719,0.614,1.217,0.614
		c0.499,0,0.938-0.241,1.217-0.614l0.003,0.005l6.059-8.04C-5648.603,30.27-5648.739,29.314-5649.414,28.804z"/>
	<path d="M-5619.026,9.746h-6.612V8.871c0-1.226-0.995-2.223-2.221-2.223h-6.356c-0.968-3.399-4.095-5.898-7.801-5.898
		s-6.834,2.5-7.802,5.898h-6.358c-1.225,0-2.221,0.996-2.221,2.223v0.875h-6.612c-4.405,0-7.988,3.583-7.988,7.99v61.026
		c0,4.405,3.583,7.991,7.988,7.991h25.641c-1.956-1.466-3.627-3.269-4.936-5.325h-20.705c-1.468,0-2.663-1.197-2.663-2.666V17.736
		c0-1.468,1.195-2.665,2.663-2.665h6.612v2.793c0,1.224,0.996,2.221,2.221,2.221h28.317c1.226,0,2.221-0.996,2.221-2.221v-2.793
		h6.612c1.469,0,2.663,1.197,2.663,2.665v32.672h1.96c1.149-0.001,2.268,0.116,3.365,0.3V17.736
		C-5611.038,13.329-5614.622,9.746-5619.026,9.746z M-5630.079,15.644h-23.878v-4.556h6.042c1.224,0,2.217-0.995,2.217-2.217
		c0-2.031,1.651-3.681,3.681-3.681c2.028,0,3.681,1.65,3.681,3.681c0,1.222,0.988,2.213,2.21,2.217h6.047V15.644z"/>
	<path d="M-5598.807,71.432L-5598.807,71.432c0,9.22-7.474,16.693-16.693,16.693h-2.809c-2.104,3.999-6.031,6.583-8.811,7.984
		c-0.665,0.33-1.47,0.059-1.8-0.606c-0.149-0.301-0.181-0.647-0.087-0.969c0.612-2.134,0.743-4.377,0.385-6.569
		c-8.188-1.216-14.248-8.249-14.24-16.527l0,0c0-9.22,7.474-16.693,16.693-16.693h10.655c9.22-0.008,16.7,7.459,16.708,16.679
		c0,0.005,0,0.01,0,0.015V71.432z"/>
</g>
<g id="XMLID_16_">
	<path id="XMLID_17_" d="M-5466.902,0c-2.801,1.663-10.817,5.137-33.765,12.796c-4.098,1.357-8.449,2.523-13.053,3.758l-2.761,0.743
		c-13.769,3.758-26.898,7.966-36.218,18.022c-8.21,8.853-12.203,21.102-12.203,37.448v4.315c0,5.969,1.074,11.765,3.197,17.277
		c0.375-8.315,4.394-28.324,33.138-38.562c0,0,4.504-1.518,6.502-2.049c1.786-0.482,3.504-0.963,5.188-1.477
		c14.133-4.115,23.968-8.401,30.957-13.495c1.966-1.389,3.734-2.883,5.261-4.443C-5472.169,25.809-5467.78,14.871-5466.902,0z"/>
</g>
<g transform="translate(-231.86559,-335.4644)">
	<path d="M-5179.037,336.464c-16.833,0-30.529,13.696-30.529,30.529v18.471c-2.225,4.522-3.505,9.592-3.505,14.966
		c0,18.798,15.236,34.034,34.034,34.034c18.798,0,34.034-15.235,34.034-34.034c0-5.375-1.289-10.444-3.505-14.966v-18.471
		C-5148.508,350.16-5162.204,336.464-5179.037,336.464L-5179.037,336.464z M-5179.037,348.066c10.436,0,18.927,8.492,18.927,18.927
		v5.152c-5.42-3.625-11.919-5.748-18.927-5.748c-6.999,0-13.517,2.114-18.927,5.748v-5.152
		C-5197.964,356.558-5189.472,348.066-5179.037,348.066z M-5179.037,387.725c3.607,0,6.502,2.886,6.502,6.484
		c0,2.091-0.955,3.924-2.471,5.117l1.647,13.81h-11.339l1.665-13.81c-1.507-1.202-2.506-3.027-2.506-5.117
		C-5185.539,390.611-5182.644,387.725-5179.037,387.725L-5179.037,387.725z"/>
</g>
<g>
	<path d="M-5268.045,0.579h-75.556c-6.296,0-11.301,5.005-11.301,11.301v49.24c0,6.296,5.005,11.301,11.301,11.301h75.394
		c6.296,0,11.301-5.005,11.301-11.301V11.88C-5256.745,5.584-5261.911,0.579-5268.045,0.579z M-5343.601,7.037h75.394
		c0.484,0,0.969,0,1.453,0.161l-39.069,30.029l-39.069-30.029C-5344.408,7.037-5343.924,7.037-5343.601,7.037z M-5263.202,60.959
		c0,2.745-2.099,4.843-4.843,4.843h-75.556c-2.745,0-4.843-2.099-4.843-4.843V12.526l42.621,32.773l42.621-32.612V60.959z"/>
</g>
<path d="M-5139.279,91.987l-33.319-33.319c5.064-6.1,8.115-13.929,8.115-22.459c0-19.415-15.795-35.21-35.209-35.21
	s-35.21,15.795-35.21,35.21s15.795,35.21,35.21,35.21c7.93,0,15.255-2.638,21.148-7.079l33.457,33.457
	c0.802,0.802,1.854,1.203,2.904,1.203s2.102-0.401,2.904-1.203C-5137.675,96.193-5137.675,93.592-5139.279,91.987z M-5226.687,36.21
	c0-14.884,12.109-26.994,26.994-26.994c14.885,0,26.994,12.11,26.994,26.994s-12.109,26.994-26.994,26.994
	C-5214.578,63.204-5226.687,51.094-5226.687,36.21z"/>
<g>
	<path d="M-5115.633,3.323c-0.852,1.461-0.73,3.165,0.122,4.626l0.122,0.122l29.458,41.265v46.621c0,1.217,0.73,2.313,1.704,2.8
		c0.365,0.243,0.853,0.243,1.339,0.243c0.73,0,1.339-0.243,1.947-0.73l14.973-12.538c0.73-0.609,1.095-1.461,1.095-2.313V49.336
		l29.458-41.265l0.122-0.122c0.852-1.461,0.974-3.165,0.122-4.626s-2.313-2.313-4.017-2.313h-72.549
		C-5113.32,0.889-5114.902,1.862-5115.633,3.323z M-5042.232,6.975l-28.24,39.683c-0.365,0.487-0.609,1.096-0.609,1.826V82.08
		l-8.886,7.425V48.362c0-0.609-0.244-1.217-0.609-1.826l-28.119-39.561H-5042.232z"/>
</g>
<g transform="translate(0,-952.3622)">
	<path d="M-4970.32,953.362c-1.364-0.005-2.653,1.148-2.998,2.248l-2.736,9.578c-1.923,0.632-3.767,1.376-5.539,2.281l-8.699-4.822
		c-1.181-0.662-2.791-0.438-3.747,0.521l-9.024,9.057c-0.945,0.951-1.168,2.54-0.521,3.714l4.822,8.731
		c-0.896,1.756-1.653,3.602-2.28,5.506l-9.579,2.737c-1.307,0.368-2.289,1.672-2.281,3.03v12.836
		c0.006,1.347,0.984,2.632,2.281,2.997l9.546,2.704c0.629,1.919,1.412,3.77,2.313,5.539l-4.822,8.731
		c-0.646,1.174-0.424,2.763,0.521,3.714l9.024,9.057c0.956,0.96,2.566,1.184,3.747,0.521l8.699-4.822
		c1.772,0.905,3.614,1.681,5.539,2.313l2.736,9.546c0.365,1.297,1.65,2.275,2.998,2.281h12.836c1.347-0.01,2.632-0.984,2.997-2.281
		l2.737-9.546c1.924-0.632,3.766-1.408,5.539-2.313l8.699,4.822c1.181,0.662,2.792,0.438,3.747-0.521l9.024-9.057
		c0.945-0.951,1.168-2.54,0.521-3.714l-4.822-8.731c0.901-1.768,1.684-3.62,2.313-5.539l9.546-2.704
		c1.297-0.365,2.274-1.65,2.28-2.997v-12.836c0.009-1.358-0.973-2.662-2.28-3.03l-9.579-2.737c-0.628-1.904-1.385-3.75-2.281-5.506
		l4.822-8.731c0.646-1.174,0.423-2.763-0.521-3.714l-9.024-9.057c-0.956-0.96-2.566-1.184-3.747-0.521l-8.699,4.822
		c-1.771-0.905-3.616-1.649-5.539-2.281l-2.737-9.578c-0.376-1.285-1.658-2.246-2.997-2.248H-4970.32z M-4967.975,959.617h8.145
		l2.509,8.829c0.286,1.037,1.146,1.896,2.183,2.183c2.635,0.726,5.118,1.762,7.461,3.095c0.924,0.532,2.126,0.545,3.062,0.033
		l8.08-4.496l5.734,5.734l-4.496,8.047c-0.522,0.93-0.522,2.132,0,3.062c1.333,2.343,2.402,4.859,3.127,7.493
		c0.281,1.03,1.125,1.887,2.15,2.183l8.862,2.509v8.112l-8.862,2.541c-1.018,0.29-1.86,1.132-2.15,2.15
		c-0.726,2.634-1.795,5.151-3.127,7.493c-0.522,0.93-0.522,2.132,0,3.062l4.496,8.08l-5.734,5.701l-8.08-4.496
		c-0.936-0.512-2.138-0.5-3.062,0.032c-2.343,1.333-4.826,2.402-7.461,3.128c-1.03,0.281-1.887,1.125-2.183,2.15l-2.509,8.862
		h-8.145l-2.509-8.862c-0.296-1.026-1.153-1.87-2.183-2.15c-2.635-0.726-5.118-1.795-7.461-3.128
		c-0.925-0.532-2.127-0.545-3.062-0.032l-8.08,4.496l-5.734-5.701l4.496-8.08c0.522-0.93,0.522-2.132,0-3.062
		c-1.333-2.343-2.402-4.859-3.127-7.493c-0.291-1.018-1.132-1.86-2.15-2.15l-8.862-2.541v-8.112l8.862-2.509
		c1.025-0.296,1.87-1.153,2.15-2.183c0.726-2.635,1.795-5.151,3.127-7.493c0.522-0.93,0.522-2.132,0-3.062l-4.496-8.047l5.734-5.734
		l8.08,4.496c0.936,0.512,2.138,0.5,3.062-0.033c2.343-1.333,4.826-2.369,7.461-3.095c1.037-0.286,1.896-1.146,2.183-2.183
		L-4967.975,959.617L-4967.975,959.617z M-4963.902,979.426c-12.63,0-22.936,10.306-22.936,22.936s10.306,22.936,22.936,22.936
		c12.63,0,22.937-10.306,22.937-22.936S-4951.272,979.426-4963.902,979.426z M-4963.902,985.681c9.25,0,16.681,7.431,16.681,16.681
		c0,9.25-7.431,16.681-16.681,16.681c-9.25,0-16.681-7.431-16.681-16.681C-4980.583,993.113-4973.152,985.681-4963.902,985.681z"/>
</g>
<g transform="translate(-91.214475,-152.15558)">
	<path d="M-4723.393,153.156c-0.352,0.005-0.688,0.147-0.936,0.396l-29.416,29.415l1.912,1.911l5.371-5.371l6.345,6.345
		c0.521,0.535,1.376,0.547,1.912,0.027c0.01-0.009,0.019-0.018,0.028-0.028c0.52-0.536,0.507-1.391-0.028-1.911l-6.345-6.345
		l5.784-5.784l6.345,6.345c0.521,0.535,1.376,0.548,1.912,0.027c0.009-0.009,0.019-0.019,0.028-0.028
		c0.52-0.536,0.507-1.391-0.028-1.911l-6.345-6.345l5.784-5.784l6.345,6.345c0.521,0.535,1.376,0.547,1.912,0.027
		c0.009-0.009,0.019-0.018,0.028-0.028c0.52-0.536,0.507-1.391-0.028-1.911l-6.345-6.345l5.784-5.784l16.422,16.422v0.001
		l-28.459,28.459l1.912,1.912l29.416-29.415c0.528-0.528,0.528-1.384,0-1.912l-18.334-18.334
		C-4722.676,153.293-4723.028,153.15-4723.393,153.156L-4723.393,153.156z M-4785.013,160.047c-2.533-0.048-5.057,0.863-6.968,2.757
		c-0.01,0.009-0.021,0.018-0.031,0.028c-3.819,3.819-3.684,10.118,0.216,14.017c0.001,0.002,0.003,0.003,0.005,0.005
		c0.213,0.21,0.436,0.41,0.666,0.601c0.06,0.101,0.131,0.196,0.218,0.283l61.407,61.407c0.069,0.069,0.144,0.13,0.222,0.182
		c0.193,0.268,0.473,0.461,0.792,0.547l16.107,4.344c0.765,0.206,1.55-0.246,1.754-1.01c0.065-0.243,0.064-0.499-0.001-0.742
		l-4.343-16.108c-0.086-0.319-0.281-0.599-0.549-0.793c-0.052-0.078-0.112-0.152-0.181-0.221l-61.408-61.407
		c-0.084-0.084-0.177-0.154-0.275-0.213c-0.194-0.233-0.397-0.459-0.612-0.674c0,0-0.001-0.001-0.002-0.002
		C-4779.94,161.103-4782.48,160.095-4785.013,160.047L-4785.013,160.047z M-4785.143,162.859c1.781,0.014,3.588,0.701,5.018,2.067
		l-9.791,9.791c-2.731-2.859-2.75-7.226-0.093-9.883C-4788.681,163.505-4786.924,162.845-4785.143,162.859L-4785.143,162.859z
		 M-4777.985,167.118l59.241,59.241l-3.855,3.855l-59.241-59.241L-4777.985,167.118L-4777.985,167.118z M-4783.87,173.003
		l59.241,59.241l-3.855,3.855l-59.241-59.241L-4783.87,173.003L-4783.87,173.003z M-4771.876,201.098l-29.416,29.416
		c-0.528,0.528-0.528,1.384,0,1.912l18.334,18.334c0.528,0.528,1.384,0.528,1.912,0l29.416-29.416l-1.912-1.912l-28.459,28.459
		l-16.422-16.422l5.785-5.784l6.345,6.345c0.521,0.535,1.376,0.547,1.912,0.027c0.009-0.009,0.019-0.018,0.028-0.028
		c0.52-0.536,0.507-1.391-0.028-1.911l-6.345-6.345l5.784-5.784l6.345,6.345c0.521,0.535,1.376,0.547,1.912,0.027
		c0.009-0.009,0.019-0.018,0.028-0.028c0.52-0.536,0.507-1.391-0.028-1.911l-6.345-6.345l5.785-5.784l6.345,6.345
		c0.521,0.535,1.376,0.548,1.912,0.027c0.009-0.009,0.019-0.018,0.028-0.028c0.52-0.536,0.507-1.391-0.028-1.911l-6.345-6.345
		l5.371-5.371L-4771.876,201.098L-4771.876,201.098z M-4717.089,229.493l3.049,11.309l-11.309-3.049L-4717.089,229.493z"/>
</g>
<path d="M-4704.988,31.908h-20.965c-1.874,0-3.393,1.519-3.393,3.392c0,1.874,1.519,3.392,3.393,3.392h17.573v53.523h-58.043V38.692
	h17.573c1.874,0,3.392-1.519,3.392-3.392c0-1.874-1.519-3.392-3.392-3.392h-20.965c-1.874,0-3.392,1.519-3.392,3.392v60.308
	c0,1.874,1.519,3.392,3.392,3.392h64.829c1.874,0,3.392-1.519,3.392-3.392V35.3C-4701.596,33.427-4703.114,31.908-4704.988,31.908z
	 M-4750.155,21.944l9.36-9.361v54.849c0,1.874,1.519,3.392,3.392,3.392c1.874,0,3.393-1.519,3.393-3.392V12.582l9.36,9.36
	c0.663,0.663,1.531,0.994,2.398,0.994c0.867,0,1.735-0.331,2.398-0.994c1.325-1.324,1.325-3.471,0-4.797L-4735,1.998
	c-0.614-0.616-1.464-0.998-2.403-0.998s-1.789,0.382-2.403,0.998l-15.147,15.148c-1.325,1.325-1.325,3.473,0,4.797
	C-4753.627,23.268-4751.48,23.268-4750.155,21.944z"/>
<g sketch:type="MSPage">
	<g sketch:type="MSArtboardGroup">
		<path sketch:type="MSShapeGroup" d="M-4590.811,90.091c0,4.92-4.001,8.909-8.909,8.909h-71.273c-4.92,0-8.909-4.001-8.909-8.909
			V18.818c0-4.92,4.001-8.909,8.909-8.909h55.715l-8.909,8.909h-46.806v71.273h71.273V41.058l8.909-8.909V90.091L-4590.811,90.091z
			 M-4591.484,19.957l-52.276,52.468l-13.87,4.302l4.279-13.926l52.276-52.468L-4591.484,19.957L-4591.484,19.957L-4591.484,19.957
			L-4591.484,19.957L-4591.484,19.957L-4591.484,19.957L-4591.484,19.957L-4591.484,19.957z M-4583.229,5.539
			c1.764,1.77,1.774,4.628-0.003,6.412l-3.197,3.208l-9.59-9.624l3.197-3.208c1.766-1.772,4.632-1.767,6.39-0.003L-4583.229,5.539
			L-4583.229,5.539z"/>
	</g>
</g>
<g>
	<path d="M-4475.003,1h-71.798c-7.221,0-13.101,5.88-13.101,13.101v71.798c0,7.221,5.88,13.101,13.101,13.101h71.798
		c7.221,0,13.101-5.88,13.101-13.101V14.101C-4461.902,6.88-4467.782,1-4475.003,1z M-4546.801,8.324h71.798
		c3.198,0,5.777,2.579,5.777,5.777v38.272l-16.608-20.941c-1.96-2.579-5.88-2.579-7.84,0l-24.242,30.638l-10.109-11.038
		c-2.063-2.269-5.674-2.269-7.737,0l-16.815,18.259V14.101C-4552.578,10.903-4549.999,8.324-4546.801,8.324z"/>
	<circle cx="-4534.628" cy="26.274" r="8.253"/>
</g>
<path d="M-4349.496,8.645c-10.125-10.087-26.577-10.087-36.702,0l-4.67,4.67l-4.743-4.743c-5.063-5.043-11.71-7.552-18.351-7.552
	c-6.641,0-13.289,2.509-18.352,7.552c-10.125,10.087-10.112,26.499,0,36.593l38.928,38.855c1.295,1.28,3.631,1.28,4.925,0
	c12.987-12.937,25.978-25.844,38.964-38.782C-4339.371,35.151-4339.371,18.732-4349.496,8.645z M-4354.458,40.24
	c-12.164,12.118-24.283,24.256-36.447,36.374l-36.447-36.41c-7.457-7.443-7.498-19.236-0.036-26.669
	c7.94-7.179,19.481-7.484,26.815,0v0l7.224,7.187c1.295,1.28,3.63,1.28,4.925,0l7.187-7.114c7.462-7.434,19.317-7.433,26.779,0
	C-4346.996,21.04-4346.996,32.806-4354.458,40.24z"/>
<g>
	<path d="M-4255.302,16.925v14.05h-48.4v-14.05H-4255.302 M-4253.752,12.925h-51.5c-1.283,0-2.45,1.167-2.45,2.45v17.15
		c0,1.283,1.167,2.45,2.45,2.45h51.5c1.283,0,2.45-1.167,2.45-2.45v-17.15C-4251.333,14.271-4252.455,12.925-4253.752,12.925
		L-4253.752,12.925z"/>
</g>
<path d="M-4224.352,25.175h-14.7V3.125c-0.03-1.104-1.159-2.408-2.45-2.45h-75.95c-1.283,0-2.45,1.167-2.45,2.45V80.3
	c0,6.065,4.959,11.025,11.025,11.025h75.95c6.065,0,11.025-4.96,11.025-11.025V27.625
	C-4221.932,26.521-4223.027,25.206-4224.352,25.175z M-4308.877,86.425c-3.436,0-6.125-2.689-6.125-6.125V5.575h71.05V80.3
	c0,2.324,0.904,4.343,2.144,6.125H-4308.877z M-4226.802,80.3c0,3.436-2.689,6.125-6.125,6.125s-6.125-2.689-6.125-6.125V30.075
	h12.25V80.3z"/>
<path d="M-4253.752,46.675c1.353,0,2.45,1.097,2.45,2.45s-1.097,2.45-2.45,2.45h-51.45c-1.353,0-2.45-1.097-2.45-2.45
	s1.097-2.45,2.45-2.45H-4253.752z"/>
<path d="M-4253.752,63.275c1.353,0,2.45,1.097,2.45,2.45c0,1.353-1.097,2.45-2.45,2.45h-51.45c-1.353,0-2.45-1.097-2.45-2.45
	c0-1.353,1.097-2.45,2.45-2.45H-4253.752z"/>
<path d="M-4144.675,70.545h28.636c1.129,0,2.045-0.916,2.045-2.045V35.773c0-1.129-0.917-2.045-2.045-2.045h-28.636
	c-1.129,0-2.045,0.916-2.045,2.045V68.5C-4146.72,69.629-4145.804,70.545-4144.675,70.545z"/>
<path d="M-4111.948,1h-77.727c-5.641,0-10.228,4.59-10.228,10.227v69.545c0,5.637,4.586,10.227,10.228,10.227h77.727
	c5.641,0,10.228-4.59,10.228-10.227V11.227C-4101.72,5.59-4106.307,1-4111.948,1z M-4151.221,7.351c2.485,0,4.5,2.016,4.5,4.5
	c0,2.484-2.016,4.5-4.5,4.5c-2.484,0-4.5-2.016-4.5-4.5C-4155.72,9.367-4153.705,7.351-4151.221,7.351z M-4169.22,7.351
	c2.484,0,4.5,2.016,4.5,4.5c0,2.484-2.017,4.5-4.5,4.5s-4.5-2.016-4.5-4.5C-4173.721,9.367-4171.704,7.351-4169.22,7.351z
	 M-4187.22,7.351c2.484,0,4.499,2.016,4.499,4.5c0,2.484-2.015,4.5-4.499,4.5c-2.485,0-4.5-2.016-4.5-4.5
	C-4191.72,9.367-4189.705,7.351-4187.22,7.351z M-4105.811,80.773c0,3.383-2.753,6.136-6.137,6.136h-75.682h-2.045
	c-3.384,0-6.136-2.753-6.136-6.136V21.455h90V80.773z"/>
<path class="st0" d="M-4124.402,91.756"/>
<path d="M-3983.136,40.099l-38.371-38.371c-1.645-1.645-4.309-1.645-5.954,0c-1.645,1.644-1.645,4.31,0,5.954l31.184,31.184h-79.666
	c-2.324,0-4.21,1.885-4.21,4.21c0,2.325,1.886,4.21,4.21,4.21h79.666l-31.184,31.184c-1.645,1.644-1.645,4.31,0,5.954
	c0.822,0.822,1.899,1.233,2.977,1.233s2.155-0.411,2.977-1.233l38.371-38.371C-3981.491,44.408-3981.491,41.742-3983.136,40.099z"/>
<g>
	<path d="M-3954.652,47.562c0-10.341,8.409-18.75,18.75-18.75c0.794,0,1.65,0.069,2.694,0.219c0.906,0.141,1.8-0.263,2.484-0.856
		c0.685-0.594,1.072-1.581,1.072-2.487c0-10.341,8.409-18.75,18.75-18.75s18.75,8.409,18.753,18.644
		c-0.006,0.075-0.016,0.278-0.016,0.356c0,0.906,0.394,1.766,1.078,2.359c0.684,0.591,1.584,0.856,2.49,0.731
		c1.044-0.147,1.9-0.216,2.694-0.216c10.341,0,18.75,8.409,18.75,18.75h6.25c0-13.85-11.385-25.2-25.194-25
		c-1.544-12.316-12.078-21.875-24.806-21.875c-12.659,0-23.153,9.459-24.772,21.875c-0.075,0-0.153,0-0.228,0
		c-13.784,0-25,11.216-25,25s11.216,25,25,25h17l-6-6.25h-11C-3946.243,66.312-3954.652,57.903-3954.652,47.562z"/>
</g>
<path class="st1" d="M-3757.704,49.999c0-2.357,1.433-4.726,2.819-7.017c1.347-2.229,2.74-4.532,2.242-6.062
	c-0.533-1.638-3.09-2.703-5.562-3.733c-2.41-1.004-4.903-2.042-6.228-3.861c-1.342-1.843-1.568-4.555-1.786-7.179
	c-0.22-2.647-0.448-5.384-1.812-6.378c-1.341-0.977-3.994-0.357-6.562,0.242c-2.578,0.601-5.242,1.224-7.437,0.509
	c-2.1-0.684-3.835-2.709-5.514-4.667c-1.76-2.055-3.581-4.18-5.358-4.18c-1.777,0-3.598,2.125-5.359,4.179
	c-1.679,1.958-3.414,3.984-5.514,4.667c-2.194,0.715-4.86,0.093-7.437-0.509c-2.567-0.6-5.222-1.219-6.562-0.242
	c-1.364,0.994-1.592,3.731-1.811,6.377c-0.218,2.624-0.444,5.337-1.787,7.18c-1.324,1.819-3.817,2.857-6.227,3.861
	c-2.472,1.029-5.029,2.095-5.561,3.732c-0.499,1.53,0.895,3.834,2.242,6.063c1.386,2.291,2.819,4.661,2.819,7.017
	s-1.432,4.726-2.819,7.017c-1.347,2.229-2.74,4.533-2.242,6.063c0.533,1.638,3.09,2.703,5.561,3.732
	c2.41,1.004,4.904,2.042,6.229,3.862c1.342,1.843,1.568,4.556,1.786,7.179c0.22,2.647,0.447,5.384,1.812,6.379
	c1.338,0.976,3.996,0.357,6.562-0.243c1.755-0.409,3.551-0.828,5.211-0.828c0.778,0,1.525,0.092,2.225,0.319
	c2.1,0.684,3.835,2.71,5.514,4.668c1.761,2.055,3.583,4.18,5.36,4.18s3.598-2.125,5.359-4.18c1.679-1.958,3.414-3.984,5.514-4.667
	c2.195-0.714,4.86-0.092,7.437,0.508c2.567,0.6,5.221,1.219,6.562,0.242c1.364-0.993,1.592-3.731,1.812-6.378
	c0.218-2.623,0.444-5.336,1.787-7.178c1.324-1.82,3.817-2.858,6.228-3.862c2.471-1.03,5.028-2.095,5.561-3.733
	c0.499-1.53-0.895-3.834-2.242-6.063C-3756.272,54.725-3757.704,52.356-3757.704,49.999z"/>
<path d="M-3749.015,56.134c-1.302-2.153-2.649-4.381-2.649-6.135s1.347-3.982,2.649-6.136c1.806-2.987,3.674-6.076,2.719-9.008
	c-0.995-3.054-4.406-4.475-7.705-5.849c-2.255-0.939-4.586-1.91-5.548-3.232c-0.982-1.347-1.193-3.887-1.398-6.344
	c-0.294-3.535-0.598-7.19-3.159-9.056c-2.537-1.847-6.087-1.02-9.52-0.219c-2.419,0.564-4.923,1.148-6.535,0.621
	c-1.51-0.491-3.129-2.381-4.695-4.209c-2.345-2.736-4.77-5.566-8.045-5.566s-5.699,2.83-8.046,5.568
	c-1.566,1.827-3.185,3.717-4.695,4.209c-1.614,0.526-4.116-0.057-6.534-0.621c-3.435-0.801-6.984-1.631-9.52,0.218
	c-2.562,1.866-2.866,5.521-3.16,9.055c-0.204,2.457-0.415,4.998-1.398,6.345c-0.961,1.322-3.293,2.292-5.548,3.231
	c-3.298,1.374-6.71,2.795-7.704,5.85c-0.956,2.933,0.911,6.023,2.719,9.011c1.302,2.153,2.648,4.381,2.648,6.135
	s-1.347,3.982-2.648,6.135c-1.806,2.988-3.675,6.077-2.719,9.011c0.995,3.054,4.406,4.475,7.705,5.85
	c2.254,0.939,4.586,1.91,5.548,3.231c0.982,1.348,1.193,3.888,1.398,6.346c0.294,3.535,0.597,7.189,3.159,9.056
	c2.536,1.847,6.087,1.018,9.521,0.218c2.416-0.564,4.92-1.15,6.533-0.621c1.51,0.491,3.13,2.381,4.697,4.209
	c2.344,2.737,4.77,5.568,8.045,5.568s5.699-2.83,8.046-5.568c1.566-1.827,3.185-3.717,4.695-4.209
	c1.615-0.529,4.116,0.056,6.534,0.621c3.435,0.801,6.983,1.628,9.52-0.218c2.562-1.866,2.866-5.523,3.16-9.056
	c0.205-2.457,0.416-4.997,1.398-6.345c0.961-1.321,3.294-2.292,5.548-3.232c3.298-1.374,6.71-2.795,7.704-5.85
	C-3745.341,62.211-3747.208,59.122-3749.015,56.134z M-3769.619,33.119l-24.856,38.29c-0.938,1.34-1.87,1.806-3.504,1.914
	c-1.635,0.108-2.623-0.499-3.604-1.48l-14.144-16.172c-1.566-1.566-1.566-4.105,0-5.671l0.02-0.009c1.566-1.566,4.104-1.566,5.67,0
	l10.851,8.183l22.778-29.82c1.255-1.792,3.725-2.227,5.517-0.973l0.301,0.222C-3768.8,28.858-3768.364,31.327-3769.619,33.119z"/>
<path d="M-3874.737,47.201c-2.709-2.699-6.291-4.186-10.085-4.186c-3.789,0-7.366,1.482-10.061,4.161
	c-2.651-2.683-6.178-4.159-9.936-4.159c-3.66,0-7.229,1.404-10.048,3.953l-0.107,0.097l-0.103,0.102
	c-2.708,2.698-4.2,6.268-4.203,10.053c-0.002,3.798,1.495,7.385,4.213,10.097l20.162,20.143l4.24-4.225
	c2.638-2.627,5.27-5.256,7.901-7.886c2.674-2.671,5.348-5.341,8.025-8.01c2.716-2.705,4.211-6.281,4.211-10.07
	S-3872.021,49.906-3874.737,47.201z M-3878.971,63.09c-5.316,5.296-10.612,10.6-15.927,15.895l-15.927-15.911
	c-3.259-3.253-3.277-8.406-0.016-11.655c3.47-3.137,8.513-3.271,11.718,0v0l3.157,3.141c0.566,0.559,1.587,0.559,2.153,0
	l3.141-3.109c3.261-3.249,8.442-3.248,11.703,0C-3875.71,54.7-3875.71,59.841-3878.971,63.09z"/>
<path d="M-3672.026,68.629c-0.49,1.513-2.237,2.407-3.75,1.917l-24.33-7.883c-1.576-0.511-2.429-2.194-1.917-3.75
	c0.384-1.214,1.555-2.067,2.833-2.067c0.298,0,0.618,0.043,0.916,0.149l24.33,7.883c0.746,0.234,1.363,0.767,1.726,1.491
	C-3671.856,67.095-3671.792,67.883-3672.026,68.629z"/>
<path d="M-3634.424,0.391c-4.708,0-8.522,3.813-8.522,8.522v2.706l-66.15,20.836c-0.469-3.664-3.558-6.498-7.35-6.498
	c-4.112,0-7.457,3.345-7.457,7.456v19.174c0,4.112,3.345,7.457,7.457,7.457c3.792,0,6.881-2.833,7.35-6.498l4.538,1.427
	c-0.682,0.746-1.214,1.619-1.534,2.62c-1.236,3.792,0.852,7.904,4.666,9.118l24.33,7.883c0.724,0.234,1.47,0.362,2.216,0.362
	c3.153,0,5.923-2.024,6.903-5.006c0.362-1.108,0.405-2.258,0.234-3.366l24.798,7.797v2.706c0,4.708,3.813,8.522,8.522,8.522
	s8.522-3.813,8.522-8.522V8.913C-3625.902,4.205-3629.716,0.391-3634.424,0.391z M-3713.25,33.775v18.471v0.341
	c0,1.768-1.427,3.196-3.196,3.196s-3.196-1.427-3.196-3.196V33.413c0-1.768,1.427-3.196,3.196-3.196s3.196,1.427,3.196,3.196V33.775
	z M-3642.946,69.929l-66.043-20.814V36.907l66.043-20.814V69.929z M-3630.163,77.087c0,2.344-1.917,4.261-4.261,4.261
	s-4.261-1.917-4.261-4.261v-1.363V10.277V8.913c0-2.343,1.917-4.261,4.261-4.261s4.261,1.917,4.261,4.261V77.087z"/>
<path d="M-3527.902,45c-4.935,0-9,4.065-9,9c0,3.883,2.523,7.219,6,8.469V70c0,8.349-6.636,15-15,15s-15-6.651-15-15V52.812
	c11.273-1.475,20-11.141,20-22.812V11c0-3.272-2.728-6-6-6h-0.688c-1.138-2.346-3.557-4-6.312-4c-3.831,0-7,3.169-7,7s3.169,7,7,7
	c2.765,0,5.18-1.64,6.312-4h0.688v19c0,9.47-7.53,17-17,17s-17-7.53-17-17V11h0.688c1.133,2.36,3.547,4,6.312,4c3.831,0,7-3.169,7-7
	s-3.169-7-7-7c-2.755,0-5.175,1.654-6.312,4h-0.688c-3.272,0-6,2.728-6,6v19c0,11.672,8.727,21.337,20,22.812V70
	c0,11.573,9.42,21,21,21s21-9.427,21-21v-7.531c3.477-1.25,6-4.586,6-8.469C-3518.902,49.065-3522.967,45-3527.902,45z
	 M-3527.902,57c-1.692,0-3-1.308-3-3s1.308-3,3-3c1.692,0,3,1.308,3,3S-3526.21,57-3527.902,57z"/>
<path d="M-3434.902,1c-27.062,0-49,21.938-49,49s21.938,49,49,49s49-21.938,49-49S-3407.84,1-3434.902,1z M-3404.902,53h-60
	c-1.657,0-3-1.343-3-3s1.343-3,3-3h60c1.657,0,3,1.343,3,3S-3403.245,53-3404.902,53z"/>
<path d="M-3284.402,41.9h-12.6V24.5c0-13.1-10.6-23.7-23.7-23.7c-13.1,0-23.7,10.6-23.7,23.7v17.4h-12.6c-3.7,0-6.7,2.6-6.7,5.9
	l0.4,43.3c0,3.7,2.6,6.7,5.9,6.7h73.3c3.3,0,5.9-3,5.9-6.7l0.4-43.3C-3277.702,44.5-3280.702,41.9-3284.402,41.9z M-3310.102,41.9
	h-21.2V24.5c0-5.8,4.8-10.6,10.6-10.6s10.6,4.8,10.6,10.6V41.9z"/>
<path d="M-3162.402,41.9h-46.6V24.5c0-13.1-10.6-23.7-23.7-23.7c-13.1,0-23.7,10.6-23.7,23.7V31h13.1v-6.5c0-5.8,4.8-10.6,10.6-10.6
	s10.6,4.8,10.6,10.6v17.4h-12.9c-3.7,0-6.7,2.6-6.7,5.9l0.4,43.3c0,3.7,2.6,6.7,5.9,6.7h73.3c3.3,0,5.9-3,5.9-6.7l0.4-43.3
	C-3155.702,44.5-3158.702,41.9-3162.402,41.9z"/>
<g>
	<path d="M-2992.402,10v13h-13V10H-2992.402 M-2990.402,4h-17c-2.2,0-4,1.8-4,4v17c0,2.2,1.8,4,4,4h17c2.2,0,4-1.8,4-4V8
		C-2986.402,5.8-2988.202,4-2990.402,4L-2990.402,4z"/>
</g>
<g>
	<path d="M-2959.402,10v13h-13V10H-2959.402 M-2957.402,4h-17c-2.2,0-4,1.8-4,4v17c0,2.2,1.8,4,4,4h17c2.2,0,4-1.8,4-4V8
		C-2953.402,5.8-2955.202,4-2957.402,4L-2957.402,4z"/>
</g>
<g>
	<path d="M-2926.402,10v13h-13V10H-2926.402 M-2924.402,4h-17c-2.2,0-4,1.8-4,4v17c0,2.2,1.8,4,4,4h17c2.2,0,4-1.8,4-4V8
		C-2920.402,5.8-2922.202,4-2924.402,4L-2924.402,4z"/>
</g>
<g>
	<path d="M-2992.402,43v13h-13V43H-2992.402 M-2990.402,37h-17c-2.2,0-4,1.8-4,4v17c0,2.2,1.8,4,4,4h17c2.2,0,4-1.8,4-4V41
		C-2986.402,38.8-2988.202,37-2990.402,37L-2990.402,37z"/>
</g>
<g>
	<path d="M-2959.402,43v13h-13V43H-2959.402 M-2957.402,37h-17c-2.2,0-4,1.8-4,4v17c0,2.2,1.8,4,4,4h17c2.2,0,4-1.8,4-4V41
		C-2953.402,38.8-2955.202,37-2957.402,37L-2957.402,37z"/>
</g>
<g>
	<path d="M-2926.402,43v13h-13V43H-2926.402 M-2924.402,37h-17c-2.2,0-4,1.8-4,4v17c0,2.2,1.8,4,4,4h17c2.2,0,4-1.8,4-4V41
		C-2920.402,38.8-2922.202,37-2924.402,37L-2924.402,37z"/>
</g>
<g>
	<path d="M-2992.402,76v13h-13V76H-2992.402 M-2990.402,70h-17c-2.2,0-4,1.8-4,4v17c0,2.2,1.8,4,4,4h17c2.2,0,4-1.8,4-4V74
		C-2986.402,71.8-2988.202,70-2990.402,70L-2990.402,70z"/>
</g>
<g>
	<path d="M-2959.402,76v13h-13V76H-2959.402 M-2957.402,70h-17c-2.2,0-4,1.8-4,4v17c0,2.2,1.8,4,4,4h17c2.2,0,4-1.8,4-4V74
		C-2953.402,71.8-2955.202,70-2957.402,70L-2957.402,70z"/>
</g>
<g>
	<path d="M-2926.402,76v13h-13V76H-2926.402 M-2924.402,70h-17c-2.2,0-4,1.8-4,4v17c0,2.2,1.8,4,4,4h17c2.2,0,4-1.8,4-4V74
		C-2920.402,71.8-2922.202,70-2924.402,70L-2924.402,70z"/>
</g>
<g>
	<path d="M-3110.402,29h-17c-2.2,0-4-1.8-4-4V8c0-2.2,1.8-4,4-4h17c2.2,0,4,1.8,4,4v17C-3106.402,27.2-3108.202,29-3110.402,29z"/>
</g>
<g>
	<path d="M-3077.402,29h-17c-2.2,0-4-1.8-4-4V8c0-2.2,1.8-4,4-4h17c2.2,0,4,1.8,4,4v17C-3073.402,27.2-3075.202,29-3077.402,29z"/>
</g>
<g>
	<path d="M-3044.402,29h-17c-2.2,0-4-1.8-4-4V8c0-2.2,1.8-4,4-4h17c2.2,0,4,1.8,4,4v17C-3040.402,27.2-3042.202,29-3044.402,29z"/>
</g>
<g>
	<path d="M-3110.402,62h-17c-2.2,0-4-1.8-4-4V41c0-2.2,1.8-4,4-4h17c2.2,0,4,1.8,4,4v17C-3106.402,60.2-3108.202,62-3110.402,62z"/>
</g>
<g>
	<path d="M-3077.402,62h-17c-2.2,0-4-1.8-4-4V41c0-2.2,1.8-4,4-4h17c2.2,0,4,1.8,4,4v17C-3073.402,60.2-3075.202,62-3077.402,62z"/>
</g>
<g>
	<path d="M-3044.402,62h-17c-2.2,0-4-1.8-4-4V41c0-2.2,1.8-4,4-4h17c2.2,0,4,1.8,4,4v17C-3040.402,60.2-3042.202,62-3044.402,62z"/>
</g>
<g>
	<path d="M-3110.402,95h-17c-2.2,0-4-1.8-4-4V74c0-2.2,1.8-4,4-4h17c2.2,0,4,1.8,4,4v17C-3106.402,93.2-3108.202,95-3110.402,95z"/>
</g>
<g>
	<path d="M-3077.402,95h-17c-2.2,0-4-1.8-4-4V74c0-2.2,1.8-4,4-4h17c2.2,0,4,1.8,4,4v17C-3073.402,93.2-3075.202,95-3077.402,95z"/>
</g>
<g>
	<path d="M-3044.402,95h-17c-2.2,0-4-1.8-4-4V74c0-2.2,1.8-4,4-4h17c2.2,0,4,1.8,4,4v17C-3040.402,93.2-3042.202,95-3044.402,95z"/>
</g>
<path d="M-2796.421,27.543c-0.529-0.744-1.385-1.187-2.298-1.187h-74.105l-4.977-19.007c-0.324-1.241-1.445-2.104-2.726-2.104
	h-10.556c-1.556,0-2.818,1.261-2.818,2.818s1.261,2.818,2.818,2.818h8.381l15.989,61.056c0.323,1.241,1.444,2.104,2.725,2.104
	h51.195c1.556,0,2.818-1.261,2.818-2.818c0-1.557-1.261-2.818-2.818-2.818h-49.021l-2.027-7.736h55.094
	c1.198,0,2.264-0.757,2.66-1.888l10.027-28.675C-2795.759,29.243-2795.894,28.288-2796.421,27.543z M-2810.747,55.033h-54.569
	l-6.033-23.04h68.659L-2810.747,55.033z M-2855.161,76.387c-5.064,0-9.184,4.12-9.184,9.184s4.12,9.185,9.184,9.185
	s9.184-4.121,9.184-9.185S-2850.095,76.387-2855.161,76.387z M-2855.161,89.121c-1.957,0-3.548-1.593-3.548-3.549
	c0-1.957,1.592-3.548,3.548-3.548s3.548,1.591,3.548,3.548C-2851.613,87.528-2853.203,89.121-2855.161,89.121z M-2825.642,76.387
	c-5.064,0-9.184,4.12-9.184,9.184s4.119,9.185,9.184,9.185c5.065,0,9.186-4.121,9.186-9.185S-2820.577,76.387-2825.642,76.387z
	 M-2825.642,89.121c-1.957,0-3.548-1.593-3.548-3.549c0-1.957,1.591-3.548,3.548-3.548c1.958,0,3.55,1.591,3.55,3.548
	C-2822.092,87.528-2823.684,89.121-2825.642,89.121z"/>
<g>
	<path d="M-2773.152,12c-0.276,0-0.5-0.224-0.5-0.5v-10c0-0.276,0.224-0.5,0.5-0.5s0.5,0.224,0.5,0.5v10
		C-2772.652,11.776-2772.876,12-2773.152,12z"/>
	<path d="M-2769.652,12c-0.276,0-0.5-0.224-0.5-0.5v-10c0-0.276,0.224-0.5,0.5-0.5s0.5,0.224,0.5,0.5v10
		C-2769.152,11.776-2769.376,12-2769.652,12z"/>
</g>
<path d="M-2689.398,11.535h-0.23c-1.715,0.016-3.094,1.414-3.089,3.129V55.2l-28.67,28.67c-1.223,1.206-1.237,3.174-0.031,4.397
	c0.052,0.053,0.105,0.103,0.161,0.152c7.936,6.835,18.066,10.586,28.54,10.566c0.76,0,1.523-0.02,2.289-0.06
	c24.149-1.248,42.714-21.837,41.466-45.987c-1.138-22.022-18.476-39.761-40.466-41.403L-2689.398,11.535z M-2659.158,56.52
	c-0.76,17.294-14.478,31.21-31.759,32.219c-0.59,0-1.189,0-1.769,0c-5.371,0.002-10.663-1.284-15.435-3.749l22.622-22.572
	c1.917-1.913,2.996-4.509,2.999-7.217V23.211c14.4,4.564,23.962,18.205,23.342,33.298V56.52z M-2707.082,56.44l-23.712,22.742
	c-1.054,1.039-2.75,1.027-3.789-0.027c-0.119-0.121-0.226-0.252-0.32-0.393c-4.239-6.36-6.725-13.725-7.208-21.353
	c-0.083-1.477,1.048-2.742,2.525-2.825c0.051-0.003,0.103-0.004,0.154-0.004h31.599c0.596,0.009,1.072,0.5,1.062,1.097
	c-0.004,0.284-0.12,0.554-0.323,0.753L-2707.082,56.44z M-2704.552,44.744h-39.836c-1.386,0.002-2.511-1.119-2.513-2.505
	c0-0.052,0.001-0.103,0.004-0.154c1.339-22.101,18.964-39.726,41.066-41.066c1.384-0.077,2.568,0.982,2.645,2.365
	c0.002,0.045,0.004,0.089,0.004,0.134v39.846c0,0.756-0.613,1.37-1.37,1.37l0,0V44.744z"/>
<path d="M-2539.327,39.574c-5.017,0-9.22,3.601-10.198,8.34h-14.986c-0.342-2.187-1.217-4.185-2.477-5.896l10.166-10.165
	c1.448,0.917,3.155,1.466,4.984,1.466c5.158,0,9.384-4.226,9.384-9.384s-4.226-9.384-9.384-9.384c-5.157,0-9.383,4.226-9.383,9.384
	c0,1.825,0.521,3.538,1.434,4.984l-10.132,10.135c-1.709-1.254-3.718-2.103-5.896-2.444V21.624c4.738-0.976,8.34-5.182,8.34-10.198
	c-0.002-5.733-4.694-10.425-10.427-10.425c-5.733,0-10.425,4.692-10.425,10.425c0,5.016,3.601,9.22,8.34,10.198V36.61
	c-2.178,0.341-4.188,1.19-5.896,2.444l-10.133-10.133c0.912-1.446,1.434-3.16,1.434-4.984c0-5.157-4.227-9.384-9.384-9.384
	s-9.384,4.226-9.384,9.384s4.227,9.384,9.384,9.384c1.831,0,3.536-0.549,4.983-1.466l10.166,10.165
	c-1.259,1.713-2.135,3.712-2.476,5.896h-14.986c-0.976-4.739-5.182-8.34-10.198-8.34c-5.733,0-10.425,4.692-10.425,10.425
	c0,5.733,4.692,10.425,10.425,10.425c5.016,0,9.22-3.601,10.198-8.34h14.986c0.341,2.178,1.19,4.188,2.444,5.896l-10.133,10.133
	c-1.445-0.913-3.16-1.433-4.983-1.433c-5.157,0-9.384,4.226-9.384,9.384c0,5.157,4.227,9.384,9.384,9.384s9.384-4.226,9.384-9.384
	c0-1.831-0.549-3.536-1.466-4.986l10.166-10.165c1.713,1.26,3.711,2.136,5.896,2.477v14.986c-4.739,0.976-8.34,5.182-8.34,10.198
	c0,5.733,4.691,10.425,10.425,10.425c5.732,0,10.425-4.692,10.425-10.425c0-5.016-3.602-9.22-8.34-10.198V63.39
	c2.186-0.341,4.185-1.217,5.896-2.477l10.166,10.165c-0.916,1.448-1.466,3.154-1.466,4.984c0,5.157,4.226,9.384,9.383,9.384
	c5.158,0,9.384-4.226,9.384-9.384c0-5.157-4.226-9.384-9.384-9.384c-1.824,0-3.538,0.521-4.984,1.433l-10.133-10.133
	c1.254-1.709,2.103-3.718,2.444-5.896h14.986c0.976,4.739,5.182,8.34,10.198,8.34c5.732,0,10.425-4.692,10.425-10.425
	C-2528.902,44.266-2533.594,39.574-2539.327,39.574z M-2551.839,18.725c2.904,0,5.213,2.309,5.213,5.212s-2.309,5.212-5.213,5.212
	c-2.903,0-5.212-2.309-5.212-5.212S-2554.742,18.725-2551.839,18.725z M-2603.966,29.149c-2.903,0-5.213-2.309-5.213-5.212
	s2.31-5.212,5.213-5.212s5.213,2.309,5.213,5.212S-2601.063,29.149-2603.966,29.149z M-2616.478,56.257
	c-3.479,0-6.256-2.777-6.256-6.256c0.002-3.479,2.776-6.256,6.256-6.256s6.256,2.777,6.256,6.256
	C-2610.222,53.48-2612.998,56.257-2616.478,56.257z M-2603.966,81.277c-2.903,0-5.213-2.309-5.213-5.212s2.31-5.212,5.213-5.212
	s5.213,2.309,5.213,5.212S-2601.063,81.277-2603.966,81.277z M-2571.646,88.576c0,3.479-2.776,6.256-6.256,6.256
	s-6.256-2.777-6.256-6.256s2.776-6.256,6.256-6.256S-2571.646,85.097-2571.646,88.576z M-2577.902,17.684
	c-3.479,0-6.256-2.777-6.256-6.256c0-3.481,2.776-6.256,6.256-6.256s6.256,2.777,6.256,6.256
	C-2571.646,14.907-2574.423,17.684-2577.902,17.684z M-2551.839,70.853c2.904,0,5.213,2.309,5.213,5.212s-2.309,5.212-5.213,5.212
	c-2.903,0-5.212-2.309-5.212-5.212S-2554.742,70.853-2551.839,70.853z M-2539.327,56.257c-3.479,0-6.256-2.777-6.256-6.256
	c0-3.479,2.774-6.256,6.256-6.256c3.478,0,6.256,2.777,6.256,6.256C-2533.071,53.48-2535.849,56.257-2539.327,56.257z"/>
<path d="M-2455.651,51.769h-45.329v0.058h-3.813V18.608h3.813v29.347h45.329V51.769z M-2448.614,42.909h-46.322
	c-1.779,0-3.178-1.398-3.178-3.178V5.411c0-1.78,1.398-3.178,3.178-3.178h66.098c1.78,0,3.178,1.398,3.178,3.178v13.007
	c-1.288,0.131-2.562,0.367-3.813,0.702v-6.083c-3.813,0-6.991-3.178-6.991-6.991h-50.209c0,3.813-3.178,6.991-6.991,6.991h-0.635
	v19.067h0.635c3.813,0,6.991,3.178,6.991,6.991h38.351C-2448.531,40.341-2448.631,41.615-2448.614,42.909z M-2432.651,6.046
	c0,1.78,1.398,3.178,3.178,3.178V6.046H-2432.651z M-2494.3,9.224h0.635c1.78,0,3.178-1.398,3.178-3.178h-3.813V9.224z
	 M-2490.487,39.095c0-1.78-1.398-3.178-3.178-3.178h-0.635v3.178H-2490.487z M-2460.615,24.732v3.559
	c1.271-0.381,1.398-1.398,1.398-1.907C-2459.217,25.749-2459.599,25.24-2460.615,24.732z M-2464.048,20.029
	c0,0.636,0.381,1.017,1.271,1.398v-3.051C-2463.539,18.63-2464.048,19.266-2464.048,20.029z M-2451.972,12.91
	c5.466,5.466,5.466,14.364,0,19.829s-14.364,5.466-19.83,0c-5.466-5.466-5.466-14.364,0-19.829S-2457.438,7.445-2451.972,12.91z
	 M-2456.929,26.384c0-2.924-2.161-3.813-3.686-4.322v-3.686c0.635,0.254,1.271,0.636,1.652,1.271l0.509,0.636l1.398-1.652
	l-0.254-0.381c-0.89-1.144-2.034-1.78-3.305-2.034v-1.907h-2.034v1.78c-2.161,0.381-3.559,2.034-3.559,4.068
	c0,2.542,1.907,3.432,3.559,3.94v4.322c-1.017-0.254-1.78-1.017-2.161-1.525l-0.509-0.636l-1.398,1.78l0.254,0.381
	c0.89,1.271,2.288,2.034,3.813,2.288v1.78h2.034v-1.78C-2457.946,30.198-2456.929,28.164-2456.929,26.384z M-2411.012,44.939
	l-0.15,16.182c0,1.383-0.971,2.504-2.205,2.504h-27.393c-1.233,0-2.205-1.121-2.205-2.504l-0.149-16.182
	c0-1.233,1.121-2.205,2.504-2.205h4.709v-6.503c0-4.896,3.961-8.857,8.857-8.857c4.896,0,8.857,3.961,8.857,8.857v6.503h4.709
	C-2412.096,42.734-2410.975,43.705-2411.012,44.939z M-2423.083,36.231c0-2.168-1.794-3.961-3.961-3.961
	c-2.167,0-3.961,1.794-3.961,3.961v6.503h7.923V36.231z"/>
<path d="M-2337.902,1c-7.714,0-13.99,6.275-13.99,13.989s6.276,13.99,13.99,13.99s13.989-6.275,13.989-13.99S-2330.188,1-2337.902,1
	z M-2337.902,26.08c-6.116,0-11.093-4.976-11.093-11.093s4.978-11.089,11.093-11.089s11.091,4.974,11.091,11.09
	S-2331.785,26.08-2337.902,26.08z"/>
<path d="M-2330.409,30.261c-0.773-0.207-1.567,0.266-1.767,1.039c-0.201,0.774,0.264,1.564,1.038,1.766
	c10.642,2.756,15.8,8.17,16.722,17.553c0.047,0.482-0.16,0.821-0.342,1.023c-0.297,0.329-0.736,0.516-1.201,0.516h-43.891
	c-0.464,0-0.902-0.187-1.2-0.516c-0.182-0.201-0.39-0.54-0.342-1.023c0.924-9.383,6.081-14.797,16.722-17.553
	c0.773-0.201,1.24-0.991,1.04-1.766c-0.199-0.775-0.992-1.247-1.768-1.039c-11.672,3.023-17.847,9.589-18.88,20.076
	c-0.117,1.2,0.266,2.355,1.082,3.253c0.844,0.931,2.065,1.468,3.346,1.468h43.891c1.282,0,2.502-0.536,3.348-1.468
	c0.815-0.897,1.196-2.052,1.08-3.253C-2312.563,39.85-2318.737,33.284-2330.409,30.261z"/>
<path d="M-2298.205,15.361c0-5.984-4.868-10.852-10.854-10.852c-5.987,0-10.855,4.868-10.855,10.852
	c0,5.985,4.868,10.855,10.855,10.855C-2303.073,26.216-2298.205,21.346-2298.205,15.361z M-2317.014,15.361
	c0-4.385,3.568-7.955,7.956-7.955c4.387,0,7.956,3.57,7.956,7.955c0,4.388-3.57,7.958-7.956,7.958
	C-2313.447,23.317-2317.014,19.749-2317.014,15.361z"/>
<path d="M-2303.349,27.717c-0.773-0.201-1.566,0.264-1.766,1.038c-0.201,0.775,0.264,1.564,1.038,1.768
	c7.81,2.022,11.596,5.985,12.272,12.848c0.017,0.186-0.037,0.348-0.165,0.489c-0.154,0.17-0.385,0.267-0.632,0.267h-16.241
	c-0.801,0-1.45,0.649-1.45,1.45c0,0.801,0.649,1.45,1.45,1.45h16.242c1.063,0,2.076-0.445,2.781-1.22
	c0.678-0.748,0.999-1.714,0.901-2.718C-2289.711,35.054-2294.429,30.024-2303.349,27.717z"/>
<path d="M-2366.744,4.509c-5.985,0-10.854,4.868-10.854,10.852c0,5.985,4.868,10.855,10.854,10.855s10.855-4.87,10.855-10.855
	C-2355.889,9.377-2360.759,4.509-2366.744,4.509z M-2366.744,23.317c-4.387,0-7.956-3.57-7.956-7.958
	c0-4.385,3.57-7.955,7.956-7.955c4.388,0,7.956,3.57,7.956,7.955C-2358.789,19.749-2362.356,23.317-2366.744,23.317z"/>
<path d="M-2365.513,45.576c0-0.801-0.649-1.45-1.448-1.45h-16.243c-0.246,0-0.476-0.097-0.63-0.267
	c-0.13-0.14-0.184-0.304-0.167-0.489c0.677-6.862,4.462-10.826,12.272-12.848c0.774-0.202,1.24-0.991,1.039-1.768
	c-0.201-0.774-0.995-1.24-1.766-1.038c-8.919,2.309-13.638,7.336-14.43,15.373c-0.098,1.003,0.224,1.97,0.902,2.718
	c0.704,0.774,1.717,1.219,2.779,1.219h16.243C-2366.162,47.025-2365.513,46.377-2365.513,45.576z"/>
<g>
	<path d="M-2242.824,35.589l20.423-20.423v57.413c0,2.571,2.142,4.713,4.713,4.713c2.571,0,4.713-2.142,4.713-4.713V15.166
		l20.423,20.423c1.571,1.571,4.142,1.571,5.713,0c1.571-1.571,1.571-4.142,0-5.713l-27.564-27.707c-0.857-0.857-2-1.285-3.142-1.143
		h-0.143h-0.143c-1.143,0-2.285,0.286-3.142,1.143l-27.707,27.707c-1.571,1.571-1.571,4.142,0,5.713
		C-2246.966,37.16-2244.395,37.16-2242.824,35.589z"/>
	<path d="M-2188.41,89.86h-58.984c-2.571,0-4.57,2.142-4.57,4.57c0,2.571,2.142,4.57,4.57,4.57h58.984c2.571,0,4.57-2.142,4.57-4.57
		C-2183.84,92.002-2185.84,89.86-2188.41,89.86z"/>
</g>
<g>
	<g>
		<g>
			<g>
				<path d="M-2126.064,30.411c0.115,0.198,0.219,0.392,0.318,0.582c0.112,0.218,0.234,0.438,0.429,0.793l0.707,1.299
					c0.115,0.198,0.22,0.381,0.339,0.608l0.506,0.93c0.202,0.367,0.581,0.758,0.952,0.992c0.315,0.207,0.695,0.316,1.095,0.316
					c0.707,0,1.448-0.334,1.938-0.88c0.234-0.263,0.465-0.535,0.695-0.807l0.47-0.552c0.682-0.82,1.375-1.638,2.07-2.454
					l2.415-2.858c0.608-0.725,1.214-1.451,1.845-2.18l0.733-0.892c0.676-0.718,0.463-1.559,0.153-1.946
					c-0.544-0.687-1.394-0.854-2.038-0.383c-0.495,0.37-0.935,0.786-1.367,1.196c-0.71,0.658-1.43,1.304-2.155,1.954l-0.781,0.718
					c-0.53,0.487-1.062,0.976-1.601,1.464l-2.195,2l-2.593-2.728c-0.416-0.337-0.79-0.403-1.185-0.397
					c-0.32,0.047-0.631,0.179-0.899,0.389c-0.332,0.286-0.528,0.71-0.528,1.166c0.011,0.256,0.06,0.481,0.126,0.623
					L-2126.064,30.411z"/>
				<path d="M-2126.064,51.528c0.115,0.198,0.219,0.392,0.318,0.582c0.104,0.203,0.218,0.408,0.326,0.604l0.81,1.487
					c0.115,0.198,0.22,0.381,0.334,0.598l0.511,0.937c0.201,0.369,0.579,0.761,0.952,0.995c0.317,0.206,0.695,0.315,1.095,0.315
					c0.707,0,1.448-0.335,1.938-0.88c0.234-0.263,0.465-0.535,0.695-0.807l0.47-0.552c0.684-0.82,1.375-1.638,2.07-2.456
					l2.416-2.856c0.606-0.725,1.212-1.451,1.843-2.18l0.733-0.892c0.676-0.717,0.463-1.559,0.153-1.948
					c-0.547-0.69-1.394-0.853-2.038-0.381c-0.495,0.37-0.935,0.786-1.367,1.196c-0.71,0.658-1.43,1.304-2.155,1.952l-0.812,0.748
					c-0.521,0.479-1.043,0.959-1.571,1.435l-2.195,2l-2.592-2.726c-0.418-0.34-0.802-0.421-1.193-0.399
					c-0.318,0.047-0.628,0.18-0.893,0.389c-0.332,0.286-0.528,0.71-0.528,1.166c0.011,0.256,0.06,0.481,0.126,0.623
					L-2126.064,51.528z"/>
				<path d="M-2104.963,32.321h23.45c1.316,0,2.386-1.071,2.386-2.386c0-1.316-1.071-2.386-2.386-2.386h-23.45
					c-1.317,0-2.386,1.071-2.386,2.386C-2107.349,31.25-2106.278,32.321-2104.963,32.321z"/>
				<path d="M-2081.512,48.048h-23.45c-1.317,0-2.386,1.071-2.386,2.386c0,1.316,1.071,2.386,2.386,2.386h23.45
					c1.316,0,2.386-1.071,2.386-2.386S-2080.196,48.048-2081.512,48.048z"/>
				<path d="M-2081.512,68.548h-23.45c-1.317,0-2.386,1.071-2.386,2.386c0,1.316,1.071,2.386,2.386,2.386h23.45
					c1.316,0,2.386-1.071,2.386-2.386C-2079.126,69.618-2080.196,68.548-2081.512,68.548z"/>
				<path d="M-2119.705,62.084c-4.881,0-8.851,3.971-8.851,8.85c0,4.88,3.971,8.85,8.851,8.85s8.848-3.971,8.848-8.85
					C-2110.857,66.054-2114.825,62.084-2119.705,62.084z M-2114.172,70.934c0,3.051-2.483,5.533-5.533,5.533
					c-3.052,0-5.535-2.483-5.535-5.533c0-3.052,2.482-5.535,5.535-5.535C-2116.654,65.399-2114.172,67.882-2114.172,70.934z"/>
			</g>
		</g>
		<path d="M-2073.641,1h-60.42c-6.013,0-10.926,4.894-10.926,10.925v76.13c0,6.032,4.913,10.944,10.926,10.944h60.42
			c6.031,0,10.944-4.913,10.944-10.944v-76.13C-2062.696,5.894-2067.609,1-2073.641,1z M-2068.305,88.056
			c0,2.934-2.402,5.334-5.334,5.334h-60.421c-2.934,0-5.316-2.402-5.316-5.334v-76.13c0-2.933,2.383-5.316,5.316-5.316h60.42
			c2.933,0,5.334,2.383,5.334,5.316v76.13H-2068.305z"/>
	</g>
</g>
<path d="M-1945.128,79.11c-2.599-1.682-4.587-3.975-5.81-7.033c6.422-7.491,9.938-16.665,9.938-26.143
	c0.153-23.697-21.862-43.114-48.923-43.114c-27.06,0-49.076,19.416-49.076,43.267c0,23.85,22.015,43.267,49.076,43.267
	c9.021,0,17.735-2.14,25.226-6.268c3.975,2.14,8.562,3.211,13.454,3.211c1.529,0,3.058-0.153,4.74-0.306
	c1.529-0.153,2.752-1.376,3.058-2.905C-1943.141,81.556-1943.752,80.027-1945.128,79.11z M-1963.475,78.193
	c-0.459-0.306-0.764-0.306-1.224-0.306c-0.458,0-0.764,0.153-1.223,0.306c-7.186,4.128-15.442,6.268-24.156,6.268
	c-24.309,0-44.185-17.276-44.185-38.374s19.875-38.374,44.185-38.374c24.309,0,44.337,17.276,44.337,38.374
	c0,8.867-3.364,17.123-9.632,24.003c-0.764,0.611-0.917,1.682-0.611,2.446c1.376,3.516,3.211,6.574,5.809,8.867
	C-1955.066,81.556-1959.652,80.486-1963.475,78.193z"/>
<path d="M-1856.341,72.08c-1.061-0.928-1.061-2.52-0.133-3.448c0.928-1.061,2.52-1.061,3.448-0.133l15.648,13.924
	c1.061,0.928,1.061,2.52,0.133,3.448c-0.53,0.53-1.193,0.796-1.857,0.796c-0.53,0-1.193-0.265-1.591-0.663L-1856.341,72.08z
	 M-1886.842,68.499l-15.648,13.924c-1.061,0.928-1.061,2.52-0.133,3.448c0.53,0.53,1.193,0.796,1.857,0.796
	c0.53,0,1.193-0.265,1.591-0.663l15.648-13.924c1.061-0.928,1.061-2.52,0.133-3.448
	C-1884.322,67.571-1885.913,67.571-1886.842,68.499z M-1888.445,20.835c0.096,0.165,0.182,0.327,0.265,0.485
	c0.094,0.182,0.195,0.365,0.357,0.66l0.589,1.081c0.096,0.165,0.183,0.317,0.282,0.506l0.421,0.774
	c0.169,0.305,0.483,0.631,0.793,0.826c0.262,0.172,0.578,0.263,0.911,0.263c0.589,0,1.205-0.278,1.613-0.732
	c0.195-0.219,0.387-0.445,0.578-0.672l0.391-0.46c0.568-0.682,1.144-1.363,1.722-2.042l2.009-2.378
	c0.506-0.603,1.01-1.207,1.535-1.814l0.61-0.743c0.562-0.598,0.386-1.297,0.128-1.62c-0.453-0.571-1.16-0.711-1.696-0.319
	c-0.412,0.308-0.778,0.654-1.138,0.995c-0.591,0.548-1.19,1.085-1.793,1.626l-0.651,0.598c-0.441,0.406-0.884,0.812-1.333,1.218
	l-1.826,1.664l-2.158-2.27c-0.346-0.28-0.657-0.336-0.986-0.331c-0.266,0.04-0.525,0.149-0.748,0.324
	c-0.276,0.238-0.44,0.591-0.44,0.97c0.009,0.213,0.05,0.4,0.105,0.519L-1888.445,20.835z M-1870.885,22.424h19.516
	c1.095,0,1.986-0.891,1.986-1.986c0-1.096-0.891-1.986-1.986-1.986h-19.516c-1.096,0-1.986,0.891-1.986,1.986
	S-1871.979,22.424-1870.885,22.424z M-1851.369,30.298h-19.516c-1.096,0-1.986,0.891-1.986,1.986c0,1.096,0.891,1.986,1.986,1.986
	h19.516c1.095,0,1.986-0.891,1.986-1.986S-1850.274,30.298-1851.369,30.298z M-1851.369,42.143h-19.516
	c-1.096,0-1.986,0.891-1.986,1.986c0,1.096,0.891,1.986,1.986,1.986h19.516c1.095,0,1.986-0.891,1.986-1.986
	C-1849.384,43.034-1850.274,42.143-1851.369,42.143z M-1824.514,38.131c-0.398-0.663-0.795-1.326-1.326-1.724l-9.837-7.249V6.304
	c0-2.917-2.387-5.304-5.305-5.304h-58.349c-2.918,0-5.304,2.387-5.304,5.304v23.124c-0.063,0.048-0.109,0.083-0.109,0.083
	l-0.374,0.278l-8.909,6.618c-0.663,0.398-1.193,0.928-1.458,1.591c-0.398,0.663-0.531,1.326-0.531,2.122v45.618
	c0,7.294,5.968,13.261,13.261,13.261h8.488h57.023c7.294,0,13.261-5.968,13.261-13.261V40.253
	C-1823.984,39.457-1824.249,38.794-1824.514,38.131z M-1835.255,35.612l4.641,3.448l-4.641,3.448V35.612z M-1899.862,6.304
	c0-0.283,0.248-0.53,0.53-0.53h58.349c0.282,0,0.53,0.248,0.53,0.53l0.289,39.783L-1870,67.969l-29.838-21.881L-1899.862,6.304z
	 M-1904.612,35.744v6.763l-4.641-3.448L-1904.612,35.744z M-1828.758,85.871c0,4.641-3.714,8.355-8.355,8.355h-57.023h-8.487
	c-4.641,0-8.354-3.713-8.354-8.355V43.966l39.518,29.042c0.133,0.133,0.266,0.265,0.398,0.265c0.132,0,0.265,0.133,0.398,0.133
	h0.133c0.133,0,0.398,0,0.53,0s0.398,0,0.53,0h0.133c0.133,0,0.266,0,0.398-0.133c0.133-0.133,0.266-0.133,0.398-0.265
	l39.518-29.042h0.265V85.871z"/>
<path d="M-1713.304,36.008v-9.364c0-1.307-0.436-2.287-1.198-3.049l-21.016-21.016c-0.871-0.653-1.742-1.198-3.158-1.198h-43.556
	c-2.396,0-4.247,1.96-4.247,4.356v30.271h-8.167c-2.396,0-4.356,2.069-4.356,4.573V80.87c0,2.287,1.96,4.247,4.356,4.247h8.058
	v9.147c0,2.396,1.96,4.356,4.247,4.356h64.462c2.505,0,4.464-1.96,4.464-4.356v-9.147h8.058c2.505,0,4.356-1.96,4.356-4.247V40.581
	c0-2.504-1.851-4.573-4.356-4.573C-1705.356,36.008-1713.304,36.008-1713.304,36.008z M-1777.767,89.472V61.27h55.751v28.202
	H-1777.767z M-1777.767,36.008V10.201h34.627v16.442c0,2.504,2.069,4.464,4.464,4.464h16.66v5.009h-55.751V36.008z
	 M-1713.304,52.994c-2.504,0-4.356-2.069-4.356-4.682c0-2.396,1.96-4.464,4.356-4.464c2.504,0,4.464,2.069,4.464,4.464
	C-1708.84,50.926-1710.8,52.994-1713.304,52.994L-1713.304,52.994z M-1771.233,66.279v6.533h42.249v-6.533H-1771.233z
	 M-1771.233,76.841v6.424h42.249v-6.424H-1771.233z"/>
<path d="M-1629.999,1c-13.984,0-25.362,11.376-25.362,25.36s11.378,25.362,25.362,25.362c13.984,0,25.36-11.376,25.36-25.362
	S-1616.015,1-1629.999,1z M-1629.999,46.467c-11.088,0-20.11-9.022-20.11-20.11s9.024-20.103,20.11-20.103
	c11.086,0,20.107,9.017,20.107,20.105S-1618.911,46.467-1629.999,46.467z M-1582.187,90.441c0.21,2.177-0.482,4.271-1.958,5.898
	c-1.534,1.689-3.746,2.661-6.07,2.661h-79.57c-2.322,0-4.536-0.972-6.066-2.661c-1.479-1.629-2.172-3.723-1.96-5.898
	c1.873-19.011,13.067-30.914,34.227-36.395c1.405-0.376,2.843,0.479,3.205,1.884c0.364,1.405-0.484,2.838-1.885,3.202
	c-19.292,4.997-28.641,14.811-30.315,31.822c-0.088,0.875,0.29,1.491,0.62,1.855c0.539,0.597,1.334,0.935,2.175,0.935h79.57
	c0.843,0,1.638-0.339,2.177-0.935c0.329-0.366,0.705-0.981,0.62-1.855c-1.672-17.011-11.024-26.825-30.315-31.822
	c-1.403-0.366-2.246-1.799-1.882-3.202c0.362-1.403,1.802-2.26,3.202-1.884C-1595.254,59.527-1584.062,71.431-1582.187,90.441z"/>
<path class="st2" d="M-1592.418-12.5v142h130v-142H-1592.418z M-1525,100.5c-27.062,0-49-21.938-49-49s21.938-49,49-49
	c27.062,0,49,21.938,49,49S-1497.938,100.5-1525,100.5z"/>
<g>
	<circle class="st3" cx="-1510" cy="50" r="49"/>
	<path class="st4" d="M-1528.05,56.335c0,0,4.137-1.394,5.972-1.882c1.641-0.442,3.218-0.884,4.764-1.356
		c12.979-3.779,22.011-7.715,28.429-12.393c1.806-1.276,3.429-2.648,4.832-4.08c5.211-5.232,8.731-11.462,10.739-19.09
		c-2.606-2.943-5.56-5.569-8.799-7.816c-4.703,1.778-11.233,4.094-20.315,7.125c-3.764,1.246-7.759,2.317-11.987,3.451l-2.536,0.682
		c-12.644,3.451-24.703,7.315-33.261,16.551c-3.956,4.266-6.834,9.399-8.688,15.474c0.463,7.646,2.68,14.814,6.252,21.117
		C-1548.321,67.58-1540.866,60.9-1528.05,56.335z"/>
	<path class="st5" d="M-1519.475,91.57c1.327-0.358,2.603-0.715,3.853-1.097c10.496-3.056,17.799-6.239,22.99-10.022
		c1.46-1.032,2.772-2.141,3.907-3.299c6.305-6.332,9.565-14.454,10.217-25.499c-2.081,1.235-8.034,3.815-25.076,9.503
		c-3.043,1.008-6.274,1.874-9.693,2.791l-2.051,0.552c-10.225,2.791-19.976,5.916-26.897,13.384
		c-1.478,1.594-2.768,3.338-3.88,5.236c4.691,5.111,10.451,9.225,16.928,11.983c1.511-0.711,3.125-1.387,4.874-2.01
		C-1524.304,93.092-1520.959,91.964-1519.475,91.57z"/>
</g>
<g>
	<path d="M-1353,0.575h-74c-6.6,0-12,5.4-12,12v49.37c0,6.6,5.4,12,12,12h74c6.6,0,12-5.4,12-12v-49.37
		C-1341,5.975-1346.4,0.575-1353,0.575z M-1427,5.075h74c4.136,0,7.5,3.365,7.5,7.5v7h-89v-7
		C-1434.5,8.44-1431.136,5.075-1427,5.075z M-1353,69.445h-74c-4.136,0-7.5-3.365-7.5-7.5v-28.37h89v28.37
		C-1345.5,66.08-1348.864,69.445-1353,69.445z"/>
</g>
<g>
	<path d="M-1115.323,15.197c19.098,19.097,19.098,50.256,0,69.354c-19.097,19.432-50.256,19.432-69.354,0
		c-19.098-19.097-19.098-50.256,0-69.354C-1165.579-3.9-1134.421-3.9-1115.323,15.197z M-1114.988,21.898
		c-4.021,2.68-8.376,4.691-13.067,6.366c1.675,5.696,2.345,12.397,2.68,19.432h20.103
		C-1105.942,37.98-1109.292,29.269-1114.988,21.898z M-1132.075,29.269c-5.026,1.34-10.386,2.345-15.747,2.345v16.082h17.757
		C-1130.065,40.996-1131.07,34.965-1132.075,29.269z M-1152.178,31.615c-5.361,0-10.721-1.005-15.412-2.345
		c-1.34,5.696-2.345,11.726-2.345,18.427h17.757V31.615z M-1171.945,28.264c-4.691-1.675-9.046-3.685-12.732-6.366
		c-5.696,7.371-9.381,16.082-10.051,25.798h20.438C-1174.291,40.661-1173.286,33.96-1171.945,28.264z M-1181.661,18.548
		c3.35,2.01,7.036,4.021,11.056,5.361c1.675-6.031,4.356-12.397,8.711-17.087c-7.706,2.01-14.407,6.031-19.767,11.391V18.548z
		 M-1166.585,25.249c4.691,1.005,9.381,1.675,14.407,2.01V5.481C-1159.549,7.491-1164.239,18.213-1166.585,25.249z
		 M-1147.822,27.259c5.026-0.335,10.051-1.005,14.407-2.01c-2.01-7.036-6.701-17.757-14.407-19.768V27.259z M-1129.06,23.909
		c4.021-1.34,7.706-3.35,11.056-5.361l-0.335-0.335c-5.361-5.361-12.062-9.381-19.767-11.391
		C-1133.75,11.512-1131.07,17.878-1129.06,23.909z M-1184.677,77.85c3.685-2.345,8.041-4.356,12.732-6.031
		c-1.34-6.031-2.345-12.732-2.345-19.768h-20.438C-1194.058,61.768-1190.373,70.815-1184.677,77.85z M-1167.59,70.479
		c4.691-1.34,10.051-2.01,15.412-2.345V52.052h-17.757C-1169.935,58.753-1168.93,64.784-1167.59,70.479z M-1147.822,68.134
		c5.361,0.335,10.721,1.005,15.747,2.345c1.005-5.696,2.01-11.726,2.01-18.427h-17.757V68.134z M-1128.055,71.82
		c4.691,1.675,9.046,3.685,13.067,6.031c5.696-7.036,9.046-16.082,9.716-25.798h-20.103
		C-1125.709,59.088-1126.38,65.789-1128.055,71.82z M-1118.003,81.201c-3.35-2.01-7.036-3.685-11.056-5.026
		c-2.01,5.696-4.691,12.062-9.046,16.752C-1130.4,90.917-1123.699,86.897-1118.003,81.201z M-1133.415,74.835
		c-4.356-1.34-9.381-2.01-14.407-2.01v21.443C-1140.116,92.257-1135.426,81.536-1133.415,74.835z M-1152.178,72.825
		c-5.026,0-9.716,0.67-14.407,2.01c2.345,6.701,7.036,17.422,14.407,19.432V72.825z M-1170.605,76.175
		c-4.021,1.34-7.706,3.015-11.056,5.026c5.361,5.696,12.062,9.716,19.767,11.727C-1166.25,88.237-1168.93,81.871-1170.605,76.175z"
		/>
</g>
<path d="M-1270.013,1c-25.066,0.002-45.385,20.323-45.383,45.389c0.001,12.829,5.431,25.058,14.947,33.662
	c1.304,1.124,3.272,0.978,4.396-0.326c1.087-1.262,0.991-3.155-0.219-4.299c-16.041-14.509-17.283-39.275-2.774-55.317
	c14.509-16.041,39.276-17.283,55.317-2.774s17.283,39.275,2.774,55.317c-0.878,0.97-1.804,1.896-2.774,2.774
	c-1.251,1.183-1.306,3.156-0.122,4.407c1.144,1.21,3.038,1.306,4.299,0.219c18.593-16.811,20.037-45.511,3.226-64.104
	C-1244.935,6.425-1257.175,0.994-1270.013,1z M-1270.013,21.885c-14.318,0.014-25.921,11.617-25.935,25.935
	c-0.02,5.564,1.775,10.984,5.112,15.436c1.033,1.377,2.987,1.656,4.364,0.623c1.377-1.033,1.656-2.987,0.623-4.364
	c-2.525-3.375-3.881-7.481-3.865-11.696c0.003-10.88,8.826-19.698,19.707-19.694c10.875,0.003,19.691,8.819,19.694,19.694
	c0.01,4.22-1.351,8.328-3.878,11.708c-1.033,1.377-0.754,3.331,0.623,4.364c1.377,1.033,3.331,0.754,4.364-0.623
	c3.325-4.454,5.114-9.866,5.1-15.424C-1244.103,33.527-1255.695,21.912-1270.013,21.885z M-1270,36.224
	c5.557,0,10.062,4.505,10.062,10.062s-4.505,10.062-10.062,10.062c-5.557,0-10.062-4.505-10.062-10.062
	S-1275.557,36.224-1270,36.224z M-1267.918,64.415h-4.202c-4.473,0.007-8.098,3.631-8.105,8.105c0,0.309,0.046,0.615,0.137,0.91
	l7.07,23.366c0.505,1.646,2.249,2.571,3.894,2.066c0.989-0.303,1.762-1.077,2.066-2.066l7.095-23.366
	c0.09-0.295,0.137-0.602,0.137-0.91C-1259.833,68.052-1263.45,64.429-1267.918,64.415z"/>
<g>
	<path d="M-1033.144,95.441l3.132,3.559l3.132-3.559c0.332-0.38,8.305-9.491,16.29-21c11.141-15.874,16.776-28.106,16.776-36.316
		c0.512-19.985-15.274-36.601-35.259-37.113c-19.985-0.512-36.601,15.274-37.113,35.259c-0.016,0.618-0.016,1.236,0,1.853
		c-0.036,8.21,5.576,20.442,16.752,36.316C-1041.39,85.914-1033.476,95.049-1033.144,95.441z M-1030.012,10.22
		c15.401,0.02,27.88,12.503,27.893,27.905c0,11.864-17.927,36.055-27.893,48.145c-3.025-3.69-7.842-9.752-12.635-16.61
		c-9.847-14.059-15.269-25.259-15.269-31.547C-1057.897,22.712-1045.413,10.233-1030.012,10.22z"/>
	<circle cx="-1030.012" cy="38.599" r="10.429"/>
</g>
<g>
	<path d="M-909,1c-27.037,0-49,21.963-49,49c0,27.037,21.963,49,49,49c27.037,0,49-21.963,49-49C-860,22.963-881.963,1-909,1z
		 M-909,90.833c-22.532,0-40.834-18.302-40.834-40.833c0-22.532,18.302-40.834,40.834-40.834c22.531,0,40.833,18.302,40.833,40.834
		C-868.167,72.531-886.469,90.833-909,90.833z"/>
	<path d="M-912.981,46.179V18.34c0-0.89,0.35-1.735,0.977-2.362c0.627-0.627,1.487-0.977,2.362-0.977c0.408,0,0.817,0,1.21,0
		c0.904,0,1.779,0.365,2.421,0.992c0.627,0.642,0.992,1.517,0.992,2.406c0,7.35,0,24.587,0,31.967c0,0.919-0.365,1.794-1.006,2.45
		c-0.656,0.642-1.531,1.006-2.45,1.006h-0.554c-6.081,0-18.462,0-24.5,0c-1.925,0-3.471-1.56-3.471-3.471c0-0.233,0-0.467,0-0.7
		c0-1.91,1.546-3.471,3.471-3.471H-912.981z"/>
</g>
<g>
	<g>
		<path d="M-774.606,7.594c15.222,0,27.605,12.474,27.605,27.807c0,15.277-12.429,27.706-27.706,27.706h-22.94h-2.485l-1.757,1.757
			l-8.069,8.069v-5.638v-4.335l-4.116-1.362C-825.394,57.855-833,47.286-833,35.301c0-15.277,12.474-27.706,27.807-27.706H-774.606
			 M-774.606,1.594h-30.587C-823.807,1.594-839,16.687-839,35.301c0,14.891,9.659,27.569,23.042,31.996v16.099
			c0,1.024,0.834,1.678,1.684,1.678c0.403,0,0.81-0.147,1.133-0.47l15.495-15.495h22.94c18.614,0,33.706-15.092,33.706-33.706
			C-741,16.787-755.992,1.594-774.606,1.594L-774.606,1.594z"/>
	</g>
	<path d="M-806.197,31.68l-4.483,3.775l1.416,5.663c0.236,1.062-0.944,1.888-1.77,1.298l-4.955-3.067l-4.955,2.949
		c-0.944,0.59-2.123-0.236-1.77-1.298l1.416-5.663l-4.483-3.657c-0.826-0.708-0.354-2.123,0.708-2.123l5.781-0.472l2.241-5.427
		c0.354-1.062,1.888-1.062,2.241,0l2.241,5.427l5.781,0.472C-805.843,29.557-805.371,30.972-806.197,31.68z"/>
	<path d="M-780.126,31.68l-4.483,3.775l1.416,5.663c0.236,1.062-0.944,1.888-1.77,1.298l-4.955-3.067l-4.955,2.949
		c-0.944,0.59-2.123-0.236-1.77-1.298l1.416-5.663l-4.483-3.657c-0.826-0.708-0.354-2.123,0.708-2.123l5.781-0.472l2.241-5.427
		c0.354-1.062,1.888-1.062,2.241,0l2.241,5.427l5.78,0.472C-779.772,29.557-779.3,30.972-780.126,31.68z"/>
	<path d="M-754.055,31.68l-4.483,3.775l1.416,5.663c0.236,1.062-0.944,1.888-1.77,1.298l-4.955-3.067l-4.955,2.949
		c-0.944,0.59-2.123-0.236-1.77-1.298l1.416-5.663l-4.483-3.657c-0.826-0.708-0.354-2.123,0.708-2.123l5.781-0.472l2.241-5.427
		c0.354-1.062,1.888-1.062,2.241,0l2.241,5.427l5.781,0.472C-753.583,29.557-753.229,30.972-754.055,31.68z"/>
</g>
<path d="M-660.962,66.878h-50.307v-7.731l0,0V7.969h82.538V15.7l0,0v30.924c3.267,2.613,5.662,6.098,6.86,10.236V15.591V7.86
	c0-3.811-3.049-6.86-6.86-6.86h-82.538c-3.811,0-6.86,3.049-6.86,6.86v7.731v43.447v7.731c0,3.811,3.049,6.86,6.86,6.86h53.247
	C-659.329,71.669-660.418,69.382-660.962,66.878z"/>
<g>
	<rect x="-699.073" y="22.342" width="58.147" height="6.098"/>
	<rect x="-699.073" y="34.32" width="58.147" height="6.098"/>
	<rect x="-699.073" y="46.298" width="28.42" height="6.098"/>
</g>
<path d="M-641.253,82.558c-3.702,0-7.078-0.98-10.018-2.722V99l0,0l10.018-10.562L-631.236,99l0,0V79.944
	C-634.176,81.578-637.551,82.558-641.253,82.558z"/>
<path d="M-641.471,48.258c-7.84,0.109-14.047,6.533-13.938,14.373c0.109,7.84,6.533,14.047,14.374,13.938
	c7.84-0.109,14.046-6.533,13.938-14.373C-627.207,54.356-633.631,48.149-641.471,48.258z M-635.373,70.471l-5.771-2.94l-5.663,3.158
	l0.98-6.424l-4.683-4.464l6.425-0.98l2.722-5.88l2.94,5.771l6.424,0.871l-4.573,4.573L-635.373,70.471z"/>
<path d="M-572,99.5c-1.407,0-2.815-0.537-3.889-1.611c-2.148-2.148-2.148-5.63,0-7.778L-535.778,50l-40.11-40.111
	c-2.148-2.148-2.148-5.63,0-7.778c2.146-2.147,5.631-2.147,7.777,0l44,44c2.148,2.148,2.148,5.63,0,7.778l-44,44
	C-569.185,98.963-570.593,99.5-572,99.5z"/>
<g>
	<g>
		<circle cx="-390.8" cy="89.2" r="9.8"/>
		<path d="M-479,99h19.6c0-43.299,35.101-78.4,78.4-78.4V1C-435.124,1-479,44.876-479,99z"/>
		<path d="M-439.8,99h19.6c0-21.649,17.551-39.2,39.2-39.2V40.2C-413.475,40.2-439.8,66.525-439.8,99z"/>
	</g>
</g>
<g>
	<path d="M-270.8,85.4c2.095,0,3.8,1.705,3.8,3.8s-1.705,3.8-3.8,3.8s-3.8-1.705-3.8-3.8S-272.895,85.4-270.8,85.4 M-270.8,79.4
		c-5.412,0-9.8,4.388-9.8,9.8s4.388,9.8,9.8,9.8s9.8-4.388,9.8-9.8S-265.388,79.4-270.8,79.4L-270.8,79.4z"/>
</g>
<g>
	<path d="M-267,7.193v7.618c-41.768,2.947-75.242,36.421-78.189,78.189h-7.617C-349.834,47.04-312.959,10.166-267,7.193 M-261,1
		c-54.124,0-98,43.876-98,98h19.6c0-43.299,35.101-78.4,78.4-78.4V1L-261,1z"/>
</g>
<g>
	<path d="M-267,46.539v7.658c-20.134,2.682-36.121,18.669-38.803,38.803h-7.658C-310.698,68.668-291.332,49.302-267,46.539
		 M-261,40.2c-32.475,0-58.8,26.325-58.8,58.8h19.6c0-21.649,17.551-39.2,39.2-39.2V40.2L-261,40.2z"/>
</g>
<path d="M-141,41.091v53.455c0,1.229-0.996,2.227-2.227,2.227h-93.545c-1.229,0-2.227-0.998-2.227-2.227V58.909
	c0-1.229,0.998-2.227,2.227-2.227h13.364c1.229,0,2.227,0.998,2.227,2.227v33.409h8.909V41.091c0-1.229,0.998-2.227,2.227-2.227
	h13.364c1.229,0,2.227,0.998,2.227,2.227v51.227h8.909V58.909c0-1.229,0.996-2.227,2.227-2.227h13.364
	c1.232,0,2.227,0.998,2.227,2.227v33.409h8.909V41.091c0-1.229,0.996-2.227,2.227-2.227h13.364
	C-141.996,38.864-141,39.861-141,41.091z M-230.091,47.773c4.913,0,8.909-3.996,8.909-8.909c0-1.648-0.479-3.172-1.263-4.497
	l14.584-14.584c1.325,0.784,2.849,1.263,4.497,1.263c1.648,0,3.172-0.479,4.497-1.263l14.584,14.584
	c-0.784,1.325-1.263,2.849-1.263,4.497c0,4.913,3.996,8.909,8.909,8.909c4.913,0,8.909-3.996,8.909-8.909
	c0-1.648-0.479-3.172-1.263-4.497l14.584-14.582c1.325,0.782,2.849,1.261,4.497,1.261c4.913,0,8.909-3.996,8.909-8.909
	s-3.996-8.909-8.909-8.909c-4.913,0-8.909,3.996-8.909,8.909c0,1.648,0.479,3.172,1.263,4.497l-14.584,14.582
	c-1.325-0.782-2.849-1.261-4.497-1.261c-1.648,0-3.172,0.479-4.497,1.263l-14.584-14.584c0.784-1.325,1.263-2.849,1.263-4.497
	c0-4.913-3.996-8.909-8.909-8.909c-4.913,0-8.909,3.996-8.909,8.909c0,1.648,0.479,3.172,1.263,4.497l-14.584,14.584
	c-1.325-0.784-2.849-1.263-4.497-1.263c-4.913,0-8.909,3.996-8.909,8.909S-235.004,47.773-230.091,47.773z"/>
<path d="M-24.902,37h-90c-2.209,0-4-1.791-4-4v0c0-2.209,1.791-4,4-4h90c2.209,0,4,1.791,4,4v0C-20.902,35.209-22.693,37-24.902,37z
	"/>
<path d="M-44.902,55h-70c-2.209,0-4-1.791-4-4v0c0-2.209,1.791-4,4-4h70c2.209,0,4,1.791,4,4v0C-40.902,53.209-42.693,55-44.902,55z
	"/>
<path d="M-64.902,73h-50c-2.209,0-4-1.791-4-4v0c0-2.209,1.791-4,4-4h50c2.209,0,4,1.791,4,4v0C-60.902,71.209-62.693,73-64.902,73z
	"/>
<g>
	<path d="M95.5,85h-91C2.568,85,1,83.432,1,81.5v-35c0-0.756,0.245-1.491,0.7-2.1l21-28c0.658-0.882,1.701-1.4,2.8-1.4h49
		c1.099,0,2.142,0.518,2.8,1.4l21,28c0.455,0.609,0.7,1.344,0.7,2.1v35C99,83.432,97.432,85,95.5,85z M8,78h84V47.669L72.75,22
		h-45.5L8,47.669V78z"/>
	<path d="M67.5,64h-35c-1.932,0-3.5-1.568-3.5-3.5V50H4.5C2.568,50,1,48.432,1,46.5S2.568,43,4.5,43h28c1.932,0,3.5,1.568,3.5,3.5
		V57h28V46.5c0-1.932,1.568-3.5,3.5-3.5h28c1.932,0,3.5,1.568,3.5,3.5S97.432,50,95.5,50H71v10.5C71,62.432,69.432,64,67.5,64z"/>
</g>
</svg>
