<svg xmlns="http://www.w3.org/2000/svg" viewBox="0 0 100 100"><path d="M50 1C22.977 1 1 22.977 1 50s21.977 49 49 49 49-21.977 49-49S77.023 1 50 1zm0 6.534c23.492 0 42.467 18.974 42.467 42.467 0 23.492-18.974 42.467-42.467 42.467S7.533 73.494 7.533 50 26.508 7.534 50 7.534zm7.622 8.71a5.444 5.444 0 1 0 0 10.89 5.444 5.444 0 0 0 0-10.89zm-6.635 11.978c-3.925.176-8.1 2.11-11.603 4.798l-.374 4.083c3.31-1.296 6.707-1.283 7.724 1.804 2.477 7.508-5.985 20.645-8.303 27.528-6.287 18.674 8.8 20.83 19.566 13.135l.408-4.424c-5.857 1.834-10.055-.42-6.669-10.174 1.631-4.706 15.283-28.417 5.853-34.947-1.975-1.367-4.247-1.908-6.602-1.803z"/></svg>