<?xml version="1.0" encoding="utf-8"?>
<!-- Generator: Adobe Illustrator 21.0.2, SVG Export Plug-In . SVG Version: 6.00 Build 0)  -->
<svg version="1.1" id="Layer_1" xmlns="http://www.w3.org/2000/svg" xmlns:xlink="http://www.w3.org/1999/xlink" x="0px" y="0px"
	 viewBox="0 0 100 100" style="enable-background:new 0 0 100 100;" xml:space="preserve">
<g transform="translate(0,-952.36218)">
	<path d="M50,953.362c-27.023,0-49,21.977-49,49c0,27.023,21.977,49,49,49s49-21.977,49-49C99,975.339,77.023,953.362,50,953.362
		L50,953.362z M50,959.896c23.492,0,42.467,18.974,42.467,42.467c0,23.492-18.974,42.467-42.467,42.467
		s-42.467-18.974-42.467-42.467S26.508,959.896,50,959.896L50,959.896z M57.622,968.607c-3.007,0-5.444,2.438-5.444,5.444
		c0,3.007,2.437,5.444,5.444,5.444c3.007,0,5.444-2.438,5.444-5.444C63.067,971.044,60.629,968.607,57.622,968.607z M50.987,980.584
		c-3.925,0.176-8.1,2.11-11.603,4.798l-0.374,4.083c3.31-1.296,6.707-1.283,7.724,1.804c2.477,7.508-5.985,20.645-8.303,27.528
		c-6.287,18.674,8.8,20.831,19.566,13.135l0.408-4.424c-5.857,1.834-10.055-0.419-6.669-10.174
		c1.631-4.706,15.283-28.417,5.853-34.947C55.614,981.02,53.342,980.479,50.987,980.584z"/>
</g>
</svg>
