<svg id="Layer_1" xmlns="http://www.w3.org/2000/svg" viewBox="0 0 782 588"><style>.st0,.st1{fill:none;stroke:#a2b3c4}.st1{stroke-width:2}.st2{fill:none;stroke:#ecf0f3}</style><path class="st0" d="M90 234s-10.342-36.488 10-70 49.114-51.656 66-55c14.641-2.899 25-3 25-3M65 263s-7.497-2.126-20 2c-10.76 3.551-15 11-15 11m-3 4s-11.871 12.352-10 31c1.744 17.38 7.701 34.383 27 43 20.306 9.067 41 0 41 0m-18-49l-26 28M229 44l-7 5 11-37 14 35-8-5 1 31h-11V44zM93.997 94.865s-4.013-7.168-7.672-11.107c-3.66-3.938-14.061-8.618-17.431-16.653-3.369-8.036-2.659-21.205 10.751-26.979 13.703-5.9 22.268 3.097 26.064 11.311s.017 15.971.717 23.337c.699 7.367 2.427 14.149 2.427 14.149s-1.71 3.25-6.45 5.415-5.897 1.413-5.897 1.413M80 86l-3 8m-5-15l-7 10m2-15l-13 4m9-15l-14 1m15-13l-17-5m26-8L61 24m21 11l-4-15m16 14l7-15m4 23l10-10m-4 23l16-2m-14 15l14 5"/><path class="st0" d="M95.301 98.123l5.44 8.219s2.988-.019 6.826-1.785c4.448-2.046 5.245-3.042 5.245-3.042l-2.704-12.148"/><path class="st0" d="M107.993 94.188s-.609 3.316-4.319 5.207c-3.71 1.892-5.673 1.587-5.673 1.587m-1.642-13.677s-5.195-13.306-7.445-15.922c-2.249-2.617-8.262-7.629-10.735-7.992-2.472-.363-.605 1.804.652 1.63 1.257-.175 3.39-.758 4.317-2.672.927-1.913 1.905-3.374 1.156-5.187-.748-1.813-2.853-1.355-2.183-.072.671 1.283 2.631 1.817 4.089 2.145 1.458.327 6.899-.201 9.008-1.713 2.11-1.512 1.864-3.542 1.483-4.373-.381-.83-2.084-2.667-3.715 1.486-.722 1.841-1.858 10.081-.032 16.077 1.147 3.763 6.516 16.294 6.516 16.294M222 24s-8.755-2.506-11 2 8.871 8.166 7 14-12 2-12 2m11-25l-6 31m50-15s-9.116-1.426-10 2 9.827 7.35 8 12-11 1-11 1m9-22l-3 30m75.679 52.796l7.596 4.998 21.57-32.425 8.528 19.554 28.351-40.162 5.253 25.242 34.019-36.868"/><path class="st0" d="M424.01 48.006l10.986 1.129.698 10.917"/><path class="st1" d="M387.309 101.582l6.357 12.288 34.019-36.868 3.592 28.196 26.061-34.965 3.787 18.978 35.112-34.258"/><path class="st1" d="M484.4 52.699l14.609.9-.393 13.952"/><path class="st0" d="M97 205s-1.743.855-2 7 0 14 0 14m6-52s-2.954 8.237-3 12-2.131 9.674-2 11m13-21s-2.066 9.801-3 14-2 11-2 11m10-18s-2.846 10.527-3 13c-.154 2.473 0 11 0 11m9-29s-2.096 8.826-2 12-1 12-1 12m11-36s-1.096 8.845-2 14c-1.522 8.677 1.808 24.595 2 21m8-37s-.438 3.691-1 9 1.332 11.496 0 15m5-28s1.489 15.112 1 17 1.903 8.506 1 10m8-33l-1 21s1.873 7.538 2 10m-48.447 21.78c-.563 2.406-1.319 3.056-.775 7.239.545 4.183.723 10.024.723 10.024M80 386s-8.82 2.33-10 5-.381 6.912-4 9-14.91 7.576-20 13-7.436 9.646-10 14M604.125 67.144c12.598-10.228 44.476-7.389 71.2 6.342 26.724 13.731 38.176 33.154 25.577 43.382-12.598 10.229-44.475 7.389-71.2-6.342-26.724-13.731-38.176-33.154-25.577-43.382z"/><path class="st0" d="M685.623 49.903c-8.651-13.663-30.719-6.563-49.289 15.858s-26.611 51.672-17.96 65.335c8.651 13.663 30.718 6.564 49.288-15.857 18.571-22.421 26.612-51.673 17.961-65.336z"/><path class="st0" d="M650.752 78.329c8.22 0 14.883 5.973 14.883 13.342 0 7.368-6.663 13.341-14.883 13.341s-14.883-5.973-14.883-13.341c0-7.369 6.663-13.342 14.883-13.342zM91 238s3.712 10.105 5 14c1.288 3.895 4.443 5.771 5 9m2-3s2.854 3.491 3 5 1 7 1 7 1.887-1.311 3 0"/><path class="st2" d="M246.745 528.607l-18.473 12.768m19.473-7l-18.473 12.768m22.473-3.839l-18.473 12.767m18.473-9.285l-18.473 12.768m27.71-12.768l-18.473 12.768m40.409-13.929l-18.473 12.768m12.7-17.411l-18.472 12.768"/><path class="st0" d="M257.518 505s-34.837 5.887-33.482 33.661C225.128 561.043 244.267 570 259.827 570c27.73 0 31.173-33.661 31.173-33.661h-32.327L257.518 505z"/><path class="st2" d="M294.122 487.663l-9.23 10.055m10.908-2.469l-9.23 10.054m10.451-4.537l-9.231 10.054m10.299-5.227l-9.231 10.054m14.685-11.289l-9.231 10.055m14.085-7.532l-9.231 10.054m16.354-10.218l-9.231 10.054"/><path class="st0" d="M300 481s-22.184 1.227-19.342 23.469C282.285 517.205 296.8 521.033 306 519c11.194-2.473 13-15.967 13-15.967l-18.194-4.572L300 481z"/><path class="st2" d="M275.991 554.911l-18.473 12.768m10.391-15.09l-18.473 12.768m32.328-10.446l-18.473 12.768"/></svg>