<?xml version="1.0" encoding="utf-8"?>
<!-- Generator: Adobe Illustrator 21.0.2, SVG Export Plug-In . SVG Version: 6.00 Build 0)  -->
<svg version="1.1" id="Layer_1" xmlns="http://www.w3.org/2000/svg" xmlns:xlink="http://www.w3.org/1999/xlink" x="0px" y="0px"
	 viewBox="0 0 100 95" style="enable-background:new 0 0 100 95;" xml:space="preserve">
<path d="M50.001,37.29c-5.628,0-10.21-4.582-10.21-10.21s4.582-10.21,10.21-10.21c5.632,0,10.21,4.582,10.21,10.21
	S55.632,37.29,50.001,37.29z M50.001,0.536c-14.788,0-26.818,12.031-26.818,26.818c0,10.312,6.563,19.557,12.905,28.501
	C41.188,63.043,46.456,70.476,48,78.137l4.002-0.004c1.523-7.641,6.791-15.049,11.884-22.212
	c6.359-8.944,12.929-18.189,12.929-28.566C76.815,12.567,64.788,0.536,50.001,0.536z M60.033,52.756
	c-3.772,5.301-7.638,10.743-10.036,16.494c-2.406-5.775-6.279-11.232-10.056-16.552c-5.938-8.371-11.546-16.281-11.546-24.842
	c0-11.915,9.691-21.605,21.605-21.605c11.911,0,21.602,9.691,21.602,21.605C71.602,36.479,65.983,44.385,60.033,52.756z
	 M92.183,94.464H7.819c-2.25,0-4.284-1.139-5.574-3.132c-1.429-2.197-1.642-5.064-0.564-7.486l7.988-17.891
	c1.131-2.528,3.541-4.161,6.138-4.161h13.775v5.084H16.807c-1.005,0-1.928,0.67-2.409,1.748L6.41,84.516
	c-0.519,1.168-0.421,2.544,0.261,3.598c0.31,0.474,0.996,1.266,2.148,1.266h82.364c1.152,0,1.838-0.792,2.144-1.27
	c0.682-1.05,0.78-2.43,0.257-3.598l-7.988-15.891c-0.474-1.074-1.397-1.744-2.401-1.744H70.42v-5.084h13.775
	c2.597,0,5.007,1.634,6.134,4.165l7.992,17.891c1.078,2.422,0.862,5.289-0.568,7.486C96.467,93.325,94.433,94.464,92.183,94.464z"/>
</svg>
