<svg xmlns="http://www.w3.org/2000/svg" viewBox="0 0 100 95"><path d="M50.001 37.29c-5.628 0-10.21-4.582-10.21-10.21s4.582-10.21 10.21-10.21c5.632 0 10.21 4.582 10.21 10.21s-4.579 10.21-10.21 10.21zm0-36.754c-14.788 0-26.818 12.031-26.818 26.818 0 10.312 6.563 19.557 12.905 28.501 5.1 7.188 10.368 14.621 11.912 22.282l4.002-.004c1.523-7.641 6.791-15.049 11.884-22.212 6.359-8.944 12.929-18.189 12.929-28.566C76.815 12.567 64.788.536 50.001.536zm10.032 52.22c-3.772 5.301-7.638 10.743-10.036 16.494-2.406-5.775-6.279-11.232-10.056-16.552-5.938-8.371-11.546-16.281-11.546-24.842 0-11.915 9.691-21.605 21.605-21.605 11.911 0 21.602 9.691 21.602 21.605 0 8.623-5.619 16.529-11.569 24.9zm32.15 41.708H7.819c-2.25 0-4.284-1.139-5.574-3.132-1.429-2.197-1.642-5.064-.564-7.486l7.988-17.891c1.131-2.528 3.541-4.161 6.138-4.161h13.775v5.084H16.807c-1.005 0-1.928.67-2.409 1.748L6.41 84.516c-.519 1.168-.421 2.544.261 3.598.31.474.996 1.266 2.148 1.266h82.364c1.152 0 1.838-.792 2.144-1.27.682-1.05.78-2.43.257-3.598l-7.988-15.891c-.474-1.074-1.397-1.744-2.401-1.744H70.42v-5.084h13.775c2.597 0 5.007 1.634 6.134 4.165l7.992 17.891c1.078 2.422.862 5.289-.568 7.486-1.286 1.99-3.32 3.129-5.57 3.129z"/></svg>