<?xml version="1.0" encoding="utf-8"?>
<!-- Generator: Adobe Illustrator 21.0.2, SVG Export Plug-In . SVG Version: 6.00 Build 0)  -->
<svg version="1.1" id="Layer_1" xmlns="http://www.w3.org/2000/svg" xmlns:xlink="http://www.w3.org/1999/xlink" x="0px" y="0px"
	 viewBox="0 0 70 100" style="enable-background:new 0 0 70 100;" xml:space="preserve">
<g transform="translate(-231.86559,-335.4644)">
	<path d="M266.865,336.464c-16.833,0-30.529,13.696-30.529,30.529v18.471c-2.225,4.522-3.505,9.592-3.505,14.966
		c0,18.798,15.236,34.034,34.034,34.034c18.798,0,34.034-15.235,34.034-34.034c0-5.375-1.289-10.444-3.505-14.966v-18.471
		C297.394,350.16,283.699,336.464,266.865,336.464L266.865,336.464z M266.865,348.066c10.435,0,18.927,8.492,18.927,18.927v5.152
		c-5.42-3.625-11.919-5.748-18.927-5.748c-6.999,0-13.516,2.114-18.927,5.748v-5.152
		C247.939,356.558,256.43,348.066,266.865,348.066z M266.865,387.725c3.607,0,6.502,2.886,6.502,6.484
		c0,2.091-0.955,3.924-2.471,5.117l1.647,13.81h-11.339l1.665-13.81c-1.507-1.202-2.506-3.027-2.506-5.117
		C260.364,390.611,263.259,387.725,266.865,387.725L266.865,387.725z"/>
</g>
</svg>
