<svg xmlns="http://www.w3.org/2000/svg" viewBox="0 0 70 100"><path d="M35 1C18.165 1 4.47 14.696 4.47 31.529v18.47C2.245 54.523.965 59.593.965 64.967.965 83.764 16.201 99 35 99s34.034-15.235 34.034-34.034c0-5.375-1.289-10.444-3.505-14.966V31.529C65.528 14.696 51.833.999 35 .999zm0 11.602c10.434 0 18.926 8.492 18.926 18.927v5.152A33.913 33.913 0 0 0 35 30.933a33.843 33.843 0 0 0-18.927 5.748v-5.152c0-10.435 8.491-18.927 18.927-18.927zm0 39.659a6.472 6.472 0 0 1 6.501 6.484 6.458 6.458 0 0 1-2.47 5.117l1.646 13.81H29.338l1.665-13.81c-1.507-1.202-2.506-3.027-2.506-5.117A6.473 6.473 0 0 1 35 52.26z"/></svg>