<svg xmlns="http://www.w3.org/2000/svg" viewBox="0 0 66 100"><path d="M65.335 17.541c-1.821 1.081-7.032 3.339-21.949 8.318-2.664.882-5.492 1.64-8.485 2.443l-1.795.483c-8.95 2.443-17.485 5.178-23.543 11.715-5.337 5.755-7.932 13.717-7.932 24.343v2.805c0 3.88.698 7.648 2.078 11.231.244-5.405 2.856-18.412 21.541-25.067v-.136l.396-.019a51.928 51.928 0 0 1 3.831-1.177c1.161-.313 2.278-.626 3.372-.96 9.187-2.675 15.58-5.461 20.123-8.772a24.894 24.894 0 0 0 3.42-2.888c5.519-5.542 8.372-12.652 8.943-22.319z"/><path d="M4.675 81.144C9.877 91.993 20.98 99 32.985 99c12.017 0 23.112-7.008 28.289-17.86.063-.701.445-6.43-3.048-12.66-3.099-5.564-8.292-9.887-15.46-12.876a13.743 13.743 0 0 1 3.988 9.709c0 7.605-6.177 13.792-13.77 13.792-7.605 0-13.793-6.187-13.793-13.792 0-3.686 1.458-7.154 4.001-9.714C3.245 63.912 4.547 79.943 4.675 81.144zM.665 17.51c.554 9.52 3.287 16.544 8.552 22.004 5.816-6.063 13.679-8.839 21.999-11.171-3.057-.816-5.945-1.587-8.654-2.484C10.508 21.835 3.173 19.038.665 17.51z"/><path d="M40.681 53.805c8.634 3.07 14.809 7.853 18.355 14.222 2.449 4.367 3.073 8.433 3.193 10.892a31.176 31.176 0 0 0 2.085-11.273v-2.805c0-1.962-.087-3.766-.267-5.518-.763-7.757-3.166-13.804-7.339-18.47a26.213 26.213 0 0 1-3.191 2.644c-4.381 3.191-10.414 5.895-18.906 8.465.552.159 1.161.327 1.86.515 1.292.344 2.576.739 3.817 1.173h.385l.008.155z"/><circle cx="33.001" cy="9.462" r="8.462"/></svg>