<?xml version="1.0" encoding="utf-8"?>
<!-- Generator: Adobe Illustrator 21.0.2, SVG Export Plug-In . SVG Version: 6.00 Build 0)  -->
<svg version="1.1" id="Layer_1" xmlns="http://www.w3.org/2000/svg" xmlns:xlink="http://www.w3.org/1999/xlink" x="0px" y="0px"
	 viewBox="0 0 66 100" style="enable-background:new 0 0 66 100;" xml:space="preserve">
<g id="XMLID_78_">
	<path id="XMLID_7_" d="M65.335,17.541c-1.821,1.081-7.032,3.339-21.949,8.318c-2.664,0.882-5.492,1.64-8.485,2.443l-1.795,0.483
		c-8.95,2.443-17.485,5.178-23.543,11.715c-5.337,5.755-7.932,13.717-7.932,24.343v2.805c0,3.88,0.698,7.648,2.078,11.231
		c0.244-5.405,2.856-18.412,21.541-25.067v-0.136l0.396-0.019c1.244-0.436,2.532-0.832,3.831-1.177
		c1.161-0.313,2.278-0.626,3.372-0.96c9.187-2.675,15.58-5.461,20.123-8.772c1.278-0.903,2.427-1.874,3.42-2.888
		C61.911,34.318,64.764,27.208,65.335,17.541z"/>
</g>
<g id="XMLID_40_">
	<path id="XMLID_6_" d="M4.675,81.144C9.877,91.993,20.98,99,32.985,99c12.017,0,23.112-7.008,28.289-17.86
		c0.063-0.701,0.445-6.43-3.048-12.66c-3.099-5.564-8.292-9.887-15.46-12.876c2.535,2.553,3.988,6.018,3.988,9.709
		c0,7.605-6.177,13.792-13.77,13.792c-7.605,0-13.793-6.187-13.793-13.792c0-3.686,1.458-7.154,4.001-9.714
		C3.245,63.912,4.547,79.943,4.675,81.144z"/>
</g>
<g id="XMLID_37_">
	<path id="XMLID_5_" d="M0.665,17.51c0.554,9.52,3.287,16.544,8.552,22.004c5.816-6.063,13.679-8.839,21.999-11.171
		c-3.057-0.816-5.945-1.587-8.654-2.484C10.508,21.835,3.173,19.038,0.665,17.51z"/>
</g>
<g id="XMLID_13_">
	<path id="XMLID_4_" d="M40.681,53.805c8.634,3.07,14.809,7.853,18.355,14.222c2.449,4.367,3.073,8.433,3.193,10.892
		c1.384-3.59,2.085-7.373,2.085-11.273v-2.805c0-1.962-0.087-3.766-0.267-5.518c-0.763-7.757-3.166-13.804-7.339-18.47
		c-0.949,0.928-2.02,1.816-3.191,2.644c-4.381,3.191-10.414,5.895-18.906,8.465c0.552,0.159,1.161,0.327,1.86,0.515
		c1.292,0.344,2.576,0.739,3.817,1.173h0.385L40.681,53.805z"/>
</g>
<g id="XMLID_10_">
	<circle id="XMLID_8_" cx="33.001" cy="9.462" r="8.462"/>
</g>
</svg>
