<?xml version="1.0" encoding="utf-8"?>
<!-- Generator: Adobe Illustrator 21.0.2, SVG Export Plug-In . SVG Version: 6.00 Build 0)  -->
<svg version="1.1" id="Layer_1" xmlns="http://www.w3.org/2000/svg" xmlns:xlink="http://www.w3.org/1999/xlink" x="0px" y="0px"
	 viewBox="0 0 100 73" style="enable-background:new 0 0 100 73;" xml:space="preserve">
<g>
	<path d="M87.857,0.579H12.301C6.005,0.579,1,5.584,1,11.88v49.24c0,6.296,5.005,11.301,11.301,11.301h75.394
		c6.296,0,11.301-5.005,11.301-11.301V11.88C99.158,5.584,93.992,0.579,87.857,0.579z M12.301,7.037h75.394
		c0.484,0,0.969,0,1.453,0.161L50.079,37.226L11.01,7.198C11.494,7.037,11.978,7.037,12.301,7.037z M92.7,60.959
		c0,2.745-2.099,4.843-4.843,4.843H12.301c-2.745,0-4.843-2.099-4.843-4.843V12.526l42.621,32.773L92.7,12.687V60.959z"/>
</g>
</svg>
