<?xml version="1.0" encoding="utf-8"?>
<!-- Generator: Adobe Illustrator 22.0.1, SVG Export Plug-In . SVG Version: 6.00 Build 0)  -->
<svg version="1.1" id="Layer_1" xmlns="http://www.w3.org/2000/svg" xmlns:xlink="http://www.w3.org/1999/xlink" x="0px" y="0px"
	 viewBox="0 0 100 100" style="enable-background:new 0 0 100 100;" xml:space="preserve">
<style type="text/css">
	.st0{fill:none;stroke:#000000;stroke-width:4;stroke-linecap:round;stroke-linejoin:round;stroke-miterlimit:10;}
	.st1{fill:none;}
	.st2{display:none;}
	.st3{fill:#F4623B;}
	.st4{fill:#FDEBE6;}
	.st5{fill:#F8C4B7;}
</style>
<g>
	<path d="M46.856,95.441L49.988,99l3.132-3.559c0.332-0.38,8.305-9.491,16.29-21C80.55,58.567,86.186,46.335,86.186,38.125
		C86.698,18.14,70.911,1.524,50.927,1.012S14.326,16.286,13.814,36.271c-0.016,0.618-0.016,1.236,0,1.853
		c-0.036,8.21,5.576,20.442,16.752,36.316C38.61,85.914,46.524,95.049,46.856,95.441z M49.988,10.22
		c15.401,0.02,27.88,12.503,27.893,27.905c0,11.864-17.927,36.055-27.893,48.145c-3.025-3.69-7.842-9.752-12.635-16.61
		c-9.847-14.059-15.269-25.259-15.269-31.547C22.103,22.712,34.587,10.233,49.988,10.22z"/>
	<circle cx="49.988" cy="38.599" r="10.429"/>
</g>
</svg>
