<svg id="Layer_1" xmlns="http://www.w3.org/2000/svg" viewBox="0 0 82 76"><style>.st0,.st1,.st2{display:none}.st1,.st2{fill:none;stroke:#000;stroke-width:5;stroke-miterlimit:10}.st2{stroke-linejoin:round}</style><path d="M33 16c1.059 0 1.975 1.099 2 2v14c0 1.047-.953 2-2 2H13c-1.047 0-2-.953-2-2V18c0-1.047.953-2 2-2h20zm22 29a2 2 0 1 1 0 4H13a2 2 0 1 1 0-4h42zm0 12a2 2 0 1 1 0 4H13a2 2 0 1 1 0-4h42z"/><path d="M79 21H67V3c-.025-.901-.946-1.966-2-2H3c-1.047 0-2 .953-2 2v63c0 4.951 4.049 9 9 9h62c4.951 0 9-4.049 9-9V23c-.025-.901-.918-1.975-2-2zM10 71c-2.805 0-5-2.195-5-5V5h58v61c0 1.897.738 3.545 1.75 5H10zm67-5c0 2.805-2.195 5-5 5s-5-2.195-5-5V25h10v41z"/></svg>