<svg id="Layer_1" xmlns="http://www.w3.org/2000/svg" viewBox="0 0 100 92"><style>.st0{stroke:#000;stroke-width:4;stroke-linecap:round;stroke-linejoin:round;stroke-miterlimit:10}.st0,.st1{fill:none}</style><path d="M77 45c-4.935 0-9 4.065-9 9 0 3.883 2.523 7.219 6 8.469V70c0 8.349-6.636 15-15 15s-15-6.651-15-15V52.812C55.273 51.337 64 41.672 64 30V11c0-3.272-2.728-6-6-6h-.688C56.175 2.654 53.755 1 51 1c-3.831 0-7 3.169-7 7s3.169 7 7 7c2.765 0 5.18-1.64 6.312-4H58v19c0 9.47-7.53 17-17 17s-17-7.53-17-17V11h.688c1.133 2.36 3.547 4 6.312 4 3.831 0 7-3.169 7-7s-3.169-7-7-7c-2.755 0-5.175 1.654-6.312 4H24c-3.272 0-6 2.728-6 6v19c0 11.672 8.727 21.337 20 22.812V70c0 11.573 9.42 21 21 21s21-9.427 21-21v-7.531c3.477-1.25 6-4.586 6-8.469 0-4.935-4.065-9-9-9zm0 12c-1.692 0-3-1.308-3-3s1.308-3 3-3 3 1.308 3 3-1.308 3-3 3z"/></svg>