<svg id="Layer_1" xmlns="http://www.w3.org/2000/svg" viewBox="0 0 100 100"><style>.st0{stroke:#000;stroke-width:4;stroke-linecap:round;stroke-linejoin:round;stroke-miterlimit:10}.st0,.st1{fill:none}</style><path d="M50.001 1C36.017 1 24.639 12.376 24.639 26.36s11.378 25.362 25.362 25.362 25.36-11.376 25.36-25.362S63.985 1 50.001 1zm0 45.467c-11.088 0-20.11-9.022-20.11-20.11s9.024-20.103 20.11-20.103 20.107 9.017 20.107 20.105-9.019 20.108-20.107 20.108zm47.812 43.974a7.588 7.588 0 0 1-1.958 5.898C94.32 98.028 92.109 99 89.784 99h-79.57c-2.322 0-4.536-.972-6.066-2.661a7.584 7.584 0 0 1-1.961-5.898C4.06 71.43 15.254 59.527 36.414 54.046a2.62 2.62 0 0 1 3.205 1.884 2.63 2.63 0 0 1-1.884 3.202C18.443 64.13 9.095 73.944 7.42 90.955a2.35 2.35 0 0 0 .62 1.855c.539.597 1.334.935 2.175.935h79.57c.843 0 1.638-.339 2.177-.935.329-.366.705-.981.62-1.855-1.674-17.011-11.025-26.825-30.316-31.822a2.628 2.628 0 0 1-1.882-3.202c.362-1.403 1.802-2.26 3.202-1.884 21.16 5.48 32.352 17.384 34.227 36.394z"/></svg>