<?xml version="1.0" encoding="utf-8"?>
<!-- Generator: Adobe Illustrator 21.0.2, SVG Export Plug-In . SVG Version: 6.00 Build 0)  -->
<svg version="1.1" id="Layer_1" xmlns="http://www.w3.org/2000/svg" xmlns:xlink="http://www.w3.org/1999/xlink" x="0px" y="0px"
	 viewBox="0 0 100 78" style="enable-background:new 0 0 100 78;" xml:space="preserve">
<g>
	<g transform="translate(-69.000000, -228.000000)">
		<g transform="translate(69.000000, 230.000000)">
			<path d="M0,3.556C0,0.487,2.472-2,5.519-2h88.962C97.529-2,100,0.466,100,3.556c0,3.068-2.472,5.556-5.519,5.556H5.519
				C2.471,9.111,0,6.645,0,3.556z M0,36.889c0-3.068,2.472-5.556,5.519-5.556h88.962c3.048,0,5.519,2.466,5.519,5.556
				c0,3.068-2.472,5.556-5.519,5.556H5.519C2.471,42.444,0,39.979,0,36.889z M0,70.222c0-3.068,2.472-5.556,5.519-5.556h88.962
				c3.048,0,5.519,2.466,5.519,5.556c0,3.068-2.472,5.556-5.519,5.556H5.519C2.471,75.778,0,73.312,0,70.222z"/>
		</g>
	</g>
</g>
</svg>
