<svg xmlns="http://www.w3.org/2000/svg" viewBox="0 0 100 78"><path d="M0 5.556C0 2.487 2.472 0 5.519 0h88.962C97.529 0 100 2.466 100 5.556c0 3.068-2.472 5.556-5.519 5.556H5.519C2.471 11.111 0 8.645 0 5.556zm0 33.333c0-3.068 2.472-5.556 5.519-5.556h88.962c3.048 0 5.519 2.466 5.519 5.556 0 3.068-2.472 5.556-5.519 5.556H5.519C2.471 44.444 0 41.979 0 38.889zm0 33.333c0-3.068 2.472-5.556 5.519-5.556h88.962c3.048 0 5.519 2.466 5.519 5.556 0 3.068-2.472 5.556-5.519 5.556H5.519C2.471 77.778 0 75.312 0 72.222z"/></svg>