<?xml version="1.0" encoding="utf-8"?>
<!-- Generator: Adobe Illustrator 21.0.2, SVG Export Plug-In . SVG Version: 6.00 Build 0)  -->
<svg version="1.1" id="Layer_1" xmlns="http://www.w3.org/2000/svg" xmlns:xlink="http://www.w3.org/1999/xlink" x="0px" y="0px"
	 viewBox="0 0 100 100" style="enable-background:new 0 0 100 100;" xml:space="preserve">
<g transform="translate(-91.214475,-152.15558)">
	<path d="M170.509,153.156c-0.352,0.005-0.687,0.147-0.936,0.396l-29.415,29.415l1.911,1.911l5.371-5.371l6.345,6.345
		c0.521,0.535,1.377,0.547,1.912,0.027c0.009-0.009,0.019-0.018,0.028-0.028c0.52-0.536,0.507-1.391-0.028-1.911l-6.345-6.345
		l5.784-5.784l6.345,6.345c0.521,0.535,1.377,0.548,1.912,0.027c0.01-0.009,0.019-0.019,0.028-0.028
		c0.52-0.536,0.507-1.391-0.028-1.911l-6.345-6.345l5.784-5.784l6.345,6.345c0.521,0.535,1.377,0.547,1.912,0.027
		c0.009-0.009,0.019-0.018,0.028-0.028c0.52-0.536,0.507-1.391-0.028-1.911l-6.345-6.345l5.784-5.784l16.422,16.422v0.001
		L158.492,201.3l1.912,1.912l29.415-29.415c0.528-0.528,0.528-1.384,0-1.912l-18.334-18.334
		C171.226,153.293,170.874,153.15,170.509,153.156L170.509,153.156z M108.889,160.047c-2.533-0.048-5.057,0.863-6.968,2.757
		c-0.01,0.009-0.021,0.018-0.031,0.028c-3.819,3.819-3.683,10.118,0.216,14.017c0.002,0.002,0.003,0.003,0.005,0.005
		c0.213,0.21,0.436,0.41,0.666,0.601c0.06,0.101,0.131,0.196,0.218,0.283l61.407,61.407c0.069,0.069,0.144,0.13,0.222,0.182
		c0.193,0.268,0.473,0.461,0.792,0.547l16.107,4.344c0.765,0.206,1.55-0.246,1.754-1.01c0.065-0.243,0.064-0.499-0.001-0.742
		l-4.343-16.108c-0.087-0.319-0.281-0.599-0.55-0.793c-0.052-0.078-0.112-0.152-0.181-0.221l-61.407-61.407
		c-0.084-0.084-0.177-0.154-0.275-0.213c-0.194-0.233-0.398-0.459-0.612-0.674c-0.001-0.001-0.001-0.001-0.002-0.002
		C113.962,161.103,111.422,160.095,108.889,160.047L108.889,160.047z M108.759,162.859c1.781,0.014,3.588,0.701,5.017,2.067
		l-9.791,9.791c-2.731-2.859-2.75-7.226-0.093-9.883C105.222,163.505,106.978,162.845,108.759,162.859L108.759,162.859z
		 M115.917,167.118l59.241,59.241l-3.855,3.855l-59.241-59.241L115.917,167.118L115.917,167.118z M110.032,173.003l59.241,59.241
		l-3.855,3.855l-59.241-59.241L110.032,173.003L110.032,173.003z M122.026,201.098L92.61,230.514c-0.528,0.528-0.528,1.384,0,1.912
		l18.334,18.334c0.528,0.528,1.384,0.528,1.912,0l29.416-29.416l-1.912-1.912L111.9,247.892L95.478,231.47l5.784-5.784l6.345,6.345
		c0.521,0.535,1.377,0.547,1.912,0.027c0.009-0.009,0.019-0.018,0.028-0.028c0.52-0.536,0.507-1.391-0.028-1.911l-6.345-6.345
		l5.784-5.784l6.345,6.345c0.521,0.535,1.377,0.547,1.912,0.027c0.009-0.009,0.019-0.018,0.028-0.028
		c0.52-0.536,0.507-1.391-0.028-1.911l-6.345-6.345l5.784-5.784l6.345,6.345c0.521,0.535,1.377,0.548,1.912,0.027
		c0.009-0.009,0.019-0.018,0.028-0.028c0.52-0.536,0.508-1.391-0.028-1.911l-6.345-6.345l5.371-5.371L122.026,201.098
		L122.026,201.098z M176.813,229.493l3.049,11.309l-11.309-3.049L176.813,229.493z"/>
</g>
</svg>
