<svg xmlns="http://www.w3.org/2000/svg" viewBox="0 0 100 100"><path d="M79.295 1a1.35 1.35 0 0 0-.936.396L48.944 30.811l1.91 1.911 5.372-5.37 6.345 6.344a1.353 1.353 0 0 0 1.912.027l.028-.028a1.352 1.352 0 0 0-.028-1.91l-6.345-6.346 5.784-5.784L70.267 26a1.352 1.352 0 0 0 1.912.027l.028-.028a1.352 1.352 0 0 0-.028-1.91l-6.345-6.346 5.784-5.784 6.345 6.345a1.353 1.353 0 0 0 1.912.027l.028-.028a1.352 1.352 0 0 0-.028-1.91l-6.345-6.346 5.784-5.784 16.422 16.422v.001L67.278 49.144l1.912 1.912 29.415-29.415a1.352 1.352 0 0 0 0-1.912L80.27 1.395A1.352 1.352 0 0 0 79.295 1zm-61.62 6.891c-2.533-.048-5.057.863-6.968 2.757l-.031.028c-3.82 3.82-3.683 10.118.216 14.017l.005.005c.213.21.436.41.666.601.06.101.13.196.218.283L73.188 86.99c.069.07.144.13.222.182.193.268.473.461.792.547l16.107 4.344a1.429 1.429 0 0 0 1.753-1.752l-4.343-16.108a1.447 1.447 0 0 0-.55-.793 1.446 1.446 0 0 0-.181-.22L25.58 11.78a1.428 1.428 0 0 0-.275-.213 10.273 10.273 0 0 0-.612-.674l-.002-.002a10.193 10.193 0 0 0-7.017-3zm-.13 2.812c1.78.014 3.588.701 5.017 2.067l-9.791 9.791c-2.731-2.859-2.75-7.226-.093-9.883a6.768 6.768 0 0 1 4.867-1.975zm7.158 4.26l59.24 59.24-3.854 3.855-59.241-59.24 3.855-3.856zm-5.885 5.884l59.24 59.241-3.854 3.855-59.241-59.24 3.855-3.856zm11.994 28.095L1.396 78.358a1.352 1.352 0 0 0 0 1.912L19.73 98.604a1.352 1.352 0 0 0 1.912 0l29.416-29.416-1.912-1.912-28.46 28.46L4.264 79.314l5.784-5.784 6.345 6.345a1.353 1.353 0 0 0 1.912.027l.028-.028a1.352 1.352 0 0 0-.028-1.91l-6.345-6.346 5.784-5.784 6.345 6.345a1.353 1.353 0 0 0 1.912.027l.028-.028a1.352 1.352 0 0 0-.028-1.91l-6.345-6.346 5.784-5.784 6.345 6.345a1.352 1.352 0 0 0 1.912.027l.028-.028a1.35 1.35 0 0 0-.028-1.91l-6.345-6.346 5.37-5.37-1.91-1.914zm54.787 28.395l3.049 11.31-11.31-3.05 8.26-8.26z"/></svg>