<?xml version="1.0" encoding="utf-8"?>
<!-- Generator: Adobe Illustrator 21.0.2, SVG Export Plug-In . SVG Version: 6.00 Build 0)  -->
<svg version="1.1" id="Layer_1" xmlns="http://www.w3.org/2000/svg" xmlns:xlink="http://www.w3.org/1999/xlink" x="0px" y="0px"
	 viewBox="0 0 100 73" style="enable-background:new 0 0 100 73;" xml:space="preserve">
<g>
	<rect x="9.649" y="58.965" width="80.702" height="5.263"/>
	<rect x="20.175" y="67.737" width="59.649" height="5.263"/>
</g>
<g>
	<path d="M95.614,0H4.386C1.93,0,0,1.93,0,4.386v47.368c0,2.456,1.93,4.386,4.386,4.386h91.228c2.456,0,4.386-1.93,4.386-4.386
		V4.386C100,1.93,98.07,0,95.614,0z M5.263,5.263h5.263c0,2.456-1.93,4.386-4.386,4.386H5.263V5.263z M5.263,50.877v-4.386H6.14
		c2.456,0,4.386,1.93,4.386,4.386H5.263z M94.737,50.877h-5.263c0-2.456,1.93-4.386,4.386-4.386h0.877V50.877z M94.737,41.228H93.86
		c-5.263,0-9.649,4.386-9.649,9.649H15.789c0-5.263-4.386-9.649-9.649-9.649H5.263V14.912H6.14c5.263,0,9.649-4.386,9.649-9.649
		h69.298c0,5.263,4.386,9.649,9.649,9.649V41.228z M94.737,9.649c-2.456,0-4.386-1.93-4.386-4.386h4.386V9.649z"/>
	<path d="M51.754,31.053v4.912c1.754-0.526,1.93-1.93,1.93-2.632C53.684,32.456,53.158,31.754,51.754,31.053z"/>
	<path d="M47.018,24.561c0,0.877,0.526,1.404,1.754,1.93v-4.211C47.719,22.632,47.018,23.509,47.018,24.561z"/>
	<path d="M36.316,14.737c-7.544,7.544-7.544,19.825,0,27.368c7.544,7.544,19.825,7.544,27.368,0c7.544-7.544,7.544-19.825,0-27.368
		S43.86,7.193,36.316,14.737z M51.754,39.298v2.456h-2.807v-2.456c-2.105-0.351-4.035-1.404-5.263-3.158l-0.351-0.526l1.93-2.456
		l0.702,0.877c0.526,0.702,1.579,1.754,2.982,2.105v-5.965c-2.281-0.702-4.912-1.93-4.912-5.439c0-2.807,1.93-5.088,4.912-5.614
		v-2.456h2.807v2.632c1.754,0.351,3.333,1.228,4.561,2.807l0.351,0.526l-1.93,2.281l-0.702-0.877
		c-0.526-0.877-1.404-1.404-2.281-1.754v5.088c2.105,0.702,5.088,1.93,5.088,5.965C56.842,35.789,55.439,38.596,51.754,39.298z"/>
	<circle cx="18.421" cy="16.14" r="3.509"/>
	<circle cx="81.579" cy="40.702" r="3.509"/>
</g>
</svg>
