<svg xmlns="http://www.w3.org/2000/svg" viewBox="0 0 100 73"><path d="M95.614 16.667H4.386A4.343 4.343 0 0 0 0 21.053v47.368a4.344 4.344 0 0 0 4.386 4.386h91.228A4.344 4.344 0 0 0 100 68.421V21.053a4.343 4.343 0 0 0-4.386-4.386zM5.263 21.93h5.263a4.344 4.344 0 0 1-4.386 4.386h-.877V21.93zm0 45.614v-4.386h.877a4.344 4.344 0 0 1 4.386 4.386H5.263zm89.474 0h-5.263a4.344 4.344 0 0 1 4.386-4.386h.877v4.386zm0-9.649h-.877c-5.263 0-9.649 4.386-9.649 9.649H15.789c0-5.263-4.386-9.649-9.649-9.649h-.877V31.579h.877c5.263 0 9.649-4.386 9.649-9.649h69.298c0 5.263 4.386 9.649 9.649 9.649v26.316zm0-31.579a4.344 4.344 0 0 1-4.386-4.386h4.386v4.386zM9.649 8.772h80.702v5.263H9.649zM20.175 0h59.649v5.263H20.175z"/><path d="M51.754 47.719v4.912c1.754-.526 1.93-1.93 1.93-2.632 0-.876-.526-1.578-1.93-2.28zm-4.736-6.491c0 .877.526 1.404 1.754 1.93v-4.211c-1.053.351-1.754 1.228-1.754 2.281z"/><path d="M36.316 31.404c-7.544 7.544-7.544 19.825 0 27.368s19.825 7.544 27.368 0c7.544-7.544 7.544-19.825 0-27.368s-19.824-7.544-27.368 0zm15.438 24.561v2.456h-2.807v-2.456c-2.105-.351-4.035-1.404-5.263-3.158l-.351-.526 1.93-2.456.702.877c.526.702 1.579 1.754 2.982 2.105v-5.965c-2.281-.702-4.912-1.93-4.912-5.439 0-2.807 1.93-5.088 4.912-5.614v-2.456h2.807v2.632c1.754.351 3.333 1.228 4.561 2.807l.351.526-1.93 2.281-.702-.877c-.526-.877-1.404-1.404-2.281-1.754v5.088c2.105.702 5.088 1.93 5.088 5.965.001 2.455-1.402 5.262-5.087 5.964z"/><circle cx="18.421" cy="32.807" r="3.509"/><circle cx="81.579" cy="57.368" r="3.509"/></svg>