<svg id="Layer_1" xmlns="http://www.w3.org/2000/svg" viewBox="0 0 100 65.857"><style>.st0{stroke:#000;stroke-width:4;stroke-linecap:round;stroke-linejoin:round;stroke-miterlimit:10}.st0,.st1{fill:none}</style><path d="M52.251 51.769H6.922v.058H3.109V18.608h3.813v29.347h45.329v3.814zm7.038-8.86H12.966a3.147 3.147 0 0 1-3.178-3.178V5.411a3.147 3.147 0 0 1 3.178-3.178h66.098a3.147 3.147 0 0 1 3.178 3.178v13.007a24.206 24.206 0 0 0-3.813.702v-6.083c-3.813 0-6.991-3.178-6.991-6.991H21.229c0 3.813-3.178 6.991-6.991 6.991h-.635v19.067h.635c3.813 0 6.991 3.178 6.991 6.991H59.58a21.248 21.248 0 0 0-.291 3.814zM75.251 6.046a3.147 3.147 0 0 0 3.178 3.178V6.046h-3.178zM13.602 9.224h.635a3.147 3.147 0 0 0 3.178-3.178h-3.813v3.178zm3.814 29.871a3.147 3.147 0 0 0-3.178-3.178h-.635v3.178h3.813zm29.871-14.363v3.559c1.271-.381 1.398-1.398 1.398-1.907 0-.635-.382-1.144-1.398-1.652zm-3.432-4.703c0 .636.381 1.017 1.271 1.398v-3.051c-.763.254-1.271.89-1.271 1.653zM55.93 12.91c5.466 5.466 5.466 14.364 0 19.829-5.466 5.466-14.364 5.466-19.829 0-5.466-5.466-5.466-14.364 0-19.829s14.363-5.465 19.829 0zm-4.957 13.474c0-2.924-2.161-3.813-3.686-4.322v-3.686c.636.254 1.271.636 1.652 1.271l.508.636 1.398-1.652-.254-.381c-.89-1.144-2.034-1.78-3.305-2.034v-1.907h-2.034v1.78c-2.161.381-3.559 2.034-3.559 4.068 0 2.542 1.907 3.432 3.559 3.94v4.322c-1.017-.254-1.78-1.017-2.161-1.525l-.508-.636-1.398 1.78.254.381c.89 1.271 2.288 2.034 3.813 2.288v1.78h2.034v-1.78c2.67-.509 3.687-2.543 3.687-4.323zM96.89 44.939l-.15 16.182c0 1.383-.972 2.504-2.205 2.504H67.143c-1.233 0-2.205-1.121-2.205-2.504l-.15-16.182c0-1.233 1.121-2.205 2.504-2.205h4.709v-6.503a8.851 8.851 0 0 1 8.857-8.857 8.851 8.851 0 0 1 8.857 8.857v6.503h4.709c1.382 0 2.504.971 2.466 2.205zm-12.071-8.708c0-2.168-1.794-3.961-3.961-3.961s-3.961 1.794-3.961 3.961v6.503h7.923v-6.503z"/></svg>