<svg id="Layer_1" xmlns="http://www.w3.org/2000/svg" viewBox="0 0 100 88"><style>.st0{stroke:#000;stroke-width:4;stroke-linecap:round;stroke-linejoin:round;stroke-miterlimit:10}.st0,.st1{fill:none}</style><path d="M6.25 47.562c0-10.341 8.409-18.75 18.75-18.75.794 0 1.65.069 2.694.219.906.141 1.8-.263 2.484-.856.684-.594 1.072-1.581 1.072-2.487 0-10.341 8.409-18.75 18.75-18.75s18.75 8.409 18.753 18.644a6.908 6.908 0 0 0-.016.356 3.122 3.122 0 0 0 3.569 3.09c1.044-.147 1.9-.216 2.694-.216 10.341 0 18.75 8.409 18.75 18.75H100c0-13.85-11.384-25.2-25.194-25C73.262 10.247 62.728.688 50 .688c-12.659 0-23.153 9.459-24.772 21.875H25c-13.784 0-25 11.216-25 25s11.216 25 25 25h17l-6-6.25H25c-10.341-.001-18.75-8.41-18.75-18.751z"/><path d="M86.165 47.201c-2.709-2.699-6.291-4.186-10.085-4.186a14.197 14.197 0 0 0-10.061 4.161 13.87 13.87 0 0 0-9.936-4.159c-3.66 0-7.229 1.404-10.048 3.953l-.107.097-.103.102c-2.708 2.698-4.2 6.268-4.203 10.053-.002 3.798 1.495 7.385 4.213 10.097l20.162 20.143 4.24-4.225c2.638-2.627 5.27-5.256 7.901-7.886 2.674-2.671 5.348-5.341 8.025-8.01 2.716-2.705 4.211-6.281 4.211-10.07s-1.493-7.365-4.209-10.07zM81.931 63.09c-5.316 5.296-10.612 10.6-15.927 15.895L50.076 63.074c-3.259-3.253-3.277-8.406-.016-11.655 3.47-3.137 8.513-3.271 11.718 0l3.157 3.141c.566.559 1.587.559 2.153 0l3.141-3.109a8.245 8.245 0 0 1 11.703 0c3.26 3.249 3.26 8.39-.001 11.639z"/></svg>