<?xml version="1.0" encoding="utf-8"?>
<!-- Generator: Adobe Illustrator 21.0.2, SVG Export Plug-In . SVG Version: 6.00 Build 0)  -->
<svg version="1.1" id="Layer_1" xmlns="http://www.w3.org/2000/svg" xmlns:xlink="http://www.w3.org/1999/xlink" x="0px" y="0px"
	 viewBox="0 0 76 100" style="enable-background:new 0 0 76 100;" xml:space="preserve">
<path d="M75.343,30.377v-3.46L46.522,1v0.074H9.495c-4.885,0-8.842,3.955-8.842,8.837v80.25C0.654,95.047,4.61,99,9.495,99h57.012
	c4.879,0,8.836-3.953,8.836-8.839V30.38h0.003L75.343,30.377z M67.487,90.161c0,0.533-0.439,0.979-0.979,0.979H9.495
	c-0.548,0-0.986-0.446-0.986-0.979V9.911c0-0.54,0.438-0.982,0.986-0.982h37.025v21.452h20.966V90.161z"/>
<path d="M40.985,41.262c0.058-3.1-0.921-4.693-1.392-5.226c-0.854-1.114-2.218-1.779-3.618-1.766c-0.598,0-1.175,0.112-1.739,0.294
	c-1.506,0.486-2.712,1.634-3.322,3.092c-0.432,0.99-0.578,2.073-0.578,3.154c0.018,3.275,1.344,6.911,2.708,9.996
	c-1.519,5.911-3.99,12.904-6.58,18.671c-6.816,3.264-10.891,6.319-11.519,10.462c-0.044,0.196-0.044,0.431-0.044,0.632
	c-0.034,1.495,0.692,3.507,2.752,5.013c0.79,0.601,1.766,0.928,2.765,0.928c2.546-0.051,4.49-1.817,6.493-4.601
	c1.391-1.958,2.822-4.5,4.318-7.61c4.513-1.929,9.985-3.691,14.767-4.751c2.856,2.59,5.557,4.092,8.325,4.119
	c2.171,0.021,4.186-1.074,5.446-2.893c0.81-1.155,1.334-2.364,1.334-3.653c0.007-0.692-0.156-1.398-0.479-2.026
	c-1.215-2.268-3.754-2.964-6.834-2.958c-1.641,0-3.529,0.179-5.679,0.533c-2.977-3.315-6.087-7.964-8.369-12.539
	C40.661,46.12,40.985,43.312,40.985,41.262z M34.715,66.164c0.938-2.43,1.826-4.928,2.613-7.394
	c1.205,1.918,2.488,3.754,3.805,5.436C38.999,64.776,36.835,65.435,34.715,66.164z"/>
</svg>
