<svg xmlns="http://www.w3.org/2000/svg" viewBox="0 0 76 100"><path d="M75.343 30.377v-3.46L46.522 1v.074H9.495C4.61 1.074.653 5.029.653 9.911v80.25A8.837 8.837 0 0 0 9.495 99h57.012a8.835 8.835 0 0 0 8.836-8.839V30.38h.003l-.003-.003zm-7.856 59.784a.984.984 0 0 1-.979.979H9.495a.985.985 0 0 1-.986-.979V9.911c0-.54.438-.982.986-.982H46.52v21.452h20.966v59.78z"/><path d="M40.985 41.262c.058-3.1-.921-4.693-1.392-5.226a4.55 4.55 0 0 0-3.618-1.766c-.598 0-1.175.112-1.739.294-1.506.486-2.712 1.634-3.322 3.092-.432.99-.578 2.073-.578 3.154.018 3.275 1.344 6.911 2.708 9.996-1.519 5.911-3.99 12.904-6.58 18.671-6.816 3.264-10.891 6.319-11.519 10.462-.044.196-.044.431-.044.632-.034 1.495.692 3.507 2.752 5.013.79.601 1.766.928 2.765.928 2.546-.051 4.49-1.817 6.493-4.601 1.391-1.958 2.822-4.5 4.318-7.61 4.513-1.929 9.985-3.691 14.767-4.751 2.856 2.59 5.557 4.092 8.325 4.119 2.171.021 4.186-1.074 5.446-2.893.81-1.155 1.334-2.364 1.334-3.653a4.364 4.364 0 0 0-.479-2.026c-1.215-2.268-3.754-2.964-6.834-2.958-1.641 0-3.529.179-5.679.533-2.977-3.315-6.087-7.964-8.369-12.539.921-4.013 1.245-6.821 1.245-8.871zm-6.27 24.902c.938-2.43 1.826-4.928 2.613-7.394a64.656 64.656 0 0 0 3.805 5.436 96.132 96.132 0 0 0-6.418 1.958z"/></svg>