<?xml version="1.0" encoding="utf-8"?>
<!-- Generator: Adobe Illustrator 21.0.2, SVG Export Plug-In . SVG Version: 6.00 Build 0)  -->
<svg version="1.1" id="Layer_1" xmlns="http://www.w3.org/2000/svg" xmlns:xlink="http://www.w3.org/1999/xlink" x="0px" y="0px"
	 viewBox="0 0 76 100" style="enable-background:new 0 0 76 100;" xml:space="preserve">
<path d="M75.343,30.377v-3.46L46.522,1v0.074H9.495c-4.885,0-8.842,3.955-8.842,8.837v80.25C0.654,95.047,4.61,99,9.495,99h57.012
	c4.879,0,8.836-3.953,8.836-8.839V30.38h0.003L75.343,30.377z M67.487,90.161c0,0.533-0.439,0.979-0.979,0.979H9.495
	c-0.548,0-0.986-0.446-0.986-0.979V9.911c0-0.54,0.438-0.982,0.986-0.982h37.025v21.452h20.966V90.161z"/>
<g>
	<circle cx="19.5" cy="50.5" r="5"/>
	<circle cx="38" cy="50" r="5"/>
	<circle cx="56.5" cy="50.5" r="5"/>
</g>
</svg>
