<?xml version="1.0" encoding="utf-8"?>
<!-- Generator: Adobe Illustrator 21.0.2, SVG Export Plug-In . SVG Version: 6.00 Build 0)  -->
<svg version="1.1" id="Layer_1" xmlns="http://www.w3.org/2000/svg" xmlns:xlink="http://www.w3.org/1999/xlink" x="0px" y="0px"
	 viewBox="0 0 100 100" style="enable-background:new 0 0 100 100;" xml:space="preserve">
<style type="text/css">
	.st0{display:none;}
	.st1{display:none;fill:none;stroke:#000000;stroke-width:5;stroke-miterlimit:10;}
	.st2{display:none;fill:none;stroke:#000000;stroke-width:5;stroke-linejoin:round;stroke-miterlimit:10;}
</style>
<g>
	<path d="M85.899,1H14.101C6.88,1,1,6.88,1,14.101v71.798C1,93.12,6.88,99,14.101,99h71.798C93.12,99,99,93.12,99,85.899V14.101
		C99,6.88,93.12,1,85.899,1z M14.101,8.324h71.798c3.198,0,5.777,2.579,5.777,5.777v38.272L75.067,31.432
		c-1.96-2.579-5.88-2.579-7.84,0L42.985,62.069L32.876,51.032c-2.063-2.269-5.674-2.269-7.737,0L8.324,69.29V14.101
		C8.324,10.903,10.903,8.324,14.101,8.324z"/>
	<circle cx="26.274" cy="26.274" r="8.253"/>
</g>
</svg>
