<svg id="Layer_1" xmlns="http://www.w3.org/2000/svg" viewBox="0 0 100 100"><style>.st0{stroke:#000;stroke-width:4;stroke-linecap:round;stroke-linejoin:round;stroke-miterlimit:10}.st0,.st1{fill:none}</style><path d="M58.504 11.535h-.23a3.119 3.119 0 0 0-3.089 3.129V55.2l-28.67 28.67a3.11 3.11 0 0 0 .13 4.549 43.605 43.605 0 0 0 28.54 10.566c.76 0 1.523-.02 2.289-.06 24.149-1.248 42.714-21.837 41.466-45.987-1.138-22.022-18.476-39.761-40.466-41.403h.03zm30.24 44.985c-.76 17.294-14.478 31.21-31.759 32.219h-1.769a33.603 33.603 0 0 1-15.435-3.749l22.622-22.572a10.204 10.204 0 0 0 2.999-7.217v-31.99c14.4 4.564 23.962 18.205 23.342 33.298v.011zm-47.923-.08L17.109 79.182a2.679 2.679 0 0 1-4.109-.42 43.45 43.45 0 0 1-7.207-21.353 2.68 2.68 0 0 1 2.679-2.829h31.599a1.079 1.079 0 0 1 .739 1.85l.011.01zm2.529-11.696H3.514a2.51 2.51 0 0 1-2.51-2.659C2.344 19.983 19.969 2.358 42.07 1.019a2.509 2.509 0 0 1 2.645 2.365c.002.045.004.089.004.134v39.846a1.37 1.37 0 0 1-1.37 1.37l.001.01z"/></svg>