<?xml version="1.0" encoding="utf-8"?>
<!-- Generator: Adobe Illustrator 21.0.2, SVG Export Plug-In . SVG Version: 6.00 Build 0)  -->
<svg version="1.1" id="Layer_1" xmlns="http://www.w3.org/2000/svg" xmlns:xlink="http://www.w3.org/1999/xlink" x="0px" y="0px"
	 viewBox="0 0 100 100" style="enable-background:new 0 0 100 100;" xml:space="preserve">
<style type="text/css">
	.st0{display:none;}
	.st1{display:none;fill:none;stroke:#000000;stroke-width:5;stroke-miterlimit:10;}
	.st2{display:none;fill:none;stroke:#000000;stroke-width:5;stroke-linejoin:round;stroke-miterlimit:10;}
</style>
<g>
	<path d="M50.011,99c-2.306,0-4.535-1.262-5.656-3.453L21.799,52.953c-2.414-4.559-4.647-9.888-4.647-17.952
		C17.152,15.3,30.967,1,50,1s32.848,14.3,32.848,34.001c0,8.064-2.233,13.394-4.647,17.952L55.618,95.599
		c-0.582,1.142-1.538,2.098-2.735,2.709C51.963,98.778,50.98,99,50.011,99z M48.485,91.83c-0.009,0.015-0.017,0.031-0.025,0.047
		L48.485,91.83z M51.49,91.782l0.021,0.04C51.505,91.809,51.498,91.796,51.49,91.782z M50,9.068
		c-14.359,0-24.78,10.906-24.78,25.933c0,5.972,1.419,9.851,3.709,14.176L50,88.968l21.072-39.791
		c2.289-4.324,3.709-8.204,3.709-14.176C74.78,19.974,64.359,9.068,50,9.068z"/>
	<path d="M50,51.713c-9.851,0-17.865-8.014-17.865-17.865S40.149,15.984,50,15.984s17.865,8.014,17.865,17.865
		S59.851,51.713,50,51.713z M50,24.052c-5.402,0-9.797,4.395-9.797,9.797s4.395,9.797,9.797,9.797s9.797-4.395,9.797-9.797
		S55.402,24.052,50,24.052z"/>
</g>
</svg>
