<svg id="Layer_1" xmlns="http://www.w3.org/2000/svg" viewBox="0 0 100 100"><style>.st0,.st1,.st2{display:none}.st1,.st2{fill:none;stroke:#000;stroke-width:5;stroke-miterlimit:10}.st2{stroke-linejoin:round}</style><path d="M50.011 99a6.35 6.35 0 0 1-5.656-3.453L21.799 52.953c-2.414-4.559-4.647-9.888-4.647-17.952C17.152 15.3 30.967 1 50 1s32.848 14.3 32.848 34.001c0 8.064-2.233 13.394-4.647 17.952L55.618 95.599a6.249 6.249 0 0 1-2.735 2.709c-.92.47-1.903.692-2.872.692zm-1.526-7.17a.699.699 0 0 0-.025.047l.025-.047zm3.005-.048l.021.04a.52.52 0 0 0-.021-.04zM50 9.068c-14.359 0-24.78 10.906-24.78 25.933 0 5.972 1.419 9.851 3.709 14.176L50 88.968l21.072-39.791c2.289-4.324 3.709-8.204 3.709-14.176C74.78 19.974 64.359 9.068 50 9.068z"/><path d="M50 51.713c-9.851 0-17.865-8.014-17.865-17.865S40.149 15.984 50 15.984s17.865 8.014 17.865 17.865S59.851 51.713 50 51.713zm0-27.661c-5.402 0-9.797 4.395-9.797 9.797s4.395 9.797 9.797 9.797 9.797-4.395 9.797-9.797-4.395-9.797-9.797-9.797z"/></svg>