<?xml version="1.0" encoding="utf-8"?>
<!-- Generator: Adobe Illustrator 22.0.1, SVG Export Plug-In . SVG Version: 6.00 Build 0)  -->
<svg version="1.1" id="Layer_1" xmlns="http://www.w3.org/2000/svg" xmlns:xlink="http://www.w3.org/1999/xlink" x="0px" y="0px"
	 viewBox="0 0 100 100" style="enable-background:new 0 0 100 100;" xml:space="preserve">
<style type="text/css">
	.st0{fill:none;stroke:#000000;stroke-width:4;stroke-linecap:round;stroke-linejoin:round;stroke-miterlimit:10;}
	.st1{fill:none;}
	.st2{display:none;}
	.st3{fill:#F4623B;}
	.st4{fill:#FDEBE6;}
	.st5{fill:#F8C4B7;}
</style>
<path d="M49.987,1C24.921,1.002,4.603,21.323,4.604,46.389c0.001,12.829,5.431,25.058,14.947,33.662
	c1.304,1.124,3.272,0.978,4.396-0.326c1.087-1.262,0.991-3.155-0.219-4.299C7.687,60.916,6.445,36.15,20.955,20.109
	S60.23,2.825,76.271,17.335s17.283,39.275,2.774,55.317c-0.878,0.97-1.804,1.896-2.774,2.774c-1.251,1.183-1.305,3.156-0.122,4.407
	c1.144,1.21,3.038,1.306,4.299,0.219c18.593-16.811,20.037-45.511,3.227-64.104C75.065,6.425,62.825,0.994,49.987,1z M49.987,21.885
	C35.67,21.899,24.066,33.502,24.053,47.82c-0.02,5.564,1.775,10.984,5.112,15.436c1.033,1.377,2.987,1.656,4.364,0.623
	s1.656-2.987,0.623-4.364c-2.525-3.375-3.881-7.481-3.865-11.696c0.003-10.88,8.826-19.698,19.706-19.694
	c10.876,0.003,19.691,8.819,19.694,19.694c0.01,4.22-1.351,8.328-3.878,11.708c-1.033,1.377-0.754,3.331,0.623,4.364
	c1.377,1.033,3.331,0.754,4.364-0.623c3.325-4.454,5.114-9.866,5.1-15.424C75.897,33.527,64.305,21.912,49.987,21.885z M50,36.224
	c5.557,0,10.062,4.505,10.062,10.062S55.557,56.348,50,56.348s-10.062-4.505-10.062-10.062S44.443,36.224,50,36.224z M52.082,64.415
	H47.88c-4.473,0.007-8.098,3.631-8.105,8.105c0,0.309,0.046,0.615,0.137,0.91l7.07,23.366c0.505,1.646,2.249,2.571,3.894,2.066
	c0.988-0.303,1.762-1.077,2.066-2.066l7.095-23.366c0.091-0.295,0.137-0.602,0.137-0.91C60.167,68.052,56.55,64.429,52.082,64.415z"
	/>
</svg>
