<svg id="Layer_1" xmlns="http://www.w3.org/2000/svg" viewBox="0 0 84 100"><style>.st0,.st1,.st2{display:none}.st1,.st2{fill:none;stroke:#000;stroke-width:5;stroke-miterlimit:10}.st2{stroke-linejoin:round}</style><path d="M19.777 30.443c.116.198.218.392.318.582.112.218.234.438.429.793l.707 1.299c.116.198.22.381.339.608l.506.93c.203.367.581.758.953.992.315.207.695.316 1.095.316.707 0 1.448-.334 1.938-.88.234-.263.465-.535.695-.807l.47-.552c.682-.82 1.375-1.638 2.07-2.454l2.415-2.858c.608-.725 1.214-1.451 1.845-2.18l.733-.892c.676-.718.464-1.559.153-1.946-.544-.687-1.394-.854-2.038-.383-.495.37-.935.786-1.367 1.196-.71.658-1.43 1.304-2.155 1.954l-.783.719c-.53.487-1.062.976-1.601 1.464l-2.195 2-2.593-2.728c-.416-.337-.79-.403-1.185-.397a1.91 1.91 0 0 0-.899.389c-.332.286-.528.71-.528 1.166.011.256.06.481.127.623l.551 1.046zm0 21.117c.116.198.218.392.318.582.104.203.218.408.326.604l.81 1.487c.116.198.22.381.334.598l.511.937c.201.369.579.761.953.995.316.206.695.315 1.095.315.707 0 1.448-.335 1.938-.88.234-.263.465-.535.695-.807l.47-.552c.684-.82 1.375-1.638 2.07-2.456l2.416-2.856c.606-.725 1.212-1.451 1.843-2.18l.733-.892c.676-.717.464-1.559.153-1.948-.547-.69-1.394-.853-2.038-.381-.495.37-.935.786-1.367 1.196-.71.658-1.43 1.304-2.155 1.952l-.812.748c-.521.479-1.043.959-1.571 1.435l-2.195 2-2.592-2.726c-.418-.34-.802-.421-1.193-.399-.318.047-.628.18-.892.389-.332.286-.528.71-.528 1.166.011.256.06.481.127.623l.551 1.05zm21.101-19.207h23.451a2.389 2.389 0 0 0 2.386-2.386 2.389 2.389 0 0 0-2.386-2.386H40.878a2.389 2.389 0 0 0-2.386 2.386 2.39 2.39 0 0 0 2.386 2.386zM64.329 48.08H40.878a2.389 2.389 0 0 0-2.386 2.386 2.389 2.389 0 0 0 2.386 2.386h23.451a2.389 2.389 0 0 0 2.386-2.386 2.389 2.389 0 0 0-2.386-2.386zm0 20.5H40.878a2.389 2.389 0 0 0-2.386 2.386 2.389 2.389 0 0 0 2.386 2.386h23.451a2.389 2.389 0 0 0 2.386-2.386 2.388 2.388 0 0 0-2.386-2.386zm-38.193-6.464c-4.881 0-8.851 3.971-8.851 8.85 0 4.88 3.971 8.85 8.851 8.85s8.848-3.971 8.848-8.85c0-4.88-3.968-8.85-8.848-8.85zm5.533 8.85a5.54 5.54 0 0 1-5.533 5.533 5.54 5.54 0 0 1-5.535-5.533 5.541 5.541 0 0 1 5.535-5.535 5.54 5.54 0 0 1 5.533 5.535z"/><path d="M72.2 1.032H11.78C5.767 1.032.855 5.926.855 11.957v76.13c0 6.032 4.913 10.944 10.925 10.944H72.2c6.032 0 10.944-4.913 10.944-10.944v-76.13C83.145 5.926 78.232 1.032 72.2 1.032zm5.336 87.056c0 2.934-2.402 5.334-5.334 5.334H11.781c-2.933 0-5.316-2.402-5.316-5.334v-76.13a5.32 5.32 0 0 1 5.316-5.316H72.2c2.933 0 5.334 2.383 5.334 5.316v76.13h.002z"/></svg>