<?xml version="1.0" encoding="utf-8"?>
<!-- Generator: Adobe Illustrator 21.0.2, SVG Export Plug-In . SVG Version: 6.00 Build 0)  -->
<svg version="1.1" id="Layer_1" xmlns="http://www.w3.org/2000/svg" xmlns:xlink="http://www.w3.org/1999/xlink" x="0px" y="0px"
	 viewBox="0 0 84 100" style="enable-background:new 0 0 84 100;" xml:space="preserve">
<style type="text/css">
	.st0{display:none;}
	.st1{display:none;fill:none;stroke:#000000;stroke-width:5;stroke-miterlimit:10;}
	.st2{display:none;fill:none;stroke:#000000;stroke-width:5;stroke-linejoin:round;stroke-miterlimit:10;}
</style>
<g>
	<g>
		<g>
			<g>
				<path d="M19.777,30.443c0.116,0.198,0.218,0.392,0.318,0.582c0.112,0.218,0.234,0.438,0.429,0.793l0.707,1.299
					c0.116,0.198,0.22,0.381,0.339,0.608l0.506,0.93c0.203,0.367,0.581,0.758,0.953,0.992c0.315,0.207,0.695,0.316,1.095,0.316
					c0.707,0,1.448-0.334,1.938-0.88c0.234-0.263,0.465-0.535,0.695-0.807l0.47-0.552c0.682-0.82,1.375-1.638,2.07-2.454
					l2.415-2.858c0.608-0.725,1.214-1.451,1.845-2.18l0.733-0.892c0.676-0.718,0.464-1.559,0.153-1.946
					c-0.544-0.687-1.394-0.854-2.038-0.383c-0.495,0.37-0.935,0.786-1.367,1.196c-0.71,0.658-1.43,1.304-2.155,1.954L28.1,26.88
					c-0.53,0.487-1.062,0.976-1.601,1.464l-2.195,2l-2.593-2.728c-0.416-0.337-0.79-0.403-1.185-0.397
					c-0.32,0.047-0.631,0.179-0.899,0.389c-0.332,0.286-0.528,0.71-0.528,1.166c0.011,0.256,0.06,0.481,0.127,0.623L19.777,30.443z"
					/>
				<path d="M19.777,51.56c0.116,0.198,0.218,0.392,0.318,0.582c0.104,0.203,0.218,0.408,0.326,0.604l0.81,1.487
					c0.116,0.198,0.22,0.381,0.334,0.598l0.511,0.937c0.201,0.369,0.579,0.761,0.953,0.995c0.316,0.206,0.695,0.315,1.095,0.315
					c0.707,0,1.448-0.335,1.938-0.88c0.234-0.263,0.465-0.535,0.695-0.807l0.47-0.552c0.684-0.82,1.375-1.638,2.07-2.456
					l2.416-2.856c0.606-0.725,1.212-1.451,1.843-2.18l0.733-0.892c0.676-0.717,0.464-1.559,0.153-1.948
					c-0.547-0.69-1.394-0.853-2.038-0.381c-0.495,0.37-0.935,0.786-1.367,1.196c-0.71,0.658-1.43,1.304-2.155,1.952l-0.812,0.748
					c-0.521,0.479-1.043,0.959-1.571,1.435l-2.195,2l-2.592-2.726c-0.418-0.34-0.802-0.421-1.193-0.399
					c-0.318,0.047-0.628,0.18-0.892,0.389c-0.332,0.286-0.528,0.71-0.528,1.166c0.011,0.256,0.06,0.481,0.127,0.623L19.777,51.56z"
					/>
				<path d="M40.878,32.353h23.451c1.316,0,2.386-1.071,2.386-2.386c0-1.316-1.071-2.386-2.386-2.386H40.878
					c-1.316,0-2.386,1.071-2.386,2.386C38.492,31.282,39.563,32.353,40.878,32.353z"/>
				<path d="M64.329,48.08H40.878c-1.316,0-2.386,1.071-2.386,2.386c0,1.316,1.071,2.386,2.386,2.386h23.451
					c1.316,0,2.386-1.071,2.386-2.386C66.715,49.151,65.645,48.08,64.329,48.08z"/>
				<path d="M64.329,68.58H40.878c-1.316,0-2.386,1.071-2.386,2.386c0,1.316,1.071,2.386,2.386,2.386h23.451
					c1.316,0,2.386-1.071,2.386-2.386C66.715,69.65,65.645,68.58,64.329,68.58z"/>
				<path d="M26.136,62.116c-4.881,0-8.851,3.971-8.851,8.85c0,4.88,3.971,8.85,8.851,8.85s8.848-3.971,8.848-8.85
					C34.984,66.086,31.016,62.116,26.136,62.116z M31.669,70.966c0,3.051-2.483,5.533-5.533,5.533c-3.052,0-5.535-2.483-5.535-5.533
					c0-3.052,2.483-5.535,5.535-5.535C29.187,65.431,31.669,67.914,31.669,70.966z"/>
			</g>
		</g>
		<path d="M72.2,1.032h-60.42c-6.013,0-10.925,4.894-10.925,10.925v76.13c0,6.032,4.913,10.944,10.925,10.944H72.2
			c6.032,0,10.944-4.913,10.944-10.944v-76.13C83.145,5.926,78.232,1.032,72.2,1.032z M77.536,88.088
			c0,2.934-2.402,5.334-5.334,5.334H11.781c-2.933,0-5.316-2.402-5.316-5.334v-76.13c0-2.933,2.383-5.316,5.316-5.316H72.2
			c2.933,0,5.334,2.383,5.334,5.316v76.13H77.536z"/>
	</g>
</g>
</svg>
