<?xml version="1.0" encoding="utf-8"?>
<!-- Generator: Adobe Illustrator 22.0.1, SVG Export Plug-In . SVG Version: 6.00 Build 0)  -->
<svg version="1.1" id="Layer_1" xmlns="http://www.w3.org/2000/svg" xmlns:xlink="http://www.w3.org/1999/xlink" x="0px" y="0px"
	 viewBox="0 0 100 100" style="enable-background:new 0 0 100 100;" xml:space="preserve">
<style type="text/css">
	.st0{fill:none;stroke:#000000;stroke-width:4;stroke-linecap:round;stroke-linejoin:round;stroke-miterlimit:10;}
	.st1{fill:none;}
	.st2{display:none;}
	.st3{fill:#F4623B;}
	.st4{fill:#FDEBE6;}
	.st5{fill:#F8C4B7;}
</style>
<path class="st2" d="M-17.418-12.5v142h130v-142H-17.418z M50,100.5c-27.062,0-49-21.938-49-49s21.938-49,49-49
	c27.062,0,49,21.938,49,49S77.062,100.5,50,100.5z"/>
<g>
	<circle class="st3" cx="50" cy="50" r="49"/>
	<path class="st4" d="M31.95,56.335c0,0,4.137-1.394,5.972-1.882c1.641-0.442,3.218-0.884,4.764-1.356
		c12.979-3.779,22.011-7.715,28.429-12.393c1.806-1.276,3.429-2.648,4.832-4.08c5.211-5.232,8.731-11.462,10.739-19.09
		c-2.606-2.943-5.56-5.569-8.799-7.816c-4.703,1.778-11.233,4.094-20.315,7.125c-3.764,1.246-7.759,2.317-11.987,3.451l-2.536,0.682
		c-12.644,3.451-24.703,7.315-33.261,16.551C5.832,41.793,2.953,46.927,1.1,53.002c0.463,7.646,2.68,14.814,6.252,21.117
		C11.679,67.58,19.134,60.9,31.95,56.335z"/>
	<path class="st5" d="M40.525,91.57c1.327-0.358,2.603-0.715,3.853-1.097c10.496-3.056,17.799-6.239,22.99-10.022
		c1.46-1.032,2.772-2.141,3.907-3.299c6.305-6.332,9.565-14.454,10.217-25.499c-2.081,1.235-8.034,3.815-25.076,9.503
		c-3.043,1.008-6.274,1.874-9.693,2.791L44.671,64.5c-10.225,2.791-19.976,5.916-26.897,13.384c-1.478,1.594-2.768,3.338-3.88,5.236
		c4.691,5.111,10.451,9.225,16.928,11.983c1.511-0.711,3.125-1.387,4.874-2.01C35.696,93.092,39.041,91.964,40.525,91.57z"/>
</g>
</svg>
