<?xml version="1.0" encoding="utf-8"?>
<!-- Generator: Adobe Illustrator 21.0.2, SVG Export Plug-In . SVG Version: 6.00 Build 0)  -->
<svg version="1.1" id="Layer_1" xmlns="http://www.w3.org/2000/svg" xmlns:xlink="http://www.w3.org/1999/xlink" x="0px" y="0px"
	 viewBox="0 0 100 92" style="enable-background:new 0 0 100 92;" xml:space="preserve">
<path d="M56.227,70.545h28.636c1.129,0,2.045-0.916,2.045-2.045V35.773c0-1.129-0.916-2.045-2.045-2.045H56.227
	c-1.129,0-2.045,0.916-2.045,2.045V68.5C54.182,69.629,55.098,70.545,56.227,70.545z"/>
<path d="M88.955,1H11.227C5.586,1,1,5.59,1,11.227v69.545C1,86.41,5.586,91,11.227,91h77.727c5.641,0,10.227-4.59,10.227-10.227
	V11.227C99.182,5.59,94.596,1,88.955,1z M49.681,7.351c2.485,0,4.5,2.016,4.5,4.5c0,2.484-2.015,4.5-4.5,4.5
	c-2.484,0-4.499-2.016-4.499-4.5C45.182,9.367,47.198,7.351,49.681,7.351z M31.682,7.351c2.484,0,4.5,2.016,4.5,4.5
	c0,2.484-2.016,4.5-4.5,4.5s-4.5-2.016-4.5-4.5C27.181,9.367,29.198,7.351,31.682,7.351z M13.682,7.351
	c2.484,0,4.499,2.016,4.499,4.5c0,2.484-2.015,4.5-4.499,4.5c-2.485,0-4.5-2.016-4.5-4.5C9.182,9.367,11.197,7.351,13.682,7.351z
	 M95.091,80.773c0,3.383-2.753,6.136-6.136,6.136H13.273h-2.045c-3.384,0-6.136-2.753-6.136-6.136V21.455h90V80.773z"/>
</svg>
