<svg xmlns="http://www.w3.org/2000/svg" viewBox="0 0 100 92"><path d="M56.227 70.545h28.636a2.046 2.046 0 0 0 2.045-2.045V35.773a2.046 2.046 0 0 0-2.045-2.045H56.227a2.046 2.046 0 0 0-2.045 2.045V68.5c0 1.129.916 2.045 2.045 2.045z"/><path d="M88.955 1H11.227C5.586 1 1 5.59 1 11.227v69.545C1 86.41 5.586 91 11.227 91h77.727c5.641 0 10.227-4.59 10.227-10.227V11.227C99.182 5.59 94.596 1 88.955 1zM49.681 7.351a4.501 4.501 0 0 1 0 9 4.5 4.5 0 0 1 0-9zm-17.999 0c2.484 0 4.5 2.016 4.5 4.5s-2.016 4.5-4.5 4.5-4.5-2.016-4.5-4.5a4.501 4.501 0 0 1 4.5-4.5zm-18 0a4.5 4.5 0 0 1 0 9 4.501 4.501 0 0 1 0-9zm81.409 73.422a6.143 6.143 0 0 1-6.136 6.136H11.228a6.143 6.143 0 0 1-6.136-6.136V21.455h90v59.318z"/></svg>