<svg id="Layer_1" xmlns="http://www.w3.org/2000/svg" viewBox="0 0 100 100"><style>.st0{stroke:#000;stroke-width:4;stroke-linecap:round;stroke-linejoin:round;stroke-miterlimit:10}.st0,.st1{fill:none}</style><path d="M86.696 36.008v-9.364c0-1.307-.436-2.287-1.198-3.049L64.482 2.579c-.871-.653-1.742-1.198-3.158-1.198H17.769c-2.396 0-4.247 1.96-4.247 4.356v30.271H5.356C2.96 36.008 1 38.077 1 40.581V80.87c0 2.287 1.96 4.247 4.356 4.247h8.058v9.147c0 2.396 1.96 4.356 4.247 4.356h64.462c2.504 0 4.464-1.96 4.464-4.356v-9.147h8.058c2.504 0 4.356-1.96 4.356-4.247V40.581c0-2.504-1.851-4.573-4.356-4.573h-7.949zM22.233 89.472V61.27h55.751v28.202H22.233zm0-53.464V10.201H56.86v16.442c0 2.504 2.069 4.464 4.464 4.464h16.66v5.009H22.233v-.108zm64.463 16.986c-2.504 0-4.356-2.069-4.356-4.682 0-2.396 1.96-4.464 4.356-4.464 2.504 0 4.464 2.069 4.464 4.464 0 2.614-1.96 4.682-4.464 4.682zM28.767 66.279v6.533h42.249v-6.533H28.767zm0 10.562v6.424h42.249v-6.424H28.767z"/></svg>