<?xml version="1.0" encoding="utf-8"?>
<!-- Generator: Adobe Illustrator 21.0.2, SVG Export Plug-In . SVG Version: 6.00 Build 0)  -->
<svg version="1.1" id="Layer_1" xmlns="http://www.w3.org/2000/svg" xmlns:xlink="http://www.w3.org/1999/xlink" x="0px" y="0px"
	 viewBox="0 0 100 100" style="enable-background:new 0 0 100 100;" xml:space="preserve">
<path d="M50,1L50,1C22.977,1,1,22.977,1,50s21.977,49,49,49s49-21.977,49-49S77.023,1,50,1z M50,92.467
	C26.508,92.467,7.533,73.492,7.533,50C7.533,26.508,26.508,7.533,50,7.533v0c23.492,0,42.467,18.974,42.467,42.467
	S73.492,92.467,50,92.467z"/>
<path d="M53.907,59.367h-7.8v-4.22c-0.087-1.417,0.135-2.837,0.65-4.16c0.771-1.325,1.739-2.525,2.87-3.56l5-5
	c1.065-1.166,1.635-2.701,1.59-4.28c0.047-1.583-0.552-3.118-1.66-4.25c-1.129-1.136-2.68-1.748-4.28-1.69
	c-1.618-0.051-3.193,0.53-4.39,1.62c-1.185,1.138-1.899,2.68-2,4.32h-8.36c0.268-3.72,1.993-7.184,4.8-9.64
	c2.878-2.388,6.532-3.641,10.27-3.52c3.632-0.153,7.193,1.04,10,3.35c2.58,2.233,3.87,5.353,3.87,9.36
	c0.088,2.501-0.721,4.952-2.28,6.91c-0.626,0.817-1.293,1.602-2,2.35c-0.46,0.46-1.07,1.047-1.83,1.76s-1.407,1.337-1.94,1.87
	c-0.533,0.533-0.96,0.983-1.28,1.35c-0.899,1.242-1.338,2.759-1.24,4.29L53.907,59.367z M55.437,69.587
	c0.006,2.999-2.421,5.434-5.42,5.44c-2.999,0.006-5.434-2.421-5.44-5.42s2.421-5.434,5.42-5.44c0.003,0,0.007,0,0.01,0
	C53.002,64.167,55.431,66.592,55.437,69.587z"/>
</svg>
