<svg xmlns="http://www.w3.org/2000/svg" viewBox="0 0 100 100"><path d="M50 1C22.977 1 1 22.977 1 50s21.977 49 49 49 49-21.977 49-49S77.023 1 50 1zm0 91.467C26.508 92.467 7.533 73.492 7.533 50 7.533 26.508 26.508 7.533 50 7.533c23.492 0 42.467 18.974 42.467 42.467S73.492 92.467 50 92.467z"/><path d="M53.907 59.367h-7.8v-4.22a9.813 9.813 0 0 1 .65-4.16 15.165 15.165 0 0 1 2.87-3.56l5-5a6.09 6.09 0 0 0 1.59-4.28 5.83 5.83 0 0 0-1.66-4.25 5.74 5.74 0 0 0-4.28-1.69 6.23 6.23 0 0 0-4.39 1.62 6.548 6.548 0 0 0-2 4.32h-8.36a14.161 14.161 0 0 1 4.8-9.64 15.31 15.31 0 0 1 10.27-3.52 14.76 14.76 0 0 1 10 3.35c2.58 2.233 3.87 5.353 3.87 9.36a10.502 10.502 0 0 1-2.28 6.91 29.851 29.851 0 0 1-2 2.35c-.46.46-1.07 1.047-1.83 1.76s-1.407 1.337-1.94 1.87c-.533.533-.96.983-1.28 1.35a6.598 6.598 0 0 0-1.24 4.29l.01 3.14zm1.53 10.22a5.43 5.43 0 1 1-5.44-5.42h.01a5.43 5.43 0 0 1 5.43 5.42z"/></svg>