<?xml version="1.0" encoding="utf-8"?>
<!-- Generator: Adobe Illustrator 21.0.2, SVG Export Plug-In . SVG Version: 6.00 Build 0)  -->
<svg version="1.1" id="Layer_1" xmlns="http://www.w3.org/2000/svg" xmlns:xlink="http://www.w3.org/1999/xlink" x="0px" y="0px"
	 viewBox="0 0 99 100" style="enable-background:new 0 0 99 100;" xml:space="preserve">
<path d="M96.623,91.987L63.304,58.668c5.065-6.1,8.115-13.929,8.115-22.459C71.419,16.795,55.624,1,36.21,1S1,16.795,1,36.21
	s15.795,35.21,35.21,35.21c7.93,0,15.255-2.638,21.148-7.079l33.457,33.457C91.617,98.599,92.668,99,93.719,99
	c1.051,0,2.102-0.401,2.904-1.203C98.228,96.193,98.228,93.592,96.623,91.987z M9.216,36.21c0-14.884,12.109-26.994,26.994-26.994
	s26.994,12.11,26.994,26.994S51.095,63.204,36.21,63.204S9.216,51.094,9.216,36.21z"/>
</svg>
