<svg xmlns="http://www.w3.org/2000/svg" viewBox="0 0 73 100"><path d="M68.914 31.908H47.949a3.392 3.392 0 1 0 0 6.784h17.573v53.523H7.478V38.692h17.573a3.392 3.392 0 1 0 0-6.784H4.086A3.392 3.392 0 0 0 .694 35.3v60.308A3.392 3.392 0 0 0 4.086 99h64.828a3.392 3.392 0 0 0 3.392-3.392V35.3a3.392 3.392 0 0 0-3.392-3.392zm-45.167-9.964l9.36-9.361v54.849a3.392 3.392 0 1 0 6.784 0v-54.85l9.36 9.36c.663.663 1.531.994 2.398.994s1.736-.331 2.398-.994a3.391 3.391 0 0 0 0-4.797L38.903 1.998C38.289 1.382 37.439 1 36.5 1s-1.789.382-2.403.998L18.95 17.146a3.391 3.391 0 1 0 4.797 4.798z"/></svg>