<?xml version="1.0" encoding="utf-8"?>
<!-- Generator: Adobe Illustrator 21.0.2, SVG Export Plug-In . SVG Version: 6.00 Build 0)  -->
<svg version="1.1" id="Layer_1" xmlns="http://www.w3.org/2000/svg" xmlns:xlink="http://www.w3.org/1999/xlink" x="0px" y="0px"
	 viewBox="0 0 73 100" style="enable-background:new 0 0 73 100;" xml:space="preserve">
<path d="M68.914,31.908H47.949c-1.874,0-3.392,1.519-3.392,3.392c0,1.874,1.519,3.392,3.392,3.392h17.573v53.523H7.478V38.692
	h17.573c1.874,0,3.392-1.519,3.392-3.392c0-1.874-1.519-3.392-3.392-3.392H4.086c-1.874,0-3.392,1.519-3.392,3.392v60.308
	C0.694,97.481,2.212,99,4.086,99h64.828c1.874,0,3.392-1.519,3.392-3.392V35.3C72.306,33.427,70.788,31.908,68.914,31.908z
	 M23.747,21.944l9.36-9.361v54.849c0,1.874,1.519,3.392,3.392,3.392s3.392-1.519,3.392-3.392V12.582l9.36,9.36
	c0.663,0.663,1.531,0.994,2.398,0.994s1.736-0.331,2.398-0.994c1.325-1.324,1.325-3.471,0-4.797L38.903,1.998
	C38.289,1.382,37.439,1,36.5,1s-1.789,0.382-2.403,0.998L18.95,17.146c-1.325,1.325-1.325,3.473,0,4.797
	C20.275,23.268,22.422,23.268,23.747,21.944z"/>
</svg>
