<?xml version="1.0" encoding="utf-8"?>
<!-- Generator: Adobe Illustrator 21.0.2, SVG Export Plug-In . SVG Version: 6.00 Build 0)  -->
<svg version="1.1" id="Layer_1" xmlns="http://www.w3.org/2000/svg" xmlns:xlink="http://www.w3.org/1999/xlink" x="0px" y="0px"
	 viewBox="0 0 100 90" style="enable-background:new 0 0 100 90;" xml:space="preserve">
<path d="M17.178,89.112V21.257h-5.005C5.888,21.257,1,26.029,1,32.43v45.508c0,6.169,5.005,11.173,11.173,11.173 M87.827,89.112
	C93.995,89.112,99,84.107,99,77.938V32.43c0-6.401-5.121-11.173-11.173-11.173h-5.238v67.855 M38.361,11.131
	c0-2.561,2.095-4.656,4.656-4.656h13.967c2.561,0,4.656,2.095,4.656,4.656v4.423h5.587v-4.423c0-5.587-4.656-10.242-10.242-10.242
	H43.017c-5.587,0-10.242,4.656-10.242,10.242v4.423h5.587V11.131z M23.114,21.257v67.855h54.121V21.257H23.114z M61.29,57.221
	h-8.729v8.38c0,1.513-1.28,2.793-2.793,2.793s-2.793-1.28-2.793-2.793v-8.38h-8.38c-1.513,0-2.793-1.28-2.793-2.793
	s1.28-2.793,2.793-2.793h8.38v-9.311c0-1.513,1.28-2.793,2.793-2.793s2.793,1.28,2.793,2.793v9.311h8.729
	c1.513,0,2.793,1.28,2.793,2.793S62.803,57.221,61.29,57.221z"/>
</svg>
