<svg xmlns="http://www.w3.org/2000/svg" viewBox="0 0 69 100"><path d="M40.801 99H28.909a2.576 2.576 0 1 1 0-5.152H40.8A2.576 2.576 0 0 1 40.801 99zm5.152-8.895H23.757a2.576 2.576 0 1 1 0-5.152h22.195a2.576 2.576 0 0 1 .001 5.152zm-.027-8.897H23.728a2.576 2.576 0 0 1-2.576-2.576v-6.678c.004-1.184-.043-2.87-.487-3.946-.321-.775-1.018-1.692-1.961-2.582a2.31 2.31 0 0 1-.099-.099c-4.166-4.386-9.132-11.323-9.132-19.465 0-13.525 10.573-24.66 24.07-25.351.396-.022 1.289-.033 1.289-.033.454-.03.96.014 1.416.04l.01.001c13.415.767 23.924 11.9 23.924 25.344 0 8.14-4.965 15.077-9.13 19.464a2.405 2.405 0 0 1-.101.101c-.942.887-1.638 1.804-1.958 2.582-.338.819-.499 2.107-.491 3.934v6.689a2.576 2.576 0 0 1-2.576 2.575zm-19.622-5.152H43.35v-4.101c-.013-2.582.259-4.409.88-5.914.604-1.462 1.658-2.912 3.132-4.312 2.885-3.051 7.668-9.124 7.668-15.868 0-10.715-8.373-19.587-19.062-20.2a21.309 21.309 0 0 0-1.108-.032c-.004 0-.713.008-1.041.026-10.768.551-19.193 9.427-19.193 20.206 0 6.745 4.783 12.818 7.67 15.869 1.026.977 2.384 2.504 3.129 4.308.616 1.49.888 3.317.879 5.924v4.094zM11.343 25.754A2.57 2.57 0 0 1 9.522 25l-7.625-7.621a2.577 2.577 0 0 1 3.643-3.644l7.625 7.621a2.577 2.577 0 0 1-1.822 4.398zm45.965-.635a2.577 2.577 0 0 1-1.822-4.397l7.62-7.624a2.577 2.577 0 0 1 3.645 3.642l-7.62 7.624a2.568 2.568 0 0 1-1.823.755zm-31.067-8.2a2.577 2.577 0 0 1-2.487-1.91L20.966 4.598a2.576 2.576 0 1 1 4.976-1.333l2.789 10.411a2.576 2.576 0 0 1-2.49 3.243zm16.958-.352a2.575 2.575 0 0 1-2.489-3.244L43.502 2.91a2.575 2.575 0 1 1 4.976 1.334l-2.792 10.413a2.578 2.578 0 0 1-2.487 1.91z"/></svg>