<?xml version="1.0" encoding="utf-8"?>
<!-- Generator: Adobe Illustrator 21.0.2, SVG Export Plug-In . SVG Version: 6.00 Build 0)  -->
<svg version="1.1" id="Layer_1" xmlns="http://www.w3.org/2000/svg" xmlns:xlink="http://www.w3.org/1999/xlink" x="0px" y="0px"
	 viewBox="0 0 69 100" style="enable-background:new 0 0 69 100;" xml:space="preserve">
<path d="M40.801,99H28.909c-1.423,0-2.576-1.153-2.576-2.576c0-1.423,1.153-2.576,2.576-2.576h11.891
	c1.423,0,2.576,1.153,2.576,2.576C43.377,97.847,42.223,99,40.801,99z M45.953,90.105H23.757c-1.423,0-2.576-1.153-2.576-2.576
	c0-1.423,1.153-2.576,2.576-2.576h22.195c1.423,0,2.576,1.153,2.576,2.576C48.529,88.952,47.375,90.105,45.953,90.105z
	 M45.926,81.208H23.728c-1.423,0-2.576-1.153-2.576-2.576v-6.678c0.004-1.184-0.043-2.87-0.487-3.946
	c-0.321-0.775-1.018-1.692-1.961-2.582c-0.034-0.032-0.067-0.065-0.099-0.099c-4.166-4.386-9.132-11.323-9.132-19.465
	c0-13.525,10.573-24.66,24.07-25.351c0.396-0.022,1.289-0.033,1.289-0.033c0.454-0.03,0.96,0.014,1.416,0.04
	c0.004,0,0.006,0,0.01,0.001c13.415,0.767,23.924,11.9,23.924,25.344c0,8.14-4.965,15.077-9.13,19.464
	c-0.033,0.035-0.067,0.069-0.101,0.101c-0.942,0.887-1.638,1.804-1.958,2.582c-0.338,0.819-0.499,2.107-0.491,3.934v6.689
	C48.502,80.054,47.349,81.208,45.926,81.208z M26.304,76.056H43.35v-4.101c-0.013-2.582,0.259-4.409,0.88-5.914
	c0.604-1.462,1.658-2.912,3.132-4.312c2.885-3.051,7.668-9.124,7.668-15.868c0-10.715-8.373-19.587-19.062-20.2
	c-0.365-0.019-0.735-0.032-1.108-0.032c-0.004,0-0.713,0.008-1.041,0.026c-10.768,0.551-19.193,9.427-19.193,20.206
	c0,6.745,4.783,12.818,7.67,15.869c1.026,0.977,2.384,2.504,3.129,4.308c0.616,1.49,0.888,3.317,0.879,5.924V76.056z M11.343,25.754
	c-0.659,0-1.318-0.252-1.821-0.754l-7.625-7.621c-1.006-1.006-1.006-2.637-0.001-3.643c1.006-1.006,2.638-1.006,3.644-0.001
	l7.625,7.621c1.006,1.006,1.006,2.637,0.001,3.643C12.662,25.502,12.002,25.754,11.343,25.754z M57.308,25.119
	c-0.659,0-1.318-0.252-1.821-0.754c-1.006-1.006-1.006-2.637-0.001-3.643l7.62-7.624c1.006-1.006,2.638-1.006,3.644-0.001
	c1.006,1.006,1.006,2.637,0.001,3.643l-7.62,7.624C58.628,24.868,57.967,25.119,57.308,25.119z M26.241,16.919
	c-1.138,0-2.179-0.759-2.487-1.91L20.966,4.598c-0.369-1.374,0.448-2.787,1.821-3.155c1.381-0.37,2.786,0.448,3.155,1.822
	l2.789,10.411c0.369,1.374-0.448,2.787-1.821,3.155C26.685,16.89,26.461,16.919,26.241,16.919z M43.199,16.567
	c-0.22,0-0.445-0.028-0.668-0.089c-1.375-0.369-2.19-1.781-1.821-3.155L43.502,2.91c0.369-1.373,1.784-2.191,3.155-1.821
	c1.375,0.369,2.19,1.781,1.821,3.155l-2.792,10.413C45.378,15.808,44.336,16.567,43.199,16.567z"/>
</svg>
