<?xml version="1.0" encoding="utf-8"?>
<!-- Generator: Adobe Illustrator 21.0.2, SVG Export Plug-In . SVG Version: 6.00 Build 0)  -->
<svg version="1.1" id="Layer_1" xmlns="http://www.w3.org/2000/svg" xmlns:xlink="http://www.w3.org/1999/xlink" x="0px" y="0px"
	 viewBox="0 0 100 100" style="enable-background:new 0 0 100 100;" xml:space="preserve">
<g sketch:type="MSPage">
	<g sketch:type="MSArtboardGroup">
		<path sketch:type="MSShapeGroup" d="M90.091,90.091c0,4.92-4.001,8.909-8.909,8.909H9.909C4.989,99,1,94.999,1,90.091V18.818
			c0-4.92,4.001-8.909,8.909-8.909h55.715l-8.909,8.909H9.909v71.273h71.273V41.058l8.909-8.909V90.091L90.091,90.091z
			 M89.418,19.957L37.142,72.425l-13.869,4.302l4.28-13.926l52.276-52.468L89.418,19.957L89.418,19.957L89.418,19.957L89.418,19.957
			L89.418,19.957L89.418,19.957L89.418,19.957L89.418,19.957z M97.674,5.539c1.764,1.77,1.774,4.628-0.003,6.412l-3.197,3.208
			l-9.59-9.624l3.197-3.208c1.765-1.772,4.632-1.767,6.39-0.003L97.674,5.539L97.674,5.539z"/>
	</g>
</g>
</svg>
