<svg id="Layer_1" xmlns="http://www.w3.org/2000/svg" viewBox="0 0 100 100"><style>.st0{stroke:#000;stroke-width:4;stroke-linecap:round;stroke-linejoin:round;stroke-miterlimit:10}.st0,.st1{fill:none}</style><path d="M88.575 39.574c-5.016 0-9.22 3.601-10.198 8.34H63.391a13.419 13.419 0 0 0-2.477-5.896L71.08 31.853a9.296 9.296 0 0 0 4.984 1.466c5.158 0 9.384-4.226 9.384-9.384s-4.226-9.384-9.384-9.384c-5.157 0-9.383 4.226-9.383 9.384 0 1.825.52 3.538 1.434 4.984L57.982 39.054a13.459 13.459 0 0 0-5.896-2.444V21.624c4.738-.976 8.34-5.182 8.34-10.198C60.425 5.693 55.732 1.001 50 1.001c-5.733 0-10.425 4.692-10.425 10.425 0 5.016 3.601 9.22 8.34 10.198V36.61a13.468 13.468 0 0 0-5.897 2.444L31.886 28.921a9.321 9.321 0 0 0 1.434-4.984c0-5.157-4.227-9.384-9.384-9.384s-9.384 4.226-9.384 9.384 4.227 9.384 9.384 9.384a9.29 9.29 0 0 0 4.984-1.466L39.085 42.02a13.442 13.442 0 0 0-2.476 5.896H21.623c-.976-4.739-5.182-8.34-10.198-8.34C5.691 39.576 1 44.268 1 50.001c0 5.733 4.691 10.425 10.425 10.425 5.016 0 9.22-3.601 10.198-8.34h14.986a13.47 13.47 0 0 0 2.443 5.896L28.919 68.115a9.312 9.312 0 0 0-4.984-1.433c-5.157 0-9.384 4.226-9.384 9.384 0 5.157 4.227 9.384 9.384 9.384s9.384-4.226 9.384-9.384a9.303 9.303 0 0 0-1.466-4.986l10.165-10.165a13.426 13.426 0 0 0 5.897 2.477v14.986c-4.739.976-8.34 5.182-8.34 10.198 0 5.733 4.691 10.425 10.425 10.425 5.732 0 10.425-4.692 10.425-10.425 0-5.016-3.602-9.22-8.34-10.198V63.39a13.412 13.412 0 0 0 5.896-2.477l10.165 10.165a9.301 9.301 0 0 0-1.465 4.984c0 5.157 4.226 9.384 9.383 9.384 5.158 0 9.384-4.226 9.384-9.384 0-5.157-4.226-9.384-9.384-9.384a9.32 9.32 0 0 0-4.984 1.433L60.947 57.98a13.476 13.476 0 0 0 2.444-5.896h14.986c.976 4.739 5.182 8.34 10.198 8.34C94.308 60.424 99 55.732 99 49.999c0-5.733-4.692-10.425-10.425-10.425zM76.063 18.725c2.904 0 5.213 2.309 5.213 5.212s-2.309 5.212-5.213 5.212c-2.903 0-5.212-2.309-5.212-5.212s2.309-5.212 5.212-5.212zM23.936 29.149c-2.903 0-5.213-2.309-5.213-5.212s2.31-5.212 5.213-5.212 5.213 2.309 5.213 5.212-2.31 5.212-5.213 5.212zM11.425 56.257a6.226 6.226 0 0 1-6.256-6.256c.002-3.479 2.776-6.256 6.256-6.256s6.256 2.777 6.256 6.256a6.226 6.226 0 0 1-6.256 6.256zm12.511 25.02c-2.903 0-5.213-2.309-5.213-5.212s2.31-5.212 5.213-5.212 5.213 2.309 5.213 5.212-2.31 5.212-5.213 5.212zm32.32 7.299c0 3.479-2.776 6.256-6.256 6.256s-6.256-2.777-6.256-6.256S46.52 82.32 50 82.32s6.256 2.777 6.256 6.256zM50 17.684a6.226 6.226 0 0 1-6.256-6.256c0-3.481 2.776-6.256 6.256-6.256s6.256 2.777 6.256 6.256A6.226 6.226 0 0 1 50 17.684zm26.063 53.169c2.904 0 5.213 2.309 5.213 5.212s-2.309 5.212-5.213 5.212c-2.903 0-5.212-2.309-5.212-5.212s2.309-5.212 5.212-5.212zm12.512-14.596a6.226 6.226 0 0 1-6.256-6.256 6.224 6.224 0 0 1 6.256-6.256 6.226 6.226 0 0 1 6.256 6.256 6.226 6.226 0 0 1-6.256 6.256z"/></svg>