<svg id="Layer_1" xmlns="http://www.w3.org/2000/svg" viewBox="0 0 96 100"><style>.st0{stroke:#000;stroke-width:4;stroke-linecap:round;stroke-linejoin:round;stroke-miterlimit:10}.st0,.st1{fill:none}</style><path class="st1" d="M83.198 49.999c0-2.357 1.433-4.726 2.819-7.017 1.347-2.229 2.74-4.532 2.242-6.062-.533-1.638-3.09-2.703-5.562-3.733-2.41-1.004-4.903-2.042-6.228-3.861-1.342-1.843-1.568-4.555-1.786-7.179-.22-2.647-.448-5.384-1.812-6.378-1.341-.977-3.994-.357-6.562.242-2.578.601-5.242 1.224-7.437.509-2.1-.684-3.835-2.709-5.514-4.667-1.76-2.055-3.581-4.18-5.358-4.18s-3.598 2.125-5.359 4.179c-1.679 1.958-3.414 3.984-5.514 4.667-2.194.715-4.86.093-7.437-.509-2.567-.6-5.222-1.219-6.562-.242-1.364.994-1.592 3.731-1.811 6.377-.218 2.624-.444 5.337-1.787 7.18-1.324 1.819-3.817 2.857-6.227 3.861-2.472 1.029-5.029 2.095-5.561 3.732-.499 1.53.895 3.834 2.242 6.063 1.386 2.291 2.819 4.661 2.819 7.017s-1.432 4.726-2.819 7.017c-1.347 2.229-2.74 4.533-2.242 6.063.533 1.638 3.09 2.703 5.561 3.732 2.41 1.004 4.904 2.042 6.229 3.862 1.342 1.843 1.568 4.556 1.786 7.179.22 2.647.447 5.384 1.812 6.379 1.338.976 3.996.357 6.562-.243 1.755-.409 3.551-.828 5.211-.828.778 0 1.525.092 2.225.319 2.1.684 3.835 2.71 5.514 4.668 1.761 2.055 3.583 4.18 5.36 4.18s3.598-2.125 5.359-4.18c1.679-1.958 3.414-3.984 5.514-4.667 2.195-.714 4.86-.092 7.437.508 2.567.6 5.221 1.219 6.562.242 1.364-.993 1.592-3.731 1.812-6.378.218-2.623.444-5.336 1.787-7.178 1.324-1.82 3.817-2.858 6.228-3.862 2.471-1.03 5.028-2.095 5.561-3.733.499-1.53-.895-3.834-2.242-6.063-1.39-2.29-2.822-4.659-2.822-7.016z"/><path d="M91.887 56.134c-1.302-2.153-2.649-4.381-2.649-6.135s1.347-3.982 2.649-6.136c1.806-2.987 3.674-6.076 2.719-9.008-.995-3.054-4.406-4.475-7.705-5.849-2.255-.939-4.586-1.91-5.548-3.232-.982-1.347-1.193-3.887-1.398-6.344-.294-3.535-.598-7.19-3.159-9.056-2.537-1.847-6.087-1.02-9.52-.219-2.419.564-4.923 1.148-6.535.621-1.51-.491-3.129-2.381-4.695-4.209C53.699 3.83 51.274 1 48 1s-5.699 2.83-8.046 5.568c-1.566 1.827-3.185 3.717-4.695 4.209-1.614.526-4.116-.057-6.534-.621-3.435-.801-6.984-1.631-9.52.218-2.562 1.866-2.866 5.521-3.16 9.055-.204 2.457-.415 4.998-1.398 6.345-.961 1.322-3.293 2.292-5.548 3.231-3.298 1.374-6.71 2.795-7.704 5.85-.956 2.933.911 6.023 2.719 9.011 1.302 2.153 2.648 4.381 2.648 6.135s-1.347 3.982-2.648 6.135c-1.806 2.988-3.675 6.077-2.719 9.011.995 3.054 4.406 4.475 7.705 5.85 2.254.939 4.586 1.91 5.548 3.231.982 1.348 1.193 3.888 1.398 6.346.294 3.535.597 7.189 3.159 9.056 2.536 1.847 6.087 1.018 9.521.218 2.416-.564 4.92-1.15 6.533-.621 1.51.491 3.13 2.381 4.697 4.209C42.3 96.17 44.726 99 48 99s5.699-2.83 8.046-5.568c1.566-1.827 3.185-3.717 4.695-4.209 1.615-.529 4.116.056 6.534.621 3.435.801 6.983 1.628 9.52-.218 2.562-1.866 2.866-5.523 3.16-9.056.205-2.457.416-4.997 1.398-6.345.961-1.321 3.294-2.292 5.548-3.232 3.298-1.374 6.71-2.795 7.704-5.85.957-2.932-.911-6.021-2.718-9.009zM71.283 33.119l-24.856 38.29c-.938 1.34-1.87 1.806-3.504 1.914-1.635.108-2.623-.499-3.604-1.48L25.175 55.671a4.01 4.01 0 0 1 0-5.671l.02-.009a4.009 4.009 0 0 1 5.67 0l10.851 8.183 22.778-29.82a3.962 3.962 0 0 1 5.517-.973l.301.222a3.96 3.96 0 0 1 .971 5.516z"/></svg>