<?xml version="1.0" encoding="utf-8"?>
<!-- Generator: Adobe Illustrator 21.0.2, SVG Export Plug-In . SVG Version: 6.00 Build 0)  -->
<svg version="1.1" id="Layer_1" xmlns="http://www.w3.org/2000/svg" xmlns:xlink="http://www.w3.org/1999/xlink" x="0px" y="0px"
	 viewBox="0 0 100 100" style="enable-background:new 0 0 100 100;" xml:space="preserve">
<style type="text/css">
	.st0{display:none;}
	.st1{display:none;fill:none;stroke:#000000;stroke-width:5;stroke-miterlimit:10;}
	.st2{display:none;fill:none;stroke:#000000;stroke-width:5;stroke-linejoin:round;stroke-miterlimit:10;}
</style>
<path class="st0" d="M103.345,7.186c-0.132,0.036-0.254,0.109-0.347,0.208L65.792,44.601c-0.107,0.106-0.181,0.245-0.208,0.394
	l-1.574,9.956c-0.081,0.466,0.391,0.937,0.857,0.857l9.956-1.574c0.148-0.027,0.288-0.101,0.394-0.208l37.206-37.206
	c0.271-0.274,0.271-0.768,0-1.042l-8.381-8.381C103.837,7.142,103.424,7.159,103.345,7.186L103.345,7.186z"/>
<path class="st1" d="M103.345,7.186c-0.132,0.036-0.254,0.109-0.347,0.208L65.792,44.601c-0.107,0.106-0.181,0.245-0.208,0.394
	l-1.574,9.956c-0.081,0.466,0.391,0.937,0.857,0.857l9.956-1.574c0.148-0.027,0.288-0.101,0.394-0.208l37.206-37.206
	c0.271-0.274,0.271-0.768,0-1.042l-8.381-8.381C103.837,7.142,103.424,7.159,103.345,7.186L103.345,7.186z"/>
<path class="st2" d="M85.649,26.548H4l22.768,19.129v30.342c0,3.628,3.533,6.596,7.851,6.596h51.031
	c4.318,0,7.851-2.968,7.851-6.596V33.144C93.5,29.516,89.967,26.548,85.649,26.548z"/>
<g sketch:type="MSPage">
	<g sketch:type="MSArtboardGroup">
		<path sketch:type="MSShapeGroup" d="M90.091,90.091c0,4.92-4.001,8.909-8.909,8.909H9.909C4.989,99,1,94.999,1,90.091V18.818
			c0-4.92,4.001-8.909,8.909-8.909h55.715l-8.909,8.909H9.909v71.273h71.273V41.058l8.909-8.909V90.091L90.091,90.091z
			 M89.418,19.957L37.142,72.425l-13.869,4.302l4.28-13.926l52.276-52.468L89.418,19.957L89.418,19.957L89.418,19.957L89.418,19.957
			L89.418,19.957L89.418,19.957L89.418,19.957L89.418,19.957z M97.674,5.539c1.764,1.77,1.774,4.628-0.003,6.412l-3.197,3.208
			l-9.59-9.624l3.197-3.208c1.765-1.772,4.632-1.767,6.39-0.003L97.674,5.539L97.674,5.539z"/>
	</g>
</g>
</svg>
