<?xml version="1.0" encoding="utf-8"?>
<!-- Generator: Adobe Illustrator 22.0.1, SVG Export Plug-In . SVG Version: 6.00 Build 0)  -->
<svg version="1.1" id="Layer_1" xmlns="http://www.w3.org/2000/svg" xmlns:xlink="http://www.w3.org/1999/xlink" x="0px" y="0px"
	 viewBox="0 0 69.41 100" style="enable-background:new 0 0 69.41 100;" xml:space="preserve">
<style type="text/css">
	.st0{fill:none;stroke:#000000;stroke-width:4;stroke-linecap:round;stroke-linejoin:round;stroke-miterlimit:10;}
	.st1{fill:none;}
</style>
<path d="M-3853.081,119.364h-11.891c-1.423,0-2.576-1.153-2.576-2.576s1.153-2.576,2.576-2.576h11.891
	c1.423,0,2.576,1.153,2.576,2.576S-3851.658,119.364-3853.081,119.364z M-3847.928,110.47h-22.196c-1.423,0-2.576-1.153-2.576-2.576
	c0-1.423,1.153-2.576,2.576-2.576h22.196c1.423,0,2.576,1.153,2.576,2.576C-3845.353,109.316-3846.506,110.47-3847.928,110.47z
	 M-3847.955,101.572h-22.198c-1.423,0-2.576-1.153-2.576-2.576v-6.678c0.004-1.184-0.043-2.87-0.487-3.946
	c-0.321-0.775-1.018-1.692-1.961-2.582c-0.034-0.032-0.067-0.065-0.099-0.099c-4.166-4.386-9.132-11.323-9.132-19.465
	c0-13.525,10.573-24.66,24.07-25.351c0.396-0.022,1.289-0.033,1.289-0.033c0.454-0.03,0.96,0.014,1.416,0.04
	c0.004,0,0.006,0,0.01,0.001c13.415,0.767,23.924,11.9,23.924,25.344c0,8.14-4.965,15.077-9.13,19.464
	c-0.033,0.035-0.067,0.069-0.101,0.101c-0.942,0.887-1.638,1.804-1.958,2.582c-0.338,0.819-0.499,2.107-0.49,3.934v6.689
	C-3845.379,100.419-3846.532,101.572-3847.955,101.572z M-3867.577,96.42h17.046v-4.101c-0.012-2.582,0.259-4.409,0.88-5.914
	c0.604-1.462,1.658-2.912,3.132-4.312c2.885-3.051,7.668-9.124,7.668-15.868c0-10.715-8.373-19.587-19.062-20.2
	c-0.365-0.019-0.735-0.032-1.108-0.032c-0.004,0-0.713,0.008-1.042,0.026c-10.768,0.551-19.193,9.427-19.193,20.206
	c0,6.745,4.783,12.818,7.67,15.869c1.026,0.977,2.384,2.504,3.129,4.308c0.616,1.49,0.888,3.317,0.879,5.924V96.42z
	 M-3882.539,46.118c-0.659,0-1.318-0.252-1.821-0.754l-7.625-7.621c-1.006-1.006-1.006-2.637-0.001-3.643
	c1.006-1.006,2.638-1.006,3.644-0.001l7.625,7.621c1.006,1.006,1.006,2.637,0.001,3.643
	C-3881.219,45.866-3881.88,46.118-3882.539,46.118z M-3836.573,45.483c-0.659,0-1.318-0.252-1.821-0.754
	c-1.006-1.006-1.006-2.637-0.001-3.643l7.62-7.624c1.006-1.006,2.637-1.006,3.644-0.001c1.006,1.006,1.006,2.637,0.001,3.643
	l-7.62,7.624C-3835.254,45.232-3835.914,45.483-3836.573,45.483z M-3867.64,37.283c-1.138,0-2.178-0.759-2.487-1.91l-2.789-10.411
	c-0.369-1.374,0.448-2.787,1.821-3.155c1.381-0.37,2.786,0.448,3.155,1.822l2.789,10.411c0.369,1.374-0.448,2.787-1.821,3.155
	C-3867.196,37.255-3867.42,37.283-3867.64,37.283z M-3850.682,36.932c-0.22,0-0.445-0.028-0.668-0.089
	c-1.375-0.369-2.19-1.781-1.821-3.155l2.792-10.413c0.369-1.373,1.784-2.191,3.155-1.821c1.375,0.369,2.19,1.781,1.821,3.155
	l-2.792,10.413C-3848.503,36.172-3849.545,36.932-3850.682,36.932z"/>
<path d="M-4460.58,79.463l22.606,17.047l47.454-62.126c2.614-3.733,7.76-4.64,11.493-2.026l0.627,0.462
	c3.732,2.614,4.64,7.758,2.025,11.492l-51.783,79.77c-1.955,2.791-3.896,3.762-7.301,3.988c-3.405,0.225-5.464-1.039-7.508-3.084
	l-29.467-33.691c-3.263-3.262-3.263-8.553,0-11.814l0.041-0.019C-4469.131,76.199-4463.842,76.199-4460.58,79.463z"/>
<g>
	<path d="M-4256.753,32.737c-2.497-2.497-6.38-2.497-8.876,0l-39.251,39.251l-39.251-39.251c-2.497-2.497-6.38-2.497-8.876,0
		s-2.497,6.38,0,8.877l39.251,39.251l-39.251,39.251c-2.497,2.497-2.497,6.38,0,8.877c1.249,1.248,2.774,1.803,4.438,1.803
		c1.664,0,3.19-0.555,4.438-1.803l39.251-39.251l39.251,39.251c1.248,1.248,2.774,1.803,4.438,1.803c1.665,0,3.19-0.555,4.438-1.803
		c2.497-2.497,2.497-6.38,0-8.877l-39.251-39.251l39.251-39.251C-4254.396,39.117-4254.396,35.233-4256.753,32.737z"/>
</g>
<g>
	<g transform="translate(-69.000000, -228.000000)">
		<g transform="translate(69.000000, 230.000000)">
			<path d="M-4234.881,34.42c0-3.068,2.472-5.556,5.519-5.556h88.962c3.048,0,5.519,2.466,5.519,5.556
				c0,3.068-2.472,5.556-5.519,5.556h-88.962C-4232.41,39.975-4234.881,37.51-4234.881,34.42z M-4234.881,67.753
				c0-3.068,2.472-5.556,5.519-5.556h88.962c3.048,0,5.519,2.466,5.519,5.556c0,3.068-2.472,5.556-5.519,5.556h-88.962
				C-4232.41,73.309-4234.881,70.843-4234.881,67.753z M-4234.881,101.087c0-3.068,2.472-5.556,5.519-5.556h88.962
				c3.048,0,5.519,2.466,5.519,5.556c0,3.068-2.472,5.556-5.519,5.556h-88.962C-4232.41,106.642-4234.881,104.176-4234.881,101.087z
				"/>
		</g>
	</g>
</g>
<g>
	<rect x="-4465.232" y="209.829" width="80.702" height="5.263"/>
	<rect x="-4454.706" y="218.601" width="59.649" height="5.263"/>
</g>
<g>
	<path d="M-4379.267,150.864h-91.228c-2.456,0-4.386,1.93-4.386,4.386v47.368c0,2.456,1.93,4.386,4.386,4.386h91.228
		c2.456,0,4.386-1.93,4.386-4.386V155.25C-4374.881,152.794-4376.811,150.864-4379.267,150.864z M-4469.618,156.128h5.263
		c0,2.456-1.93,4.386-4.386,4.386h-0.877V156.128z M-4469.618,201.742v-4.386h0.877c2.456,0,4.386,1.93,4.386,4.386H-4469.618z
		 M-4380.145,201.742h-5.263c0-2.456,1.93-4.386,4.386-4.386h0.877V201.742z M-4380.145,192.092h-0.877
		c-5.263,0-9.649,4.386-9.649,9.649h-68.421c0-5.263-4.386-9.649-9.649-9.649h-0.877v-26.316h0.877c5.263,0,9.649-4.386,9.649-9.649
		h69.298c0,5.263,4.386,9.649,9.649,9.649V192.092z M-4380.145,160.513c-2.456,0-4.386-1.93-4.386-4.386h4.386V160.513z"/>
	<path d="M-4423.127,181.917v4.912c1.754-0.526,1.93-1.93,1.93-2.632C-4421.197,183.321-4421.723,182.619-4423.127,181.917z"/>
	<path d="M-4427.864,175.426c0,0.877,0.526,1.404,1.754,1.93v-4.211C-4427.162,173.496-4427.864,174.373-4427.864,175.426z"/>
	<path d="M-4438.565,165.601c-7.544,7.544-7.544,19.825,0,27.368c7.544,7.544,19.825,7.544,27.369,0
		c7.543-7.544,7.543-19.825,0-27.368C-4418.741,158.057-4431.021,158.057-4438.565,165.601z M-4423.127,190.163v2.456h-2.807v-2.456
		c-2.105-0.351-4.035-1.404-5.263-3.158l-0.351-0.526l1.93-2.456l0.702,0.877c0.526,0.702,1.579,1.754,2.982,2.105v-5.965
		c-2.281-0.702-4.913-1.93-4.913-5.439c0-2.807,1.93-5.088,4.913-5.614v-2.456h2.807v2.632c1.754,0.351,3.333,1.228,4.562,2.807
		l0.351,0.526l-1.93,2.281l-0.702-0.877c-0.526-0.877-1.403-1.404-2.281-1.754v5.088c2.105,0.702,5.088,1.93,5.088,5.965
		C-4418.039,186.654-4419.442,189.461-4423.127,190.163z"/>
	<circle cx="-4456.46" cy="167.005" r="3.509"/>
	<circle cx="-4393.302" cy="191.566" r="3.509"/>
</g>
<path d="M-4257.07,217.558l-35.341-59.382c-2.548-4.653-7.312-7.312-12.519-7.312c-5.207,0-9.971,2.659-12.629,7.201l-35.23,59.493
	c-2.77,4.542-2.77,10.192-0.11,14.735c2.659,4.542,7.422,7.423,12.851,7.423h70.35c5.429,0,10.192-2.77,12.851-7.423
	C-4254.189,227.75-4254.189,222.1-4257.07,217.558z M-4300.166,219.663c0,2.77-2.105,4.875-4.875,4.875
	c-2.77,0-4.875-2.105-4.875-4.875v-1.662c0-2.77,2.105-4.875,4.875-4.875c2.77,0,4.985,2.105,4.875,4.875V219.663z
	 M-4300.166,205.482c0,2.77-2.105,4.875-4.875,4.875c-2.77,0-4.875-2.105-4.875-4.875v-26.256c0-2.77,2.105-4.875,4.875-4.875
	c2.77,0,4.985,2.327,4.875,4.985V205.482z"/>
<g>
	<g id="XMLID_78_">
		<path id="XMLID_7_" d="M-4032.546,42.905c-1.821,1.081-7.032,3.339-21.949,8.318c-2.664,0.882-5.492,1.64-8.485,2.443
			l-1.795,0.483c-8.95,2.443-17.485,5.178-23.543,11.715c-5.337,5.755-7.932,13.717-7.932,24.343v2.805
			c0,3.88,0.698,7.648,2.078,11.231c0.244-5.405,2.856-18.412,21.541-25.067V79.04l0.396-0.019c1.244-0.436,2.532-0.832,3.831-1.177
			c1.161-0.313,2.278-0.626,3.372-0.96c9.187-2.675,15.58-5.461,20.123-8.772c1.278-0.903,2.427-1.874,3.42-2.888
			C-4035.97,59.682-4033.117,52.572-4032.546,42.905z"/>
	</g>
	<g id="XMLID_40_">
		<path id="XMLID_6_" d="M-4093.206,106.508c5.202,10.849,16.305,17.856,28.31,17.856c12.017,0,23.112-7.008,28.289-17.86
			c0.063-0.701,0.445-6.43-3.048-12.66c-3.099-5.564-8.292-9.887-15.46-12.876c2.535,2.553,3.988,6.018,3.988,9.709
			c0,7.605-6.177,13.792-13.77,13.792c-7.605,0-13.793-6.187-13.793-13.792c0-3.686,1.458-7.154,4.001-9.714
			C-4094.636,89.276-4093.334,105.307-4093.206,106.508z"/>
	</g>
	<g id="XMLID_37_">
		<path id="XMLID_5_" d="M-4097.216,42.874c0.554,9.52,3.287,16.544,8.552,22.004c5.816-6.063,13.679-8.839,21.999-11.171
			c-3.057-0.816-5.945-1.587-8.654-2.484C-4087.373,47.199-4094.708,44.402-4097.216,42.874z"/>
	</g>
	<g id="XMLID_13_">
		<path id="XMLID_4_" d="M-4057.2,79.169c8.634,3.07,14.809,7.853,18.355,14.222c2.449,4.367,3.073,8.433,3.193,10.892
			c1.384-3.59,2.085-7.373,2.085-11.273v-2.805c0-1.962-0.087-3.766-0.267-5.518c-0.763-7.757-3.166-13.804-7.339-18.47
			c-0.949,0.928-2.02,1.816-3.191,2.644c-4.381,3.191-10.414,5.895-18.906,8.465c0.552,0.159,1.161,0.327,1.86,0.515
			c1.292,0.344,2.576,0.739,3.817,1.173h0.385L-4057.2,79.169z"/>
	</g>
	<g id="XMLID_10_">
		<circle id="XMLID_8_" cx="-4064.88" cy="34.826" r="8.462"/>
	</g>
</g>
<path d="M-4011.703,119.476V51.621h-5.005c-6.285,0-11.173,4.772-11.173,11.173v45.508c0,6.169,5.005,11.173,11.173,11.173
	 M-3941.054,119.476c6.168,0,11.173-5.005,11.173-11.174V62.794c0-6.401-5.121-11.173-11.173-11.173h-5.238v67.855 M-3990.52,41.495
	c0-2.561,2.095-4.656,4.656-4.656h13.967c2.561,0,4.656,2.095,4.656,4.656v4.423h5.587v-4.423c0-5.587-4.656-10.242-10.242-10.242
	h-13.968c-5.587,0-10.242,4.656-10.242,10.242v4.423h5.587v-4.423H-3990.52z M-4005.767,51.621v67.855h54.121V51.621H-4005.767z
	 M-3967.591,87.585h-8.729v8.38c0,1.513-1.28,2.793-2.793,2.793c-1.513,0-2.793-1.28-2.793-2.793v-8.38h-8.38
	c-1.513,0-2.793-1.28-2.793-2.793s1.28-2.793,2.793-2.793h8.38v-9.311c0-1.513,1.28-2.793,2.793-2.793
	c1.513,0,2.793,1.28,2.793,2.793v9.311h8.729c1.513,0,2.793,1.28,2.793,2.793S-3966.078,87.585-3967.591,87.585z"/>
<g transform="translate(0,-952.36218)">
	<path d="M-3754.881,973.727c-27.023,0-49,21.977-49,49c0,27.023,21.977,49,49,49s49-21.977,49-49
		C-3705.881,995.704-3727.858,973.727-3754.881,973.727L-3754.881,973.727z M-3754.881,980.26c23.492,0,42.467,18.974,42.467,42.467
		c0,23.492-18.974,42.467-42.467,42.467c-23.492,0-42.467-18.974-42.467-42.467S-3778.374,980.26-3754.881,980.26L-3754.881,980.26z
		 M-3747.259,988.971c-3.007,0-5.444,2.438-5.444,5.444c0,3.007,2.438,5.444,5.444,5.444s5.445-2.438,5.445-5.444
		C-3741.814,991.409-3744.252,988.971-3747.259,988.971z M-3753.894,1000.949c-3.926,0.176-8.1,2.11-11.604,4.798l-0.374,4.083
		c3.31-1.296,6.707-1.283,7.724,1.803c2.477,7.508-5.986,20.646-8.303,27.528c-6.287,18.674,8.801,20.831,19.566,13.135l0.408-4.424
		c-5.857,1.834-10.055-0.419-6.669-10.174c1.631-4.706,15.283-28.417,5.853-34.947
		C-3749.268,1001.385-3751.539,1000.843-3753.894,1000.949z"/>
</g>
<path d="M-3634.881,21.364L-3634.881,21.364c-27.023,0-49,21.977-49,49s21.977,49,49,49s49-21.977,49-49
	S-3607.858,21.364-3634.881,21.364z M-3634.881,112.831c-23.492,0-42.467-18.974-42.467-42.467
	c0-23.492,18.974-42.467,42.467-42.467v0c23.492,0,42.467,18.974,42.467,42.467S-3611.389,112.831-3634.881,112.831z"/>
<path d="M-3630.974,79.731h-7.8v-4.22c-0.087-1.417,0.135-2.837,0.65-4.16c0.771-1.325,1.739-2.525,2.87-3.56l5-5
	c1.065-1.166,1.635-2.701,1.59-4.28c0.047-1.583-0.552-3.118-1.66-4.25c-1.128-1.136-2.68-1.748-4.28-1.69
	c-1.618-0.051-3.193,0.53-4.39,1.62c-1.185,1.138-1.899,2.68-2,4.32h-8.36c0.268-3.72,1.993-7.184,4.8-9.64
	c2.878-2.388,6.532-3.641,10.27-3.52c3.632-0.153,7.193,1.04,10,3.35c2.58,2.233,3.87,5.353,3.87,9.36
	c0.088,2.501-0.721,4.952-2.28,6.91c-0.626,0.817-1.293,1.602-2,2.35c-0.46,0.46-1.07,1.047-1.83,1.76s-1.407,1.337-1.94,1.87
	c-0.533,0.533-0.96,0.983-1.28,1.35c-0.899,1.242-1.338,2.759-1.24,4.29L-3630.974,79.731z M-3629.444,89.951
	c0.005,2.999-2.421,5.434-5.42,5.44c-2.999,0.006-5.434-2.421-5.44-5.42c-0.005-2.999,2.421-5.434,5.42-5.44c0.003,0,0.007,0,0.01,0
	C-3631.879,84.531-3629.45,86.956-3629.444,89.951z"/>
<path d="M-3536.931,40.965c2.977,0,5.39-2.413,5.39-5.39v-8.821c0-2.977-2.413-5.39-5.39-5.39c-2.977,0-5.39,2.413-5.39,5.39v8.821
	C-3542.321,38.552-3539.908,40.965-3536.931,40.965z M-3492.833,40.965c2.977,0,5.39-2.413,5.39-5.39v-8.821
	c0-2.977-2.414-5.39-5.39-5.39s-5.39,2.413-5.39,5.39v8.821C-3498.222,38.552-3495.809,40.965-3492.833,40.965z M-3470.783,30.185
	h-13.719v6.37c0,4.6-3.73,8.33-8.33,8.33c-4.598,0-8.33-3.73-8.33-8.33v-6.37h-27.439v6.37c0,4.6-3.73,8.33-8.33,8.33
	c-4.6,0-8.33-3.73-8.33-8.33v-6.37h-13.72c-2.707,0-4.9,2.193-4.9,4.9v76.44c0,2.706,2.193,4.899,4.9,4.899h88.199
	c2.707,0,4.901-2.193,4.901-4.899v-76.44C-3465.883,32.378-3468.076,30.185-3470.783,30.185z M-3521.007,102.705l-20.334-20.58
	l6.125-6.37l14.211,13.23l26.459-28.42l7.105,5.881L-3521.007,102.705z"/>
<g>
	<path d="M-3384.335,71.051h-19.158c-1.227,0-2.22-0.993-2.22-2.217l0,0c0-1.227,0.993-2.218,2.22-2.218h19.158
		c1.224,0,2.219,0.991,2.219,2.218l0,0C-3382.115,70.057-3383.111,71.051-3384.335,71.051z"/>
	<path d="M-3384.335,57.699h-19.158c-1.227,0-2.22-0.995-2.22-2.22l0,0c0-1.224,0.993-2.22,2.22-2.22h19.158
		c1.224,0,2.219,0.995,2.219,2.22l0,0C-3382.115,56.704-3383.111,57.699-3384.335,57.699z"/>
	<path d="M-3408.392,62.522c-0.674-0.508-1.632-0.372-2.139,0.302l-4.838,6.416l-2.046-2.715c-0.508-0.674-1.466-0.807-2.143-0.299
		c-0.674,0.51-0.806,1.465-0.299,2.139l3.266,4.334h0.005c0.28,0.368,0.719,0.608,1.217,0.608c0.499,0,0.938-0.24,1.217-0.611
		l0.003,0.002l6.059-8.036C-3407.582,63.99-3407.718,63.031-3408.392,62.522z"/>
	<path d="M-3408.392,49.168c-0.674-0.508-1.632-0.374-2.139,0.302l-4.838,6.419l-2.046-2.716c-0.508-0.674-1.466-0.809-2.143-0.302
		c-0.674,0.508-0.806,1.469-0.299,2.142l3.266,4.334l0.005-0.005c0.28,0.372,0.719,0.614,1.217,0.614
		c0.499,0,0.938-0.241,1.217-0.614l0.003,0.005l6.059-8.04C-3407.582,50.634-3407.718,49.679-3408.392,49.168z"/>
	<path d="M-3378.005,30.11h-6.612v-0.875c0-1.226-0.995-2.223-2.22-2.223h-6.356c-0.968-3.399-4.095-5.898-7.801-5.898
		s-6.834,2.5-7.802,5.898h-6.358c-1.225,0-2.22,0.996-2.22,2.223v0.875h-6.612c-4.406,0-7.988,3.583-7.988,7.99v61.026
		c0,4.405,3.583,7.991,7.988,7.991h25.641c-1.956-1.466-3.627-3.269-4.936-5.325h-20.705c-1.468,0-2.663-1.197-2.663-2.666V38.1
		c0-1.468,1.195-2.665,2.663-2.665h6.612v2.793c0,1.224,0.995,2.221,2.22,2.221h28.318c1.225,0,2.22-0.996,2.22-2.221v-2.793h6.612
		c1.469,0,2.663,1.197,2.663,2.665v32.672h1.96c1.149-0.001,2.268,0.116,3.365,0.3V38.1
		C-3370.017,33.693-3373.601,30.11-3378.005,30.11z M-3389.058,36.009h-23.878v-4.556h6.042c1.224,0,2.217-0.995,2.217-2.217
		c0-2.031,1.652-3.681,3.681-3.681c2.028,0,3.681,1.65,3.681,3.681c0,1.222,0.988,2.213,2.21,2.217h6.047V36.009z"/>
	<path d="M-3357.786,91.797L-3357.786,91.797c0,9.22-7.474,16.693-16.693,16.693h-2.809c-2.105,3.999-6.031,6.583-8.811,7.984
		c-0.664,0.33-1.47,0.059-1.8-0.606c-0.149-0.301-0.18-0.647-0.087-0.969c0.612-2.134,0.743-4.377,0.385-6.569
		c-8.188-1.216-14.248-8.249-14.24-16.527l0,0c0-9.22,7.474-16.693,16.693-16.693h10.655c9.219-0.008,16.7,7.459,16.708,16.679
		c0,0.005,0,0.01,0,0.015V91.797z"/>
</g>
<g id="XMLID_16_">
	<path id="XMLID_17_" d="M-3225.881,6.864c-2.801,1.663-10.818,5.137-33.766,12.796c-4.098,1.357-8.448,2.523-13.053,3.758
		l-2.761,0.743c-13.768,3.758-26.898,7.966-36.218,18.022c-8.21,8.853-12.202,21.102-12.202,37.448v4.315
		c0,5.969,1.074,11.765,3.197,17.277c0.375-8.315,4.394-28.324,33.138-38.562c0,0,4.504-1.518,6.503-2.049
		c1.786-0.482,3.504-0.963,5.187-1.477c14.133-4.115,23.968-8.401,30.957-13.495c1.966-1.389,3.734-2.883,5.261-4.443
		C-3231.148,32.674-3226.76,21.736-3225.881,6.864z"/>
</g>
<g transform="translate(-231.86559,-335.4644)">
	<path d="M-2923.016,340.829c-16.833,0-30.529,13.696-30.529,30.529v18.471c-2.225,4.522-3.505,9.592-3.505,14.966
		c0,18.798,15.236,34.034,34.034,34.034c18.798,0,34.034-15.235,34.034-34.034c0-5.375-1.289-10.444-3.505-14.966v-18.471
		C-2892.487,354.524-2906.183,340.829-2923.016,340.829L-2923.016,340.829z M-2923.016,352.43c10.435,0,18.927,8.492,18.927,18.927
		v5.152c-5.42-3.625-11.919-5.748-18.927-5.748c-6.999,0-13.517,2.114-18.927,5.748v-5.152
		C-2941.943,360.922-2933.451,352.43-2923.016,352.43z M-2923.016,392.089c3.607,0,6.502,2.886,6.502,6.484
		c0,2.091-0.954,3.924-2.471,5.117l1.647,13.81h-11.339l1.665-13.81c-1.508-1.202-2.506-3.027-2.506-5.117
		C-2929.517,394.976-2926.623,392.089-2923.016,392.089L-2923.016,392.089z"/>
</g>
<g>
	<path d="M-3027.024,18.443h-75.556c-6.296,0-11.301,5.005-11.301,11.301v49.24c0,6.296,5.005,11.301,11.301,11.301h75.394
		c6.296,0,11.301-5.005,11.301-11.301v-49.24C-3015.723,23.448-3020.89,18.443-3027.024,18.443z M-3102.58,24.901h75.394
		c0.484,0,0.969,0,1.453,0.161l-39.069,30.029l-39.069-30.029C-3103.387,24.901-3102.903,24.901-3102.58,24.901z M-3022.181,78.823
		c0,2.745-2.099,4.843-4.843,4.843h-75.556c-2.745,0-4.843-2.099-4.843-4.843V30.39l42.621,32.773l42.621-32.612V78.823z"/>
</g>
<path d="M-2898.258,82.852l-33.319-33.319c5.065-6.1,8.115-13.929,8.115-22.459c0-19.415-15.795-35.21-35.21-35.21
	s-35.209,15.795-35.209,35.21s15.795,35.21,35.209,35.21c7.93,0,15.255-2.638,21.148-7.079l33.457,33.457
	c0.802,0.802,1.853,1.203,2.904,1.203s2.102-0.401,2.904-1.203C-2896.654,87.057-2896.654,84.456-2898.258,82.852z
	 M-2985.666,27.074c0-14.884,12.109-26.994,26.994-26.994s26.994,12.11,26.994,26.994s-12.109,26.994-26.994,26.994
	S-2985.666,41.958-2985.666,27.074z"/>
<g>
	<path d="M-2866.612-5.813c-0.852,1.461-0.73,3.165,0.122,4.626l0.122,0.122l29.458,41.265v46.621c0,1.217,0.73,2.313,1.704,2.8
		c0.365,0.243,0.852,0.243,1.339,0.243c0.73,0,1.339-0.243,1.948-0.73l14.972-12.538c0.73-0.609,1.095-1.461,1.095-2.313V40.2
		l29.458-41.265l0.122-0.122c0.852-1.461,0.974-3.165,0.122-4.626s-2.313-2.313-4.017-2.313h-72.549
		C-2864.299-8.247-2865.881-7.273-2866.612-5.813z M-2793.211-2.161l-28.24,39.683c-0.365,0.487-0.609,1.096-0.609,1.826v33.596
		l-8.886,7.425V39.226c0-0.609-0.244-1.217-0.609-1.826l-28.119-39.561H-2793.211z"/>
</g>
<g transform="translate(0,-952.3622)">
	<path d="M-2729.799,944.227c-1.364-0.005-2.653,1.148-2.997,2.248l-2.737,9.578c-1.923,0.632-3.767,1.376-5.539,2.281l-8.699-4.822
		c-1.181-0.662-2.791-0.438-3.747,0.521l-9.024,9.057c-0.945,0.951-1.168,2.54-0.521,3.714l4.822,8.731
		c-0.896,1.756-1.653,3.602-2.281,5.506l-9.578,2.737c-1.307,0.368-2.289,1.672-2.281,3.03v12.836
		c0.006,1.347,0.984,2.632,2.281,2.997l9.546,2.704c0.63,1.919,1.412,3.77,2.313,5.539l-4.822,8.731
		c-0.647,1.174-0.424,2.763,0.521,3.714l9.024,9.057c0.956,0.96,2.566,1.184,3.747,0.521l8.699-4.822
		c1.773,0.905,3.615,1.681,5.539,2.313l2.737,9.546c0.365,1.297,1.65,2.275,2.997,2.281h12.836c1.347-0.01,2.632-0.984,2.997-2.281
		l2.737-9.546c1.924-0.632,3.766-1.408,5.539-2.313l8.699,4.822c1.181,0.662,2.791,0.438,3.747-0.521l9.025-9.057
		c0.945-0.951,1.168-2.54,0.521-3.714l-4.822-8.731c0.901-1.768,1.684-3.62,2.313-5.539l9.546-2.704
		c1.297-0.365,2.275-1.65,2.281-2.997v-12.836c0.008-1.358-0.973-2.662-2.281-3.03l-9.579-2.737
		c-0.628-1.904-1.385-3.75-2.281-5.506l4.822-8.731c0.647-1.174,0.424-2.763-0.521-3.714l-9.025-9.057
		c-0.955-0.96-2.566-1.184-3.747-0.521l-8.699,4.822c-1.771-0.905-3.616-1.649-5.539-2.281l-2.737-9.578
		c-0.377-1.285-1.658-2.246-2.997-2.248H-2729.799z M-2727.454,950.482h8.145l2.509,8.829c0.286,1.037,1.146,1.896,2.183,2.183
		c2.635,0.726,5.118,1.762,7.461,3.095c0.925,0.532,2.127,0.545,3.062,0.033l8.08-4.496l5.734,5.734l-4.496,8.047
		c-0.522,0.93-0.522,2.132,0,3.062c1.333,2.343,2.402,4.859,3.128,7.493c0.281,1.03,1.125,1.887,2.15,2.183l8.862,2.509v8.112
		l-8.862,2.541c-1.018,0.29-1.86,1.132-2.15,2.15c-0.726,2.634-1.795,5.151-3.128,7.493c-0.522,0.93-0.522,2.132,0,3.062l4.496,8.08
		l-5.734,5.701l-8.08-4.496c-0.936-0.512-2.138-0.5-3.062,0.032c-2.343,1.333-4.826,2.402-7.461,3.128
		c-1.03,0.281-1.887,1.125-2.183,2.15l-2.509,8.862h-8.145l-2.509-8.862c-0.296-1.026-1.153-1.87-2.183-2.15
		c-2.635-0.726-5.118-1.795-7.461-3.128c-0.925-0.532-2.127-0.545-3.062-0.032l-8.08,4.496l-5.734-5.701l4.496-8.08
		c0.522-0.93,0.522-2.132,0-3.062c-1.333-2.343-2.402-4.859-3.127-7.493c-0.29-1.018-1.132-1.86-2.15-2.15l-8.862-2.541v-8.112
		l8.862-2.509c1.025-0.296,1.87-1.153,2.15-2.183c0.726-2.635,1.795-5.151,3.127-7.493c0.522-0.93,0.522-2.132,0-3.062l-4.496-8.047
		l5.734-5.734l8.08,4.496c0.936,0.512,2.138,0.5,3.062-0.033c2.343-1.333,4.826-2.369,7.461-3.095
		c1.037-0.286,1.896-1.146,2.183-2.183L-2727.454,950.482L-2727.454,950.482z M-2723.381,970.29
		c-12.63,0-22.936,10.306-22.936,22.936s10.306,22.936,22.936,22.936c12.63,0,22.936-10.306,22.936-22.936
		S-2710.751,970.29-2723.381,970.29z M-2723.381,976.546c9.25,0,16.681,7.431,16.681,16.681c0,9.25-7.431,16.681-16.681,16.681
		c-9.25,0-16.681-7.431-16.681-16.681C-2740.062,983.977-2732.631,976.546-2723.381,976.546z"/>
</g>
<g transform="translate(-91.214475,-152.15558)">
	<path d="M-2482.872,144.02c-0.352,0.005-0.688,0.147-0.936,0.396l-29.415,29.415l1.912,1.911l5.371-5.371l6.345,6.345
		c0.521,0.535,1.377,0.547,1.912,0.027c0.009-0.009,0.019-0.018,0.028-0.028c0.52-0.536,0.507-1.391-0.028-1.911l-6.345-6.345
		l5.784-5.784l6.345,6.345c0.521,0.535,1.376,0.548,1.912,0.027c0.01-0.009,0.019-0.019,0.028-0.028
		c0.52-0.536,0.507-1.391-0.028-1.911l-6.345-6.345l5.784-5.784l6.345,6.345c0.521,0.535,1.377,0.547,1.912,0.027
		c0.01-0.009,0.019-0.018,0.028-0.028c0.52-0.536,0.507-1.391-0.028-1.911l-6.345-6.345l5.784-5.784l16.422,16.422v0.001
		l-28.459,28.459l1.912,1.912l29.415-29.415c0.528-0.528,0.528-1.384,0-1.912l-18.334-18.334
		C-2482.155,144.158-2482.507,144.015-2482.872,144.02L-2482.872,144.02z M-2544.492,150.911c-2.532-0.048-5.057,0.863-6.968,2.757
		c-0.01,0.009-0.021,0.018-0.031,0.028c-3.819,3.819-3.683,10.118,0.216,14.017c0.002,0.002,0.003,0.003,0.005,0.005
		c0.213,0.21,0.436,0.41,0.666,0.601c0.06,0.101,0.131,0.196,0.218,0.283l61.407,61.407c0.069,0.069,0.144,0.13,0.222,0.182
		c0.193,0.268,0.473,0.461,0.792,0.547l16.107,4.344c0.765,0.206,1.55-0.246,1.754-1.01c0.065-0.243,0.064-0.499-0.001-0.742
		l-4.343-16.108c-0.087-0.319-0.281-0.599-0.55-0.793c-0.052-0.078-0.112-0.152-0.181-0.221l-61.407-61.407
		c-0.084-0.084-0.177-0.154-0.275-0.213c-0.195-0.233-0.397-0.459-0.612-0.674c0,0-0.001-0.001-0.002-0.002
		C-2539.419,151.967-2541.959,150.96-2544.492,150.911L-2544.492,150.911z M-2544.622,153.724c1.781,0.014,3.588,0.701,5.017,2.067
		l-9.791,9.791c-2.731-2.859-2.75-7.226-0.093-9.883C-2548.16,154.369-2546.403,153.71-2544.622,153.724L-2544.622,153.724z
		 M-2537.464,157.982l59.241,59.241l-3.855,3.855l-59.241-59.241L-2537.464,157.982L-2537.464,157.982z M-2543.349,163.867
		l59.24,59.241l-3.855,3.855l-59.241-59.241L-2543.349,163.867L-2543.349,163.867z M-2531.355,191.963l-29.416,29.416
		c-0.528,0.528-0.528,1.384,0,1.912l18.334,18.334c0.528,0.528,1.384,0.528,1.912,0l29.416-29.416l-1.912-1.912l-28.459,28.459
		l-16.422-16.422l5.785-5.784l6.345,6.345c0.521,0.535,1.377,0.547,1.912,0.027c0.009-0.009,0.019-0.018,0.028-0.028
		c0.52-0.536,0.507-1.391-0.028-1.911l-6.345-6.345l5.784-5.784l6.345,6.345c0.521,0.535,1.377,0.547,1.912,0.027
		c0.01-0.009,0.019-0.018,0.028-0.028c0.52-0.536,0.508-1.391-0.028-1.911l-6.345-6.345l5.784-5.784l6.345,6.345
		c0.521,0.535,1.376,0.548,1.912,0.027c0.01-0.009,0.019-0.018,0.028-0.028c0.52-0.536,0.508-1.391-0.028-1.911l-6.345-6.345
		l5.371-5.371L-2531.355,191.963L-2531.355,191.963z M-2476.568,220.357l3.049,11.309l-11.309-3.049L-2476.568,220.357z"/>
</g>
<path d="M-2450.967,22.772h-20.965c-1.874,0-3.392,1.519-3.392,3.392s1.519,3.392,3.392,3.392h17.573V83.08h-58.044V29.557h17.573
	c1.874,0,3.392-1.519,3.392-3.392s-1.519-3.392-3.392-3.392h-20.965c-1.874,0-3.392,1.519-3.392,3.392v60.308
	c0,1.874,1.519,3.392,3.392,3.392h64.828c1.874,0,3.392-1.519,3.392-3.392V26.165C-2447.575,24.291-2449.093,22.772-2450.967,22.772
	z M-2496.134,12.808l9.36-9.361v54.849c0,1.874,1.519,3.392,3.392,3.392c1.874,0,3.392-1.519,3.392-3.392V3.447l9.361,9.36
	c0.663,0.663,1.531,0.994,2.398,0.994s1.736-0.331,2.398-0.994c1.325-1.324,1.325-3.471,0-4.797l-15.146-15.148
	c-0.614-0.616-1.464-0.998-2.403-0.998s-1.789,0.382-2.403,0.998l-15.148,15.148c-1.325,1.325-1.325,3.473,0,4.797
	C-2499.606,14.132-2497.459,14.132-2496.134,12.808z"/>
<g sketch:type="MSPage">
	<g sketch:type="MSArtboardGroup">
		<path sketch:type="MSShapeGroup" d="M-2350.29,80.955c0,4.92-4.001,8.909-8.909,8.909h-71.272c-4.92,0-8.909-4.001-8.909-8.909
			V9.683c0-4.92,4.001-8.909,8.909-8.909h55.714l-8.909,8.909h-46.806v71.273h71.273V31.922l8.909-8.909V80.955L-2350.29,80.955z
			 M-2350.963,10.821l-52.276,52.468l-13.869,4.302l4.28-13.926l52.276-52.468L-2350.963,10.821L-2350.963,10.821L-2350.963,10.821
			L-2350.963,10.821L-2350.963,10.821L-2350.963,10.821L-2350.963,10.821L-2350.963,10.821z M-2342.708-3.597
			c1.764,1.77,1.774,4.628-0.003,6.412l-3.197,3.208l-9.59-9.624l3.197-3.208c1.765-1.772,4.632-1.767,6.39-0.003L-2342.708-3.597
			L-2342.708-3.597z"/>
	</g>
</g>
<g>
	<path d="M-2234.482-8.136h-71.798c-7.221,0-13.101,5.88-13.101,13.101v71.798c0,7.221,5.88,13.101,13.101,13.101h71.798
		c7.221,0,13.101-5.88,13.101-13.101V4.966C-2221.381-2.256-2227.261-8.136-2234.482-8.136z M-2306.28-0.811h71.798
		c3.198,0,5.777,2.579,5.777,5.777v38.272l-16.608-20.941c-1.96-2.579-5.88-2.579-7.84,0l-24.242,30.638l-10.109-11.038
		c-2.063-2.269-5.674-2.269-7.737,0l-16.815,18.259V4.965C-2312.057,1.768-2309.478-0.811-2306.28-0.811z"/>
	<circle cx="-2294.107" cy="17.138" r="8.253"/>
</g>
<path d="M-2108.975,6.51c-10.125-10.087-26.577-10.087-36.702,0l-4.67,4.67l-4.743-4.743c-5.063-5.043-11.71-7.552-18.351-7.552
	c-6.641,0-13.289,2.509-18.351,7.552c-10.125,10.087-10.112,26.499,0,36.593l38.928,38.855c1.295,1.28,3.631,1.28,4.925,0
	c12.987-12.937,25.978-25.844,38.964-38.782C-2098.85,33.015-2098.85,16.596-2108.975,6.51z M-2113.937,38.104
	c-12.164,12.118-24.283,24.256-36.447,36.374l-36.447-36.41c-7.457-7.443-7.498-19.236-0.036-26.669
	c7.94-7.179,19.481-7.484,26.815,0v0l7.224,7.187c1.295,1.28,3.63,1.28,4.925,0l7.187-7.114c7.462-7.434,19.317-7.433,26.779,0
	C-2106.475,18.905-2106.475,30.671-2113.937,38.104z"/>
<g>
	<path d="M-2014.781,4.789v14.05h-48.4V4.789H-2014.781 M-2013.231,0.789h-51.5c-1.283,0-2.45,1.167-2.45,2.45v17.15
		c0,1.283,1.167,2.45,2.45,2.45h51.5c1.283,0,2.45-1.167,2.45-2.45V3.239C-2010.811,2.136-2011.934,0.789-2013.231,0.789
		L-2013.231,0.789z"/>
</g>
<path d="M-1983.831,13.039h-14.7v-22.05c-0.03-1.104-1.159-2.408-2.45-2.45h-75.95c-1.283,0-2.45,1.167-2.45,2.45v77.175
	c0,6.065,4.959,11.025,11.025,11.025h75.95c6.065,0,11.025-4.96,11.025-11.025V15.489
	C-1981.411,14.386-1982.506,13.07-1983.831,13.039z M-2068.356,74.289c-3.436,0-6.125-2.689-6.125-6.125V-6.561h71.05v74.725
	c0,2.324,0.905,4.343,2.144,6.125H-2068.356z M-1986.281,68.164c0,3.436-2.689,6.125-6.125,6.125c-3.436,0-6.125-2.689-6.125-6.125
	V17.939h12.25V68.164z"/>
<path d="M-2013.231,34.539c1.353,0,2.45,1.097,2.45,2.45s-1.097,2.45-2.45,2.45h-51.45c-1.353,0-2.45-1.097-2.45-2.45
	s1.097-2.45,2.45-2.45H-2013.231z"/>
<path d="M-2013.231,51.139c1.353,0,2.45,1.097,2.45,2.45c0,1.353-1.097,2.45-2.45,2.45h-51.45c-1.353,0-2.45-1.097-2.45-2.45
	c0-1.353,1.097-2.45,2.45-2.45H-2013.231z"/>
<path d="M-1917.654,58.41h28.636c1.129,0,2.046-0.916,2.046-2.045V23.637c0-1.129-0.916-2.045-2.046-2.045h-28.636
	c-1.129,0-2.045,0.916-2.045,2.045v32.727C-1919.699,57.493-1918.783,58.41-1917.654,58.41z"/>
<path d="M-1884.927-11.136h-77.727c-5.641,0-10.227,4.59-10.227,10.227v69.545c0,5.637,4.586,10.227,10.227,10.227h77.727
	c5.641,0,10.227-4.59,10.227-10.227V-0.908C-1874.699-6.546-1879.286-11.136-1884.927-11.136z M-1924.2-4.784
	c2.485,0,4.5,2.016,4.5,4.5c0,2.484-2.016,4.5-4.5,4.5c-2.484,0-4.499-2.016-4.499-4.5C-1928.699-2.768-1926.684-4.784-1924.2-4.784
	z M-1942.199-4.784c2.484,0,4.5,2.016,4.5,4.5c0,2.484-2.016,4.5-4.5,4.5s-4.5-2.016-4.5-4.5
	C-1946.7-2.768-1944.683-4.784-1942.199-4.784z M-1960.199-4.784c2.484,0,4.499,2.016,4.499,4.5c0,2.484-2.016,4.5-4.499,4.5
	c-2.485,0-4.5-2.016-4.5-4.5C-1964.699-2.768-1962.684-4.784-1960.199-4.784z M-1878.79,68.637c0,3.383-2.753,6.136-6.136,6.136
	h-75.682h-2.046c-3.384,0-6.136-2.753-6.136-6.136V9.319h90V68.637z"/>
<path class="st0" d="M-1897.381,79.62"/>
<path d="M-1756.115,27.963l-38.371-38.371c-1.645-1.645-4.309-1.645-5.953,0c-1.645,1.644-1.645,4.31,0,5.954l31.184,31.184h-79.666
	c-2.324,0-4.21,1.885-4.21,4.21s1.886,4.21,4.21,4.21h79.666l-31.184,31.184c-1.645,1.644-1.645,4.31,0,5.954
	c0.822,0.822,1.899,1.233,2.977,1.233s2.155-0.411,2.977-1.233l38.371-38.371C-1754.47,32.273-1754.47,29.607-1756.115,27.963z"/>
<g>
	<path d="M-1727.631,32.427c0-10.341,8.409-18.75,18.75-18.75c0.794,0,1.65,0.069,2.694,0.219c0.906,0.141,1.8-0.262,2.484-0.856
		c0.684-0.594,1.072-1.581,1.072-2.487c0-10.341,8.409-18.75,18.75-18.75c10.341,0,18.75,8.409,18.753,18.644
		c-0.006,0.075-0.016,0.278-0.016,0.356c0,0.906,0.394,1.766,1.078,2.359c0.684,0.591,1.584,0.856,2.491,0.731
		c1.044-0.147,1.9-0.216,2.694-0.216c10.341,0,18.75,8.409,18.75,18.75h6.25c0-13.85-11.384-25.2-25.194-25
		c-1.544-12.316-12.078-21.875-24.806-21.875c-12.659,0-23.153,9.459-24.772,21.875c-0.075,0-0.153,0-0.228,0
		c-13.784,0-25,11.216-25,25s11.216,25,25,25h17l-6-6.25h-11C-1719.222,51.177-1727.631,42.767-1727.631,32.427z"/>
</g>
<path class="st1" d="M-1528.683,28.863c0-2.357,1.433-4.726,2.819-7.017c1.347-2.229,2.74-4.532,2.242-6.062
	c-0.533-1.638-3.09-2.703-5.562-3.733c-2.41-1.004-4.903-2.042-6.228-3.861c-1.342-1.843-1.568-4.555-1.786-7.179
	c-0.22-2.647-0.448-5.384-1.812-6.378c-1.341-0.977-3.994-0.357-6.562,0.242c-2.578,0.601-5.242,1.224-7.437,0.509
	c-2.1-0.684-3.835-2.709-5.514-4.667c-1.76-2.055-3.581-4.18-5.358-4.18c-1.777,0-3.598,2.125-5.359,4.179
	c-1.679,1.958-3.414,3.984-5.514,4.667c-2.194,0.715-4.86,0.093-7.437-0.509c-2.567-0.6-5.222-1.219-6.562-0.242
	c-1.364,0.994-1.592,3.731-1.811,6.377c-0.218,2.624-0.444,5.337-1.787,7.18c-1.324,1.819-3.817,2.857-6.227,3.861
	c-2.472,1.029-5.029,2.095-5.561,3.732c-0.499,1.53,0.895,3.834,2.242,6.063c1.386,2.291,2.819,4.661,2.819,7.017
	s-1.432,4.726-2.819,7.017c-1.347,2.229-2.74,4.533-2.242,6.063c0.533,1.638,3.09,2.703,5.561,3.732
	c2.41,1.004,4.904,2.042,6.229,3.862c1.342,1.843,1.568,4.556,1.786,7.179c0.22,2.647,0.447,5.384,1.812,6.379
	c1.338,0.976,3.996,0.357,6.562-0.243c1.755-0.409,3.551-0.828,5.211-0.828c0.778,0,1.525,0.092,2.225,0.319
	c2.1,0.684,3.835,2.71,5.514,4.668c1.761,2.055,3.583,4.18,5.36,4.18s3.598-2.125,5.359-4.18c1.679-1.958,3.414-3.984,5.514-4.667
	c2.195-0.714,4.86-0.092,7.437,0.508c2.567,0.6,5.221,1.219,6.562,0.242c1.364-0.993,1.592-3.731,1.812-6.378
	c0.218-2.623,0.444-5.336,1.787-7.178c1.324-1.82,3.817-2.858,6.228-3.862c2.471-1.03,5.028-2.095,5.561-3.733
	c0.499-1.53-0.895-3.834-2.242-6.063C-1527.251,33.589-1528.683,31.22-1528.683,28.863z"/>
<path d="M-1519.994,34.998c-1.302-2.153-2.649-4.381-2.649-6.135s1.347-3.982,2.649-6.136c1.806-2.987,3.674-6.076,2.719-9.008
	c-0.995-3.054-4.406-4.475-7.705-5.849c-2.255-0.939-4.586-1.91-5.548-3.232c-0.982-1.347-1.193-3.887-1.398-6.344
	c-0.294-3.535-0.598-7.19-3.159-9.056c-2.537-1.847-6.087-1.02-9.52-0.219c-2.419,0.564-4.923,1.148-6.535,0.621
	c-1.51-0.491-3.129-2.381-4.695-4.209c-2.345-2.736-4.77-5.566-8.045-5.566s-5.699,2.83-8.046,5.568
	c-1.566,1.827-3.185,3.717-4.695,4.209c-1.614,0.526-4.116-0.057-6.534-0.621c-3.435-0.801-6.984-1.631-9.52,0.218
	c-2.562,1.866-2.866,5.521-3.16,9.055c-0.204,2.457-0.415,4.998-1.398,6.345c-0.961,1.322-3.293,2.292-5.548,3.231
	c-3.298,1.374-6.71,2.795-7.704,5.85c-0.956,2.933,0.911,6.023,2.719,9.011c1.302,2.153,2.648,4.381,2.648,6.135
	s-1.347,3.982-2.648,6.135c-1.806,2.988-3.675,6.077-2.719,9.011c0.995,3.054,4.406,4.475,7.705,5.85
	c2.254,0.939,4.586,1.91,5.548,3.231c0.982,1.348,1.193,3.888,1.398,6.346c0.294,3.535,0.597,7.189,3.159,9.056
	c2.536,1.847,6.087,1.018,9.521,0.218c2.416-0.564,4.92-1.15,6.533-0.621c1.51,0.491,3.13,2.381,4.697,4.209
	c2.344,2.737,4.77,5.568,8.045,5.568s5.699-2.83,8.046-5.568c1.566-1.827,3.185-3.717,4.695-4.209
	c1.615-0.529,4.116,0.056,6.534,0.621c3.435,0.801,6.983,1.628,9.52-0.218c2.562-1.866,2.866-5.523,3.16-9.056
	c0.205-2.457,0.416-4.997,1.398-6.345c0.961-1.321,3.294-2.292,5.548-3.232c3.298-1.374,6.71-2.795,7.704-5.85
	C-1516.32,41.075-1518.187,37.986-1519.994,34.998z M-1540.598,11.984l-24.856,38.29c-0.938,1.34-1.87,1.806-3.504,1.914
	c-1.635,0.108-2.623-0.499-3.604-1.48l-14.144-16.172c-1.566-1.566-1.566-4.105,0-5.671l0.02-0.009c1.566-1.566,4.104-1.566,5.67,0
	l10.851,8.183l22.778-29.82c1.255-1.792,3.725-2.227,5.517-0.973l0.301,0.222C-1539.779,7.722-1539.343,10.191-1540.598,11.984z"/>
<path d="M-1647.716,32.065c-2.709-2.699-6.291-4.186-10.085-4.186c-3.789,0-7.366,1.482-10.061,4.161
	c-2.651-2.683-6.178-4.159-9.936-4.159c-3.66,0-7.229,1.404-10.048,3.953l-0.107,0.097l-0.103,0.102
	c-2.708,2.698-4.2,6.268-4.203,10.053c-0.002,3.798,1.495,7.385,4.213,10.097l20.162,20.143l4.24-4.225
	c2.638-2.627,5.27-5.256,7.901-7.886c2.674-2.671,5.348-5.341,8.025-8.01c2.716-2.705,4.211-6.281,4.211-10.07
	S-1645,34.77-1647.716,32.065z M-1651.95,47.954c-5.316,5.296-10.612,10.6-15.927,15.895l-15.927-15.911
	c-3.259-3.253-3.277-8.406-0.016-11.655c3.47-3.137,8.513-3.271,11.718,0v0l3.157,3.141c0.566,0.559,1.587,0.559,2.153,0
	l3.141-3.109c3.261-3.249,8.442-3.248,11.703,0C-1648.689,39.564-1648.689,44.706-1651.95,47.954z"/>
<path d="M-1445.005,54.493c-0.49,1.513-2.237,2.407-3.75,1.917l-24.33-7.883c-1.577-0.511-2.429-2.194-1.917-3.75
	c0.383-1.214,1.555-2.067,2.833-2.067c0.298,0,0.618,0.043,0.916,0.149l24.33,7.883c0.746,0.234,1.364,0.767,1.726,1.491
	C-1444.835,52.96-1444.771,53.748-1445.005,54.493z"/>
<path d="M-1407.403-13.744c-4.708,0-8.522,3.813-8.522,8.522v2.706l-66.15,20.836c-0.469-3.664-3.558-6.498-7.35-6.498
	c-4.112,0-7.457,3.345-7.457,7.456v19.174c0,4.112,3.345,7.457,7.457,7.457c3.792,0,6.881-2.833,7.35-6.498l4.538,1.427
	c-0.682,0.746-1.214,1.619-1.534,2.62c-1.236,3.792,0.852,7.904,4.666,9.118l24.33,7.883c0.724,0.234,1.47,0.362,2.216,0.362
	c3.153,0,5.923-2.024,6.903-5.006c0.362-1.108,0.405-2.258,0.234-3.366l24.798,7.797v2.706c0,4.708,3.813,8.522,8.522,8.522
	s8.522-3.813,8.522-8.522V-5.223C-1398.881-9.931-1402.695-13.744-1407.403-13.744z M-1486.229,19.64V38.11v0.341
	c0,1.768-1.427,3.196-3.196,3.196s-3.196-1.427-3.196-3.196V19.277c0-1.768,1.427-3.196,3.196-3.196s3.196,1.427,3.196,3.196V19.64z
	 M-1415.925,55.793l-66.043-20.814V22.771l66.043-20.814V55.793z M-1403.142,62.951c0,2.344-1.917,4.261-4.261,4.261
	s-4.261-1.917-4.261-4.261v-1.363V-3.859v-1.364c0-2.343,1.917-4.261,4.261-4.261s4.261,1.917,4.261,4.261V62.951z"/>
<path d="M-1300.881,22.864c-4.935,0-9,4.065-9,9c0,3.883,2.523,7.219,6,8.469v7.531c0,8.349-6.636,15-15,15s-15-6.651-15-15V30.677
	c11.273-1.475,20-11.141,20-22.812v-19c0-3.272-2.728-6-6-6h-0.688c-1.138-2.346-3.557-4-6.312-4c-3.831,0-7,3.169-7,7s3.169,7,7,7
	c2.765,0,5.18-1.64,6.312-4h0.688v19c0,9.47-7.53,17-17,17s-17-7.53-17-17v-19h0.688c1.133,2.36,3.547,4,6.312,4
	c3.831,0,7-3.169,7-7s-3.169-7-7-7c-2.755,0-5.175,1.654-6.312,4h-0.688c-3.272,0-6,2.728-6,6v19c0,11.672,8.727,21.337,20,22.812
	v17.187c0,11.573,9.42,21,21,21s21-9.427,21-21v-7.531c3.477-1.25,6-4.586,6-8.469
	C-1291.881,26.929-1295.946,22.864-1300.881,22.864z M-1300.881,34.864c-1.692,0-3-1.308-3-3c0-1.692,1.308-3,3-3
	c1.692,0,3,1.308,3,3C-1297.881,33.557-1299.189,34.864-1300.881,34.864z"/>
<path d="M-1207.881-25.136c-27.062,0-49,21.938-49,49s21.938,49,49,49s49-21.938,49-49S-1180.819-25.136-1207.881-25.136z
	 M-1177.881,26.864h-60c-1.657,0-3-1.343-3-3s1.343-3,3-3h60c1.657,0,3,1.343,3,3S-1176.224,26.864-1177.881,26.864z"/>
<path d="M-1051.381,16.764h-12.6v-17.4c0-13.1-10.6-23.7-23.7-23.7c-13.1,0-23.7,10.6-23.7,23.7v17.4h-12.6c-3.7,0-6.7,2.6-6.7,5.9
	l0.4,43.3c0,3.7,2.6,6.7,5.9,6.7h73.3c3.3,0,5.9-3,5.9-6.7l0.4-43.3C-1044.681,19.364-1047.681,16.764-1051.381,16.764z
	 M-1077.081,16.764h-21.2v-17.4c0-5.8,4.8-10.6,10.6-10.6s10.6,4.8,10.6,10.6V16.764z"/>
<path d="M-931.381,16.764h-46.6v-17.4c0-13.1-10.6-23.7-23.7-23.7c-13.1,0-23.7,10.6-23.7,23.7v6.5h13.1v-6.5
	c0-5.8,4.8-10.6,10.6-10.6s10.6,4.8,10.6,10.6v17.4h-12.9c-3.7,0-6.7,2.6-6.7,5.9l0.4,43.3c0,3.7,2.6,6.7,5.9,6.7h73.3
	c3.3,0,5.9-3,5.9-6.7l0.4-43.3C-924.681,19.364-927.681,16.764-931.381,16.764z"/>
<g>
	<path d="M-767.381-16.636v13h-13v-13H-767.381 M-765.381-22.636h-17c-2.2,0-4,1.8-4,4v17c0,2.2,1.8,4,4,4h17c2.2,0,4-1.8,4-4v-17
		C-761.381-20.836-763.181-22.636-765.381-22.636L-765.381-22.636z"/>
</g>
<g>
	<path d="M-734.381-16.636v13h-13v-13H-734.381 M-732.381-22.636h-17c-2.2,0-4,1.8-4,4v17c0,2.2,1.8,4,4,4h17c2.2,0,4-1.8,4-4v-17
		C-728.381-20.836-730.181-22.636-732.381-22.636L-732.381-22.636z"/>
</g>
<g>
	<path d="M-701.381-16.636v13h-13v-13H-701.381 M-699.381-22.636h-17c-2.2,0-4,1.8-4,4v17c0,2.2,1.8,4,4,4h17c2.2,0,4-1.8,4-4v-17
		C-695.381-20.836-697.181-22.636-699.381-22.636L-699.381-22.636z"/>
</g>
<g>
	<path d="M-767.381,16.364v13h-13v-13H-767.381 M-765.381,10.364h-17c-2.2,0-4,1.8-4,4v17c0,2.2,1.8,4,4,4h17c2.2,0,4-1.8,4-4v-17
		C-761.381,12.164-763.181,10.364-765.381,10.364L-765.381,10.364z"/>
</g>
<g>
	<path d="M-734.381,16.364v13h-13v-13H-734.381 M-732.381,10.364h-17c-2.2,0-4,1.8-4,4v17c0,2.2,1.8,4,4,4h17c2.2,0,4-1.8,4-4v-17
		C-728.381,12.164-730.181,10.364-732.381,10.364L-732.381,10.364z"/>
</g>
<g>
	<path d="M-701.381,16.364v13h-13v-13H-701.381 M-699.381,10.364h-17c-2.2,0-4,1.8-4,4v17c0,2.2,1.8,4,4,4h17c2.2,0,4-1.8,4-4v-17
		C-695.381,12.164-697.181,10.364-699.381,10.364L-699.381,10.364z"/>
</g>
<g>
	<path d="M-767.381,49.364v13h-13v-13H-767.381 M-765.381,43.364h-17c-2.2,0-4,1.8-4,4v17c0,2.2,1.8,4,4,4h17c2.2,0,4-1.8,4-4v-17
		C-761.381,45.164-763.181,43.364-765.381,43.364L-765.381,43.364z"/>
</g>
<g>
	<path d="M-734.381,49.364v13h-13v-13H-734.381 M-732.381,43.364h-17c-2.2,0-4,1.8-4,4v17c0,2.2,1.8,4,4,4h17c2.2,0,4-1.8,4-4v-17
		C-728.381,45.164-730.181,43.364-732.381,43.364L-732.381,43.364z"/>
</g>
<g>
	<path d="M-701.381,49.364v13h-13v-13H-701.381 M-699.381,43.364h-17c-2.2,0-4,1.8-4,4v17c0,2.2,1.8,4,4,4h17c2.2,0,4-1.8,4-4v-17
		C-695.381,45.164-697.181,43.364-699.381,43.364L-699.381,43.364z"/>
</g>
<g>
	<path d="M-885.381,2.364h-17c-2.2,0-4-1.8-4-4v-17c0-2.2,1.8-4,4-4h17c2.2,0,4,1.8,4,4v17
		C-881.381,0.564-883.181,2.364-885.381,2.364z"/>
</g>
<g>
	<path d="M-852.381,2.364h-17c-2.2,0-4-1.8-4-4v-17c0-2.2,1.8-4,4-4h17c2.2,0,4,1.8,4,4v17
		C-848.381,0.564-850.181,2.364-852.381,2.364z"/>
</g>
<g>
	<path d="M-819.381,2.364h-17c-2.2,0-4-1.8-4-4v-17c0-2.2,1.8-4,4-4h17c2.2,0,4,1.8,4,4v17
		C-815.381,0.564-817.181,2.364-819.381,2.364z"/>
</g>
<g>
	<path d="M-885.381,35.364h-17c-2.2,0-4-1.8-4-4v-17c0-2.2,1.8-4,4-4h17c2.2,0,4,1.8,4,4v17
		C-881.381,33.564-883.181,35.364-885.381,35.364z"/>
</g>
<g>
	<path d="M-852.381,35.364h-17c-2.2,0-4-1.8-4-4v-17c0-2.2,1.8-4,4-4h17c2.2,0,4,1.8,4,4v17
		C-848.381,33.564-850.181,35.364-852.381,35.364z"/>
</g>
<g>
	<path d="M-819.381,35.364h-17c-2.2,0-4-1.8-4-4v-17c0-2.2,1.8-4,4-4h17c2.2,0,4,1.8,4,4v17
		C-815.381,33.564-817.181,35.364-819.381,35.364z"/>
</g>
<g>
	<path d="M-885.381,68.364h-17c-2.2,0-4-1.8-4-4v-17c0-2.2,1.8-4,4-4h17c2.2,0,4,1.8,4,4v17
		C-881.381,66.564-883.181,68.364-885.381,68.364z"/>
</g>
<g>
	<path d="M-852.381,68.364h-17c-2.2,0-4-1.8-4-4v-17c0-2.2,1.8-4,4-4h17c2.2,0,4,1.8,4,4v17
		C-848.381,66.564-850.181,68.364-852.381,68.364z"/>
</g>
<g>
	<path d="M-819.381,68.364h-17c-2.2,0-4-1.8-4-4v-17c0-2.2,1.8-4,4-4h17c2.2,0,4,1.8,4,4v17
		C-815.381,66.564-817.181,68.364-819.381,68.364z"/>
</g>
<path d="M-571.4,0.908c-0.529-0.744-1.385-1.187-2.298-1.187h-74.105l-4.977-19.007c-0.325-1.241-1.445-2.104-2.726-2.104h-10.556
	c-1.557,0-2.818,1.261-2.818,2.818s1.261,2.818,2.818,2.818h8.381l15.989,61.056c0.323,1.241,1.444,2.104,2.725,2.104h51.195
	c1.556,0,2.818-1.261,2.818-2.818c0-1.557-1.261-2.818-2.818-2.818h-49.021l-2.026-7.736h55.094c1.198,0,2.264-0.757,2.66-1.888
	L-571.04,3.47C-570.737,2.607-570.873,1.653-571.4,0.908z M-585.726,28.397h-54.569l-6.033-23.04h68.659L-585.726,28.397z
	 M-630.14,49.751c-5.064,0-9.184,4.12-9.184,9.184s4.12,9.185,9.184,9.185s9.184-4.121,9.184-9.185S-625.075,49.751-630.14,49.751z
	 M-630.14,62.485c-1.957,0-3.548-1.593-3.548-3.549c0-1.957,1.591-3.548,3.548-3.548c1.957,0,3.548,1.591,3.548,3.548
	C-626.592,60.893-628.182,62.485-630.14,62.485z M-600.621,49.751c-5.064,0-9.184,4.12-9.184,9.184s4.12,9.185,9.184,9.185
	c5.065,0,9.186-4.121,9.186-9.185S-595.556,49.751-600.621,49.751z M-600.621,62.485c-1.957,0-3.548-1.593-3.548-3.549
	c0-1.957,1.591-3.548,3.548-3.548c1.958,0,3.55,1.591,3.55,3.548C-597.071,60.893-598.663,62.485-600.621,62.485z"/>
<g>
	<path d="M-520.554-6.093c-0.276,0-0.5-0.224-0.5-0.5v-10c0-0.276,0.224-0.5,0.5-0.5s0.5,0.224,0.5,0.5v10
		C-520.054-6.316-520.278-6.093-520.554-6.093z"/>
	<path d="M-517.054-6.093c-0.276,0-0.5-0.224-0.5-0.5v-10c0-0.276,0.224-0.5,0.5-0.5s0.5,0.224,0.5,0.5v10
		C-516.554-6.316-516.778-6.093-517.054-6.093z"/>
</g>
<path d="M-436.8-15.1h-0.23c-1.715,0.016-3.094,1.414-3.089,3.129v40.536l-28.67,28.67c-1.223,1.206-1.236,3.174-0.031,4.397
	c0.052,0.053,0.105,0.103,0.161,0.152c7.936,6.835,18.066,10.586,28.54,10.566c0.76,0,1.523-0.02,2.289-0.06
	c24.149-1.248,42.714-21.837,41.466-45.987C-397.502,4.281-414.84-13.458-436.83-15.1L-436.8-15.1z M-406.56,29.884
	c-0.76,17.294-14.478,31.21-31.759,32.219c-0.59,0-1.19,0-1.769,0c-5.371,0.002-10.663-1.284-15.435-3.749l22.622-22.572
	c1.918-1.913,2.997-4.509,2.999-7.217V-3.424c14.4,4.564,23.962,18.205,23.342,33.298V29.884z M-454.484,29.804l-23.712,22.742
	c-1.054,1.039-2.75,1.027-3.789-0.027c-0.119-0.121-0.226-0.252-0.32-0.393c-4.238-6.36-6.725-13.725-7.207-21.353
	c-0.083-1.477,1.048-2.742,2.525-2.825c0.051-0.003,0.103-0.004,0.154-0.004h31.599c0.596,0.009,1.072,0.5,1.062,1.097
	c-0.005,0.284-0.12,0.554-0.323,0.753L-454.484,29.804z M-451.954,18.108h-39.836c-1.386,0.002-2.511-1.119-2.514-2.505
	c0-0.052,0.001-0.103,0.004-0.154c1.339-22.101,18.964-39.726,41.066-41.066c1.384-0.077,2.568,0.982,2.645,2.365
	c0.002,0.045,0.004,0.089,0.004,0.134v39.846c0,0.756-0.613,1.37-1.37,1.37l0,0V18.108z"/>
<path d="M-286.729,12.939c-5.016,0-9.22,3.601-10.198,8.34h-14.986c-0.342-2.187-1.217-4.185-2.477-5.896l10.165-10.165
	c1.448,0.917,3.155,1.466,4.984,1.466c5.158,0,9.384-4.226,9.384-9.384s-4.226-9.384-9.384-9.384c-5.157,0-9.383,4.226-9.383,9.384
	c0,1.825,0.52,3.538,1.434,4.984l-10.132,10.135c-1.709-1.254-3.717-2.103-5.896-2.444V-5.012c4.738-0.976,8.34-5.182,8.34-10.198
	c-0.002-5.733-4.694-10.425-10.427-10.425c-5.733,0-10.425,4.692-10.425,10.425c0,5.016,3.601,9.22,8.34,10.198V9.974
	c-2.178,0.341-4.188,1.19-5.897,2.444l-10.133-10.133c0.912-1.446,1.434-3.16,1.434-4.984c0-5.157-4.227-9.384-9.384-9.384
	s-9.384,4.226-9.384,9.384s4.227,9.384,9.384,9.384c1.831,0,3.536-0.549,4.984-1.466l10.165,10.165
	c-1.259,1.713-2.135,3.712-2.476,5.896h-14.986c-0.976-4.739-5.182-8.34-10.198-8.34c-5.733,0-10.425,4.692-10.425,10.425
	c0,5.733,4.691,10.425,10.425,10.425c5.016,0,9.22-3.601,10.198-8.34h14.986c0.341,2.178,1.19,4.188,2.443,5.896l-10.133,10.133
	c-1.445-0.913-3.16-1.433-4.984-1.433c-5.157,0-9.384,4.226-9.384,9.384s4.227,9.384,9.384,9.384s9.384-4.226,9.384-9.384
	c0-1.831-0.549-3.536-1.466-4.986l10.165-10.165c1.713,1.26,3.711,2.136,5.897,2.477v14.986c-4.739,0.976-8.34,5.182-8.34,10.198
	c0,5.733,4.691,10.425,10.425,10.425c5.732,0,10.425-4.692,10.425-10.425c0-5.016-3.602-9.22-8.34-10.198V36.755
	c2.186-0.341,4.185-1.217,5.896-2.477l10.165,10.165c-0.916,1.448-1.465,3.154-1.465,4.984c0,5.157,4.226,9.384,9.383,9.384
	c5.158,0,9.384-4.226,9.384-9.384s-4.226-9.384-9.384-9.384c-1.824,0-3.538,0.521-4.984,1.433l-10.133-10.133
	c1.254-1.709,2.102-3.718,2.444-5.896h14.986c0.976,4.739,5.182,8.34,10.198,8.34c5.732,0,10.425-4.692,10.425-10.425
	C-276.304,17.63-280.997,12.939-286.729,12.939z M-299.241-7.911c2.904,0,5.213,2.309,5.213,5.212s-2.309,5.212-5.213,5.212
	c-2.903,0-5.212-2.309-5.212-5.212S-302.144-7.911-299.241-7.911z M-351.368,2.514c-2.903,0-5.213-2.309-5.213-5.212
	s2.31-5.212,5.213-5.212c2.903,0,5.213,2.309,5.213,5.212S-348.465,2.514-351.368,2.514z M-363.88,29.621
	c-3.479,0-6.256-2.777-6.256-6.256c0.002-3.479,2.776-6.256,6.256-6.256s6.256,2.777,6.256,6.256
	C-357.624,26.844-360.4,29.621-363.88,29.621z M-351.368,54.642c-2.903,0-5.213-2.309-5.213-5.212s2.31-5.212,5.213-5.212
	c2.903,0,5.213,2.309,5.213,5.212S-348.465,54.642-351.368,54.642z M-319.049,61.941c0,3.479-2.776,6.256-6.256,6.256
	s-6.256-2.777-6.256-6.256s2.776-6.256,6.256-6.256S-319.049,58.462-319.049,61.941z M-325.304-8.952
	c-3.479,0-6.256-2.777-6.256-6.256c0-3.481,2.776-6.256,6.256-6.256s6.256,2.777,6.256,6.256
	C-319.049-11.729-321.825-8.952-325.304-8.952z M-299.241,44.217c2.904,0,5.213,2.309,5.213,5.212s-2.309,5.212-5.213,5.212
	c-2.903,0-5.212-2.309-5.212-5.212S-302.144,44.217-299.241,44.217z M-286.729,29.621c-3.479,0-6.256-2.777-6.256-6.256
	c0-3.479,2.774-6.256,6.256-6.256c3.478,0,6.256,2.777,6.256,6.256C-280.473,26.844-283.251,29.621-286.729,29.621z"/>
<path d="M-203.053,51.769h-45.329v0.058h-3.813V18.608h3.813v29.347h45.329V51.769z M-196.016,42.909h-46.322
	c-1.779,0-3.178-1.398-3.178-3.178V5.411c0-1.78,1.398-3.178,3.178-3.178h66.098c1.78,0,3.178,1.398,3.178,3.178v13.007
	c-1.288,0.131-2.562,0.367-3.813,0.702v-6.083c-3.813,0-6.991-3.178-6.991-6.991h-50.209c0,3.813-3.178,6.991-6.991,6.991h-0.635
	v19.067h0.635c3.813,0,6.991,3.178,6.991,6.991h38.351C-195.933,40.341-196.033,41.615-196.016,42.909z M-180.053,6.046
	c0,1.78,1.398,3.178,3.178,3.178V6.046H-180.053z M-241.702,9.224h0.635c1.78,0,3.178-1.398,3.178-3.178h-3.813V9.224z
	 M-237.889,39.095c0-1.78-1.398-3.178-3.178-3.178h-0.635v3.178H-237.889z M-208.018,24.732v3.559
	c1.271-0.381,1.398-1.398,1.398-1.907C-206.619,25.749-207.001,25.24-208.018,24.732z M-211.45,20.029
	c0,0.636,0.381,1.017,1.271,1.398v-3.051C-210.941,18.63-211.45,19.266-211.45,20.029z M-199.374,12.91
	c5.466,5.466,5.466,14.364,0,19.829c-5.466,5.466-14.364,5.466-19.829,0c-5.466-5.466-5.466-14.364,0-19.829
	S-204.84,7.445-199.374,12.91z M-204.331,26.384c0-2.924-2.161-3.813-3.686-4.322v-3.686c0.636,0.254,1.271,0.636,1.652,1.271
	l0.508,0.636l1.398-1.652l-0.254-0.381c-0.89-1.144-2.034-1.78-3.305-2.034v-1.907h-2.034v1.78
	c-2.161,0.381-3.559,2.034-3.559,4.068c0,2.542,1.907,3.432,3.559,3.94v4.322c-1.017-0.254-1.78-1.017-2.161-1.525l-0.508-0.636
	l-1.398,1.78l0.254,0.381c0.89,1.271,2.288,2.034,3.813,2.288v1.78h2.034v-1.78C-205.348,30.198-204.331,28.164-204.331,26.384z
	 M-158.414,44.939l-0.15,16.182c0,1.383-0.972,2.504-2.205,2.504h-27.393c-1.233,0-2.205-1.121-2.205-2.504l-0.15-16.182
	c0-1.233,1.121-2.205,2.504-2.205h4.709v-6.503c0-4.896,3.961-8.857,8.857-8.857c4.896,0,8.857,3.961,8.857,8.857v6.503h4.709
	C-159.498,42.734-158.377,43.705-158.414,44.939z M-170.485,36.231c0-2.168-1.794-3.961-3.961-3.961s-3.961,1.794-3.961,3.961v6.503
	h7.923V36.231z"/>
<path d="M-85.304,1c-7.714,0-13.99,6.275-13.99,13.989s6.276,13.99,13.99,13.99s13.989-6.275,13.989-13.99S-77.59,1-85.304,1z
	 M-85.304,26.08c-6.116,0-11.093-4.976-11.093-11.093s4.978-11.089,11.093-11.089c6.115,0,11.091,4.974,11.091,11.09
	S-79.187,26.08-85.304,26.08z"/>
<path d="M-77.811,30.261c-0.773-0.207-1.567,0.266-1.766,1.039c-0.201,0.774,0.264,1.564,1.038,1.766
	c10.641,2.756,15.8,8.17,16.722,17.553c0.047,0.482-0.16,0.821-0.342,1.023c-0.297,0.329-0.736,0.516-1.201,0.516h-43.891
	c-0.464,0-0.902-0.187-1.2-0.516c-0.182-0.201-0.39-0.54-0.342-1.023c0.924-9.383,6.081-14.797,16.722-17.553
	c0.773-0.201,1.24-0.991,1.039-1.766c-0.2-0.775-0.992-1.247-1.768-1.039c-11.672,3.023-17.847,9.589-18.88,20.076
	c-0.117,1.2,0.266,2.355,1.081,3.253c0.844,0.931,2.065,1.468,3.346,1.468h43.891c1.282,0,2.502-0.536,3.349-1.468
	c0.815-0.897,1.196-2.052,1.08-3.253C-59.965,39.85-66.139,33.284-77.811,30.261z"/>
<path d="M-45.607,15.361c0-5.984-4.868-10.852-10.854-10.852c-5.987,0-10.855,4.868-10.855,10.852
	c0,5.985,4.868,10.855,10.855,10.855C-50.475,26.216-45.607,21.346-45.607,15.361z M-64.416,15.361c0-4.385,3.568-7.955,7.956-7.955
	c4.387,0,7.956,3.57,7.956,7.955c0,4.388-3.57,7.958-7.956,7.958C-60.849,23.317-64.416,19.749-64.416,15.361z"/>
<path d="M-50.751,27.717c-0.773-0.201-1.566,0.264-1.766,1.038c-0.201,0.775,0.264,1.564,1.038,1.768
	c7.81,2.022,11.596,5.985,12.272,12.848c0.017,0.186-0.037,0.348-0.165,0.489c-0.154,0.17-0.385,0.267-0.632,0.267h-16.241
	c-0.801,0-1.45,0.649-1.45,1.45c0,0.801,0.649,1.45,1.45,1.45h16.242c1.064,0,2.076-0.445,2.78-1.22
	c0.679-0.748,0.999-1.714,0.901-2.718C-37.113,35.054-41.832,30.024-50.751,27.717z"/>
<path d="M-114.146,4.509c-5.985,0-10.854,4.868-10.854,10.852c0,5.985,4.868,10.855,10.854,10.855s10.855-4.87,10.855-10.855
	C-103.291,9.377-108.161,4.509-114.146,4.509z M-114.146,23.317c-4.387,0-7.956-3.57-7.956-7.958c0-4.385,3.57-7.955,7.956-7.955
	c4.388,0,7.956,3.57,7.956,7.955C-106.191,19.749-109.758,23.317-114.146,23.317z"/>
<path d="M-112.915,45.576c0-0.801-0.649-1.45-1.447-1.45h-16.243c-0.247,0-0.477-0.097-0.63-0.267
	c-0.13-0.14-0.184-0.304-0.166-0.489c0.677-6.862,4.462-10.826,12.272-12.848c0.774-0.202,1.24-0.991,1.039-1.768
	c-0.201-0.774-0.995-1.24-1.766-1.038c-8.92,2.309-13.638,7.336-14.43,15.373c-0.098,1.003,0.224,1.97,0.902,2.718
	c0.704,0.774,1.717,1.219,2.779,1.219h16.243C-113.564,47.025-112.915,46.377-112.915,45.576z"/>
<path d="M30.045,3.321L4.572,28.794c-3.096,3.096-3.094,8.114,0,11.208c3.095,3.095,8.114,3.096,11.209,0.001l11.628-11.628
	c0.007,24.147,0.009,27.265-0.32,62.626c-0.041,4.378,3.472,7.958,7.852,7.999c2.213,0.019,4.225-0.869,5.676-2.321
	c1.417-1.417,2.3-3.371,2.322-5.53c0.331-35.451,0.328-38.568,0.321-62.805l0.001-0.602l10.351,10.351
	c3.095,3.095,8.114,3.094,11.207,0.001c3.096-3.096,3.096-8.114,0.001-11.209L41.254,3.319C38.16,0.227,33.139,0.227,30.045,3.321z"
	/>
</svg>
