<?xml version="1.0" encoding="utf-8"?>
<!-- Generator: Adobe Illustrator 21.0.2, SVG Export Plug-In . SVG Version: 6.00 Build 0)  -->
<svg version="1.1" id="Layer_1" xmlns="http://www.w3.org/2000/svg" xmlns:xlink="http://www.w3.org/1999/xlink" x="0px" y="0px"
	 viewBox="0 0 100 89" style="enable-background:new 0 0 100 89;" xml:space="preserve">
<path d="M97.811,66.694L62.47,7.312C59.922,2.659,55.158,0,49.951,0s-9.971,2.659-12.63,7.201L2.091,66.694
	c-2.77,4.542-2.77,10.192-0.111,14.735c2.659,4.542,7.423,7.423,12.851,7.423h70.35c5.429,0,10.192-2.77,12.851-7.423
	C100.692,76.886,100.692,71.236,97.811,66.694z M54.715,68.799c0,2.77-2.105,4.875-4.875,4.875c-2.77,0-4.875-2.105-4.875-4.875
	v-1.662c0-2.77,2.105-4.875,4.875-4.875c2.77,0,4.985,2.105,4.875,4.875V68.799z M54.715,54.618c0,2.77-2.105,4.875-4.875,4.875
	c-2.77,0-4.875-2.105-4.875-4.875V28.361c0-2.77,2.105-4.875,4.875-4.875c2.77,0,4.985,2.327,4.875,4.985V54.618z"/>
</svg>
