<svg xmlns="http://www.w3.org/2000/svg" viewBox="0 0 100 89"><path d="M97.811 66.694L62.47 7.312C59.922 2.659 55.158 0 49.951 0s-9.971 2.659-12.63 7.201L2.091 66.694c-2.77 4.542-2.77 10.192-.111 14.735 2.659 4.542 7.423 7.423 12.851 7.423h70.35c5.429 0 10.192-2.77 12.851-7.423 2.66-4.543 2.66-10.193-.221-14.735zm-43.096 2.105c0 2.77-2.105 4.875-4.875 4.875s-4.875-2.105-4.875-4.875v-1.662c0-2.77 2.105-4.875 4.875-4.875s4.985 2.105 4.875 4.875v1.662zm0-14.181c0 2.77-2.105 4.875-4.875 4.875s-4.875-2.105-4.875-4.875V28.361c0-2.77 2.105-4.875 4.875-4.875s4.985 2.327 4.875 4.985v26.147z"/></svg>