<?xml version="1.0" encoding="utf-8"?>
<!-- Generator: Adobe Illustrator 21.0.2, SVG Export Plug-In . SVG Version: 6.00 Build 0)  -->
<svg version="1.1" id="Layer_1" xmlns="http://www.w3.org/2000/svg" xmlns:xlink="http://www.w3.org/1999/xlink" x="0px" y="0px"
	 viewBox="0 0 92 92" style="enable-background:new 0 0 92 92;" xml:space="preserve">
<style type="text/css">
	.st0{display:none;}
	.st1{display:none;fill:none;stroke:#000000;stroke-width:5;stroke-miterlimit:10;}
	.st2{display:none;fill:none;stroke:#000000;stroke-width:5;stroke-linejoin:round;stroke-miterlimit:10;}
</style>
<g transform="translate(0,-952.36218)">
	<path d="M24.001,953.366c-1.657,0-3,1.343-3,3v64c0,1.657,1.343,3,3,3h64c1.657,0,3-1.343,3-3v-64c0.008-1.542-1.154-2.839-2.688-3
		c-0.104-0.005-0.208-0.005-0.312,0H24.001z M27.001,959.366h58v58h-58V959.366z M4.032,973.304
		c-1.657-0.017-3.014,1.312-3.032,2.969c0,0.031,0,0.063,0,0.094v64c0,1.657,1.343,3,3,3h64c1.657,0.023,3.019-1.301,3.042-2.958
		s-1.301-3.019-2.958-3.042c-0.028,0-0.057,0-0.085,0h-61v-61c0.034-1.657-1.281-3.028-2.937-3.062
		C4.053,973.304,4.042,973.304,4.032,973.304z"/>
</g>
</svg>
