<svg id="Layer_1" xmlns="http://www.w3.org/2000/svg" viewBox="0 0 92 92"><style>.st0,.st1,.st2{display:none}.st1,.st2{fill:none;stroke:#000;stroke-width:5;stroke-miterlimit:10}.st2{stroke-linejoin:round}</style><path d="M24.001 953.366a3 3 0 0 0-3 3v64a3 3 0 0 0 3 3h64a3 3 0 0 0 3-3v-64a3 3 0 0 0-2.688-3 3.247 3.247 0 0 0-.312 0h-64zm3 6h58v58h-58v-58zM4.032 973.304A3.001 3.001 0 0 0 1 976.273v64.094a3 3 0 0 0 3 3h64a3 3 0 1 0 .084-6H6.999v-61a3 3 0 0 0-2.937-3.062l-.03-.001z" transform="translate(0 -952.362)"/></svg>